<svg width="32" height="32" viewBox="0 0 32 32" fill="none" xmlns="http://www.w3.org/2000/svg">
<path fill-rule="evenodd" clip-rule="evenodd" d="M16.0001 5.62964C12.7273 5.62964 10.0742 8.28277 10.0742 11.5556C10.0742 14.8284 12.7273 17.4815 16.0001 17.4815C19.2729 17.4815 21.9261 14.8284 21.9261 11.5556C21.9261 8.28277 19.2729 5.62964 16.0001 5.62964Z" fill="white"/>
<path fill-rule="evenodd" clip-rule="evenodd" d="M26.3157 24.4484C23.8704 27.4306 20.1575 29.3333 16.0001 29.3333C11.8428 29.3333 8.12981 27.4306 5.68457 24.4485C7.56642 20.6623 12.0456 18.9629 16.0001 18.9629C19.9547 18.9629 24.4338 20.6623 26.3157 24.4484ZM6.21336 29.0314C6.63903 29.394 7.20428 29.8182 7.91697 30.2388C9.68978 31.285 12.3471 32.2918 15.9763 32.2962C12.3128 32.291 8.93263 31.0769 6.21336 29.0314Z" fill="white"/>
</svg>
