<svg width="90" height="80" viewBox="0 0 90 80" fill="none" xmlns="http://www.w3.org/2000/svg">
<mask id="mask0" mask-type="alpha" maskUnits="userSpaceOnUse" x="0" y="0" width="90" height="80">
<path d="M0 0H90V80H0V0Z" fill="#C4C4C4"/>
</mask>
<g mask="url(#mask0)">
<path d="M51 41C46.9167 43.1174 43.4167 43.6221 37 41.1876L44 53.5L51 41Z" fill="#CCCCFF"/>
<path d="M56 32C56 38.6274 50.6274 44 44 44C37.3726 44 32 38.6274 32 32C32 25.3726 37.3726 20 44 20C50.6274 20 56 25.3726 56 32Z" fill="white"/>
<path fill-rule="evenodd" clip-rule="evenodd" d="M44 20.75C37.7868 20.75 32.75 25.7868 32.75 32C32.75 38.2132 37.7868 43.25 44 43.25C50.2132 43.25 55.25 38.2132 55.25 32C55.25 25.7868 50.2132 20.75 44 20.75ZM31.25 32C31.25 24.9584 36.9584 19.25 44 19.25C51.0416 19.25 56.75 24.9584 56.75 32C56.75 39.0416 51.0416 44.75 44 44.75C36.9584 44.75 31.25 39.0416 31.25 32Z" fill="#7373FF"/>
<path fill-rule="evenodd" clip-rule="evenodd" d="M50.621 41.5822L44 53.5001L37.7589 41.4636C28.6486 44.1507 22 52.5744 22 62.5499C22.001 62.4525 22.4166 62.6973 23.1816 63.1479C26.1431 64.8924 34.3414 69.7217 43.9956 69.7217C56.1435 69.7217 65.9912 64.3818 65.9912 62.5499C65.9912 52.7168 59.5311 44.3916 50.621 41.5822Z" fill="white"/>
<path fill-rule="evenodd" clip-rule="evenodd" d="M43.9544 56.6708L37.0142 43.286C29.4113 46.0382 23.9041 53.1578 23.5213 61.6079C23.6433 61.679 23.7733 61.7555 23.9081 61.835L23.9429 61.8555C26.9052 63.6005 34.7887 68.2217 43.9956 68.2217C49.8595 68.2217 55.1726 66.9306 59.0003 65.4266C60.9173 64.6735 62.4216 63.8826 63.4182 63.2036C63.9211 62.8611 64.2504 62.5769 64.436 62.3733C64.457 62.3503 64.4748 62.3298 64.4899 62.3118C64.3915 53.6835 58.9536 46.3331 51.3196 43.4135L43.9544 56.6708ZM50.621 41.5822C59.5311 44.3916 65.9912 52.7168 65.9912 62.5499C65.9912 64.3818 56.1435 69.7217 43.9956 69.7217C34.4994 69.7217 26.4119 65.0492 23.3312 63.236C23.4491 63.0107 23.4914 62.7862 23.4988 62.6094C23.4994 62.5945 23.4998 62.58 23.4999 62.5658L22.1297 62.5585C22.1234 62.5559 22.1173 62.5534 22.1114 62.5511C22.1104 62.5507 22.1094 62.5503 22.1084 62.5499C22.037 62.5222 22.0003 62.521 22 62.5499C22 62.0387 22.0175 61.5316 22.0518 61.0292C22.6878 51.7261 29.1155 44.0131 37.7589 41.4636L44 53.5001L50.621 41.5822ZM64.5623 62.2126C64.5627 62.2126 64.5601 62.2178 64.5532 62.2285C64.5584 62.218 64.5619 62.2126 64.5623 62.2126Z" fill="#7373FF"/>
<path fill-rule="evenodd" clip-rule="evenodd" d="M44.5 76C65.2107 76 82 59.2107 82 38.5C82 17.7893 65.2107 1 44.5 1C23.7893 1 7 17.7893 7 38.5C7 59.2107 23.7893 76 44.5 76ZM44.5 67C60.2401 67 73 54.2401 73 38.5C73 22.7599 60.2401 10 44.5 10C28.7599 10 16 22.7599 16 38.5C16 54.2401 28.7599 67 44.5 67Z" fill="#CCCCFF"/>
<path fill-rule="evenodd" clip-rule="evenodd" d="M44.5 74.5C64.3823 74.5 80.5 58.3823 80.5 38.5C80.5 18.6177 64.3823 2.5 44.5 2.5C24.6177 2.5 8.5 18.6177 8.5 38.5C8.5 58.3823 24.6177 74.5 44.5 74.5ZM74.5 38.5C74.5 55.0685 61.0685 68.5 44.5 68.5C27.9315 68.5 14.5 55.0685 14.5 38.5C14.5 21.9315 27.9315 8.5 44.5 8.5C61.0685 8.5 74.5 21.9315 74.5 38.5ZM82 38.5C82 59.2107 65.2107 76 44.5 76C23.7893 76 7 59.2107 7 38.5C7 17.7893 23.7893 1 44.5 1C65.2107 1 82 17.7893 82 38.5ZM73 38.5C73 54.2401 60.2401 67 44.5 67C28.7599 67 16 54.2401 16 38.5C16 22.7599 28.7599 10 44.5 10C60.2401 10 73 22.7599 73 38.5Z" fill="#7373FF"/>
<path d="M80.9954 61.7421H78.3447C78.0627 60.6141 77.6115 59.5425 76.9911 58.5838L78.8523 56.7226C78.9651 56.6098 79.0215 56.4406 79.0215 56.2714C79.0215 56.1022 78.9651 55.933 78.8523 55.8202L75.8631 52.7747C75.6375 52.5491 75.2427 52.5491 75.0171 52.7747L73.156 54.6358C72.1972 54.0718 71.1256 53.6206 69.9976 53.3386V50.6879C69.9976 50.3495 69.7156 50.0675 69.3772 50.0675H65.0909C64.7525 50.0675 64.4705 50.3495 64.4705 50.6879V53.3386C63.3425 53.6206 62.2709 54.0718 61.3122 54.6358L59.451 52.7747C59.2254 52.5491 58.8306 52.5491 58.605 52.7747L55.5595 55.8202C55.3339 56.0458 55.3339 56.4406 55.5595 56.6662L57.4206 58.5274C56.6874 59.5425 56.2362 60.6141 55.9542 61.7421H53.3035C52.9651 61.7421 52.6831 62.0241 52.6831 62.3625V66.6488C52.6831 66.9872 52.9651 67.2692 53.3035 67.2692H55.9542C56.2362 68.3972 56.6874 69.4688 57.3078 70.484L55.4467 72.3451C55.2211 72.5707 55.2211 72.9655 55.4467 73.1911L58.4922 76.2367C58.605 76.3495 58.7742 76.4059 58.9434 76.4059C59.1126 76.4059 59.2818 76.3495 59.3946 76.2367L61.2558 74.3755C62.2145 74.9959 63.2861 75.4471 64.4705 75.7291V78.3798C64.4705 78.7182 64.7525 79.0002 65.0909 79.0002H69.3772C69.7156 79.0002 69.9976 78.7182 69.9976 78.3798V75.7291C71.1256 75.4471 72.1972 74.9959 73.2124 74.3755L75.0735 76.2367C75.1863 76.3495 75.3555 76.4059 75.5247 76.4059C75.6939 76.4059 75.8631 76.3495 75.9759 76.2367L79.0215 73.1911C79.1343 73.0783 79.1907 72.9091 79.1907 72.7399C79.1907 72.5707 79.1343 72.4015 79.0215 72.2887L77.1603 70.4276C77.7807 69.4688 78.1755 68.3972 78.4575 67.2128H81.1082C81.4466 67.2128 81.7286 66.9308 81.7286 66.5924V62.3061C81.6158 62.0241 81.3338 61.7421 80.9954 61.7421Z" fill="white"/>
<path fill-rule="evenodd" clip-rule="evenodd" d="M63.7205 50.6879C63.7205 49.9353 64.3383 49.3175 65.0909 49.3175H69.3772C70.1298 49.3175 70.7476 49.9353 70.7476 50.6879V52.7677C71.5462 53.0085 72.3117 53.3272 73.0263 53.7048L74.4868 52.2443C75.0053 51.7258 75.8749 51.7258 76.3934 52.2443L76.3984 52.2493L76.3984 52.2493L79.3855 55.2928C79.6686 55.5778 79.7715 55.9544 79.7715 56.2714C79.7715 56.5894 79.6679 56.9676 79.3826 57.2529L77.9373 58.6982C78.3476 59.4213 78.6732 60.1924 78.9154 60.9921H80.9954C81.7517 60.9921 82.2461 61.5805 82.425 62.0276C82.4604 62.1161 82.4786 62.2107 82.4786 62.3061V66.5924C82.4786 67.345 81.8608 67.9628 81.1082 67.9628H79.0386C78.8091 68.7866 78.5113 69.572 78.1038 70.3104L79.5518 71.7584C79.8371 72.0437 79.9407 72.4219 79.9407 72.7399C79.9407 73.058 79.8371 73.4362 79.5518 73.7214L76.5062 76.767C76.221 77.0523 75.8428 77.1559 75.5247 77.1559C75.2067 77.1559 74.8285 77.0523 74.5432 76.767L73.0896 75.3134C72.3382 75.7259 71.5574 76.055 70.7476 76.2999V78.3798C70.7476 79.1324 70.1298 79.7502 69.3772 79.7502H65.0909C64.3383 79.7502 63.7205 79.1324 63.7205 78.3798V76.3065C62.8849 76.0635 62.1009 75.7356 61.3703 75.3216L59.9249 76.767C59.6396 77.0523 59.2615 77.1559 58.9434 77.1559C58.6253 77.1559 58.2471 77.0523 57.9619 76.767L54.9163 73.7214C54.3978 73.2029 54.3978 72.3333 54.9163 71.8148L56.3699 70.3612C55.9574 69.6098 55.6283 68.829 55.3834 68.0192H53.3035C52.5509 68.0192 51.9331 67.4014 51.9331 66.6488V62.3625C51.9331 61.6099 52.5509 60.9921 53.3035 60.9921H55.3839C55.6317 60.179 55.9752 59.3872 56.454 58.6214L55.0291 57.1965C54.5106 56.678 54.5106 55.8084 55.0291 55.2899L58.0747 52.2443C58.5932 51.7258 59.4628 51.7258 59.9813 52.2443L61.4418 53.7048C62.1564 53.3272 62.9219 53.0085 63.7205 52.7677V50.6879ZM65.2205 50.8175V53.3386C65.2205 53.6828 64.9863 53.9828 64.6524 54.0663C63.5976 54.33 62.5925 54.7528 61.6924 55.2823C61.3979 55.4555 61.0235 55.4078 60.7818 55.1662L59.028 53.4123L56.1971 56.2432L57.951 57.997C58.2112 58.2573 58.2442 58.6681 58.0286 58.9665C57.3597 59.8927 56.9444 60.8737 56.6819 61.924C56.5984 62.2579 56.2984 62.4921 55.9542 62.4921H53.4331V66.5192H55.9542C56.2984 66.5192 56.5984 66.7534 56.6819 67.0873C56.945 68.1398 57.3661 69.141 57.9478 70.0929C58.1284 70.3885 58.0831 70.7693 57.8382 71.0143L56.0843 72.7681L58.9434 75.6272L60.7254 73.8452C60.9755 73.5951 61.3663 73.5537 61.6632 73.7458C62.5457 74.3169 63.5373 74.7359 64.6442 74.9995C64.9821 75.0799 65.2205 75.3818 65.2205 75.7291V78.2502H69.2476V75.7291C69.2476 75.3849 69.4818 75.0849 69.8157 75.0015C70.8682 74.7383 71.8694 74.3172 72.8213 73.7355C73.1169 73.5549 73.4977 73.6002 73.7427 73.8452L75.5247 75.6272L78.412 72.7399L76.63 70.9579C76.3799 70.7078 76.3385 70.317 76.5306 70.0201C77.0904 69.1549 77.4585 68.1704 77.7279 67.0391C77.8083 66.7012 78.1102 66.4628 78.4575 66.4628H80.9786V62.5056C80.9744 62.5014 80.9703 62.4977 80.9665 62.4945C80.9654 62.4936 80.9644 62.4928 80.9635 62.4921H78.3447C78.0005 62.4921 77.7005 62.2579 77.6171 61.924C77.3535 60.8697 76.9335 59.8754 76.3614 58.9912C76.1693 58.6943 76.2107 58.3035 76.4608 58.0534L78.2435 56.2707L75.4391 53.4134L73.6863 55.1662C73.4446 55.4078 73.0702 55.4555 72.7757 55.2823C71.8756 54.7528 70.8705 54.33 69.8157 54.0663C69.4818 53.9828 69.2476 53.6828 69.2476 53.3386V50.8175H65.2205ZM80.9535 62.4849C80.9526 62.4845 80.9522 62.4843 80.9523 62.4843L80.9535 62.4849ZM75.4456 75.7063C75.4458 75.7061 75.446 75.7059 75.4462 75.7057L75.4456 75.7063ZM59.0222 75.706C59.0223 75.7061 59.0224 75.7062 59.0225 75.7063L59.0222 75.706ZM58.8643 75.7063C58.8644 75.7062 58.8645 75.7061 58.8646 75.706L58.8643 75.7063Z" fill="#7373FF"/>
<path d="M67.1778 70.7093C70.5729 70.7093 73.3253 67.957 73.3253 64.5618C73.3253 61.1666 70.5729 58.4143 67.1778 58.4143C63.7826 58.4143 61.0303 61.1666 61.0303 64.5618C61.0303 67.957 63.7826 70.7093 67.1778 70.7093Z" fill="#CCCCFF"/>
<path fill-rule="evenodd" clip-rule="evenodd" d="M67.1778 59.1643C64.1968 59.1643 61.7803 61.5808 61.7803 64.5618C61.7803 67.5428 64.1968 69.9593 67.1778 69.9593C70.1587 69.9593 72.5753 67.5428 72.5753 64.5618C72.5753 61.5808 70.1587 59.1643 67.1778 59.1643ZM60.2803 64.5618C60.2803 60.7524 63.3684 57.6643 67.1778 57.6643C70.9871 57.6643 74.0753 60.7524 74.0753 64.5618C74.0753 68.3712 70.9871 71.4593 67.1778 71.4593C63.3684 71.4593 60.2803 68.3712 60.2803 64.5618Z" fill="#7373FF"/>
</g>
</svg>
