<svg width="220" height="120" viewBox="0 0 220 120" fill="none" xmlns="http://www.w3.org/2000/svg">
<mask id="mask0" mask-type="alpha" maskUnits="userSpaceOnUse" x="50" y="4" width="120" height="80">
<rect x="50" y="4" width="120" height="80" fill="#C4C4C4"/>
</mask>
<g mask="url(#mask0)">
<path d="M116 45C111.917 47.1174 108.417 47.6221 102 45.1876L109 57.5L116 45Z" fill="#CCCCFF"/>
<circle cx="109" cy="36" r="12" fill="white" stroke="#7373FF" stroke-width="1.5"/>
<mask id="path-4-inside-1" fill="white">
<path fill-rule="evenodd" clip-rule="evenodd" d="M115.621 45.582L109 57.4998L102.759 45.4634C93.6486 48.1505 87 56.5741 87 66.5497C87.001 66.4523 87.4166 66.6971 88.1816 67.1477C91.1431 68.8922 99.3414 73.7214 108.996 73.7214C121.143 73.7214 130.991 68.3815 130.991 66.5497C130.991 56.7165 124.531 48.3913 115.621 45.582Z"/>
</mask>
<path fill-rule="evenodd" clip-rule="evenodd" d="M115.621 45.582L109 57.4998L102.759 45.4634C93.6486 48.1505 87 56.5741 87 66.5497C87.001 66.4523 87.4166 66.6971 88.1816 67.1477C91.1431 68.8922 99.3414 73.7214 108.996 73.7214C121.143 73.7214 130.991 68.3815 130.991 66.5497C130.991 56.7165 124.531 48.3913 115.621 45.582Z" fill="white"/>
<path d="M109 57.4998L107.668 58.1903L108.954 60.6705L110.311 58.2283L109 57.4998ZM115.621 45.582L116.072 44.1514L114.904 43.7832L114.31 44.8535L115.621 45.582ZM102.759 45.4634L104.091 44.7729L103.521 43.6747L102.335 44.0247L102.759 45.4634ZM87 66.5497H85.5L88.4999 66.5655L87 66.5497ZM88.1816 67.1477L88.9429 65.8552H88.9429L88.1816 67.1477ZM110.311 58.2283L116.932 46.3104L114.31 44.8535L107.689 56.7713L110.311 58.2283ZM101.427 46.1539L107.668 58.1903L110.332 56.8093L104.091 44.7729L101.427 46.1539ZM88.5 66.5497C88.5 57.2576 94.6929 49.4064 103.183 46.9021L102.335 44.0247C92.6044 46.8946 85.5 55.8906 85.5 66.5497H88.5ZM88.9429 65.8552C88.5761 65.6392 88.2431 65.4425 88.0044 65.3165C87.9034 65.2633 87.7237 65.1703 87.5335 65.1097C87.4811 65.0929 87.1867 64.9928 86.8192 65.0424C86.6038 65.0714 86.2342 65.1701 85.9195 65.5002C85.5887 65.8471 85.503 66.2542 85.5001 66.5338L88.4999 66.5655C88.4971 66.8329 88.4148 67.2305 88.0906 67.5706C87.7824 67.8937 87.4226 67.9882 87.2202 68.0155C86.8786 68.0615 86.6228 67.9681 86.6214 67.9676C86.5334 67.9395 86.5055 67.9177 86.6043 67.9698C86.7648 68.0545 87.0221 68.2056 87.4202 68.4401L88.9429 65.8552ZM108.996 72.2214C99.7887 72.2214 91.9052 67.6002 88.9429 65.8552L87.4202 68.4401C90.381 70.1841 98.8941 75.2214 108.996 75.2214V72.2214ZM129.491 66.5497C129.491 66.1827 129.683 66.1018 129.436 66.3731C129.25 66.5767 128.921 66.8608 128.418 67.2034C127.422 67.8823 125.917 68.6732 124 69.4264C120.173 70.9304 114.86 72.2214 108.996 72.2214V75.2214C115.28 75.2214 120.964 73.8426 125.097 72.2186C127.161 71.4078 128.878 70.5203 130.107 69.6828C130.717 69.2671 131.252 68.8335 131.653 68.3944C131.991 68.0231 132.491 67.3745 132.491 66.5497H129.491ZM115.17 47.0125C123.474 49.6309 129.491 57.3904 129.491 66.5497H132.491C132.491 56.0427 125.588 47.1518 116.072 44.1514L115.17 47.0125Z" fill="#7373FF" mask="url(#path-4-inside-1)"/>
<mask id="path-6-inside-2" fill="white">
<path fill-rule="evenodd" clip-rule="evenodd" d="M109.5 80C130.211 80 147 63.2107 147 42.5C147 21.7893 130.211 5 109.5 5C88.7893 5 72 21.7893 72 42.5C72 63.2107 88.7893 80 109.5 80ZM109.5 71C125.24 71 138 58.2401 138 42.5C138 26.7599 125.24 14 109.5 14C93.7599 14 81 26.7599 81 42.5C81 58.2401 93.7599 71 109.5 71Z"/>
</mask>
<path fill-rule="evenodd" clip-rule="evenodd" d="M109.5 80C130.211 80 147 63.2107 147 42.5C147 21.7893 130.211 5 109.5 5C88.7893 5 72 21.7893 72 42.5C72 63.2107 88.7893 80 109.5 80ZM109.5 71C125.24 71 138 58.2401 138 42.5C138 26.7599 125.24 14 109.5 14C93.7599 14 81 26.7599 81 42.5C81 58.2401 93.7599 71 109.5 71Z" fill="#CCCCFF"/>
<path d="M145.5 42.5C145.5 62.3823 129.382 78.5 109.5 78.5V81.5C131.039 81.5 148.5 64.0391 148.5 42.5H145.5ZM109.5 6.5C129.382 6.5 145.5 22.6177 145.5 42.5H148.5C148.5 20.9609 131.039 3.5 109.5 3.5V6.5ZM73.5 42.5C73.5 22.6177 89.6177 6.5 109.5 6.5V3.5C87.9609 3.5 70.5 20.9609 70.5 42.5H73.5ZM109.5 78.5C89.6177 78.5 73.5 62.3823 73.5 42.5H70.5C70.5 64.0391 87.9609 81.5 109.5 81.5V78.5ZM136.5 42.5C136.5 57.4117 124.412 69.5 109.5 69.5V72.5C126.069 72.5 139.5 59.0685 139.5 42.5H136.5ZM109.5 15.5C124.412 15.5 136.5 27.5883 136.5 42.5H139.5C139.5 25.9315 126.069 12.5 109.5 12.5V15.5ZM82.5 42.5C82.5 27.5883 94.5883 15.5 109.5 15.5V12.5C92.9315 12.5 79.5 25.9315 79.5 42.5H82.5ZM109.5 69.5C94.5883 69.5 82.5 57.4117 82.5 42.5H79.5C79.5 59.0685 92.9315 72.5 109.5 72.5V69.5Z" fill="#7373FF" mask="url(#path-6-inside-2)"/>
<path d="M145.995 65.742H143.345C143.063 64.614 142.611 63.5424 141.991 62.5836L143.852 60.7225C143.965 60.6097 144.021 60.4405 144.021 60.2713C144.021 60.1021 143.965 59.9329 143.852 59.8201L140.863 56.7745C140.638 56.5489 140.243 56.5489 140.017 56.7745L138.156 58.6357C137.197 58.0717 136.126 57.6205 134.998 57.3385V54.6878C134.998 54.3494 134.716 54.0674 134.377 54.0674H130.091C129.752 54.0674 129.471 54.3494 129.471 54.6878V57.3385C128.343 57.6205 127.271 58.0717 126.312 58.6357L124.451 56.7745C124.225 56.5489 123.831 56.5489 123.605 56.7745L120.559 59.8201C120.334 60.0457 120.334 60.4405 120.559 60.6661L122.421 62.5272C121.687 63.5424 121.236 64.614 120.954 65.742H118.303C117.965 65.742 117.683 66.024 117.683 66.3624V70.6487C117.683 70.9871 117.965 71.2691 118.303 71.2691H120.954C121.236 72.3971 121.687 73.4686 122.308 74.4838L120.447 76.345C120.221 76.5706 120.221 76.9654 120.447 77.191L123.492 80.2365C123.605 80.3493 123.774 80.4057 123.943 80.4057C124.113 80.4057 124.282 80.3493 124.395 80.2365L126.256 78.3754C127.215 78.9958 128.286 79.4469 129.471 79.7289V82.3797C129.471 82.7181 129.752 83.0001 130.091 83.0001H134.377C134.716 83.0001 134.998 82.7181 134.998 82.3797V79.7289C136.126 79.4469 137.197 78.9958 138.212 78.3754L140.074 80.2365C140.186 80.3493 140.356 80.4057 140.525 80.4057C140.694 80.4057 140.863 80.3493 140.976 80.2365L144.021 77.191C144.134 77.0782 144.191 76.909 144.191 76.7398C144.191 76.5706 144.134 76.4014 144.021 76.2886L142.16 74.4274C142.781 73.4687 143.175 72.3971 143.457 71.2127H146.108C146.447 71.2127 146.729 70.9307 146.729 70.5923V66.306C146.616 66.024 146.334 65.742 145.995 65.742Z" fill="white" stroke="#7373FF" stroke-width="1.5" stroke-miterlimit="10" stroke-linejoin="round"/>
<path d="M132.178 74.7091C135.573 74.7091 138.325 71.9567 138.325 68.5616C138.325 65.1664 135.573 62.4141 132.178 62.4141C128.783 62.4141 126.03 65.1664 126.03 68.5616C126.03 71.9567 128.783 74.7091 132.178 74.7091Z" fill="#CCCCFF" stroke="#7373FF" stroke-width="1.5" stroke-miterlimit="10" stroke-linejoin="round"/>
</g>
<path d="M90.2734 109.689H84.7656L83.6133 113H81.0449L86.416 98.7812H88.6328L94.0137 113H91.4355L90.2734 109.689ZM85.459 107.697H89.5801L87.5195 101.799L85.459 107.697ZM94.9609 107.639C94.9609 106.011 95.3385 104.706 96.0938 103.723C96.849 102.733 97.8613 102.238 99.1309 102.238C100.251 102.238 101.156 102.629 101.846 103.41V98H104.219V113H102.07L101.953 111.906C101.243 112.766 100.296 113.195 99.1113 113.195C97.8743 113.195 96.8717 112.697 96.1035 111.701C95.3418 110.705 94.9609 109.351 94.9609 107.639ZM97.334 107.844C97.334 108.918 97.5391 109.758 97.9492 110.363C98.3659 110.962 98.9551 111.262 99.7168 111.262C100.687 111.262 101.396 110.829 101.846 109.963V105.451C101.41 104.605 100.706 104.182 99.7363 104.182C98.9681 104.182 98.3757 104.488 97.959 105.1C97.5423 105.705 97.334 106.62 97.334 107.844ZM108.926 102.434L108.994 103.537C109.736 102.671 110.752 102.238 112.041 102.238C113.454 102.238 114.421 102.779 114.941 103.859C115.71 102.779 116.79 102.238 118.184 102.238C119.349 102.238 120.215 102.561 120.781 103.205C121.354 103.85 121.647 104.8 121.66 106.057V113H119.287V106.125C119.287 105.454 119.141 104.963 118.848 104.65C118.555 104.338 118.07 104.182 117.393 104.182C116.852 104.182 116.41 104.328 116.064 104.621C115.726 104.908 115.488 105.285 115.352 105.754L115.361 113H112.988V106.047C112.956 104.803 112.321 104.182 111.084 104.182C110.133 104.182 109.46 104.569 109.062 105.344V113H106.689V102.434H108.926ZM126.621 113H124.248V102.434H126.621V113ZM124.102 99.6895C124.102 99.3249 124.215 99.0221 124.443 98.7812C124.678 98.5404 125.01 98.4199 125.439 98.4199C125.869 98.4199 126.201 98.5404 126.436 98.7812C126.67 99.0221 126.787 99.3249 126.787 99.6895C126.787 100.048 126.67 100.347 126.436 100.588C126.201 100.822 125.869 100.939 125.439 100.939C125.01 100.939 124.678 100.822 124.443 100.588C124.215 100.347 124.102 100.048 124.102 99.6895ZM131.416 102.434L131.484 103.654C132.266 102.71 133.291 102.238 134.561 102.238C136.761 102.238 137.881 103.498 137.92 106.018V113H135.547V106.154C135.547 105.484 135.4 104.989 135.107 104.67C134.821 104.344 134.349 104.182 133.691 104.182C132.734 104.182 132.021 104.615 131.553 105.48V113H129.18V102.434H131.416Z" fill="#424242"/>
</svg>
