<svg width="159" height="24" viewBox="0 0 159 24" fill="none" xmlns="http://www.w3.org/2000/svg">
<mask id="mask0" mask-type="alpha" maskUnits="userSpaceOnUse" x="0" y="0" width="24" height="24">
<rect width="24" height="24" fill="#999999"/>
</mask>
<g mask="url(#mask0)">
</g>
<path fill-rule="evenodd" clip-rule="evenodd" d="M18.963 17.7028C20.236 16.1503 21 14.1643 21 12C21 7.02944 16.9706 3 12 3C7.02944 3 3 7.02944 3 12C3 14.1643 3.76399 16.1503 5.037 17.7028C6.30725 15.1471 9.3307 14 12 14C14.6693 14 17.6928 15.1471 18.963 17.7028ZM5.39387 20.7962C5.6812 21.0409 6.06276 21.3273 6.54387 21.6112C7.74313 22.319 9.54207 23 12 23C18.0751 23 23 18.0751 23 12C23 5.92487 18.0751 1 12 1C5.92487 1 1 5.92487 1 12C1 15.596 2.72557 18.7891 5.39387 20.7962ZM12 21C13.7881 21 15.2463 20.4414 16.2644 19.8758C16.7466 19.6079 17.125 19.3411 17.3861 19.138C16.7509 17.1614 14.5223 16 12 16C9.4549 16 7.20879 17.1825 6.59701 19.1918C6.61244 19.2057 6.62844 19.2198 6.64501 19.2343C8.14142 20.3438 9.99407 21 12 21ZM12 7C10.8954 7 10 7.89543 10 9C10 10.1046 10.8954 11 12 11C13.1046 11 14 10.1046 14 9C14 7.89543 13.1046 7 12 7ZM8 9C8 6.79086 9.79086 5 12 5C14.2091 5 16 6.79086 16 9C16 11.2091 14.2091 13 12 13C9.79086 13 8 11.2091 8 9Z" fill="#5858FF"/>
<text fill="#212121" xml:space="preserve" style="white-space: pre" font-family="Roboto" font-size="16" letter-spacing="0px"><tspan x="32" y="17.4688">Admin</tspan></text>
</svg>
