<svg width="220" height="120" viewBox="0 0 220 120" fill="none" xmlns="http://www.w3.org/2000/svg">
<mask id="mask0" mask-type="alpha" maskUnits="userSpaceOnUse" x="0" y="0" width="220" height="120">
<rect width="220" height="120" fill="white"/>
</mask>
<g mask="url(#mask0)">
<path fill-rule="evenodd" clip-rule="evenodd" d="M121.587 29.0595C115.878 29.6841 110.492 31.9229 105.936 35.5647C104.587 36.6435 102.24 38.9885 101.223 40.2755C97.3193 45.2134 95.0933 50.8415 94.5559 57.1324C94.4424 58.461 94.4945 60.3832 94.6966 62.3192C94.7659 62.9832 94.8506 63.9643 94.8848 64.4994L94.9471 65.4725L89.6487 65.4228C83.66 65.3668 81.1782 65.2321 75.2527 64.6416C73.3604 64.453 68.3437 63.8637 68.006 63.7903L67.8053 63.7466V58.1651C67.8053 52.9276 67.8149 52.5807 67.9614 52.5352C68.2155 52.4562 71.4467 51.8741 72.6829 51.6846C74.0511 51.4749 76.6596 51.1673 78.0177 51.0555C78.9238 50.9809 78.8864 50.978 77.5271 51.0175C75.6856 51.071 72.1355 51.2824 70.258 51.4504C69.4732 51.5206 68.6102 51.5903 68.3404 51.6053L67.8499 51.6327L67.8271 44.1432L67.8043 36.6537H81.9861H96.168V33.4343V30.215L76.3899 30.2198L56.6118 30.2245L36.3209 59.5994C25.1608 75.7556 16.0165 89.0132 16.0002 89.0608C15.9813 89.1156 17.3743 89.1472 19.8046 89.1472H23.6389L42.655 61.8944C53.1139 46.9054 61.7068 34.6033 61.7504 34.5566C61.7965 34.5072 61.8295 38.2463 61.8295 43.5125V52.5533L61.2274 52.6556C60.2368 52.8239 57.7585 53.4548 56.5672 53.8418C52.6563 55.1125 49.9852 56.9232 48.9591 58.9991C48.5977 59.7305 48.5846 59.7872 48.5846 60.6153C48.5846 61.412 48.6066 61.518 48.8908 62.0975C49.4605 63.2587 51.0246 64.5897 52.9681 65.5668C55.0862 66.6319 57.817 67.567 60.67 68.2042L61.7849 68.4532L61.8075 78.8002L61.8302 89.1472H78.9991H96.168V86.1514V83.1556H81.9867H67.8053V76.4986C67.8053 72.7058 67.8395 69.8204 67.8847 69.7924C67.9283 69.7653 68.3799 69.8017 68.8881 69.8732C71.2056 70.199 75.5272 70.5752 79.8015 70.8231C80.7335 70.8771 84.8675 70.9414 88.9882 70.966C93.1088 70.9905 96.5133 71.0419 96.5537 71.0802C96.5941 71.1185 96.8177 71.5674 97.0505 72.0778C99.4631 77.3658 103.733 82.2671 108.657 85.4009C116.923 90.6612 127.239 91.4577 136.354 87.5395C142.296 84.9851 147.577 80.1324 150.74 74.3199C154.27 67.8314 155.352 60.5494 153.876 53.1977C152.232 45.0041 147.308 37.8523 140.264 33.429C137.408 31.6352 134.13 30.3025 130.819 29.5896C128.679 29.1287 127.731 29.0338 124.977 29.0046C123.53 28.9892 122.004 29.0139 121.587 29.0595ZM158.028 59.5246C158.037 75.645 158.05 88.8846 158.056 88.946C158.064 89.033 158.729 89.0578 161.054 89.0578H164.042L164.065 65.2069L164.087 41.356L180.806 65.2069L197.525 89.0578H200.762H204V59.6364V30.215H200.789H197.579L197.556 54.2904L197.534 78.3658L180.81 54.2917L164.087 30.2175L161.049 30.2162L158.011 30.215L158.028 59.5246ZM126.939 35.4961C137.641 36.4834 146.522 44.8008 148.256 55.4609C149.114 60.7301 148.301 65.8939 145.86 70.68C145.2 71.9738 144.038 73.7735 143.116 74.9284C142.369 75.8635 140.417 77.8321 139.515 78.5592C132.553 84.1717 123.413 85.4979 115.527 82.0397C111.258 80.168 107.527 77.0239 104.982 73.154C104.316 72.1403 103.528 70.7383 103.59 70.6759C103.612 70.6541 104.59 70.5166 105.763 70.3701C114.15 69.3234 120.603 67.8142 124.928 65.888C127.259 64.8498 129.04 63.4592 129.667 62.1873C130.035 61.4404 130.131 60.7637 129.983 59.9665C129.359 56.6132 124.613 54.2478 115.255 52.626C113.094 52.2514 110.645 51.918 110.498 51.9783C110.441 52.0017 110.485 52.0242 110.597 52.028C110.709 52.0319 111.431 52.1586 112.203 52.3095C120.87 54.0053 126.209 57.1078 124.598 59.5121C123.351 61.3721 118.308 63.0207 110.439 64.1408C107.821 64.5134 101.462 65.1531 101.363 65.0539C101.349 65.0396 101.274 64.7302 101.197 64.3665C101.007 63.4698 100.919 58.2474 101.07 56.8271C101.654 51.3272 104.083 46.2496 108.028 42.2822C112.263 38.0227 117.911 35.5597 123.862 35.3762C124.76 35.3486 125.764 35.3877 126.939 35.4961ZM109.927 51.9182C110.014 51.9409 110.135 51.9394 110.195 51.9149C110.255 51.8904 110.184 51.8719 110.037 51.8737C109.89 51.8755 109.841 51.8955 109.927 51.9182ZM61.8295 58.3904C61.8295 62.2719 61.8205 62.5074 61.6734 62.4641C61.5876 62.4388 61.2564 62.3536 60.9376 62.2749C57.5142 61.43 54.9618 59.8638 54.9618 58.608C54.9618 57.7542 56.3413 56.5318 58.4181 55.5454C59.2777 55.1371 61.5023 54.2799 61.718 54.2739C61.8056 54.2714 61.8295 55.1527 61.8295 58.3904Z" fill="#B42A83"/>
</g>
</svg>
