<svg width="24" height="24" viewBox="0 0 24 24" fill="none" xmlns="http://www.w3.org/2000/svg">
<g clip-path="url(#clip0)">
<path fill-rule="evenodd" clip-rule="evenodd" d="M24 24H0V1.90735e-06H24V24Z" fill="#B42A83"/>
<path fill-rule="evenodd" clip-rule="evenodd" d="M13.2327 9.00634C12.6253 9.0729 12.0523 9.31146 11.5677 9.69951C11.4241 9.81447 11.1745 10.0643 11.0663 10.2015C10.651 10.7277 10.4142 11.3274 10.357 11.9977C10.3449 12.1393 10.3505 12.3441 10.372 12.5504C10.3793 12.6212 10.3884 12.7257 10.392 12.7827L10.3986 12.8864L9.83497 12.8811C9.19787 12.8751 8.93385 12.8608 8.30348 12.7979C8.10217 12.7778 7.56848 12.715 7.53255 12.7072L7.5112 12.7025V12.1078C7.5112 11.5497 7.51223 11.5127 7.52781 11.5078C7.55484 11.4994 7.89858 11.4374 8.03009 11.4172C8.17565 11.3949 8.45315 11.3621 8.59762 11.3502C8.69403 11.3422 8.69004 11.3419 8.54544 11.3461C8.34953 11.3518 7.97186 11.3744 7.77213 11.3923C7.68863 11.3997 7.59683 11.4072 7.56813 11.4088L7.51594 11.4117L7.51352 10.6136L7.5111 9.81556H9.0198H10.5285V9.47251V9.12946L8.42446 9.12998L6.32041 9.13048L4.16179 12.2606C2.97456 13.9822 2.00176 15.3948 2.00002 15.3999C1.99801 15.4058 2.1462 15.4091 2.40475 15.4091H2.81265L4.83564 12.5051C5.94829 10.908 6.86243 9.59707 6.86706 9.5921C6.87197 9.58683 6.87548 9.98526 6.87548 10.5464V11.5098L6.81143 11.5207C6.70604 11.5386 6.4424 11.6058 6.31566 11.6471C5.8996 11.7825 5.61544 11.9754 5.50629 12.1966C5.46784 12.2746 5.46645 12.2806 5.46645 12.3688C5.46645 12.4537 5.46878 12.465 5.49902 12.5268C5.55962 12.6505 5.72602 12.7923 5.93278 12.8965C6.15811 13.01 6.44861 13.1096 6.75213 13.1775L6.87073 13.204L6.87314 14.3066L6.87555 15.4091H8.70203H10.5285V15.0899V14.7707H9.01986H7.5112V14.0613C7.5112 13.6572 7.51483 13.3497 7.51965 13.3467C7.52429 13.3438 7.57233 13.3477 7.62639 13.3553C7.87294 13.3901 8.33268 13.4301 8.78739 13.4566C8.88655 13.4623 9.32633 13.4692 9.7647 13.4718C10.2031 13.4744 10.5652 13.4799 10.5695 13.484C10.5738 13.488 10.5976 13.5359 10.6224 13.5903C10.8791 14.1537 11.3333 14.676 11.8572 15.0099C12.7365 15.5705 13.8339 15.6553 14.8036 15.2378C15.4358 14.9656 15.9976 14.4485 16.334 13.8292C16.7096 13.1378 16.8246 12.3618 16.6677 11.5784C16.4928 10.7054 15.9689 9.94328 15.2196 9.47194C14.9158 9.28079 14.567 9.13879 14.2148 9.06283C13.9871 9.01371 13.8863 9.0036 13.5933 9.00049C13.4393 8.99885 13.2771 9.00148 13.2327 9.00634ZM17.1094 12.2526C17.1104 13.9704 17.1117 15.3811 17.1123 15.3877C17.1132 15.397 17.184 15.3996 17.4313 15.3996H17.7492L17.7515 12.8581L17.7539 10.3166L19.5325 12.8581L21.3112 15.3996H21.6556H22V12.2645V9.12946H21.6584H21.3169L21.3145 11.6949L21.3121 14.2603L19.533 11.695L17.7539 9.12973L17.4307 9.1296L17.1076 9.12946L17.1094 12.2526ZM13.802 9.6922C14.9405 9.79741 15.8853 10.6837 16.0698 11.8196C16.1611 12.3811 16.0746 12.9313 15.8149 13.4413C15.7447 13.5792 15.621 13.7709 15.5229 13.894C15.4435 13.9937 15.2358 14.2034 15.1399 14.2809C14.3993 14.879 13.4269 15.0203 12.5879 14.6518C12.1339 14.4523 11.737 14.1173 11.4662 13.7049C11.3953 13.5969 11.3115 13.4475 11.3181 13.4409C11.3204 13.4386 11.4245 13.4239 11.5493 13.4083C12.4415 13.2968 13.1279 13.1359 13.588 12.9307C13.8361 12.8201 14.0255 12.6719 14.0922 12.5364C14.1314 12.4568 14.1416 12.3847 14.1259 12.2997C14.0595 11.9424 13.5546 11.6903 12.559 11.5175C12.3291 11.4776 12.0687 11.4421 12.053 11.4485C12.0469 11.451 12.0516 11.4534 12.0635 11.4538C12.0754 11.4542 12.1523 11.4677 12.2343 11.4838C13.1564 11.6645 13.7244 11.9951 13.5529 12.2513C13.4203 12.4495 12.8838 12.6252 12.0467 12.7445C11.7682 12.7842 11.0917 12.8524 11.0812 12.8418C11.0797 12.8403 11.0717 12.8073 11.0635 12.7686C11.0433 12.673 11.0339 12.1165 11.05 11.9652C11.1122 11.3791 11.3706 10.8381 11.7902 10.4153C12.2408 9.96144 12.8416 9.69898 13.4747 9.67943C13.5702 9.67649 13.6771 9.68065 13.802 9.6922ZM11.9923 11.4421C12.0015 11.4445 12.0143 11.4444 12.0207 11.4418C12.0272 11.4391 12.0196 11.4372 12.004 11.4374C11.9883 11.4376 11.983 11.4397 11.9923 11.4421ZM6.87548 12.1318C6.87548 12.5454 6.87452 12.5705 6.85887 12.5658C6.84974 12.5631 6.81451 12.5541 6.78059 12.5457C6.4164 12.4557 6.14487 12.2888 6.14487 12.1549C6.14487 12.064 6.29163 11.9337 6.51256 11.8286C6.60401 11.7851 6.84067 11.6938 6.86362 11.6931C6.87293 11.6929 6.87548 11.7868 6.87548 12.1318Z" fill="white"/>
</g>
<defs>
<clipPath id="clip0">
<rect width="24" height="24" fill="white"/>
</clipPath>
</defs>
</svg>
