<svg width="95" height="32" viewBox="0 0 95 32" fill="none" xmlns="http://www.w3.org/2000/svg">
<mask id="mask0" mask-type="alpha" maskUnits="userSpaceOnUse" x="0" y="0" width="95" height="32">
<rect width="95" height="32" fill="white"/>
</mask>
<g mask="url(#mask0)">
<path fill-rule="evenodd" clip-rule="evenodd" d="M53.2321 1.02925C50.4079 1.33646 47.7432 2.43751 45.4896 4.22852C44.822 4.7591 43.6615 5.91235 43.1582 6.54532C41.2271 8.97378 40.1259 11.7417 39.8601 14.8356C39.8039 15.489 39.8297 16.4344 39.9297 17.3865C39.964 17.713 40.0059 18.1956 40.0228 18.4587L40.0536 18.9373L37.4326 18.9129C34.4701 18.8853 33.2424 18.8191 30.3112 18.5287C29.3751 18.4359 26.8934 18.1461 26.7264 18.11L26.6271 18.0885V15.3435C26.6271 12.7677 26.6318 12.5971 26.7043 12.5747C26.83 12.5358 28.4284 12.2496 29.0399 12.1564C29.7168 12.0533 31.0072 11.902 31.6789 11.847C32.1272 11.8103 32.1087 11.8088 31.4363 11.8283C30.5253 11.8546 28.7692 11.9586 27.8404 12.0412C27.4521 12.0757 27.0253 12.11 26.8918 12.1174L26.6491 12.1308L26.6378 8.44747L26.6266 4.76411H33.6421H40.6576V3.18082V1.59752L30.8737 1.5999L21.0899 1.60223L11.0523 16.0489C5.53168 23.9945 1.00817 30.5147 1.00009 30.5381C0.99074 30.565 1.67982 30.5806 2.88208 30.5806H4.7788L14.1857 17.1776C19.3595 9.80594 23.6103 3.75573 23.6318 3.73277C23.6546 3.70845 23.671 5.54736 23.671 8.13728V12.5836L23.3732 12.6339C22.8831 12.7167 21.6572 13.0269 21.0678 13.2173C19.1332 13.8422 17.8118 14.7327 17.3043 15.7537C17.1255 16.1133 17.119 16.1412 17.119 16.5485C17.119 16.9403 17.1298 16.9925 17.2705 17.2775C17.5523 17.8485 18.326 18.5031 19.2874 18.9837C20.3352 19.5075 21.686 19.9674 23.0974 20.2807L23.6489 20.4032L23.6601 25.4919L23.6713 30.5806H32.1645H40.6576V29.1073V27.6339H33.6423H26.6271V24.36C26.6271 22.4946 26.644 21.0756 26.6664 21.0618C26.6879 21.0485 26.9113 21.0664 27.1627 21.1016C28.3092 21.2618 30.447 21.4468 32.5614 21.5687C33.0224 21.5953 35.0675 21.6269 37.1058 21.639C39.1442 21.651 40.8284 21.6763 40.8484 21.6952C40.8684 21.714 40.979 21.9348 41.0941 22.1858C42.2876 24.7865 44.3998 27.1969 46.8358 28.7381C50.9249 31.3252 56.0276 31.7169 60.5367 29.7899C63.4763 28.5337 66.0886 26.1471 67.6531 23.2885C69.3996 20.0974 69.9346 16.5161 69.2048 12.9005C68.3915 8.87087 65.9555 5.35358 62.4712 3.17818C61.0583 2.29598 59.4365 1.64058 57.7986 1.28997C56.7399 1.06329 56.2711 1.01663 54.9087 1.00225C54.1928 0.994685 53.4384 1.00682 53.2321 1.02925ZM71.2586 16.0121C71.2632 23.9401 71.2694 30.4514 71.2723 30.4817C71.2764 30.5244 71.6055 30.5366 72.7556 30.5366H74.2336L74.2447 18.8067L74.2558 7.07673L82.5264 18.8067L90.7969 30.5366H92.3984H94V16.0671V1.59752H92.4117H90.8234L90.8123 13.4379L90.8012 25.2783L82.5285 13.4385L74.2558 1.59876L72.753 1.59814L71.2501 1.59752L71.2586 16.0121ZM55.8794 4.19479C61.1735 4.68037 65.5667 8.7709 66.4248 14.0135C66.8489 16.605 66.4467 19.1445 65.2393 21.4983C64.9129 22.1347 64.3379 23.0198 63.8817 23.5877C63.5124 24.0476 62.5466 25.0158 62.1004 25.3734C58.6567 28.1336 54.1352 28.7859 50.2339 27.0851C48.1225 26.1646 46.2769 24.6183 45.0178 22.7151C44.6881 22.2165 44.2985 21.527 44.3293 21.4963C44.34 21.4856 44.8237 21.418 45.4042 21.346C49.5528 20.8312 52.7449 20.0889 54.8844 19.1417C56.0378 18.631 56.9187 17.9471 57.2288 17.3216C57.4109 16.9543 57.4586 16.6215 57.3852 16.2294C57.0766 14.5803 54.7288 13.417 50.0995 12.6193C49.0305 12.4351 47.8193 12.2712 47.7465 12.3008C47.7181 12.3123 47.7401 12.3234 47.7954 12.3253C47.8506 12.3272 48.208 12.3895 48.5895 12.4637C52.8771 13.2977 55.5184 14.8235 54.7212 16.0059C54.1044 16.9207 51.6097 17.7315 47.717 18.2824C46.4222 18.4656 43.2765 18.7802 43.2275 18.7314C43.2204 18.7244 43.1834 18.5722 43.1453 18.3934C43.0513 17.9524 43.0077 15.384 43.0824 14.6855C43.3715 11.9806 44.5732 9.48343 46.5246 7.53224C48.6196 5.43741 51.4133 4.22606 54.3572 4.13585C54.8014 4.12226 55.2984 4.14148 55.8794 4.19479ZM47.4641 12.2713C47.507 12.2824 47.5666 12.2817 47.5965 12.2696C47.6263 12.2576 47.5912 12.2485 47.5184 12.2494C47.4456 12.2502 47.4212 12.2601 47.4641 12.2713ZM23.671 15.4543C23.671 17.3632 23.6665 17.4791 23.5938 17.4577C23.5513 17.4453 23.3875 17.4034 23.2298 17.3647C21.5363 16.9492 20.2736 16.1789 20.2736 15.5613C20.2736 15.1414 20.9561 14.5403 21.9834 14.0551C22.4087 13.8543 23.5091 13.4327 23.6158 13.4298C23.6591 13.4286 23.671 13.862 23.671 15.4543Z" fill="#B42A83"/>
</g>
</svg>
