<svg width="140" height="45" viewBox="0 0 140 45" fill="currentColor" xmlns="http://www.w3.org/2000/svg">
<path d="M135.625 44.75H4.375C2.11341 44.75 0.25 42.8436 0.25 40.5V4.5C0.25 2.15639 2.11341 0.25 4.375 0.25H135.625C137.887 0.25 139.75 2.15639 139.75 4.5V40.5C139.75 42.8436 137.887 44.75 135.625 44.75Z" fill="black" stroke="#A6A6A6" stroke-width="0.5"/>
<path d="M29.5313 21.5793C29.5313 18.2008 32.3751 16.566 32.4844 16.457C30.8438 14.1683 28.4376 13.8414 27.5626 13.7324C25.4844 13.5144 23.4063 14.9312 22.4219 14.9312C21.3282 14.9312 19.6876 13.7324 17.9376 13.7324C15.6407 13.7324 13.5626 15.0402 12.3594 17.1109C9.95319 21.2523 11.7032 27.3554 14.0001 30.734C15.2032 32.3687 16.5157 34.2215 18.2657 34.1125C20.0157 34.0035 20.6719 33.0226 22.7501 33.0226C24.8282 33.0226 25.3751 34.1125 27.2344 34.1125C29.0938 34.1125 30.2969 32.4777 31.3907 30.8429C32.7032 28.9902 33.2501 27.1375 33.2501 27.0285C33.1407 26.9195 29.5313 25.6117 29.5313 21.5793Z" fill="white"/>
<path d="M26.1408 11.552C27.0158 10.3532 27.672 8.82739 27.5627 7.19263C26.2502 7.30161 24.5002 8.0645 23.6252 9.26333C22.7502 10.2442 21.9845 11.879 22.2033 13.4047C23.6252 13.5137 25.1564 12.6418 26.1408 11.552Z" fill="white"/>
<path d="M54.4687 33.8941H52.0625L50.75 29.7527H46.1563L44.9531 33.8941H42.6562L47.25 19.8351H50.0938L54.4687 33.8941ZM50.3125 28.009L49.1094 24.3035C49 23.9765 48.7813 22.9957 48.3438 21.6879C48.2344 22.2328 48.0156 23.2137 47.6875 24.3035L46.4844 28.009H50.3125Z" fill="white"/>
<path d="M66.1719 28.7717C66.1719 30.5154 65.7344 31.8232 64.75 32.9131C63.875 33.785 62.8906 34.2209 61.5781 34.2209C60.2656 34.2209 59.2813 33.785 58.7344 32.8041V38.1443H56.4375V27.2459C56.4375 26.1561 56.4375 25.0662 56.3281 23.8674H58.2969L58.4063 25.5021C59.1719 24.3033 60.2656 23.6494 61.7969 23.6494C63 23.6494 63.9844 24.0854 64.75 25.0662C65.7344 25.9381 66.1719 27.1369 66.1719 28.7717ZM63.875 28.7717C63.875 27.7908 63.6563 26.9189 63.2188 26.374C62.7813 25.7201 62.125 25.3932 61.25 25.3932C60.7031 25.3932 60.1563 25.6111 59.7188 25.9381C59.2813 26.265 58.9531 26.81 58.8438 27.3549C58.7344 27.6818 58.7344 27.8998 58.7344 28.0088V29.7525C58.7344 30.5154 58.9531 31.0603 59.3906 31.6053C59.8281 32.1502 60.4844 32.3682 61.1406 32.3682C62.0156 32.3682 62.6719 32.0412 63.1094 31.3873C63.6563 30.7334 63.875 29.8615 63.875 28.7717Z" fill="white"/>
<path d="M77.875 28.7717C77.875 30.5154 77.4375 31.8232 76.4531 32.9131C75.5781 33.785 74.5937 34.2209 73.2812 34.2209C71.9687 34.2209 70.9844 33.785 70.4375 32.8041V38.1443H68.1406V27.2459C68.1406 26.1561 68.1406 25.0662 68.0312 23.8674H70L70.1094 25.5021C70.875 24.3033 71.9688 23.6494 73.5 23.6494C74.7031 23.6494 75.6875 24.0854 76.4531 25.0662C77.4375 25.9381 77.875 27.1369 77.875 28.7717ZM75.5781 28.7717C75.5781 27.7908 75.3594 26.9189 74.9219 26.374C74.4844 25.7201 73.8281 25.3932 72.9531 25.3932C72.4062 25.3932 71.8594 25.6111 71.4219 25.9381C70.9844 26.265 70.6562 26.81 70.5469 27.3549C70.4375 27.6818 70.4375 27.8998 70.4375 28.0088V29.7525C70.4375 30.5154 70.6562 31.0603 71.0937 31.6053C71.5312 32.1502 72.1875 32.3682 72.8438 32.3682C73.7188 32.3682 74.375 32.0412 74.8125 31.3873C75.3594 30.7334 75.5781 29.8615 75.5781 28.7717Z" fill="white"/>
<path d="M91 29.9705C91 31.1693 90.5625 32.1502 89.7969 32.9131C88.9219 33.7849 87.6094 34.1119 85.9688 34.1119C84.4375 34.1119 83.2344 33.7849 82.3594 33.24L82.9063 31.3873C83.8906 31.9322 84.9844 32.2592 86.1875 32.2592C87.0625 32.2592 87.7188 32.0412 88.1563 31.7142C88.5938 31.2783 88.8125 30.8424 88.8125 30.1885C88.8125 29.6435 88.5938 29.0986 88.2656 28.7717C87.8281 28.3357 87.1719 28.0088 86.2969 27.6818C83.7812 26.8099 82.5781 25.3931 82.5781 23.6494C82.5781 22.4506 83.0156 21.5787 83.8906 20.8158C84.7656 20.0529 85.8594 19.726 87.3906 19.726C88.7031 19.726 89.6875 19.9439 90.5625 20.3799L90.0156 22.2326C89.25 21.7967 88.375 21.5787 87.2813 21.5787C86.5156 21.5787 85.8594 21.7967 85.4219 22.1236C85.0938 22.4506 84.875 22.8865 84.875 23.4314C84.875 23.9763 85.0938 24.4123 85.5313 24.8482C85.8594 25.1752 86.625 25.5021 87.6094 25.9381C88.8125 26.374 89.6875 27.0279 90.3438 27.6818C90.6719 28.2267 91 28.9896 91 29.9705Z" fill="white"/>
<path d="M98.4375 25.5021H95.9219V30.4064C95.9219 31.6052 96.3594 32.2591 97.2344 32.2591C97.6719 32.2591 98 32.2591 98.2188 32.1501L98.3281 33.8939C97.8906 34.1119 97.3438 34.1119 96.5781 34.1119C95.7031 34.1119 94.9375 33.8939 94.5 33.349C93.9531 32.8041 93.7344 31.9322 93.7344 30.6244V25.5021H92.2031V23.7583H93.7344V21.9056L95.9219 21.2517V23.7583H98.4375V25.5021Z" fill="white"/>
<path d="M109.703 28.7715C109.703 30.2973 109.266 31.6051 108.391 32.586C107.406 33.5669 106.203 34.1118 104.672 34.1118C103.141 34.1118 101.938 33.5669 101.063 32.586C100.188 31.6051 99.75 30.4063 99.75 28.8805C99.75 27.3547 100.188 26.0469 101.172 25.0661C102.047 24.0852 103.359 23.5403 104.891 23.5403C106.422 23.5403 107.625 24.0852 108.5 25.0661C109.266 26.0469 109.703 27.2458 109.703 28.7715ZM107.297 28.8805C107.297 27.8997 107.078 27.1368 106.641 26.4829C106.203 25.72 105.438 25.284 104.563 25.284C103.688 25.284 102.922 25.72 102.484 26.4829C102.047 27.1368 101.828 28.0086 101.828 28.8805C101.828 29.8614 102.047 30.6243 102.484 31.2782C102.922 32.0411 103.688 32.477 104.563 32.477C105.438 32.477 106.094 32.0411 106.641 31.2782C107.078 30.6243 107.297 29.7524 107.297 28.8805Z" fill="white"/>
<path d="M117.031 25.7204C116.812 25.7204 116.594 25.6115 116.266 25.6115C115.5 25.6115 114.844 25.9384 114.406 26.4833C114.078 27.0282 113.859 27.6822 113.859 28.445V33.7853H111.562V26.8103C111.562 25.6114 111.563 24.6306 111.453 23.6497H113.422L113.531 25.6115H113.641C113.859 24.9575 114.297 24.4126 114.734 23.9767C115.281 23.6497 115.828 23.4318 116.375 23.4318C116.594 23.4318 116.813 23.4318 116.922 23.4318V25.7204H117.031Z" fill="white"/>
<path d="M127.094 28.3356C127.094 28.7715 127.094 29.0985 126.984 29.3165H120.203C120.203 30.2973 120.531 31.0602 121.187 31.6051C121.734 32.0411 122.5 32.368 123.375 32.368C124.359 32.368 125.344 32.259 126.109 31.9321L126.437 33.4579C125.453 33.8938 124.359 34.1118 123.047 34.1118C121.516 34.1118 120.203 33.6758 119.328 32.695C118.453 31.8231 118.016 30.5153 118.016 28.9895C118.016 27.4637 118.453 26.1559 119.219 25.175C120.094 24.0852 121.297 23.5403 122.828 23.5403C124.25 23.5403 125.453 24.0852 126.109 25.175C126.875 26.0469 127.094 27.1368 127.094 28.3356ZM125.016 27.7907C125.016 27.1368 124.906 26.5918 124.578 26.0469C124.141 25.393 123.594 25.0661 122.828 25.0661C122.062 25.0661 121.516 25.393 121.078 25.9379C120.75 26.3739 120.531 27.0278 120.422 27.6817H125.016V27.7907Z" fill="white"/>
<path d="M49.6562 11.2257C49.6562 12.4245 49.3281 13.4054 48.5625 14.0593C47.9062 14.6042 46.9219 14.9312 45.6094 14.9312C44.9531 14.9312 44.4062 14.9312 43.9688 14.8222V8.06516C44.5156 7.95618 45.1719 7.95618 45.9375 7.95618C47.1406 7.95618 48.0156 8.17415 48.6719 8.71907C49.2187 9.26399 49.6562 10.1359 49.6562 11.2257ZM48.4531 11.2257C48.4531 10.4628 48.2344 9.80891 47.7969 9.37297C47.3594 8.93704 46.7031 8.71907 45.9375 8.71907C45.6094 8.71907 45.2812 8.71907 45.0625 8.82805V13.9503C45.1719 13.9503 45.5 13.9503 45.8281 13.9503C46.7031 13.9503 47.3594 13.7324 47.7969 13.2964C48.2344 12.8605 48.4531 12.0976 48.4531 11.2257Z" fill="white"/>
<path d="M55.7812 12.3152C55.7812 13.0781 55.5625 13.732 55.125 14.1679C54.6875 14.7129 54.0313 14.9308 53.2656 14.9308C52.5 14.9308 51.9531 14.7129 51.5156 14.1679C51.0781 13.732 50.8594 13.0781 50.8594 12.3152C50.8594 11.5523 51.0781 10.8984 51.5156 10.4625C51.9531 9.91755 52.6094 9.69958 53.375 9.69958C54.1406 9.69958 54.6875 9.91755 55.125 10.4625C55.5625 10.8984 55.7812 11.5523 55.7812 12.3152ZM54.6875 12.3152C54.6875 11.8793 54.5781 11.4433 54.3594 11.1164C54.1406 10.6804 53.8125 10.5715 53.375 10.5715C52.9375 10.5715 52.6094 10.7894 52.3906 11.1164C52.1719 11.4433 52.0625 11.8793 52.0625 12.3152C52.0625 12.7511 52.1719 13.1871 52.3906 13.514C52.6094 13.95 52.9375 14.059 53.375 14.059C53.8125 14.059 54.1406 13.841 54.3594 13.4051C54.5781 13.1871 54.6875 12.7511 54.6875 12.3152Z" fill="white"/>
<path d="M64.2031 9.80872L62.6719 14.822H61.6875L61.0313 12.6423C60.8125 12.0974 60.7031 11.5525 60.5938 11.0075C60.4844 11.5525 60.375 12.0974 60.1563 12.6423L59.5 14.822H58.5156L56.875 9.80872H57.9688L58.5156 12.2064C58.625 12.7513 58.7344 13.2962 58.8438 13.8411C58.9531 13.4052 59.0625 12.8603 59.2813 12.2064L59.9375 9.80872H60.8125L61.4688 12.0974C61.6875 12.6423 61.7969 13.1872 61.9063 13.7322C62.0156 13.1872 62.125 12.6423 62.2344 12.0974L62.8906 9.80872H64.2031Z" fill="white"/>
<path d="M69.8906 14.8223H68.7969V11.9887C68.7969 11.1168 68.4687 10.6809 67.8125 10.6809C67.4844 10.6809 67.2656 10.7899 67.0469 11.0079C66.8281 11.2258 66.7187 11.5528 66.7187 11.8797V14.8223H65.625V11.2258C65.625 10.7899 65.625 10.354 65.625 9.80903H66.6094V10.5719C66.7188 10.354 66.9375 10.136 67.1563 9.91802C67.4844 9.70005 67.8125 9.59106 68.1406 9.59106C68.5781 9.59106 69.0156 9.70005 69.3438 10.027C69.7812 10.354 69.8906 10.8989 69.8906 11.6618V14.8223Z" fill="white"/>
<path d="M72.9531 14.8221H71.8594V7.52014H72.9531V14.8221Z" fill="white"/>
<path d="M79.5156 12.3152C79.5156 13.0781 79.2969 13.732 78.8594 14.1679C78.4219 14.7129 77.7656 14.9308 77 14.9308C76.2344 14.9308 75.6875 14.7129 75.25 14.1679C74.8125 13.732 74.5938 13.0781 74.5938 12.3152C74.5938 11.5523 74.8125 10.8984 75.25 10.4625C75.6875 10.0265 76.3437 9.69958 77.1094 9.69958C77.875 9.69958 78.4219 9.91755 78.8594 10.4625C79.2969 10.8984 79.5156 11.5523 79.5156 12.3152ZM78.4219 12.3152C78.4219 11.8793 78.3125 11.4433 78.0937 11.1164C77.875 10.6804 77.5469 10.5715 77.1094 10.5715C76.6719 10.5715 76.3438 10.7894 76.125 11.1164C75.9063 11.4433 75.7969 11.8793 75.7969 12.3152C75.7969 12.7511 75.9063 13.1871 76.125 13.514C76.3438 13.95 76.6719 14.059 77.1094 14.059C77.5469 14.059 77.875 13.841 78.0937 13.4051C78.3125 13.1871 78.4219 12.7511 78.4219 12.3152Z" fill="white"/>
<path d="M84.875 14.8218H83.8906L83.7813 14.2769C83.4531 14.7129 82.9063 14.9308 82.3594 14.9308C81.9219 14.9308 81.4844 14.8219 81.2656 14.4949C81.0469 14.1679 80.8281 13.841 80.8281 13.514C80.8281 12.8601 81.0469 12.4242 81.5938 12.0972C82.1406 11.7703 82.7969 11.6613 83.7813 11.6613V11.5523C83.7813 10.8984 83.4531 10.5715 82.7969 10.5715C82.25 10.5715 81.9219 10.6804 81.4844 10.8984L81.2656 10.1355C81.7031 9.80857 82.25 9.69958 83.0156 9.69958C84.3281 9.69958 84.9844 10.3535 84.9844 11.7703V13.623C84.875 14.1679 84.875 14.4949 84.875 14.8218ZM83.7813 13.0781V12.3152C82.5781 12.3152 81.9219 12.6422 81.9219 13.2961C81.9219 13.514 82.0313 13.732 82.1406 13.841C82.25 13.95 82.4688 14.059 82.6875 14.059C82.9063 14.059 83.125 13.95 83.3438 13.841C83.5625 13.732 83.6719 13.514 83.7813 13.2961C83.7813 13.2961 83.7813 13.1871 83.7813 13.0781Z" fill="white"/>
<path d="M91.2188 14.8216H90.2344V14.0587C89.9062 14.7126 89.3594 14.9306 88.5937 14.9306C87.9375 14.9306 87.5 14.7126 87.0625 14.2767C86.625 13.8408 86.5156 13.1869 86.5156 12.424C86.5156 11.6611 86.7344 11.0072 87.1719 10.4623C87.6094 10.0263 88.1563 9.80835 88.7031 9.80835C89.3594 9.80835 89.7969 10.0263 90.125 10.4623V7.62866H91.2188V13.5138C91.2188 13.9498 91.2188 14.3857 91.2188 14.8216ZM90.125 12.7509V11.8791C90.125 11.7701 90.125 11.6611 90.125 11.5521C90.0156 11.3341 89.9062 11.1162 89.6875 10.8982C89.4687 10.6802 89.25 10.6802 88.9219 10.6802C88.4844 10.6802 88.1562 10.8982 87.9375 11.2251C87.7187 11.5521 87.6094 11.988 87.6094 12.533C87.6094 13.0779 87.7187 13.4048 87.9375 13.7318C88.1562 14.0587 88.4844 14.2767 88.9219 14.2767C89.25 14.2767 89.5781 14.1677 89.7969 13.8408C90.0156 13.4048 90.125 13.0779 90.125 12.7509Z" fill="white"/>
<path d="M100.734 12.3152C100.734 13.0781 100.516 13.732 100.078 14.1679C99.6406 14.7129 98.9844 14.9308 98.2187 14.9308C97.4531 14.9308 96.9062 14.7129 96.4687 14.1679C96.0312 13.732 95.8125 13.0781 95.8125 12.3152C95.8125 11.5523 96.0312 10.8984 96.4687 10.4625C96.9062 9.91755 97.5625 9.69958 98.3281 9.69958C99.0938 9.69958 99.6406 9.91755 100.078 10.4625C100.516 10.8984 100.734 11.5523 100.734 12.3152ZM99.5312 12.3152C99.5312 11.8793 99.4219 11.4433 99.2031 11.1164C98.9844 10.6804 98.6562 10.5715 98.2187 10.5715C97.7812 10.5715 97.4531 10.7894 97.2344 11.1164C97.0156 11.4433 96.9062 11.8793 96.9062 12.3152C96.9062 12.7511 97.0156 13.1871 97.2344 13.514C97.4531 13.95 97.7812 14.059 98.2187 14.059C98.6562 14.059 98.9844 13.841 99.2031 13.4051C99.4219 13.1871 99.5312 12.7511 99.5312 12.3152Z" fill="white"/>
<path d="M106.75 14.8223H105.656V11.9887C105.656 11.1168 105.328 10.6809 104.672 10.6809C104.344 10.6809 104.125 10.7899 103.906 11.0079C103.688 11.2258 103.578 11.5528 103.578 11.8797V14.8223H102.484V11.2258C102.484 10.7899 102.484 10.354 102.484 9.80903H103.469V10.5719C103.578 10.354 103.797 10.136 104.016 9.91802C104.344 9.70005 104.672 9.59106 105 9.59106C105.438 9.59106 105.875 9.70005 106.203 10.027C106.641 10.354 106.75 10.8989 106.75 11.6618V14.8223Z" fill="white"/>
<path d="M114.188 10.6806H112.984V13.0782C112.984 13.7321 113.203 13.9501 113.641 13.9501C113.859 13.9501 113.969 13.9501 114.188 13.9501V14.822C113.969 14.931 113.641 14.931 113.313 14.931C112.875 14.931 112.547 14.822 112.328 14.495C112.109 14.277 112 13.7321 112 13.1872V10.6806H111.234V9.80869H112V8.93682L113.094 8.60986V9.80869H114.297V10.6806H114.188Z" fill="white"/>
<path d="M120.094 14.8221H119V11.9885C119 11.1166 118.672 10.6807 118.016 10.6807C117.469 10.6807 117.141 10.8987 116.922 11.4436C116.922 11.5526 116.922 11.6615 116.922 11.8795V14.8221H115.828V7.52014H116.922V10.5717C117.25 10.0268 117.797 9.69983 118.453 9.69983C118.891 9.69983 119.328 9.80881 119.547 10.1358C119.875 10.4627 120.094 11.1166 120.094 11.7705V14.8221Z" fill="white"/>
<path d="M126.109 12.0974C126.109 12.3154 126.109 12.4243 126.109 12.6423H122.828C122.828 13.1872 123.047 13.5142 123.266 13.7322C123.594 13.9501 123.922 14.0591 124.359 14.0591C124.906 14.0591 125.344 13.9501 125.672 13.8411L125.891 14.604C125.453 14.822 124.906 14.931 124.25 14.931C123.484 14.931 122.828 14.713 122.391 14.2771C121.953 13.8411 121.734 13.1872 121.734 12.4243C121.734 11.6614 121.953 11.0075 122.391 10.5716C122.828 10.0267 123.375 9.80872 124.141 9.80872C124.906 9.80872 125.453 10.0267 125.781 10.5716C126 10.8986 126.109 11.4435 126.109 12.0974ZM125.125 11.7704C125.125 11.4435 125.016 11.1165 124.906 10.8986C124.687 10.5716 124.469 10.4626 124.031 10.4626C123.703 10.4626 123.375 10.5716 123.156 10.8986C122.938 11.1165 122.828 11.4435 122.828 11.7704H125.125Z" fill="white"/>
</svg>
