<svg width="32" height="32" viewBox="0 0 32 32" fill="none" xmlns="http://www.w3.org/2000/svg">
<mask id="mask0" mask-type="alpha" maskUnits="userSpaceOnUse" x="0" y="0" width="32" height="32">
<circle cx="16" cy="16" r="16" fill="white"/>
</mask>
<g mask="url(#mask0)">
<path fill-rule="evenodd" clip-rule="evenodd" d="M16.2222 32.7222C25.3349 32.7222 32.7222 25.3349 32.7222 16.2222C32.7222 7.10947 25.3349 -0.277832 16.2222 -0.277832C7.10947 -0.277832 -0.277832 7.10947 -0.277832 16.2222C-0.277832 25.3349 7.10947 32.7222 16.2222 32.7222Z" fill="#7373FF"/>
<path fill-rule="evenodd" clip-rule="evenodd" d="M16.2222 5.72217C12.9085 5.72217 10.2222 8.40846 10.2222 11.7222C10.2222 15.0359 12.9085 17.7222 16.2222 17.7222C19.5359 17.7222 22.2222 15.0359 22.2222 11.7222C22.2222 8.40846 19.5359 5.72217 16.2222 5.72217Z" fill="white"/>
<path d="M26.6667 24.7763C24.1909 27.7957 20.4315 29.7222 16.2222 29.7222C12.0129 29.7222 8.25352 27.7957 5.77771 24.7763C7.68308 20.9429 12.2183 19.2222 16.2222 19.2222C20.2262 19.2222 24.7614 20.9429 26.6667 24.7763Z" fill="white"/>
</g>
</svg>
