<svg width="220" height="120" viewBox="0 0 220 120" fill="none" xmlns="http://www.w3.org/2000/svg">
<mask id="mask0" mask-type="alpha" maskUnits="userSpaceOnUse" x="0" y="0" width="220" height="120">
<rect width="220" height="120" fill="white"/>
</mask>
<g mask="url(#mask0)">
<path d="M92.6117 43L71.9942 45.6439L71.1431 50.8373L92.6117 43Z" fill="#FFCA04"/>
<path fill-rule="evenodd" clip-rule="evenodd" d="M20.3586 53.3655C20.3586 53.5731 16.2851 75.7623 16.0991 76.5681L16.001 76.993L23.145 76.9898C31.1544 76.986 31.9961 76.8937 34.2911 75.7662C35.9816 74.9359 37.3911 73.4696 37.8759 72.038C38.3539 70.6265 38.3238 68.6177 37.8101 67.6321C37.3194 66.6908 36.1862 65.6416 35.3002 65.3084C34.9369 65.1719 34.4693 64.9889 34.2612 64.9017C33.8986 64.7498 33.9001 64.7428 34.3013 64.7306C35.2798 64.7005 36.8093 63.9321 37.5402 63.103C38.4691 62.0494 38.7821 60.9626 38.6664 59.1931C38.48 56.3439 36.8543 54.7018 33.2529 53.7257C31.977 53.3797 31.1124 53.3219 26.0804 53.2448C21.9872 53.1823 20.3586 53.2167 20.3586 53.3655ZM41.758 64.7649C40.5864 71.1269 39.5849 76.4807 39.5325 76.6625C39.444 76.9705 39.7343 76.993 43.785 76.993H48.1324L48.317 76.096C48.4186 75.6025 48.782 73.6904 49.1247 71.8468L49.748 68.4947H52.0768C53.6133 68.4947 54.4058 68.5639 54.4058 68.6979C54.4058 68.8097 54.0653 70.6833 53.6492 72.8613C53.2331 75.0395 52.8926 76.8603 52.8926 76.9073C52.8926 76.9545 54.8503 76.993 57.2431 76.993C59.6358 76.993 61.5935 76.9343 61.5935 76.8625C61.5935 76.7908 62.5724 71.4808 63.7688 65.0629C64.9651 58.6448 65.944 53.3497 65.944 53.2958C65.944 53.242 63.9954 53.1978 61.6136 53.1978H57.2832L56.8612 55.5112C55.995 60.2588 55.7828 61.3286 55.6884 61.4227C55.6353 61.4759 54.5751 61.4954 53.3326 61.4661L51.0735 61.4128L51.7849 57.5414C52.1763 55.4121 52.5003 53.5638 52.5054 53.4339C52.5122 53.2516 51.5303 53.1978 48.2013 53.1978H43.8881L41.758 64.7649ZM70.6523 53.245C70.6412 53.2711 69.6364 58.6037 68.4194 65.0954L66.2069 76.8986L70.5485 76.9494C72.9363 76.9773 74.9171 76.973 74.9504 76.9399C74.9835 76.9067 75.9512 71.7849 77.1009 65.5581C78.2505 59.3311 79.239 54.0029 79.2975 53.7172L79.4038 53.1978H75.0382C72.6373 53.1978 70.6635 53.219 70.6523 53.245ZM83.9133 53.3395C83.9133 53.4894 79.8364 75.584 79.644 76.4773L79.5313 77L83.9411 76.9494L88.351 76.8986L88.8608 74.1603C89.1411 72.6542 89.5502 70.2747 89.7698 68.8724C89.9896 67.4702 90.2174 66.0255 90.276 65.662C90.3692 65.0835 90.6163 65.6497 92.2545 70.1944C93.2842 73.0508 94.2616 75.7489 94.4265 76.1904L94.7261 76.993H99.119H103.512L105.645 65.4259C106.818 59.0641 107.819 53.71 107.869 53.5283C107.955 53.2205 107.663 53.1978 103.618 53.1978H99.2756L99.178 53.6227C99.1245 53.8565 98.6404 56.4697 98.1025 59.4299C97.5645 62.3901 97.0809 64.9396 97.0277 65.0954C96.9746 65.2512 96.7444 64.7413 96.5159 63.9623C96.2874 63.1833 95.3411 60.4427 94.4127 57.8719L92.7249 53.1978H88.3192C85.896 53.1978 83.9133 53.2617 83.9133 53.3395ZM112.21 53.7172C112.026 54.6148 107.935 76.807 107.935 76.906C107.935 76.9577 109.911 76.9772 112.324 76.9492L116.713 76.8986L117.517 72.4606C117.959 70.0197 118.379 67.4066 118.45 66.6534C118.522 65.9005 118.641 65.2843 118.715 65.2843C118.789 65.2843 119.787 67.8976 120.933 71.0914L123.017 76.8986L127.44 76.9488L131.863 76.9989L134.018 65.3345C135.203 58.9189 136.213 53.5638 136.261 53.4339C136.329 53.2494 135.396 53.1978 131.981 53.1978H127.614L127.519 53.6227C127.467 53.8563 126.997 56.3847 126.474 59.241C125.236 66.0078 125.354 65.5864 125.026 64.4344C124.878 63.9151 123.93 61.1753 122.919 58.3457L121.081 53.2014L116.699 53.1995L112.316 53.1978L112.21 53.7172ZM140.483 54.1893C140.161 55.7598 136.308 76.6686 136.308 76.8414C136.308 76.9269 140.154 76.9747 144.855 76.9477L153.402 76.8986L153.923 74.1603C154.21 72.6542 154.45 71.2308 154.456 70.997L154.467 70.5721H150.305C145.65 70.5721 145.998 70.7043 146.349 69.0705L146.554 68.117H150.226C153.035 68.117 153.901 68.0615 153.906 67.881C153.91 67.7512 154.152 66.3913 154.444 64.8594L154.975 62.0738H151.316C149.304 62.0738 147.657 62.003 147.657 61.9165C147.657 61.83 147.754 61.2776 147.872 60.689L148.088 59.6187H152.006H155.924L156.138 58.344C156.255 57.6428 156.511 56.1983 156.707 55.1335L157.064 53.1978H148.875H140.685L140.483 54.1893ZM159.207 64.8594C158.024 71.2733 157.018 76.6272 156.97 76.757C156.904 76.9415 157.837 76.993 161.242 76.993H165.6L165.796 76.0016C165.904 75.4563 166.299 73.3529 166.673 71.3275C167.047 69.3021 167.402 67.4411 167.463 67.192C167.579 66.7131 167.557 66.6563 170.054 73.8298L171.155 76.993H179.726H188.297L188.915 75.4822L189.534 73.9714H192.429H195.323V74.6059C195.323 74.9551 195.377 75.635 195.444 76.1168L195.564 76.993H199.782H204L203.905 76.3793C203.853 76.0418 203.152 70.709 202.347 64.5289L200.884 53.2922L196.16 53.2418L191.435 53.1916L185.698 64.148C182.542 70.174 179.906 75.1038 179.839 75.1028C179.773 75.1017 179.278 74.0182 178.739 72.695C178.201 71.3715 177.294 69.1657 176.724 67.7932L175.687 65.2973L179.134 60.7112C181.029 58.1888 183.067 55.4665 183.663 54.6614L184.746 53.1978L179.678 53.2003L174.611 53.2027L171.497 57.9125C169.784 60.5029 168.36 62.5999 168.333 62.5726C168.305 62.5452 168.664 60.4978 169.13 58.0228C169.596 55.5477 169.977 53.4496 169.977 53.3602C169.977 53.2709 168.038 53.1978 165.667 53.1978H161.358L159.207 64.8594ZM30.0846 59.4516C30.4941 59.7732 30.5819 59.9808 30.5357 60.5186C30.4536 61.4735 29.7961 61.8997 28.2095 62.027C27.0243 62.122 26.9432 62.104 27.0411 61.7709C27.099 61.5739 27.2475 60.8818 27.371 60.2325L27.5955 59.0522H28.5858C29.3076 59.0522 29.7138 59.1604 30.0846 59.4516ZM194.921 66.8423L194.945 68.3059H193.439H191.933L192.798 66.2757C193.273 65.1593 193.887 63.5742 194.162 62.7535L194.661 61.2614L194.779 63.32C194.844 64.4524 194.908 66.0372 194.921 66.8423ZM29.0611 68.0234C29.8669 68.4394 30.0386 69.2169 29.5381 70.1832C29.2188 70.7998 28.5765 71.0676 26.9855 71.2474C25.2701 71.4412 25.2724 71.4438 25.5966 69.595C25.9959 67.3173 25.8557 67.4802 27.291 67.627C27.9784 67.6972 28.7751 67.8757 29.0611 68.0234Z" fill="#ED1C24"/>
</g>
</svg>
