<svg width="24" height="24" viewBox="0 0 24 24" fill="none" xmlns="http://www.w3.org/2000/svg">
<path fill-rule="evenodd" clip-rule="evenodd" d="M24 24H0V1.90735e-06H24V24Z" fill="#092C52"/>
<path fill-rule="evenodd" clip-rule="evenodd" d="M7.38098 3.59485C7.38098 3.72578 4.68783 17.7236 4.5649 18.2319L4.5 18.5L9.22315 18.498C14.5184 18.4956 15.0749 18.4373 16.5922 17.7261C17.7098 17.2023 18.6417 16.2773 18.9622 15.3742C19.2782 14.4837 19.2583 13.2165 18.9187 12.5947C18.5943 12.001 17.8451 11.3391 17.2593 11.1289C17.0191 11.0428 16.71 10.9273 16.5724 10.8723C16.3327 10.7765 16.3337 10.7721 16.5989 10.7644C17.2458 10.7454 18.257 10.2607 18.7402 9.73766C19.3544 9.07301 19.5613 8.38739 19.4848 7.2711C19.3616 5.47372 18.2868 4.43785 15.9058 3.82204C15.0623 3.60379 14.4907 3.56733 11.1639 3.51873C8.4577 3.47929 7.38098 3.50097 7.38098 3.59485ZM13.8111 7.43398C14.0818 7.63686 14.1399 7.76779 14.1093 8.10709C14.0551 8.70943 13.6204 8.97832 12.5714 9.05861C11.7878 9.11854 11.7342 9.10722 11.799 8.89707C11.8372 8.77281 11.9354 8.33618 12.0171 7.9266L12.1655 7.18201H12.8202C13.2974 7.18201 13.566 7.25027 13.8111 7.43398ZM13.1344 12.8414C13.6672 13.1038 13.7807 13.5943 13.4498 14.2039C13.2387 14.5929 12.814 14.7618 11.7622 14.8752L11.7568 14.8758C11.2 14.9358 10.9183 14.9662 10.8015 14.8418C10.6819 14.7144 10.7352 14.4247 10.8429 13.8385L10.8439 13.8328C10.8628 13.7303 10.8798 13.6356 10.8955 13.5482C11.0036 12.947 11.0498 12.69 11.1993 12.594C11.3111 12.5222 11.4804 12.5403 11.7763 12.5719C11.8339 12.578 11.8964 12.5847 11.9642 12.5913C12.4186 12.6356 12.9453 12.7482 13.1344 12.8414Z" fill="#ED1C24"/>
<path d="M0 21.25L24 18L0 24V21.25Z" fill="#FFCA04"/>
</svg>
