<svg width="168" height="32" viewBox="0 0 168 32" fill="none" xmlns="http://www.w3.org/2000/svg">
<mask id="mask0" mask-type="alpha" maskUnits="userSpaceOnUse" x="0" y="0" width="168" height="32">
<rect width="168" height="32" fill="white"/>
</mask>
<g mask="url(#mask0)">
<path d="M68.6459 1.00002L50.441 3.33288L49.6895 7.91529L68.6459 1.00002Z" fill="#FFCA04"/>
<path fill-rule="evenodd" clip-rule="evenodd" d="M4.84773 10.146C4.84773 10.3292 1.25086 29.9079 1.08668 30.6189L1 30.9938L7.30806 30.991C14.3802 30.9877 15.1234 30.9062 17.1499 29.9114C18.6425 29.1787 19.8871 27.885 20.3152 26.6217C20.7372 25.3763 20.7107 23.6038 20.257 22.7342C19.8238 21.9037 18.8232 20.9779 18.0409 20.6839C17.7201 20.5634 17.3072 20.402 17.1235 20.325C16.8033 20.191 16.8046 20.1849 17.1589 20.174C18.0229 20.1475 19.3734 19.4695 20.0187 18.738C20.8389 17.8083 21.1153 16.8494 21.0131 15.288C20.8486 12.774 19.4131 11.3251 16.2331 10.4638C15.1066 10.1585 14.3431 10.1076 9.89999 10.0396C6.28575 9.98441 4.84773 10.0147 4.84773 10.146ZM23.743 20.2043C22.7085 25.8179 21.8242 30.5418 21.7779 30.7022C21.6997 30.974 21.9561 30.9938 25.5328 30.9938H29.3715L29.5345 30.2023C29.6242 29.7669 29.945 28.0798 30.2476 26.4531L30.798 23.4954H32.8543C34.211 23.4954 34.9108 23.5563 34.9108 23.6747C34.9108 23.7733 34.6101 25.4265 34.2427 27.3482C33.8752 29.2702 33.5746 30.8767 33.5746 30.9182C33.5746 30.9598 35.3032 30.9938 37.416 30.9938C39.5288 30.9938 41.2574 30.942 41.2574 30.8787C41.2574 30.8154 42.1217 26.1302 43.1781 20.4673C44.2345 14.8043 45.0988 10.132 45.0988 10.0846C45.0988 10.0371 43.3782 9.99808 41.2751 9.99808H37.4514L37.0788 12.0393C36.314 16.2283 36.1266 17.1723 36.0433 17.2553C35.9964 17.3023 35.0602 17.3194 33.9631 17.2936L31.9684 17.2466L32.5966 13.8306C32.9421 11.9518 33.2282 10.321 33.2327 10.2064C33.2388 10.0456 32.3718 9.99808 29.4323 9.99808H25.6238L23.743 20.2043ZM49.2562 10.0397C49.2463 10.0627 48.3591 14.7679 47.2845 20.496L45.3309 30.9105L49.1645 30.9553C51.2729 30.98 53.0219 30.9762 53.0513 30.947C53.0805 30.9177 53.935 26.3984 54.9501 20.9042C55.9652 15.4098 56.8381 10.7084 56.8897 10.4563L56.9835 9.99808H53.1288C51.0088 9.99808 49.266 10.0167 49.2562 10.0397ZM60.9654 10.1231C60.9654 10.2554 57.3655 29.7506 57.1956 30.5388L57.0961 31L60.9899 30.9553L64.8838 30.9105L65.3339 28.4943C65.5814 27.1654 65.9426 25.0659 66.1366 23.8286C66.3306 22.5914 66.5317 21.3166 66.5835 20.9959C66.6658 20.4855 66.8839 20.985 68.3305 24.995C69.2397 27.5154 70.1027 29.8961 70.2483 30.2856L70.5129 30.9938H74.3917H78.2705L80.1539 20.7876C81.1898 15.1742 82.0736 10.45 82.118 10.2897C82.1935 10.0181 81.9358 9.99808 78.3645 9.99808H74.53L74.4438 10.373C74.3965 10.5793 73.9691 12.885 73.4941 15.497C73.0191 18.1089 72.5921 20.3585 72.5452 20.496C72.4982 20.6334 72.295 20.1835 72.0932 19.4962C71.8914 18.8088 71.0559 16.3906 70.2361 14.1222L68.7458 9.99808H64.8557C62.716 9.99808 60.9654 10.0544 60.9654 10.1231ZM85.9506 10.4563C85.7884 11.2483 82.1765 30.8297 82.1765 30.917C82.1765 30.9627 83.9205 30.9798 86.0518 30.9552L89.9273 30.9105L90.6369 26.9946C91.0272 24.8409 91.3982 22.5352 91.461 21.8707C91.5239 21.2063 91.629 20.6626 91.6943 20.6626C91.7598 20.6626 92.6413 22.9685 93.6534 25.7866L95.4936 30.9105L99.3989 30.9548L103.304 30.999L105.207 20.7069C106.254 15.0461 107.145 10.321 107.187 10.2064C107.248 10.0436 106.424 9.99808 103.409 9.99808H99.5526L99.4686 10.373C99.4223 10.5791 99.0071 12.81 98.5457 15.3303C97.4527 21.301 97.5564 20.9292 97.267 19.9127C97.1365 19.4545 96.2995 17.037 95.4069 14.5403L93.7842 10.0012L89.9142 9.99958L86.0444 9.99808L85.9506 10.4563ZM110.915 10.8729C110.631 12.2586 107.229 30.7076 107.229 30.86C107.229 30.9355 110.625 30.9777 114.776 30.9538L122.322 30.9105L122.783 28.4943C123.036 27.1654 123.248 25.9095 123.253 25.7032L123.263 25.3283H119.588C115.477 25.3283 115.785 25.445 116.095 24.0034L116.276 23.1621H119.519C121.998 23.1621 122.763 23.1131 122.768 22.9538C122.771 22.8393 122.985 21.6394 123.243 20.2877L123.711 17.8298H120.481C118.704 17.8298 117.25 17.7673 117.25 17.691C117.25 17.6147 117.336 17.1273 117.44 16.6079L117.63 15.6636H121.09H124.55L124.738 14.5388C124.842 13.9201 125.068 12.6455 125.241 11.7061L125.556 9.99808H118.325H111.094L110.915 10.8729ZM127.448 20.2877C126.404 25.947 125.515 30.6711 125.473 30.7855C125.415 30.9483 126.239 30.9938 129.246 30.9938H133.093L133.267 30.119C133.362 29.6379 133.71 27.782 134.04 25.9948C134.371 24.2077 134.685 22.5657 134.738 22.3459C134.841 21.9233 134.821 21.8732 137.026 28.2027L137.999 30.9938H145.566H153.134L153.68 29.6608L154.226 28.3277H156.782H159.338V28.8876C159.338 29.1957 159.386 29.7956 159.444 30.2207L159.551 30.9938H163.275H167L166.916 30.4523C166.87 30.1545 166.251 25.4491 165.54 19.9961L164.249 10.0814L160.077 10.0369L155.905 9.99258L150.839 19.66C148.053 24.9771 145.725 29.3268 145.666 29.326C145.607 29.325 145.17 28.369 144.695 27.2014C144.219 26.0337 143.419 24.0874 142.915 22.8763L142 20.6741L145.043 16.6276C146.717 14.4019 148.517 11.9998 149.042 11.2895L149.999 9.99808L145.524 10.0002L141.05 10.0024L138.3 14.1581C136.788 16.4438 135.53 18.2941 135.506 18.2699C135.482 18.2457 135.799 16.4393 136.21 14.2554C136.621 12.0715 136.958 10.2202 136.958 10.1414C136.958 10.0626 135.246 9.99808 133.153 9.99808H129.347L127.448 20.2877ZM13.4356 15.5161C13.7972 15.7999 13.8747 15.983 13.8339 16.4576C13.7614 17.3001 13.1809 17.6762 11.7799 17.7885C10.7334 17.8723 10.6618 17.8565 10.7483 17.5625C10.7994 17.3888 10.9305 16.778 11.0395 16.2052L11.2378 15.1637H12.1121C12.7495 15.1637 13.1082 15.2592 13.4356 15.5161ZM158.983 22.0373L159.004 23.3287H157.675H156.345L157.108 21.5374C157.528 20.5523 158.07 19.1537 158.313 18.4295L158.754 17.113L158.858 18.9294C158.915 19.9286 158.971 21.327 158.983 22.0373ZM12.5318 23.0794C13.2433 23.4465 13.395 24.1326 12.9531 24.9852C12.6711 25.5293 12.1039 25.7656 10.6992 25.9242C9.18449 26.0952 9.18649 26.0975 9.47276 24.4662C9.82533 22.4564 9.70157 22.6002 10.9689 22.7297C11.5758 22.7917 12.2793 22.9491 12.5318 23.0794Z" fill="#ED1C24"/>
</g>
</svg>
