<svg width="139" height="32" viewBox="0 0 139 32" fill="none" xmlns="http://www.w3.org/2000/svg">
<mask id="mask0" mask-type="alpha" maskUnits="userSpaceOnUse" x="0" y="0" width="139" height="32">
<rect width="138.35" height="32" fill="#C4C4C4"/>
</mask>
<g mask="url(#mask0)">
<path d="M47.6951 15.5278C47.6185 15.4124 46.163 13.2178 43.5664 10.5536L42.4362 11.8677C40.5597 14.3065 39.5322 15.3989 39.5214 15.4088C39.5106 15.4187 39.5214 15.416 39.5142 15.4187C39.507 15.4214 39.5079 15.4241 39.5061 15.4259C37.8099 17.3186 35.0574 19.972 31.6244 21.8106C32.706 20.3775 33.3666 18.6712 33.532 16.8834C33.6973 15.0955 33.3608 13.297 32.5603 11.6899C31.7598 10.0828 30.527 8.73073 29.0004 7.78564C27.4738 6.84056 25.7139 6.33989 23.9185 6.33989C22.123 6.33989 20.3631 6.84056 18.8365 7.78564C17.31 8.73073 16.0772 10.0828 15.2767 11.6899C14.4761 13.297 14.1397 15.0955 14.305 16.8834C14.4703 18.6712 15.1309 20.3775 16.2125 21.8106C12.7805 19.972 10.027 17.3177 8.33173 15.4259C8.33173 15.4259 8.32633 15.4196 8.32362 15.4187C8.32092 15.4178 8.32362 15.4124 8.31641 15.4088C8.3092 15.4052 7.27814 14.3065 5.40077 11.8677L4.27237 10.5536C1.67308 13.2178 0.216612 15.4124 0.141806 15.5278C0.0496025 15.6685 0.000488281 15.8331 0.000488281 16.0014C0.000488281 16.1696 0.0496025 16.3342 0.141806 16.475C0.238243 16.621 2.57526 20.1486 6.67428 23.7195C12.1126 28.4575 18.0728 30.973 23.9194 31C29.7651 30.973 35.7261 28.4575 41.1636 23.7195C45.2599 20.1486 47.5987 16.621 47.6951 16.475C47.7873 16.3342 47.8364 16.1696 47.8364 16.0014C47.8364 15.8331 47.7873 15.6685 47.6951 15.5278V15.5278ZM15.9863 16.0514C15.9863 16.0361 15.9863 16.0208 15.9863 16.0036C15.9587 14.945 16.1433 13.8916 16.5293 12.9055C16.9153 11.9194 17.4949 11.0205 18.2339 10.262C18.9728 9.50348 19.8562 8.90062 20.8319 8.48899C21.8076 8.07736 22.8559 7.86529 23.9149 7.86529C24.9738 7.86529 26.0221 8.07736 26.9978 8.48899C27.9735 8.90062 28.8569 9.50348 29.5959 10.262C30.3348 11.0205 30.9144 11.9194 31.3004 12.9055C31.6864 13.8916 31.8711 14.945 31.8434 16.0036C31.8434 16.0208 31.8434 16.0361 31.8434 16.0514C31.8289 18.004 31.0957 19.8829 29.7838 21.3292C28.472 22.7756 26.6734 23.6881 24.7314 23.8925C24.461 23.9115 24.1907 23.9232 23.9122 23.9259C23.6337 23.9286 23.3633 23.9115 23.0911 23.8925C21.1506 23.6861 19.354 22.7727 18.0437 21.3266C16.7333 19.8805 16.001 18.0028 15.9863 16.0514V16.0514ZM39.9964 22.4505C36.4318 25.5518 30.7529 29.2443 23.9194 29.2768C17.0841 29.2452 11.4051 25.5527 7.84144 22.4505C5.63333 20.5247 3.64449 18.3612 1.91102 15.9991C2.3229 15.4313 3.10882 14.3948 4.21559 13.1466C5.99382 15.4421 6.9699 16.4894 7.05823 16.5832C9.95494 19.8133 15.7547 25.1111 22.9316 25.605C23.256 25.6374 23.5859 25.6536 23.923 25.6536C24.2601 25.6536 24.5854 25.6374 24.9099 25.605C32.0859 25.1093 37.8883 19.8115 40.7832 16.5823C40.8733 16.4921 41.8476 15.4412 43.6258 13.1457C44.7326 14.3939 45.5185 15.4304 45.9304 15.9982C44.1956 18.3606 42.2056 20.5244 39.9964 22.4505V22.4505Z" fill="black"/>
<path d="M7.83612 9.54953C11.3998 6.44913 17.0787 2.75479 23.914 2.72325C30.7475 2.75479 36.4265 6.44913 39.991 9.54953C40.3831 9.89112 40.7607 10.2327 41.1176 10.5716L42.2649 9.29177C41.9098 8.95829 41.5397 8.62272 41.1546 8.28504C35.719 3.54341 29.7597 1.02704 23.914 1C18.0674 1.02704 12.1073 3.54341 6.66897 8.28053C6.28322 8.61761 5.9131 8.95469 5.55859 9.29177L6.70862 10.5716C7.06613 10.2327 7.44196 9.89202 7.83612 9.54953Z" fill="black"/>
<path d="M28.016 12.0578C26.7491 11.4226 25.3522 11.0897 23.935 11.0853H23.9215C22.5012 11.0878 21.1009 11.4207 19.8315 12.0578L19.416 12.266V17.0428C19.416 18.8741 21.5539 20.8687 23.5394 21.9466L23.8999 22.1404L24.2559 21.9466C26.2666 20.8561 28.4306 18.8552 28.4306 17.0428V12.266L28.016 12.0578Z" fill="#FF0000"/>
<path d="M28.3133 11.8811L23.9592 16.2659L22.0683 14.375L20.9047 15.5376L20.8516 15.5962L23.3724 18.0819L23.9781 18.6714L24.518 18.1324L29.5228 13.0915L28.3133 11.8811Z" fill="white"/>
<path d="M109.641 8.67236C110.47 9.35392 111.016 10.3186 111.174 11.3798H108.628C108.546 10.9107 108.296 10.4874 107.925 10.1885C107.526 9.88416 107.033 9.72908 106.531 9.75019C106.229 9.74437 105.928 9.80491 105.652 9.92757C105.375 10.0502 105.128 10.232 104.929 10.4602C104.501 10.9346 104.286 11.6291 104.286 12.5436C104.286 13.4581 104.501 14.1521 104.929 14.6254C105.128 14.8541 105.374 15.0362 105.651 15.1589C105.928 15.2816 106.228 15.3418 106.531 15.3353C107.03 15.3553 107.521 15.2009 107.919 14.8987C108.293 14.6001 108.545 14.1753 108.628 13.704H111.181C111.023 14.7652 110.477 15.7299 109.648 16.4114C108.832 17.075 107.813 17.4062 106.59 17.405C105.73 17.4212 104.881 17.2183 104.121 16.8154C103.41 16.428 102.827 15.8413 102.443 15.1273C102.027 14.3298 101.821 13.4395 101.843 12.5402C101.821 11.6397 102.026 10.7481 102.44 9.94788C102.82 9.23141 103.404 8.64387 104.118 8.25979C104.879 7.86644 105.726 7.66966 106.583 7.68735C107.806 7.68735 108.825 8.01569 109.641 8.67236Z" fill="#FF0000"/>
<path d="M118.126 8.24265C118.686 8.60654 119.112 9.14219 119.341 9.76915V7.79743H121.748V17.2916H119.341V15.3027C119.111 15.9316 118.685 16.4698 118.126 16.8378C117.512 17.2322 116.793 17.4317 116.063 17.4102C115.303 17.4213 114.556 17.2201 113.904 16.8292C113.251 16.4242 112.73 15.8375 112.405 15.1411C112.049 14.3218 111.865 13.4379 111.865 12.5445C111.865 11.6511 112.049 10.7673 112.405 9.94793C112.73 9.25151 113.251 8.66489 113.904 8.25984C114.558 7.87178 115.308 7.67357 116.068 7.68741C116.794 7.66404 117.51 7.85734 118.126 8.24265V8.24265ZM115.006 10.5221C114.548 11.0137 114.318 11.6882 114.318 12.5454C114.318 13.4026 114.548 14.0736 115.006 14.5584C115.494 15.0279 116.145 15.2888 116.822 15.2856C117.499 15.2823 118.148 15.0153 118.631 14.5412C119.105 14.045 119.341 13.3797 119.341 12.5454C119.341 11.7111 119.105 11.0395 118.631 10.5307C118.399 10.2863 118.118 10.0936 117.807 9.96534C117.495 9.83706 117.16 9.77607 116.823 9.78634C116.485 9.77208 116.148 9.83037 115.835 9.95728C115.521 10.0842 115.239 10.2768 115.006 10.5221V10.5221Z" fill="#FF0000"/>
<path d="M126.545 8.18421C127.137 7.83569 127.813 7.65724 128.5 7.6685V10.247H127.797C126.026 10.247 125.141 11.0693 125.141 12.7139V17.2899H122.726V7.79743H125.141V9.61444C125.479 9.02553 125.963 8.53313 126.545 8.18421V8.18421Z" fill="#FF0000"/>
<path d="M138.269 13.0164H131.31C131.345 13.8621 131.574 14.4844 131.998 14.8832C132.423 15.2843 132.99 15.5002 133.574 15.4832C134.072 15.5017 134.563 15.3574 134.972 15.0723C135.339 14.8027 135.593 14.4053 135.682 13.9584H138.235C138.114 14.6089 137.838 15.2205 137.43 15.741C137.009 16.2738 136.465 16.6967 135.845 16.9736C135.112 17.29 134.318 17.4411 133.52 17.4162C132.721 17.3912 131.938 17.1908 131.226 16.8292C130.515 16.4417 129.931 15.8551 129.548 15.1411C129.132 14.3436 128.926 13.4533 128.948 12.554C128.926 11.6514 129.133 10.758 129.548 9.95651C129.928 9.24005 130.512 8.65251 131.226 8.26843C131.987 7.87182 132.835 7.67207 133.693 7.68739C134.549 7.66798 135.395 7.86801 136.151 8.26843C136.835 8.63756 137.399 9.19315 137.779 9.87056C138.302 10.8307 138.475 11.9427 138.269 13.0164V13.0164ZM135.312 10.1886C134.872 9.78368 134.291 9.565 133.693 9.57833C133.088 9.56084 132.499 9.7755 132.048 10.1783C131.602 10.5794 131.356 11.1679 131.31 11.9437H135.921C135.955 11.169 135.752 10.5811 135.312 10.18V10.1886Z" fill="#FF0000"/>
<path d="M56 7.63067H58.2829L60.6895 14.9451H60.7308L63.0515 7.63067H65.2295L61.8224 17.1558H59.4638L56 7.63067Z" fill="black"/>
<path d="M65.7061 4H67.8084V5.98892H65.7061V4ZM65.7061 7.6306H67.8084V17.1557H65.7061V7.6306Z" fill="black"/>
<path d="M70.5926 14.0977C70.6975 15.3147 71.624 15.7548 72.7449 15.7548C73.5408 15.7548 74.9194 15.5829 74.8661 14.5033C74.8128 13.4238 73.2795 13.2708 71.7513 12.9184C70.223 12.566 68.6931 12.0331 68.6931 10.094C68.6931 8.01229 70.9382 7.36421 72.6727 7.36421C74.6272 7.36421 76.3909 8.17731 76.6488 10.2866H74.4587C74.2765 9.29297 73.4479 9.01448 72.5248 9.01448C71.9163 9.01448 70.7903 9.16232 70.7903 9.99261C70.7903 11.024 72.3374 11.1719 73.8846 11.5225C75.4317 11.8732 76.9599 12.4233 76.9599 14.3022C76.9599 16.5696 74.677 17.3965 72.707 17.3965C70.3124 17.3965 68.5264 16.3307 68.4868 14.0822L70.5926 14.0977Z" fill="black"/>
<path d="M77.6655 4H79.7662V5.98892H77.6655V4ZM77.6655 7.6306H79.7662V17.1557H77.6655V7.6306Z" fill="black"/>
<path d="M80.4644 12.3821C80.4644 9.47347 82.216 7.37109 85.2776 7.37109C88.3392 7.37109 90.0909 9.47347 90.0909 12.3821C90.0909 15.2907 88.3392 17.412 85.2776 17.412C82.216 17.412 80.4644 15.3147 80.4644 12.3821ZM87.9851 12.3821C87.9851 10.7456 87.1531 9.02996 85.2759 9.02996C83.3987 9.02996 82.5667 10.749 82.5667 12.3821C82.5667 14.0151 83.397 15.7548 85.2759 15.7548C87.1548 15.7548 87.9851 14.0478 87.9851 12.3821Z" fill="black"/>
<path d="M90.8232 7.63063H92.8139V9.02991L92.8517 9.06773C93.1534 8.549 93.5866 8.11901 94.1075 7.82113C94.6284 7.52324 95.2187 7.36799 95.8187 7.37105C97.8816 7.37105 99.1863 8.47811 99.1863 10.6166V17.1489H97.0874V11.1667C97.0478 9.67627 96.4617 9.02991 95.2257 9.02991C93.8247 9.02991 92.9239 10.137 92.9239 11.538V17.1558H90.8232V7.63063Z" fill="black"/>
<path d="M106.384 22.9998V29.9309H105V22.9998H106.384Z" fill="black"/>
<path d="M113.51 29.9299H112.135L109.023 25.2215V29.9334H107.648V22.9988H109.023L112.126 27.7502V22.9988H113.501L113.51 29.9299Z" fill="black"/>
<path d="M119.264 29.012C119.075 29.3204 118.803 29.569 118.478 29.7288C118.084 29.9196 117.649 30.0122 117.211 29.9987C116.76 30.0067 116.313 29.9213 115.896 29.7477C115.528 29.5957 115.207 29.3468 114.968 29.0275C114.733 28.7061 114.596 28.3244 114.571 27.9273H116.049C116.076 28.1949 116.198 28.444 116.393 28.6286C116.496 28.7242 116.618 28.7981 116.75 28.8463C116.882 28.8944 117.023 28.9156 117.163 28.9088C117.284 28.9167 117.404 28.9004 117.518 28.8609C117.632 28.8213 117.737 28.7593 117.827 28.6785C117.904 28.6002 117.964 28.507 118.003 28.4048C118.043 28.3025 118.061 28.1933 118.057 28.0837C118.064 27.8882 117.997 27.6973 117.87 27.5491C117.74 27.4016 117.579 27.2843 117.399 27.2053C117.21 27.1205 116.948 27.0225 116.613 26.9113C116.25 26.7951 115.896 26.652 115.554 26.4833C115.274 26.3394 115.032 26.1294 114.851 25.8713C114.646 25.5599 114.545 25.1916 114.562 24.8193C114.55 24.5527 114.6 24.2869 114.709 24.0432C114.818 23.7996 114.983 23.5849 115.19 23.4165C115.618 23.0727 116.186 22.9008 116.893 22.9008C117.626 22.9008 118.21 23.0773 118.645 23.4303C118.859 23.6027 119.035 23.8172 119.163 24.0606C119.29 24.304 119.366 24.571 119.386 24.8451H117.894C117.863 24.6105 117.751 24.3938 117.579 24.2314C117.388 24.0633 117.138 23.9769 116.883 23.9907C116.659 23.9802 116.439 24.0517 116.264 24.1918C116.123 24.3351 116.039 24.5255 116.029 24.7266C116.02 24.9276 116.084 25.1253 116.211 25.2817C116.34 25.4219 116.497 25.5337 116.672 25.61C116.92 25.719 117.174 25.8143 117.433 25.8954C117.803 26.0213 118.165 26.1688 118.518 26.3372C118.803 26.4806 119.048 26.6934 119.23 26.956C119.439 27.276 119.541 27.6538 119.524 28.0356C119.528 28.3787 119.438 28.7164 119.264 29.012Z" fill="black"/>
<path d="M121.895 22.9988V27.0643C121.895 27.6075 122.014 28.0144 122.253 28.2848C122.532 28.5477 122.901 28.6941 123.284 28.6941C123.668 28.6941 124.037 28.5477 124.316 28.2848C124.555 28.0144 124.674 27.6075 124.673 27.0643V22.9988H126.048V27.0643C126.066 27.6273 125.943 28.1857 125.689 28.6888C125.469 29.1124 125.122 29.4571 124.697 29.6755C124.251 29.8964 123.758 30.0072 123.26 29.9987C122.428 29.9987 121.763 29.75 121.266 29.2526C120.769 28.7553 120.52 28.0258 120.52 27.0643V22.9988H121.895Z" fill="black"/>
<path d="M130.869 29.9299L129.248 27.2311H128.639V29.9299H127.255V22.9988H129.896C130.698 22.9988 131.312 23.1953 131.737 23.5884C131.947 23.786 132.112 24.0264 132.221 24.2933C132.33 24.5602 132.381 24.8474 132.369 25.1356C132.386 25.6121 132.231 26.0787 131.933 26.4506C131.606 26.825 131.161 27.0752 130.671 27.1589L132.4 29.9265L130.869 29.9299ZM128.634 26.277H129.774C130.565 26.277 130.96 25.9275 130.962 25.2284C130.97 25.085 130.949 24.9413 130.899 24.8066C130.849 24.6719 130.771 24.5492 130.671 24.4462C130.479 24.2606 130.179 24.1677 129.774 24.1677H128.634V26.277Z" fill="black"/>
<path d="M134.688 24.099V25.8954H137.142V26.956H134.688V28.8212H137.438V29.9299H133.312V22.9988H137.438V24.099H134.688Z" fill="black"/>
</g>
</svg>
