<svg width="220" height="120" viewBox="0 0 220 120" fill="none" xmlns="http://www.w3.org/2000/svg">
<mask id="mask0" mask-type="alpha" maskUnits="userSpaceOnUse" x="0" y="0" width="220" height="120">
<rect width="220" height="120" fill="#C4C4C4"/>
</mask>
<g mask="url(#mask0)">
</g>
<g clip-path="url(#clip0)">
<path d="M156.722 41.5475C156.572 41.3208 153.711 37.0083 148.609 31.7731L146.388 34.3553C142.701 39.1477 140.682 41.2942 140.66 41.3137C140.639 41.3332 140.66 41.3279 140.646 41.3332C140.632 41.3385 140.634 41.3438 140.63 41.3474C137.297 45.0666 131.888 50.2805 125.143 53.8935C127.268 51.0774 128.566 47.7245 128.891 44.2113C129.216 40.6982 128.555 37.1641 126.982 34.006C125.409 30.848 122.986 28.1911 119.986 26.334C116.986 24.4769 113.528 23.493 110 23.493C106.472 23.493 103.014 24.4769 100.014 26.334C97.0142 28.1911 94.5917 30.848 93.0187 34.006C91.4456 37.1641 90.7844 40.6982 91.1093 44.2113C91.4342 47.7245 92.7322 51.0774 94.8577 53.8935C88.1136 50.2805 82.703 45.0648 79.3717 41.3474C79.3717 41.3474 79.361 41.335 79.3557 41.3332C79.3504 41.3314 79.3557 41.3208 79.3416 41.3137C79.3274 41.3066 77.3013 39.1477 73.6122 34.3553L71.3949 31.7731C66.2872 37.0083 63.4252 41.3208 63.2782 41.5475C63.097 41.8241 63.0005 42.1475 63.0005 42.4782C63.0005 42.8088 63.097 43.1323 63.2782 43.4089C63.4677 43.6958 68.06 50.6277 76.1147 57.6445C86.8012 66.9549 98.5131 71.8979 110.002 71.951C121.489 71.8979 133.203 66.9549 143.887 57.6445C151.937 50.6277 156.533 43.6958 156.722 43.4089C156.903 43.1323 157 42.8088 157 42.4782C157 42.1475 156.903 41.8241 156.722 41.5475V41.5475ZM94.4132 42.5765C94.4132 42.5464 94.4132 42.5163 94.4132 42.4826C94.3588 40.4024 94.7216 38.3324 95.4802 36.3946C96.2387 34.4569 97.3776 32.6906 98.8297 31.2001C100.282 29.7096 102.018 28.525 103.935 27.7161C105.852 26.9072 107.912 26.4905 109.993 26.4905C112.074 26.4905 114.134 26.9072 116.051 27.7161C117.968 28.525 119.704 29.7096 121.156 31.2001C122.608 32.6906 123.747 34.4569 124.506 36.3946C125.264 38.3324 125.627 40.4024 125.573 42.4826C125.573 42.5163 125.573 42.5464 125.573 42.5765C125.544 46.4134 124.104 50.1055 121.526 52.9476C118.948 55.7897 115.414 57.5829 111.598 57.9846C111.066 58.0218 110.535 58.0448 109.988 58.0501C109.44 58.0554 108.909 58.0218 108.374 57.9846C104.561 57.5789 101.031 55.7841 98.4559 52.9425C95.8811 50.1008 94.4421 46.411 94.4132 42.5765V42.5765ZM141.594 55.1509C134.589 61.2451 123.43 68.501 110.002 68.5648C96.5703 68.5028 85.4109 61.2468 78.4082 55.1509C74.0692 51.3667 70.1611 47.1153 66.7547 42.4738C67.5641 41.358 69.1085 39.3213 71.2833 36.8684C74.7776 41.3793 76.6956 43.4372 76.8692 43.6214C82.5613 49.9688 93.958 60.379 108.061 61.3496C108.698 61.4133 109.347 61.4452 110.009 61.4452C110.671 61.4452 111.311 61.4133 111.948 61.3496C126.049 60.3755 137.451 49.9653 143.14 43.6196C143.317 43.4425 145.232 41.3775 148.726 36.8666C150.901 39.3195 152.445 41.3562 153.254 42.472C149.845 47.1141 145.935 51.3661 141.594 55.1509V55.1509Z" fill="black"/>
<path d="M78.408 29.8001C85.4108 23.7077 96.5701 16.4482 110.002 16.3862C123.43 16.4482 134.589 23.7077 141.594 29.8001C142.364 30.4714 143.106 31.1426 143.807 31.8085L146.062 29.2936C145.364 28.6383 144.637 27.9789 143.88 27.3154C133.199 17.9979 121.489 13.0531 110.002 13C98.513 13.0531 86.801 17.9979 76.1145 27.3065C75.3565 27.9689 74.6292 28.6312 73.9326 29.2936L76.1925 31.8085C76.895 31.1426 77.6335 30.4731 78.408 29.8001Z" fill="black"/>
<path d="M122.842 85.3879C123.696 86.0901 124.258 87.084 124.422 88.1773H121.799C121.714 87.694 121.456 87.2579 121.074 86.95C120.663 86.6364 120.155 86.4766 119.638 86.4983C119.326 86.4923 119.017 86.5547 118.732 86.6811C118.446 86.8075 118.192 86.9947 117.987 87.2298C117.546 87.7186 117.325 88.4341 117.325 89.3763C117.325 90.3185 117.546 91.0334 117.987 91.521C118.192 91.7566 118.446 91.9443 118.731 92.0707C119.016 92.1972 119.326 92.2592 119.638 92.2525C120.152 92.2731 120.658 92.114 121.067 91.8026C121.453 91.495 121.713 91.0574 121.799 90.5718H124.429C124.266 91.6651 123.703 92.659 122.849 93.3611C122.008 94.0448 120.958 94.386 119.698 94.3848C118.813 94.4015 117.937 94.1924 117.155 93.7773C116.422 93.3782 115.821 92.7737 115.426 92.0382C114.998 91.2165 114.785 90.2993 114.808 89.3728C114.785 88.445 114.997 87.5265 115.423 86.702C115.814 85.9639 116.416 85.3586 117.151 84.9628C117.936 84.5576 118.809 84.3549 119.691 84.3731C120.951 84.3731 122.001 84.7114 122.842 85.3879Z" fill="#FF0000"/>
<path d="M131.584 84.9452C132.161 85.3201 132.6 85.8719 132.836 86.5179V84.4865H135.316V94.268H132.836V92.2189C132.599 92.8667 132.16 93.4212 131.584 93.8004C130.951 94.2067 130.21 94.4123 129.459 94.3902C128.676 94.4016 127.906 94.1943 127.234 93.7916C126.561 93.3742 126.025 92.7699 125.69 92.0524C125.323 91.2082 125.134 90.2976 125.134 89.3772C125.134 88.4568 125.323 87.5462 125.69 86.7021C126.025 85.9846 126.561 85.3802 127.234 84.9629C127.908 84.5631 128.68 84.3589 129.464 84.3731C130.212 84.3491 130.95 84.5482 131.584 84.9452V84.9452ZM128.37 87.2936C127.897 87.8001 127.661 88.4949 127.661 89.3781C127.661 90.2613 127.897 90.9526 128.37 91.452C128.872 91.9357 129.543 92.2045 130.241 92.2012C130.938 92.1979 131.607 91.9228 132.105 91.4343C132.592 90.9231 132.836 90.2377 132.836 89.3781C132.836 88.5186 132.592 87.8267 132.105 87.3024C131.866 87.0506 131.576 86.8521 131.255 86.72C130.934 86.5878 130.589 86.525 130.242 86.5356C129.893 86.5209 129.546 86.5809 129.223 86.7117C128.9 86.8424 128.609 87.0409 128.37 87.2936V87.2936Z" fill="#FF0000"/>
<path d="M140.257 84.885C140.866 84.5259 141.563 84.342 142.27 84.3537V87.0102H141.546C139.722 87.0102 138.81 87.8574 138.81 89.5517V94.2662H136.321V84.4865H138.81V86.3585C139.158 85.7517 139.656 85.2444 140.257 84.885V84.885Z" fill="#FF0000"/>
<path d="M152.335 89.8633H145.166C145.202 90.7347 145.438 91.3758 145.875 91.7867C146.312 92.1999 146.897 92.4223 147.499 92.4048C148.012 92.4238 148.517 92.2752 148.938 91.9815C149.317 91.7037 149.578 91.2943 149.67 90.8339H152.3C152.176 91.504 151.892 92.1342 151.471 92.6704C151.037 93.2193 150.477 93.655 149.838 93.9403C149.083 94.2663 148.265 94.422 147.442 94.3963C146.62 94.3706 145.813 94.1641 145.079 93.7915C144.346 93.3923 143.745 92.7879 143.351 92.0524C142.922 91.2307 142.709 90.3134 142.733 89.3869C142.71 88.4571 142.923 87.5366 143.351 86.7109C143.742 85.9727 144.344 85.3674 145.079 84.9717C145.863 84.5631 146.737 84.3573 147.621 84.3731C148.502 84.3531 149.374 84.5592 150.153 84.9717C150.857 85.352 151.439 85.9244 151.831 86.6223C152.369 87.6115 152.548 88.7572 152.335 89.8633V89.8633ZM149.289 86.95C148.835 86.5328 148.237 86.3075 147.621 86.3213C146.998 86.3032 146.391 86.5244 145.926 86.9393C145.467 87.3526 145.213 87.9589 145.166 88.7582H149.916C149.951 87.9601 149.742 87.3544 149.289 86.9411V86.95Z" fill="#FF0000"/>
<path d="M67.5781 84.3147H69.9301L72.4095 91.8505H72.452L74.843 84.3147H77.0869L73.5767 94.1281H71.1468L67.5781 84.3147Z" fill="black"/>
<path d="M77.5796 80.5742H79.7456V82.6233H77.5796V80.5742ZM77.5796 84.3146H79.7456V94.128H77.5796V84.3146Z" fill="black"/>
<path d="M82.6144 90.9774C82.7224 92.2313 83.677 92.6847 84.8317 92.6847C85.6517 92.6847 87.0721 92.5076 87.0172 91.3953C86.9623 90.2831 85.3825 90.1255 83.808 89.7624C82.2336 89.3994 80.6573 88.8504 80.6573 86.8526C80.6573 84.7079 82.9703 84.0402 84.7573 84.0402C86.771 84.0402 88.5881 84.8779 88.8537 87.051H86.5974C86.4097 86.0273 85.5561 85.7404 84.605 85.7404C83.9781 85.7404 82.818 85.8927 82.818 86.7481C82.818 87.8107 84.412 87.9631 86.0059 88.3244C87.5998 88.6856 89.1743 89.2524 89.1743 91.1881C89.1743 93.5241 86.8224 94.376 84.7927 94.376C82.3257 94.376 80.4856 93.278 80.4448 90.9614L82.6144 90.9774Z" fill="black"/>
<path d="M89.9023 80.5742H92.0666V82.6233H89.9023V80.5742ZM89.9023 84.3146H92.0666V94.128H89.9023V84.3146Z" fill="black"/>
<path d="M92.7837 89.2098C92.7837 86.2132 94.5884 84.0472 97.7426 84.0472C100.897 84.0472 102.702 86.2132 102.702 89.2098C102.702 92.2065 100.897 94.3919 97.7426 94.3919C94.5884 94.3919 92.7837 92.2312 92.7837 89.2098ZM100.532 89.2098C100.532 87.5238 99.6748 85.7563 97.7408 85.7563C95.8069 85.7563 94.9497 87.5274 94.9497 89.2098C94.9497 90.8923 95.8051 92.6846 97.7408 92.6846C99.6766 92.6846 100.532 90.926 100.532 89.2098Z" fill="black"/>
<path d="M103.455 84.3147H105.505V85.7563L105.544 85.7952C105.855 85.2608 106.302 84.8178 106.838 84.5109C107.375 84.204 107.983 84.0441 108.601 84.0472C110.727 84.0472 112.071 85.1878 112.071 87.391V94.1209H109.908V87.9577C109.868 86.4222 109.264 85.7563 107.99 85.7563C106.547 85.7563 105.619 86.8968 105.619 88.3402V94.128H103.455V84.3147Z" fill="black"/>
<path d="M94.8383 100.148V107.289H93.4126V100.148H94.8383Z" fill="black"/>
<path d="M102.181 107.289H100.764L97.5584 102.438V107.292H96.1416V100.148H97.5584L100.755 105.043V100.148H102.172L102.181 107.289Z" fill="black"/>
<path d="M108.109 106.343C107.914 106.661 107.634 106.917 107.3 107.081C106.893 107.278 106.445 107.373 105.994 107.36C105.53 107.368 105.068 107.28 104.639 107.101C104.26 106.944 103.929 106.688 103.683 106.359C103.441 106.028 103.299 105.635 103.274 105.225H104.797C104.824 105.501 104.95 105.758 105.151 105.948C105.258 106.046 105.383 106.123 105.519 106.172C105.655 106.222 105.8 106.244 105.945 106.237C106.069 106.245 106.193 106.228 106.311 106.187C106.428 106.147 106.536 106.083 106.628 105.999C106.707 105.919 106.769 105.823 106.81 105.717C106.851 105.612 106.87 105.499 106.866 105.387C106.873 105.185 106.804 104.988 106.673 104.836C106.539 104.684 106.373 104.563 106.187 104.482C105.993 104.394 105.723 104.293 105.378 104.179C105.004 104.059 104.639 103.912 104.287 103.738C103.998 103.59 103.749 103.373 103.563 103.107C103.352 102.786 103.247 102.407 103.265 102.023C103.252 101.749 103.304 101.475 103.416 101.224C103.529 100.973 103.698 100.752 103.912 100.578C104.353 100.224 104.938 100.047 105.667 100.047C106.421 100.047 107.023 100.229 107.471 100.592C107.692 100.77 107.873 100.991 108.005 101.242C108.136 101.493 108.214 101.768 108.235 102.05H106.697C106.665 101.808 106.551 101.585 106.373 101.418C106.176 101.245 105.918 101.156 105.656 101.17C105.425 101.159 105.199 101.233 105.018 101.377C104.873 101.525 104.787 101.721 104.777 101.928C104.766 102.135 104.833 102.339 104.964 102.5C105.097 102.644 105.258 102.759 105.438 102.838C105.694 102.95 105.956 103.048 106.223 103.132C106.604 103.262 106.977 103.414 107.34 103.587C107.634 103.735 107.886 103.954 108.073 104.225C108.289 104.554 108.395 104.944 108.376 105.337C108.381 105.69 108.288 106.038 108.109 106.343Z" fill="black"/>
<path d="M110.818 100.148V104.336C110.818 104.896 110.941 105.315 111.187 105.594C111.474 105.865 111.854 106.016 112.249 106.016C112.644 106.016 113.024 105.865 113.312 105.594C113.559 105.315 113.681 104.896 113.68 104.336V100.148H115.097V104.336C115.115 104.916 114.988 105.492 114.727 106.01C114.5 106.446 114.143 106.802 113.705 107.027C113.245 107.254 112.737 107.368 112.224 107.36C111.367 107.36 110.682 107.103 110.17 106.591C109.658 106.078 109.401 105.327 109.401 104.336V100.148H110.818Z" fill="black"/>
<path d="M120.065 107.289L118.395 104.508H117.768V107.289H116.342V100.148H119.063C119.889 100.148 120.521 100.35 120.959 100.755C121.176 100.959 121.346 101.207 121.458 101.481C121.571 101.756 121.623 102.052 121.611 102.349C121.628 102.84 121.469 103.321 121.161 103.704C120.825 104.09 120.366 104.348 119.861 104.434L121.643 107.285L120.065 107.289ZM117.763 103.525H118.937C119.752 103.525 120.159 103.165 120.161 102.445C120.17 102.297 120.148 102.149 120.096 102.01C120.045 101.872 119.965 101.745 119.861 101.639C119.663 101.448 119.355 101.352 118.937 101.352H117.763V103.525Z" fill="black"/>
<path d="M123.998 101.281V103.132H126.527V104.225H123.998V106.146H126.832V107.289H122.582V100.148H126.832V101.281H123.998Z" fill="black"/>
<path d="M118.046 34.7289C115.556 33.4808 112.811 32.8267 110.027 32.818H110C107.209 32.8228 104.457 33.4771 101.963 34.7289L101.146 35.138V44.5246C101.146 48.1233 105.347 52.0427 109.249 54.1608L109.957 54.5416L110.657 54.1608C114.608 52.0179 118.86 48.0861 118.86 44.5246V35.138L118.046 34.7289Z" fill="#FF0000"/>
<path d="M118.627 34.3818L110.071 42.998L106.355 39.2823L104.069 41.567L103.964 41.6821L108.918 46.5666L110.108 47.7249L111.169 46.6658L121.004 36.7603L118.627 34.3818Z" fill="white"/>
</g>
<defs>
<clipPath id="clip0">
<rect width="94" height="94.3595" fill="white" transform="translate(63 13)"/>
</clipPath>
</defs>
</svg>