<svg width="24" height="24" viewBox="0 0 24 24" fill="none" xmlns="http://www.w3.org/2000/svg">
<rect x="0.125" y="0.125" width="23.75" height="23.75" fill="white" stroke="#EEEEEE" stroke-width="0.25"/>
<g clip-path="url(#clip0)">
<path d="M21.8648 8.0508C21.8329 8.00275 21.2266 7.08869 20.1452 5.97906L19.6744 6.52637C18.8929 7.54215 18.4649 7.99712 18.4604 8.00124C18.4559 8.00537 18.4604 8.00425 18.4574 8.00537C18.4544 8.0065 18.4548 8.00763 18.4541 8.00838C17.7476 8.79668 16.6012 9.90181 15.1713 10.6676C15.6218 10.0707 15.897 9.36003 15.9658 8.61541C16.0347 7.87078 15.8945 7.1217 15.5611 6.45234C15.2277 5.78297 14.7143 5.21984 14.0784 4.82621C13.4426 4.43258 12.7096 4.22405 11.9618 4.22405C11.214 4.22405 10.481 4.43258 9.84521 4.82621C9.20938 5.21984 8.69592 5.78297 8.36251 6.45234C8.0291 7.1217 7.88895 7.87078 7.95781 8.61541C8.02667 9.36003 8.3018 10.0707 8.7523 10.6676C7.32285 9.90181 6.17605 8.7963 5.46996 8.00838C5.46996 8.00838 5.46771 8.00575 5.46658 8.00537C5.46545 8.005 5.46658 8.00275 5.46358 8.00124C5.46057 7.99974 5.03114 7.54215 4.24922 6.52637L3.77924 5.97906C2.69663 7.08869 2.09002 8.00275 2.05886 8.0508C2.02046 8.10942 2 8.17798 2 8.24806C2 8.31814 2.02046 8.3867 2.05886 8.44532C2.09902 8.50613 3.07239 9.97538 4.77963 11.4626C7.04469 13.436 9.52709 14.4837 11.9622 14.495C14.3969 14.4837 16.8797 13.436 19.1444 11.4626C20.8505 9.97538 21.8246 8.50613 21.8648 8.44532C21.9032 8.3867 21.9236 8.31814 21.9236 8.24806C21.9236 8.17798 21.9032 8.10942 21.8648 8.0508V8.0508ZM8.65808 8.26889C8.65808 8.26251 8.65808 8.25613 8.65808 8.249C8.64657 7.80808 8.72346 7.36933 8.88424 6.95861C9.04501 6.5479 9.28641 6.17354 9.59419 5.85761C9.90197 5.54169 10.2699 5.2906 10.6763 5.11915C11.0827 4.94771 11.5193 4.85938 11.9603 4.85938C12.4014 4.85938 12.838 4.94771 13.2444 5.11915C13.6507 5.2906 14.0187 5.54169 14.3265 5.85761C14.6342 6.17354 14.8756 6.5479 15.0364 6.95861C15.1972 7.36933 15.2741 7.80808 15.2626 8.249C15.2626 8.25613 15.2626 8.26251 15.2626 8.26889C15.2565 9.08216 14.9511 9.8647 14.4047 10.4671C13.8584 11.0695 13.1092 11.4496 12.3004 11.5347C12.1878 11.5426 12.0752 11.5475 11.9592 11.5486C11.8432 11.5497 11.7306 11.5426 11.6172 11.5347C10.809 11.4487 10.0607 11.0683 9.51497 10.466C8.96922 9.86372 8.66421 9.08164 8.65808 8.26889V8.26889ZM18.6583 10.9341C17.1736 12.2258 14.8083 13.7637 11.9622 13.7773C9.1153 13.7641 6.75001 12.2262 5.26575 10.9341C4.34608 10.132 3.51772 9.23092 2.79573 8.24712C2.96728 8.01063 3.29462 7.57894 3.75559 7.05903C4.49622 8.01513 4.90276 8.45133 4.93954 8.49037C6.14602 9.83574 8.56161 12.0422 11.5508 12.2479C11.6859 12.2615 11.8233 12.2682 11.9637 12.2682C12.1041 12.2682 12.2396 12.2615 12.3747 12.2479C15.3635 12.0415 17.7803 9.83499 18.986 8.48999C19.0235 8.45245 19.4293 8.01476 20.1699 7.05866C20.6309 7.57856 20.9582 8.01025 21.1298 8.24674C20.4072 9.23066 19.5784 10.1319 18.6583 10.9341V10.9341Z" fill="black"/>
<path d="M5.26597 5.56088C6.75024 4.26956 9.11552 2.73087 11.9624 2.71773C14.8086 2.73087 17.1739 4.26956 18.6585 5.56088C18.8218 5.70315 18.9791 5.84542 19.1277 5.98656L19.6056 5.45352C19.4577 5.31463 19.3035 5.17486 19.1431 5.03422C16.8792 3.05933 14.3972 2.01126 11.9624 2C9.52732 2.01126 7.04491 3.05933 4.77985 5.03234C4.61919 5.17273 4.46503 5.31313 4.31738 5.45352L4.79637 5.98656C4.94527 5.84542 5.10181 5.70352 5.26597 5.56088Z" fill="black"/>
<path d="M14.6836 17.343C14.8645 17.4918 14.9838 17.7025 15.0184 17.9342H14.4625C14.4445 17.8318 14.3899 17.7393 14.3089 17.6741C14.2217 17.6076 14.114 17.5738 14.0045 17.5784C13.9384 17.5771 13.8728 17.5903 13.8124 17.6171C13.7519 17.6439 13.6981 17.6836 13.6546 17.7334C13.5611 17.837 13.5143 17.9887 13.5143 18.1884C13.5143 18.3881 13.5611 18.5396 13.6546 18.6429C13.698 18.6929 13.7518 18.7327 13.8123 18.7595C13.8728 18.7863 13.9384 18.7994 14.0045 18.798C14.1135 18.8023 14.2206 18.7686 14.3074 18.7026C14.3891 18.6374 14.4443 18.5447 14.4625 18.4417H15.0199C14.9853 18.6735 14.866 18.8841 14.6851 19.033C14.5069 19.1779 14.2843 19.2502 14.0173 19.2499C13.8296 19.2535 13.6441 19.2092 13.4782 19.1212C13.3228 19.0366 13.1955 18.9085 13.1118 18.7526C13.021 18.5784 12.9759 18.384 12.9808 18.1876C12.976 17.991 13.0208 17.7963 13.1111 17.6215C13.194 17.4651 13.3215 17.3368 13.4775 17.2529C13.6437 17.167 13.8287 17.124 14.0158 17.1279C14.2828 17.1279 14.5054 17.1996 14.6836 17.343Z" fill="#FF0000"/>
<path d="M16.5371 17.2492C16.6593 17.3286 16.7524 17.4456 16.8025 17.5825V17.1519H17.328V19.2252H16.8025V18.7909C16.7523 18.9282 16.6592 19.0457 16.5371 19.1261C16.403 19.2122 16.2459 19.2558 16.0866 19.2511C15.9207 19.2535 15.7574 19.2096 15.6151 19.1242C15.4725 19.0357 15.3588 18.9076 15.2878 18.7556C15.21 18.5766 15.1699 18.3836 15.1699 18.1886C15.1699 17.9935 15.21 17.8005 15.2878 17.6215C15.3588 17.4695 15.4725 17.3414 15.6151 17.2529C15.758 17.1682 15.9217 17.1249 16.0877 17.1279C16.2462 17.1228 16.4027 17.165 16.5371 17.2492V17.2492ZM15.8558 17.7469C15.7556 17.8543 15.7056 18.0016 15.7056 18.1887C15.7056 18.3759 15.7556 18.5225 15.8558 18.6283C15.9622 18.7308 16.1045 18.7878 16.2524 18.7871C16.4002 18.7864 16.5419 18.7281 16.6474 18.6246C16.7508 18.5162 16.8025 18.3709 16.8025 18.1887C16.8025 18.0066 16.7508 17.8599 16.6474 17.7488C16.5968 17.6954 16.5354 17.6534 16.4673 17.6253C16.3993 17.5973 16.3261 17.584 16.2525 17.5863C16.1788 17.5831 16.1052 17.5959 16.0367 17.6236C15.9683 17.6513 15.9066 17.6934 15.8558 17.7469V17.7469Z" fill="#FF0000"/>
<path d="M18.3746 17.2364C18.5038 17.1603 18.6515 17.1213 18.8014 17.1238V17.6869H18.6479C18.2613 17.6869 18.0679 17.8664 18.0679 18.2255V19.2248H17.5405V17.1519H18.0679V17.5487C18.1418 17.4201 18.2474 17.3126 18.3746 17.2364V17.2364Z" fill="#FF0000"/>
<path d="M20.9356 18.2916H19.416C19.4236 18.4763 19.4736 18.6122 19.5662 18.6993C19.659 18.7868 19.7828 18.834 19.9104 18.8303C20.0192 18.8343 20.1263 18.8028 20.2156 18.7406C20.2958 18.6817 20.3511 18.5949 20.3706 18.4973H20.9281C20.9018 18.6393 20.8416 18.7729 20.7524 18.8866C20.6605 19.0029 20.5417 19.0953 20.4063 19.1557C20.2462 19.2248 20.0728 19.2578 19.8985 19.2524C19.7241 19.2469 19.5532 19.2032 19.3977 19.1242C19.2423 19.0396 19.1149 18.9115 19.0313 18.7556C18.9404 18.5814 18.8953 18.387 18.9003 18.1906C18.8955 17.9935 18.9405 17.7984 19.0313 17.6234C19.1142 17.467 19.2417 17.3387 19.3977 17.2548C19.5638 17.1682 19.749 17.1246 19.9363 17.1279C20.1232 17.1237 20.308 17.1674 20.4731 17.2548C20.6224 17.3354 20.7456 17.4567 20.8286 17.6046C20.9428 17.8143 20.9807 18.0571 20.9356 18.2916V18.2916ZM20.2899 17.6741C20.1937 17.5857 20.067 17.5379 19.9363 17.5408C19.8042 17.537 19.6757 17.5839 19.5771 17.6718C19.4797 17.7594 19.4261 17.8879 19.416 18.0574H20.4228C20.4303 17.8882 20.386 17.7598 20.2899 17.6722V17.6741Z" fill="#FF0000"/>
<path d="M2.9707 17.1155H3.46921L3.99475 18.7128H4.00376L4.51052 17.1155H4.98613L4.24212 19.1955H3.7271L2.9707 17.1155Z" fill="black"/>
<path d="M5.08936 16.3227H5.54845V16.757H5.08936V16.3227ZM5.08936 17.1155H5.54845V19.1955H5.08936V17.1155Z" fill="black"/>
<path d="M6.1576 18.5277C6.1805 18.7935 6.38283 18.8896 6.62758 18.8896C6.80138 18.8896 7.10243 18.852 7.0908 18.6163C7.07916 18.3806 6.74432 18.3472 6.4106 18.2702C6.07689 18.1932 5.7428 18.0769 5.7428 17.6534C5.7428 17.1989 6.23305 17.0573 6.61181 17.0573C7.03862 17.0573 7.42376 17.2349 7.48007 17.6955H7.00183C6.96204 17.4785 6.78111 17.4177 6.57953 17.4177C6.44664 17.4177 6.20077 17.45 6.20077 17.6313C6.20077 17.8565 6.53861 17.8888 6.87645 17.9654C7.2143 18.042 7.54801 18.1621 7.54801 18.5724C7.54801 19.0675 7.04951 19.2481 6.61932 19.2481C6.09641 19.2481 5.70639 19.0153 5.69775 18.5243L6.1576 18.5277Z" fill="black"/>
<path d="M7.70215 16.3227H8.16087V16.757H7.70215V16.3227ZM7.70215 17.1155H8.16087V19.1955H7.70215V17.1155Z" fill="black"/>
<path d="M8.31201 18.1531C8.31201 17.5179 8.69453 17.0588 9.36308 17.0588C10.0316 17.0588 10.4142 17.5179 10.4142 18.1531C10.4142 18.7882 10.0316 19.2514 9.36308 19.2514C8.69453 19.2514 8.31201 18.7935 8.31201 18.1531ZM9.95431 18.1531C9.95431 17.7957 9.77262 17.4211 9.36271 17.4211C8.95279 17.4211 8.7711 17.7965 8.7711 18.1531C8.7711 18.5097 8.95241 18.8896 9.36271 18.8896C9.773 18.8896 9.95431 18.5168 9.95431 18.1531Z" fill="black"/>
<path d="M10.5742 17.1155H11.0089V17.4211L11.0172 17.4293C11.0831 17.3161 11.1776 17.2222 11.2914 17.1571C11.4051 17.0921 11.534 17.0582 11.6651 17.0588C12.1155 17.0588 12.4005 17.3006 12.4005 17.7676V19.194H11.9421V17.8877C11.9335 17.5622 11.8055 17.4211 11.5356 17.4211C11.2296 17.4211 11.0329 17.6628 11.0329 17.9688V19.1955H10.5742V17.1155Z" fill="black"/>
<path d="M8.74798 20.4714V21.985H8.4458V20.4714H8.74798Z" fill="black"/>
<path d="M10.3045 21.985H10.0042L9.32472 20.9568V21.9857H9.02441V20.4714H9.32472L10.0023 21.509V20.4714H10.3026L10.3045 21.985Z" fill="black"/>
<path d="M11.5617 21.7845C11.5205 21.8519 11.461 21.9062 11.3902 21.9411C11.3041 21.9827 11.2092 22.003 11.1135 22C11.0151 22.0018 10.9173 21.9831 10.8264 21.9452C10.7459 21.912 10.6758 21.8577 10.6237 21.7879C10.5724 21.7177 10.5423 21.6344 10.537 21.5477H10.8598C10.8655 21.6061 10.8922 21.6605 10.9349 21.7008C10.9574 21.7217 10.9839 21.7378 11.0128 21.7483C11.0417 21.7589 11.0723 21.7635 11.103 21.762C11.1293 21.7637 11.1557 21.7602 11.1806 21.7515C11.2055 21.7429 11.2284 21.7294 11.2479 21.7117C11.2647 21.6946 11.2778 21.6743 11.2864 21.6519C11.2951 21.6296 11.2991 21.6058 11.2982 21.5818C11.2998 21.5391 11.2852 21.4974 11.2573 21.4651C11.2289 21.4329 11.1938 21.4073 11.1545 21.39C11.1132 21.3715 11.056 21.3501 10.9829 21.3258C10.9036 21.3004 10.8263 21.2692 10.7517 21.2323C10.6904 21.2009 10.6377 21.1551 10.5981 21.0987C10.5534 21.0307 10.5313 20.9503 10.5351 20.869C10.5323 20.8108 10.5433 20.7527 10.5671 20.6995C10.5909 20.6463 10.6269 20.5994 10.6721 20.5627C10.7657 20.4876 10.8897 20.4501 11.0441 20.4501C11.204 20.4501 11.3315 20.4886 11.4266 20.5657C11.4733 20.6033 11.5118 20.6502 11.5396 20.7033C11.5675 20.7565 11.5841 20.8148 11.5884 20.8746H11.2626C11.2557 20.8234 11.2315 20.7761 11.1939 20.7406C11.152 20.7039 11.0974 20.685 11.0418 20.688C10.993 20.6858 10.9449 20.7014 10.9067 20.732C10.8758 20.7633 10.8576 20.8048 10.8554 20.8487C10.8533 20.8926 10.8674 20.9358 10.8951 20.97C10.9233 21.0006 10.9575 21.025 10.9957 21.0417C11.0499 21.0655 11.1054 21.0863 11.162 21.104C11.2427 21.1315 11.3218 21.1637 11.3988 21.2004C11.4611 21.2318 11.5146 21.2782 11.5542 21.3356C11.5999 21.4055 11.6223 21.4879 11.6184 21.5713C11.6194 21.6462 11.5998 21.72 11.5617 21.7845Z" fill="black"/>
<path d="M12.1353 20.4714V21.3592C12.1353 21.4778 12.1613 21.5667 12.2133 21.6257C12.2743 21.6832 12.3549 21.7151 12.4386 21.7151C12.5223 21.7151 12.6029 21.6832 12.6638 21.6257C12.7161 21.5667 12.7421 21.4778 12.7419 21.3592V20.4714H13.0422V21.3592C13.046 21.4822 13.0191 21.6041 12.9637 21.714C12.9156 21.8065 12.8399 21.8817 12.7471 21.9294C12.6497 21.9777 12.5421 22.0019 12.4333 22C12.2516 22 12.1065 21.9457 11.9979 21.8371C11.8893 21.7285 11.835 21.5692 11.835 21.3592V20.4714H12.1353Z" fill="black"/>
<path d="M14.0957 21.985L13.7417 21.3956H13.6088V21.985H13.3066V20.4714H13.8832C14.0584 20.4714 14.1924 20.5144 14.2853 20.6002C14.3311 20.6434 14.3672 20.6958 14.391 20.7541C14.4149 20.8124 14.4259 20.8751 14.4234 20.938C14.427 21.0421 14.3932 21.144 14.3281 21.2252C14.2568 21.307 14.1594 21.3616 14.0525 21.3799L14.4302 21.9842L14.0957 21.985ZM13.6077 21.1873H13.8566C14.0293 21.1873 14.1157 21.111 14.116 20.9583C14.1179 20.927 14.1132 20.8956 14.1023 20.8662C14.0914 20.8368 14.0744 20.81 14.0525 20.7875C14.0105 20.747 13.9452 20.7267 13.8566 20.7267H13.6077V21.1873Z" fill="black"/>
<path d="M14.9292 20.7117V21.104H15.4653V21.3356H14.9292V21.7429H15.5298V21.985H14.6289V20.4714H15.5298V20.7117H14.9292Z" fill="black"/>
<path d="M13.6669 6.60556C13.1392 6.34101 12.5574 6.20237 11.9671 6.20052H11.9615C11.3699 6.20156 10.7867 6.34023 10.258 6.60556L10.085 6.69227V8.6818C10.085 9.44458 10.9754 10.2753 11.8023 10.7243L11.9525 10.805L12.1008 10.7243C12.9382 10.27 13.8395 9.4367 13.8395 8.6818V6.69227L13.6669 6.60556Z" fill="#FF0000"/>
<path d="M13.7909 6.53199L11.9774 8.35823L11.1899 7.57067L10.7053 8.05492L10.6831 8.07932L11.733 9.11462L11.9853 9.36012L12.2102 9.13564L14.2947 7.03613L13.7909 6.53199Z" fill="white"/>
</g>
<defs>
<clipPath id="clip0">
<rect width="19.9238" height="20" fill="white" transform="translate(2 2)"/>
</clipPath>
</defs>
</svg>
