<svg width="90" height="32" viewBox="0 0 90 32" fill="none" xmlns="http://www.w3.org/2000/svg">
<mask id="mask0" mask-type="alpha" maskUnits="userSpaceOnUse" x="0" y="0" width="90" height="32">
<rect width="90" height="32" fill="white"/>
</mask>
<g mask="url(#mask0)">
<path fill-rule="evenodd" clip-rule="evenodd" d="M2.36318 12.1458L19.3786 11.2134C19.9441 11.1819 20.5227 11.6846 20.4099 12.236C19.1906 18.2214 19.4061 24.1295 20.7324 29.9788C20.8568 30.5273 20.2681 31 19.7011 31H1.84682C1.27983 31 0.877735 30.3397 1.03395 29.7998C2.39067 25.122 2.74359 19.8642 1.48522 13.1426C1.38253 12.5898 1.7962 12.1773 2.36318 12.1458Z" fill="#0095DA"/>
<path fill-rule="evenodd" clip-rule="evenodd" d="M6.50436 14.5993C6.91658 14.5993 7.25214 14.9302 7.25214 15.3398C7.25214 15.7494 6.91658 16.0788 6.50436 16.0788C6.09069 16.0788 5.75512 15.7494 5.75512 15.3398C5.75512 14.9302 6.09069 14.5993 6.50436 14.5993ZM14.2137 17.8749C14.2108 17.481 14.5304 17.1602 14.9282 17.1573C15.3259 17.1544 15.6499 17.4695 15.6528 17.8634V17.8935L15.6543 17.9207H15.6557C15.6557 19.2813 15.0988 20.5145 14.1977 21.4068C13.2966 22.2991 12.0513 22.8505 10.6772 22.8505C9.30169 22.8505 8.05779 22.2991 7.15668 21.4068C6.25557 20.5145 5.69727 19.2813 5.69727 17.9207H5.70016V17.8935C5.70016 17.5025 6.0227 17.1831 6.42046 17.1831C6.81678 17.1831 7.13932 17.5025 7.13932 17.8935V17.9207H7.14222C7.14222 18.886 7.53853 19.7612 8.17784 20.3956C8.81714 21.0273 9.70089 21.4197 10.6772 21.4197C11.6535 21.4197 12.5373 21.0273 13.1766 20.3956C13.8159 19.7612 14.2122 18.886 14.2122 17.9207H14.2151L14.2137 17.9007V17.8749ZM14.8501 14.5993C15.2637 14.5993 15.5979 14.9302 15.5979 15.3398C15.5979 15.7494 15.2637 16.0788 14.8501 16.0788C14.4364 16.0788 14.1023 15.7494 14.1023 15.3398C14.1023 14.9302 14.4364 14.5993 14.8501 14.5993Z" fill="white"/>
<path fill-rule="evenodd" clip-rule="evenodd" d="M9.35683 11.0158L8.58301 4.57777L8.94316 4.20539C8.96052 4.24119 8.97787 4.27127 8.99523 4.29705C9.25269 4.16958 9.92093 3.79576 10.3838 3.53509C10.5371 3.69694 10.754 3.79576 10.9956 3.79576C11.2502 3.79576 11.4787 3.68405 11.6335 3.50645L13.2476 3.85162L13.6917 4.13091C13.6917 4.13091 14.3252 9.48897 14.4901 10.9484L9.39588 11.2277L9.35683 11.0158ZM9.96142 2.31338L9.4089 1.38384C9.4089 1.38384 9.64756 1.28215 9.78207 1.33944C9.91803 1.39673 10.0786 1.47981 10.1625 1.4397C10.2464 1.4039 10.5501 1.0888 10.6788 1.0444C10.8076 1 10.8466 1 10.8466 1C10.8466 1 11.2473 1.12174 11.3427 1.2177C11.4396 1.31366 11.4917 1.35806 11.5886 1.31939C11.6855 1.28215 11.9632 1.05872 12.0717 1.0444C12.1816 1.03294 12.2525 1.03867 12.2525 1.03867L11.9531 2.17302C11.8258 2.24606 11.7 2.31624 11.5886 2.37926C11.4367 2.22887 11.227 2.13578 10.9956 2.13578C10.7512 2.13578 10.5328 2.23747 10.3794 2.40218L9.96142 2.31338Z" fill="#8FC43F"/>
<path fill-rule="evenodd" clip-rule="evenodd" d="M8.72594 2.04843C8.65217 2.21028 8.69412 3.87313 8.99641 4.29708C9.25387 4.1696 9.92211 3.79579 10.385 3.53512C10.5383 3.69696 10.7552 3.79579 10.9968 3.79579C11.2513 3.79579 11.4799 3.68407 11.6346 3.50647L13.2676 3.85594C13.3414 3.6941 13.298 2.03125 12.9957 1.6073C12.7353 1.7362 12.0541 2.11718 11.5898 2.37929C11.4379 2.2289 11.2282 2.1358 10.9968 2.1358C10.7523 2.1358 10.5339 2.23749 10.3806 2.4022L8.72594 2.04843Z" fill="#1EAC4B"/>
<path fill-rule="evenodd" clip-rule="evenodd" d="M12.7762 5.95845L15.0456 6.4626L15.1223 6.47979L15.0456 6.4626L14.0245 10.9728L11.1201 11.1332L12.2107 6.31365C12.2686 6.06157 12.5231 5.90116 12.7762 5.95845ZM17.9298 7.10282L20.0241 7.56687C20.2787 7.62416 20.4393 7.87481 20.3828 8.12832L19.8101 10.6577L16.9057 10.8167L17.7432 7.11714C17.8068 7.11285 17.869 7.10855 17.9298 7.10282Z" fill="#DF3286"/>
<path fill-rule="evenodd" clip-rule="evenodd" d="M15.0469 6.46268L15.1236 6.47986C14.7374 6.19485 13.7451 5.5446 13.9852 5.00321C14.2846 4.32718 15.0455 4.38877 15.4852 4.80699C15.9263 5.22378 16.1722 5.93704 16.1982 6.36672C16.1982 6.36672 16.4817 6.27935 16.6943 6.38247C16.907 6.48559 16.946 6.50564 16.946 6.50564C16.946 6.50564 18.0106 5.15933 18.7294 5.42572C19.4483 5.69356 19.6493 6.255 19.4439 6.49705C19.253 6.72621 18.6253 7.07425 17.7444 7.11722L16.907 10.8167L14.0257 10.9728L15.0469 6.46268ZM15.6457 6.18625C15.6457 6.18625 15.4099 5.27534 15.086 5.11779C14.762 4.96024 14.5624 5.02326 14.4698 5.20945C14.3772 5.39565 14.9992 5.82389 15.6457 6.18625ZM18.7829 5.98144C18.7829 5.98144 19.0158 6.1662 18.9276 6.30656C18.8394 6.44835 18.0395 6.6102 17.8688 6.61593C17.6967 6.62166 17.4928 6.61163 17.4928 6.61163C17.4928 6.61163 17.986 6.16047 18.2521 6.01295C18.5183 5.86399 18.6875 5.90983 18.7829 5.98144Z" fill="#EF9720"/>
<path fill-rule="evenodd" clip-rule="evenodd" d="M1.82173 8.67118L4.53083 8.0238L4.62195 8.00232L4.53083 8.0238L5.3654 11.4483L1.96058 11.6359L1.40372 9.35007C1.32995 9.04786 1.51798 8.74279 1.82173 8.67118ZM7.97325 7.20169L10.4741 6.603C10.7778 6.53139 11.0859 6.71758 11.1597 7.01836L12.149 11.0774L8.74418 11.2636L7.78088 7.3134C7.84742 7.27616 7.91251 7.23893 7.97325 7.20169Z" fill="#EF9720"/>
<path fill-rule="evenodd" clip-rule="evenodd" d="M4.53098 8.02372L4.6221 8.00223C4.05511 7.89911 2.64054 7.71864 2.60872 7.01111C2.56966 6.13027 3.42159 5.79799 4.11876 6.01426C4.81447 6.23196 5.45957 6.87075 5.71847 7.31761C5.71847 7.31761 5.97593 7.07556 6.25942 7.07556C6.54292 7.07556 6.59499 7.07556 6.59499 7.07556C6.59499 7.07556 7.02023 5.06897 7.93724 4.98017C8.85281 4.88994 9.36918 5.38837 9.27805 5.75932C9.19416 6.10449 8.70528 6.8063 7.78103 7.31332L8.74433 11.2635L5.36555 11.4482L4.53098 8.02372ZM5.02709 7.41357C5.02709 7.41357 4.28654 6.55709 3.85406 6.55709C3.42159 6.55709 3.24079 6.72896 3.24079 6.9796C3.24079 7.22881 4.13756 7.36201 5.02709 7.41357ZM8.29161 5.54878C8.29161 5.54878 8.64019 5.62469 8.61994 5.82234C8.60114 6.02142 7.82732 6.61438 7.64652 6.71034C7.46572 6.8063 7.24008 6.90226 7.24008 6.90226C7.24008 6.90226 7.53081 6.16035 7.73619 5.86101C7.94303 5.56167 8.14986 5.523 8.29161 5.54878Z" fill="#E41F29"/>
<path fill-rule="evenodd" clip-rule="evenodd" d="M33.5841 13.2963C38.3585 13.2963 42.2289 17.199 42.2289 22.0091C42.2289 26.8253 38.3585 30.7279 33.5841 30.7279C28.8118 30.7279 24.9414 26.8253 24.9414 22.0091V8.49857C26.0754 7.25243 27.4294 6.48668 28.9991 6.41277C28.9991 11.3563 28.9991 16.2998 28.9991 21.2433C28.9991 24.8729 30.406 27.9339 33.181 27.9339C36.4243 27.9339 38.332 25.2835 38.332 22.0091C38.332 18.7408 35.7036 16.0904 32.4603 16.0904C31.876 16.0904 31.312 16.1746 30.7786 16.3326C30.7786 16.3326 31.5176 14.3988 32.9245 13.321C33.1423 13.3045 33.3622 13.2963 33.5841 13.2963ZM66.852 13.2963C71.6244 13.2963 75.4948 17.199 75.4948 22.0091C75.4948 26.8253 71.6244 30.7279 66.852 30.7279C62.0777 30.7279 58.2073 26.8253 58.2073 22.0091V8.49857C59.3413 7.25243 60.6952 6.48668 62.265 6.41277C62.265 11.3563 62.265 16.2998 62.265 21.2433C62.265 24.8729 63.6718 27.9339 66.4469 27.9339C69.6902 27.9339 71.5999 25.2835 71.5999 22.0091C71.5999 18.7408 68.9695 16.0904 65.7262 16.0904C65.1418 16.0904 64.5779 16.1746 64.0444 16.3326C64.0444 16.3326 64.7835 14.3988 66.1924 13.321C66.4102 13.3045 66.6301 13.2963 66.852 13.2963ZM84.9377 15.3472C86.0717 14.099 87.4256 13.3333 88.9954 13.2594C88.9954 22.3416 88.9954 19.5578 88.9954 28.6401C87.8613 29.8862 86.5074 30.654 84.9377 30.7279C84.9377 21.6457 84.9377 24.4295 84.9377 15.3472ZM86.9655 6.54005C88.0893 6.54005 88.9994 7.45772 88.9994 8.59095C88.9994 9.72213 88.0893 10.6398 86.9655 10.6398C85.8437 10.6398 84.9315 9.72213 84.9315 8.59095C84.9315 7.45772 85.8437 6.54005 86.9655 6.54005ZM78.1823 3.48115C79.3163 2.23501 80.6702 1.46926 82.24 1.39536C82.24 10.4776 82.24 19.5578 82.24 28.6401C81.1059 29.8862 79.752 30.654 78.1823 30.7279C78.1823 21.6457 78.1823 12.5634 78.1823 3.48115ZM51.6718 15.3472C52.8058 14.099 54.1577 13.3333 55.7295 13.2594C55.7295 22.3416 55.7295 19.5578 55.7295 28.6401C54.5934 29.8862 53.2415 30.654 51.6718 30.7279C51.6718 21.6457 51.6718 24.4295 51.6718 15.3472ZM53.6996 6.54005C54.8235 6.54005 55.7336 7.45772 55.7336 8.59095C55.7336 9.72213 54.8235 10.6398 53.6996 10.6398C52.5758 10.6398 51.6657 9.72213 51.6657 8.59095C51.6657 7.45772 52.5758 6.54005 53.6996 6.54005ZM44.9164 3.48115C46.0504 2.23501 47.4044 1.46926 48.9741 1.39536C48.9741 10.4776 48.9741 19.5578 48.9741 28.6401C47.8401 29.8862 46.4861 30.654 44.9164 30.7279C44.9164 21.6457 44.9164 12.5634 44.9164 3.48115Z" fill="#0095DA"/>
</g>
</svg>
