<svg width="24" height="24" viewBox="0 0 24 24" fill="none" xmlns="http://www.w3.org/2000/svg">
<path d="M0.125 0.125002V23.875H23.875V0.125002H0.125Z" fill="white" stroke="#EEEEEE" stroke-width="0.25"/>
<path fill-rule="evenodd" clip-rule="evenodd" d="M6.29569 9.43063L17.5654 8.80904C17.94 8.78804 18.3232 9.12318 18.2485 9.49078C17.4409 13.481 17.5836 17.4196 18.4621 21.3191C18.5445 21.6848 18.1546 21.9999 17.7791 21.9999H5.95369C5.57816 21.9999 5.31184 21.5597 5.41531 21.1997C6.31389 18.0813 6.54764 14.5762 5.7142 10.0952C5.64618 9.72663 5.92016 9.45164 6.29569 9.43063Z" fill="#0095DA"/>
<path fill-rule="evenodd" clip-rule="evenodd" d="M9.03968 11.0659C9.31271 11.0659 9.53496 11.2865 9.53496 11.5596C9.53496 11.8326 9.31271 12.0522 9.03968 12.0522C8.7657 12.0522 8.54345 11.8326 8.54345 11.5596C8.54345 11.2865 8.7657 11.0659 9.03968 11.0659ZM14.1457 13.2496C14.1438 12.987 14.3555 12.7731 14.619 12.7712C14.8824 12.7693 15.097 12.9794 15.0989 13.242V13.262L15.0999 13.2801H15.1009C15.1009 14.1872 14.732 15.0093 14.1352 15.6042C13.5384 16.199 12.7136 16.5666 11.8035 16.5666C10.8924 16.5666 10.0686 16.199 9.47173 15.6042C8.87491 15.0093 8.50513 14.1872 8.50513 13.2801H8.50704V13.262C8.50704 13.0013 8.72067 12.7884 8.98412 12.7884C9.24661 12.7884 9.46024 13.0013 9.46024 13.262V13.2801H9.46215C9.46215 13.9237 9.72464 14.5071 10.1481 14.9301C10.5715 15.3512 11.1568 15.6128 11.8035 15.6128C12.4501 15.6128 13.0354 15.3512 13.4589 14.9301C13.8823 14.5071 14.1448 13.9237 14.1448 13.2801H14.1467L14.1457 13.2668V13.2496ZM14.5673 11.0659C14.8412 11.0659 15.0625 11.2865 15.0625 11.5596C15.0625 11.8326 14.8412 12.0522 14.5673 12.0522C14.2933 12.0522 14.072 11.8326 14.072 11.5596C14.072 11.2865 14.2933 11.0659 14.5673 11.0659Z" fill="white"/>
<path fill-rule="evenodd" clip-rule="evenodd" d="M10.9283 8.67706L10.4158 4.38514L10.6543 4.13689C10.6658 4.16076 10.6773 4.18081 10.6888 4.198C10.8593 4.11302 11.3019 3.86381 11.6085 3.69003C11.71 3.79793 11.8537 3.86381 12.0137 3.86381C12.1823 3.86381 12.3337 3.78933 12.4362 3.67094L13.5053 3.90105L13.7994 4.08724C13.7994 4.08724 14.219 7.65922 14.3282 8.63218L10.9542 8.81837L10.9283 8.67706ZM11.3287 2.87557L10.9628 2.25589C10.9628 2.25589 11.1208 2.1881 11.2099 2.22629C11.3 2.26449 11.4063 2.31986 11.4619 2.29313C11.5175 2.26926 11.7186 2.0592 11.8039 2.0296C11.8892 2 11.915 2 11.915 2C11.915 2 12.1804 2.08116 12.2436 2.14513C12.3078 2.20911 12.3423 2.23871 12.4065 2.21292C12.4706 2.1881 12.6546 2.03915 12.7264 2.0296C12.7992 2.02196 12.8462 2.02578 12.8462 2.02578L12.6479 2.782C12.5636 2.83069 12.4802 2.87748 12.4065 2.91949C12.3059 2.81924 12.167 2.75717 12.0137 2.75717C11.8518 2.75717 11.7071 2.82496 11.6056 2.93477L11.3287 2.87557Z" fill="#8FC43F"/>
<path fill-rule="evenodd" clip-rule="evenodd" d="M10.5097 2.69887C10.4608 2.80676 10.4886 3.91531 10.6888 4.19794C10.8594 4.11296 11.302 3.86375 11.6085 3.68997C11.7101 3.79787 11.8538 3.86375 12.0137 3.86375C12.1823 3.86375 12.3337 3.78927 12.4362 3.67088L13.5178 3.90385C13.5666 3.79596 13.5379 2.68741 13.3377 2.40479C13.1652 2.49072 12.714 2.7447 12.4065 2.91943C12.3059 2.81918 12.167 2.75711 12.0137 2.75711C11.8518 2.75711 11.7072 2.82491 11.6056 2.93471L10.5097 2.69887Z" fill="#1EAC4B"/>
<path fill-rule="evenodd" clip-rule="evenodd" d="M13.1933 5.30535L14.6964 5.64145L14.7472 5.6529L14.6964 5.64145L14.0201 8.64817L12.0964 8.75511L12.8188 5.54214C12.8571 5.3741 13.0257 5.26716 13.1933 5.30535ZM16.6066 6.06825L17.9938 6.37761C18.1624 6.4158 18.2687 6.5829 18.2314 6.7519L17.852 8.43811L15.9284 8.5441L16.483 6.0778C16.5252 6.07493 16.5664 6.07207 16.6066 6.06825Z" fill="#DF3286"/>
<path fill-rule="evenodd" clip-rule="evenodd" d="M14.6972 5.64256L14.7479 5.65401C14.4921 5.464 13.835 5.03052 13.994 4.66959C14.1923 4.21892 14.6962 4.25998 14.9874 4.53878C15.2796 4.81664 15.4425 5.29214 15.4597 5.57858C15.4597 5.57858 15.6475 5.52034 15.7883 5.58909C15.9291 5.65783 15.955 5.6712 15.955 5.6712C15.955 5.6712 16.6601 4.77367 17.1362 4.95127C17.6123 5.12982 17.7455 5.50411 17.6094 5.66547C17.483 5.81824 17.0672 6.05026 16.4838 6.07891L15.9291 8.54521L14.0208 8.64928L14.6972 5.64256ZM15.0938 5.45828C15.0938 5.45828 14.9376 4.85101 14.723 4.74598C14.5084 4.64095 14.3762 4.68296 14.3149 4.80709C14.2536 4.93121 14.6655 5.21671 15.0938 5.45828ZM17.1716 5.32174C17.1716 5.32174 17.3259 5.44491 17.2674 5.53848C17.209 5.63301 16.6792 5.7409 16.5662 5.74472C16.4522 5.74854 16.3171 5.74186 16.3171 5.74186C16.3171 5.74186 16.6438 5.44109 16.82 5.34274C16.9963 5.24344 17.1084 5.274 17.1716 5.32174Z" fill="#EF9720"/>
<path fill-rule="evenodd" clip-rule="evenodd" d="M5.93713 7.11359L7.73143 6.68201L7.79179 6.66769L7.73143 6.68201L8.28419 8.96498L6.0291 9.09007L5.66027 7.56617C5.61141 7.36471 5.73595 7.16133 5.93713 7.11359ZM10.0114 6.13394L11.6678 5.73483C11.869 5.68709 12.073 5.81121 12.1219 6.01173L12.7771 8.71769L10.522 8.84181L9.88403 6.20842C9.92809 6.18359 9.9712 6.15877 10.0114 6.13394Z" fill="#EF9720"/>
<path fill-rule="evenodd" clip-rule="evenodd" d="M7.73056 6.68214L7.79092 6.66781C7.41539 6.59907 6.47848 6.47876 6.4574 6.00708C6.43154 5.41986 6.99579 5.19835 7.45754 5.34252C7.91833 5.48766 8.34559 5.91351 8.51707 6.21141C8.51707 6.21141 8.68759 6.05005 8.87535 6.05005C9.06312 6.05005 9.09761 6.05005 9.09761 6.05005C9.09761 6.05005 9.37925 4.71234 9.98662 4.65314C10.593 4.59299 10.935 4.92527 10.8747 5.17257C10.8191 5.40268 10.4953 5.87054 9.88315 6.20855L10.5212 8.84194L8.28332 8.96511L7.73056 6.68214ZM8.05915 6.27538C8.05915 6.27538 7.56866 5.7044 7.28223 5.7044C6.99579 5.7044 6.87604 5.81898 6.87604 5.98607C6.87604 6.15221 7.46999 6.24101 8.05915 6.27538ZM10.2213 5.03221C10.2213 5.03221 10.4522 5.08281 10.4388 5.21458C10.4263 5.3473 9.91381 5.74259 9.79406 5.80657C9.67431 5.87054 9.52487 5.93451 9.52487 5.93451C9.52487 5.93451 9.71742 5.43992 9.85346 5.24036C9.99045 5.0408 10.1274 5.01502 10.2213 5.03221Z" fill="#E41F29"/>
<path fill-rule="evenodd" clip-rule="evenodd" d="M9.57484 18.5928C10.0436 18.5928 10.4236 18.9784 10.4236 19.4538C10.4236 19.9297 10.0436 20.3154 9.57484 20.3154C9.1063 20.3154 8.72632 19.9297 8.72632 19.4538V18.1187C8.83766 17.9955 8.97058 17.9199 9.12469 17.9126C9.12469 18.4011 9.12469 18.8896 9.12469 19.3781C9.12469 19.7368 9.26281 20.0393 9.53526 20.0393C9.85368 20.0393 10.041 19.7774 10.041 19.4538C10.041 19.1308 9.78292 18.8689 9.4645 18.8689C9.40713 18.8689 9.35176 18.8772 9.29939 18.8928C9.29939 18.8928 9.37195 18.7017 9.51008 18.5952C9.53146 18.5936 9.55305 18.5928 9.57484 18.5928ZM12.841 18.5928C13.3095 18.5928 13.6895 18.9784 13.6895 19.4538C13.6895 19.9297 13.3095 20.3154 12.841 20.3154C12.3723 20.3154 11.9923 19.9297 11.9923 19.4538V18.1187C12.1036 17.9955 12.2365 17.9199 12.3906 17.9126C12.3906 18.4011 12.3906 18.8896 12.3906 19.3781C12.3906 19.7368 12.5288 20.0393 12.8012 20.0393C13.1196 20.0393 13.3071 19.7774 13.3071 19.4538C13.3071 19.1308 13.0489 18.8689 12.7305 18.8689C12.6731 18.8689 12.6177 18.8772 12.5653 18.8928C12.5653 18.8928 12.6379 18.7017 12.7762 18.5952C12.7976 18.5936 12.8192 18.5928 12.841 18.5928ZM14.6166 18.7955C14.7279 18.6721 14.8608 18.5964 15.015 18.5891C15.015 19.4866 15.015 19.2115 15.015 20.109C14.9036 20.2322 14.7707 20.3081 14.6166 20.3154C14.6166 19.4179 14.6166 19.693 14.6166 18.7955ZM14.8157 17.9251C14.926 17.9251 15.0154 18.0158 15.0154 18.1278C15.0154 18.2396 14.926 18.3303 14.8157 18.3303C14.7055 18.3303 14.616 18.2396 14.616 18.1278C14.616 18.0158 14.7055 17.9251 14.8157 17.9251ZM13.9534 17.6229C14.0647 17.4997 14.1976 17.4241 14.3517 17.4167C14.3517 18.3142 14.3517 19.2115 14.3517 20.109C14.2404 20.2322 14.1075 20.3081 13.9534 20.3154C13.9534 19.4179 13.9534 18.5204 13.9534 17.6229ZM11.3506 18.7955C11.462 18.6721 11.5947 18.5964 11.749 18.5891C11.749 19.4866 11.749 19.2115 11.749 20.109C11.6375 20.2322 11.5047 20.3081 11.3506 20.3154C11.3506 19.4179 11.3506 19.693 11.3506 18.7955ZM11.5497 17.9251C11.6601 17.9251 11.7494 18.0158 11.7494 18.1278C11.7494 18.2396 11.6601 18.3303 11.5497 18.3303C11.4394 18.3303 11.35 18.2396 11.35 18.1278C11.35 18.0158 11.4394 17.9251 11.5497 17.9251ZM10.6874 17.6229C10.7987 17.4997 10.9317 17.4241 11.0858 17.4167C11.0858 18.3142 11.0858 19.2115 11.0858 20.109C10.9744 20.2322 10.8415 20.3081 10.6874 20.3154C10.6874 19.4179 10.6874 18.5204 10.6874 17.6229Z" fill="white"/>
</svg>
