<svg width="220" height="120" viewBox="0 0 220 120" fill="none" xmlns="http://www.w3.org/2000/svg">
<mask id="mask0" mask-type="alpha" maskUnits="userSpaceOnUse" x="0" y="0" width="220" height="120">
<rect width="220" height="120" fill="white"/>
</mask>
<g mask="url(#mask0)">
<path fill-rule="evenodd" clip-rule="evenodd" d="M18.9118 51.7123L55.2629 49.7074C56.4711 49.6396 57.7071 50.7206 57.4661 51.9064C54.8612 64.7769 55.3216 77.4812 58.1551 90.0592C58.4209 91.2388 57.1632 92.2551 55.9519 92.2551H17.8086C16.5973 92.2551 15.7383 90.8353 16.072 89.6742C18.9705 79.6155 19.7244 68.3095 17.0361 53.8559C16.8167 52.6671 17.7005 51.7801 18.9118 51.7123Z" fill="#0095DA"/>
<path fill-rule="evenodd" clip-rule="evenodd" d="M27.7594 56.988C28.6401 56.988 29.3569 57.6995 29.3569 58.5803C29.3569 59.4611 28.6401 60.1695 27.7594 60.1695C26.8756 60.1695 26.1588 59.4611 26.1588 58.5803C26.1588 57.6995 26.8756 56.988 27.7594 56.988ZM44.2292 64.0316C44.2231 63.1846 44.906 62.4948 45.7557 62.4886C46.6055 62.4824 47.2976 63.16 47.3038 64.007V64.0716L47.3069 64.1301H47.31C47.31 67.056 46.1203 69.7077 44.1953 71.6264C42.2702 73.5452 39.6097 74.7309 36.6741 74.7309C33.7355 74.7309 31.0781 73.5452 29.153 71.6264C27.2279 69.7077 26.0352 67.056 26.0352 64.1301H26.0413V64.0716C26.0413 63.2308 26.7304 62.544 27.5802 62.544C28.4268 62.544 29.1159 63.2308 29.1159 64.0716V64.1301H29.1221C29.1221 66.2059 29.9688 68.0877 31.3346 69.4521C32.7003 70.8103 34.5884 71.6541 36.6741 71.6541C38.7599 71.6541 40.6479 70.8103 42.0137 69.4521C43.3795 68.0877 44.2262 66.2059 44.2262 64.1301H44.2323L44.2292 64.087V64.0316ZM45.5889 56.988C46.4726 56.988 47.1864 57.6995 47.1864 58.5803C47.1864 59.4611 46.4726 60.1695 45.5889 60.1695C44.7051 60.1695 43.9913 59.4611 43.9913 58.5803C43.9913 57.6995 44.7051 56.988 45.5889 56.988Z" fill="white"/>
<path fill-rule="evenodd" clip-rule="evenodd" d="M33.8553 49.2823L32.2021 35.4385L32.9716 34.6378C33.0086 34.7148 33.0457 34.7794 33.0828 34.8349C33.6328 34.5608 35.0604 33.7569 36.0492 33.1964C36.3768 33.5444 36.8403 33.7569 37.3563 33.7569C37.9002 33.7569 38.3884 33.5167 38.719 33.1348L42.1675 33.877L43.1161 34.4776C43.1161 34.4776 44.4696 45.9992 44.8218 49.1376L33.9387 49.7381L33.8553 49.2823ZM35.1469 30.5693L33.9666 28.5705C33.9666 28.5705 34.4764 28.3518 34.7638 28.475C35.0542 28.5982 35.3972 28.7769 35.5765 28.6906C35.7557 28.6136 36.4046 27.9361 36.6796 27.8406C36.9546 27.7451 37.038 27.7451 37.038 27.7451C37.038 27.7451 37.894 28.0069 38.0979 28.2133C38.305 28.4196 38.4162 28.5151 38.6232 28.4319C38.8303 28.3518 39.4235 27.8714 39.6553 27.8406C39.8901 27.816 40.0416 27.8283 40.0416 27.8283L39.4019 30.2675C39.13 30.4246 38.8612 30.5755 38.6232 30.711C38.2988 30.3876 37.8507 30.1874 37.3563 30.1874C36.8341 30.1874 36.3675 30.4061 36.04 30.7603L35.1469 30.5693Z" fill="#8FC43F"/>
<path fill-rule="evenodd" clip-rule="evenodd" d="M32.504 29.9996C32.3464 30.3476 32.4361 33.9233 33.0819 34.8349C33.6319 34.5608 35.0595 33.757 36.0483 33.1965C36.3758 33.5445 36.8393 33.757 37.3554 33.757C37.8992 33.757 38.3874 33.5168 38.7181 33.1349L42.2067 33.8863C42.3643 33.5383 42.2716 29.9627 41.6258 29.051C41.0696 29.3282 39.6142 30.1474 38.6223 30.711C38.2978 30.3877 37.8498 30.1875 37.3554 30.1875C36.8332 30.1875 36.3666 30.4061 36.039 30.7603L32.504 29.9996Z" fill="#1EAC4B"/>
<path fill-rule="evenodd" clip-rule="evenodd" d="M41.1602 38.4074L46.0084 39.4915L46.1722 39.5285L46.0084 39.4915L43.8268 49.1899L37.6221 49.5348L39.952 39.1712C40.0756 38.6292 40.6194 38.2842 41.1602 38.4074ZM52.1699 40.8682L56.6443 41.8661C57.1881 41.9892 57.5311 42.5282 57.4106 43.0733L56.187 48.5123L49.9822 48.8542L51.7713 40.899C51.9073 40.8898 52.0401 40.8805 52.1699 40.8682Z" fill="#DF3286"/>
<path fill-rule="evenodd" clip-rule="evenodd" d="M46.0092 39.4916L46.173 39.5286C45.348 38.9157 43.2282 37.5175 43.7412 36.3533C44.3808 34.8996 46.0062 35.032 46.9455 35.9314C47.888 36.8276 48.4133 38.3613 48.4689 39.2853C48.4689 39.2853 49.0746 39.0974 49.5288 39.3192C49.983 39.5409 50.0665 39.584 50.0665 39.584C50.0665 39.584 52.3407 36.689 53.8765 37.2618C55.4122 37.8378 55.8417 39.0451 55.4029 39.5655C54.995 40.0583 53.654 40.8067 51.7721 40.8991L49.983 48.8543L43.8277 49.19L46.0092 39.4916ZM47.2885 38.8972C47.2885 38.8972 46.7848 36.9385 46.0927 36.5997C45.4005 36.2609 44.9741 36.3964 44.7763 36.7968C44.5786 37.1972 45.9073 38.118 47.2885 38.8972ZM53.9908 38.4568C53.9908 38.4568 54.4883 38.8541 54.2998 39.1559C54.1113 39.4608 52.4025 39.8089 52.0379 39.8212C51.6702 39.8335 51.2345 39.8119 51.2345 39.8119C51.2345 39.8119 52.2882 38.8418 52.8567 38.5246C53.4253 38.2043 53.7868 38.3028 53.9908 38.4568Z" fill="#EF9720"/>
<path fill-rule="evenodd" clip-rule="evenodd" d="M17.7539 44.2407L23.5415 42.8486L23.7362 42.8024L23.5415 42.8486L25.3245 50.2125L18.0506 50.6159L16.8609 45.7006C16.7033 45.0507 17.105 44.3947 17.7539 44.2407ZM30.8958 41.0808L36.2385 39.7935C36.8874 39.6395 37.5455 40.0398 37.7031 40.6866L39.8167 49.4148L32.5428 49.8152L30.4848 41.321C30.627 41.241 30.766 41.1609 30.8958 41.0808Z" fill="#EF9720"/>
<path fill-rule="evenodd" clip-rule="evenodd" d="M23.5415 42.8484L23.7362 42.8022C22.5249 42.5805 19.5029 42.1924 19.4349 40.671C19.3515 38.7769 21.1715 38.0624 22.6609 38.5274C24.1472 38.9956 25.5253 40.3692 26.0785 41.3301C26.0785 41.3301 26.6285 40.8096 27.2341 40.8096C27.8398 40.8096 27.951 40.8096 27.951 40.8096C27.951 40.8096 28.8595 36.4948 30.8186 36.3038C32.7746 36.1098 33.8777 37.1816 33.683 37.9792C33.5038 38.7215 32.4594 40.2306 30.4848 41.3208L32.5428 49.815L25.3245 50.2123L23.5415 42.8484ZM24.6014 41.5364C24.6014 41.5364 23.0193 39.6947 22.0954 39.6947C21.1715 39.6947 20.7852 40.0643 20.7852 40.6032C20.7852 41.1391 22.7011 41.4256 24.6014 41.5364ZM31.5756 37.5265C31.5756 37.5265 32.3203 37.6897 32.2771 38.1148C32.2369 38.5428 30.5837 39.8179 30.1975 40.0242C29.8112 40.2306 29.3292 40.4369 29.3292 40.4369C29.3292 40.4369 29.9503 38.8416 30.389 38.1979C30.8309 37.5542 31.2728 37.4711 31.5756 37.5265Z" fill="#E41F29"/>
<path fill-rule="evenodd" clip-rule="evenodd" d="M85.6125 54.1862C95.8122 54.1862 104.081 62.5782 104.081 72.9215C104.081 83.278 95.8122 91.67 85.6125 91.67C75.417 91.67 67.1484 83.278 67.1484 72.9215V43.8695C69.5712 41.1899 72.4636 39.5432 75.8172 39.3843C75.8172 50.0145 75.8172 60.6447 75.8172 71.2749C75.8172 79.0797 78.8227 85.6618 84.7512 85.6618C91.6801 85.6618 95.7557 79.9626 95.7557 72.9215C95.7557 65.8935 90.1404 60.1944 83.2115 60.1944C81.9631 60.1944 80.7583 60.3754 79.6187 60.7153C79.6187 60.7153 81.1976 56.5568 84.2032 54.2392C84.6686 54.2039 85.1384 54.1862 85.6125 54.1862ZM156.685 54.1862C166.88 54.1862 175.149 62.5782 175.149 72.9215C175.149 83.278 166.88 91.67 156.685 91.67C146.485 91.67 138.216 83.278 138.216 72.9215V43.8695C140.639 41.1899 143.532 39.5432 146.885 39.3843C146.885 50.0145 146.885 60.6447 146.885 71.2749C146.885 79.0797 149.891 85.6618 155.819 85.6618C162.748 85.6618 166.828 79.9626 166.828 72.9215C166.828 65.8935 161.208 60.1944 154.279 60.1944C153.031 60.1944 151.826 60.3754 150.687 60.7153C150.687 60.7153 152.266 56.5568 155.276 54.2392C155.741 54.2039 156.211 54.1862 156.685 54.1862ZM195.322 58.5963C197.745 55.9123 200.637 54.2657 203.991 54.1068C203.991 73.6366 203.991 67.6505 203.991 87.1804C201.568 89.86 198.676 91.511 195.322 91.67C195.322 72.1401 195.322 78.1262 195.322 58.5963ZM199.654 39.658C202.055 39.658 204 41.6313 204 44.0681C204 46.5005 202.055 48.4738 199.654 48.4738C197.258 48.4738 195.309 46.5005 195.309 44.0681C195.309 41.6313 197.258 39.658 199.654 39.658ZM180.89 33.0804C183.313 30.4008 186.205 28.7541 189.559 28.5952C189.559 48.1251 189.559 67.6505 189.559 87.1804C187.136 89.86 184.244 91.511 180.89 91.67C180.89 72.1401 180.89 52.6102 180.89 33.0804ZM124.254 58.5963C126.677 55.9123 129.565 54.2657 132.923 54.1068C132.923 73.6366 132.923 67.6505 132.923 87.1804C130.496 89.86 127.608 91.511 124.254 91.67C124.254 72.1401 124.254 78.1262 124.254 58.5963ZM128.586 39.658C130.987 39.658 132.932 41.6313 132.932 44.0681C132.932 46.5005 130.987 48.4738 128.586 48.4738C126.185 48.4738 124.241 46.5005 124.241 44.0681C124.241 41.6313 126.185 39.658 128.586 39.658ZM109.822 33.0804C112.245 30.4008 115.137 28.7541 118.491 28.5952C118.491 48.1251 118.491 67.6505 118.491 87.1804C116.068 89.86 113.176 91.511 109.822 91.67C109.822 72.1401 109.822 52.6102 109.822 33.0804Z" fill="#0095DA"/>
</g>
</svg>
