<svg width="182" height="32" viewBox="0 0 182 32" fill="none" xmlns="http://www.w3.org/2000/svg">
<mask id="mask0" mask-type="alpha" maskUnits="userSpaceOnUse" x="0" y="0" width="182" height="32">
<rect width="182" height="32" fill="white"/>
</mask>
<g mask="url(#mask0)">
<path fill-rule="evenodd" clip-rule="evenodd" d="M112.085 4.95102H107.714V25.114H112.085V4.95102ZM89.1637 9.33932L83.4242 17.0243C83.339 17.136 83.3418 17.2877 83.4298 17.4022L89.4278 25.1702H84.5119L79.9566 19.0257C79.877 18.9169 79.7436 18.8739 79.6158 18.9169C79.488 18.9598 79.4056 19.0744 79.4056 19.209V25.1674H74.9554L74.9582 4.99004H79.4056L79.4084 15.4123C79.4084 15.5469 79.4908 15.6614 79.6186 15.7043C79.7464 15.7473 79.8799 15.7015 79.9594 15.5927L84.4352 9.33932H89.1637ZM39.6924 24.6829C48.8598 25.7595 52.6227 24.703 53.8894 20.0931C55.3605 14.7446 52.3899 6.33233 43.9523 10.212V4.99232H39.6924V24.6829ZM43.9523 13.7997C47.2126 11.5549 50.2599 14.3895 50.1662 17.2327C50.0128 21.917 44.1738 21.4417 43.9523 20.6629V13.7997ZM136.969 23.6727C140.033 26.3012 144.637 24.9411 146.301 21.0185C148.036 16.9269 147.482 11.4237 143.14 9.28194C140.249 7.85603 132.524 8.80092 132.414 9.82597V29.4451H136.969V23.6727ZM136.969 19.8388V13.0214C138.568 12.2196 140.681 12.4172 141.783 13.4108C143.308 14.788 143.117 18.0206 142.01 19.6241C141.01 21.0729 138.156 21.448 136.969 19.8388ZM99.6002 17.1926L99.5889 20.1904C99.5832 20.8661 97.9417 21.9484 96.0786 21.4073C93.4403 20.6399 94.2213 16.4023 99.6002 17.1926ZM104.607 24.6857L105.121 22.0028C104.266 21.7308 103.548 21.3214 103.579 20.2677C103.609 19.2624 103.661 18.3472 103.708 17.5107V17.5106C103.921 13.7541 104.043 11.586 101.702 9.97725C100.015 8.81765 97.1436 8.51128 91.5744 9.74533L92.4775 12.8118C92.6744 12.7886 92.9523 12.741 93.2856 12.6839C95.4186 12.3182 99.8205 11.5637 99.7763 14.3322C97.0215 14.252 94.0935 14.3494 91.7278 16.1103C89.0042 18.1403 89.4331 22.4953 91.972 24.2934C93.6902 25.5103 97.1805 25.6334 99.7252 23.2827C101.108 25.0378 103.343 25.2898 104.607 24.6857ZM70.9807 20.2963C70.9807 21.4073 71.2761 21.7308 72.3354 21.9255L71.8327 24.7974C70.1713 25.0436 68.3907 25.1295 66.9792 23.5433C61.1913 27.088 57.2835 23.9642 57.0705 20.0129V9.34721H61.2595V18.7731C61.2652 20.4109 62.7448 21.4245 64.2585 21.4016C65.4456 21.3815 66.7492 20.6858 66.7492 19.4116V9.34435H70.9836L70.9807 20.2963ZM124.369 20.1904L124.381 17.1926C119.002 16.4023 118.221 20.6399 120.859 21.4073C122.722 21.9484 124.364 20.8661 124.369 20.1904ZM129.902 22.0028L129.387 24.6857C128.124 25.2898 125.889 25.0378 124.506 23.2827C121.961 25.6334 118.471 25.5103 116.753 24.2934C114.214 22.4953 113.785 18.1403 116.508 16.1103C118.874 14.3494 121.802 14.252 124.557 14.3322C124.601 11.5637 120.199 12.3182 118.066 12.6839L118.066 12.6839L118.066 12.6839C117.733 12.741 117.455 12.7886 117.258 12.8118L116.355 9.74533C121.924 8.51128 124.795 8.81765 126.482 9.97725C128.824 11.586 128.701 13.7541 128.488 17.5106V17.5107V17.5109C128.441 18.3473 128.389 19.2625 128.359 20.2677C128.328 21.3214 129.047 21.7308 129.902 22.0028ZM158.47 17.1926L158.459 20.1904C158.453 20.8661 156.812 21.9484 154.949 21.4073C152.307 20.6399 153.088 16.4023 158.47 17.1926ZM163.477 24.6857L163.991 22.0028C163.136 21.7308 162.418 21.3214 162.449 20.2677C162.479 19.2623 162.531 18.3471 162.578 17.5106C162.79 13.7541 162.913 11.586 160.572 9.97725C158.885 8.81765 156.014 8.51128 150.444 9.74533L151.347 12.8118C151.544 12.7886 151.822 12.741 152.155 12.6839C154.288 12.3182 158.69 11.5637 158.646 14.3322C155.891 14.252 152.963 14.3494 150.598 16.1103C147.874 18.1403 148.303 22.4953 150.842 24.2934C152.56 25.5103 156.05 25.6334 158.595 23.2827C159.978 25.0378 162.213 25.2898 163.477 24.6857ZM180.736 9.33932L174.996 17.0243C174.914 17.136 174.914 17.2877 175.002 17.4022L181 25.1702H176.084L171.529 19.0257C171.449 18.9169 171.316 18.8739 171.188 18.9169C171.06 18.9598 170.978 19.0744 170.978 19.209V25.1674H166.528L166.53 4.99004H170.978L170.981 15.4123C170.981 15.5469 171.063 15.6614 171.191 15.7043C171.319 15.7473 171.452 15.7015 171.532 15.5927L176.007 9.33932H180.736Z" fill="black"/>
<path fill-rule="evenodd" clip-rule="evenodd" d="M2.58752 2.68891L7.27328 1.12467C7.91676 0.909223 8.54855 0.974155 9.13939 1.31061C9.7273 1.64707 10.1075 2.16356 10.2538 2.83057L13.5239 17.6407C13.7813 18.8006 13.1407 19.9575 12.0263 20.3471L10.1163 21.0141C8.97559 21.4126 7.72957 20.8636 7.24695 19.748L1.2011 5.8351C0.932001 5.21236 0.932 4.57191 1.20695 3.95211C1.47896 3.33232 1.94696 2.90141 2.58752 2.68891ZM14.4101 30.7368C16.4151 29.9579 17.4146 27.6864 16.6427 25.6632C15.8707 23.6401 13.6196 22.6314 11.6146 23.4104C9.60968 24.1893 8.61013 26.4609 9.38208 28.484C10.154 30.5072 12.4051 31.5158 14.4101 30.7368ZM19.8196 21.1316C20.4163 20.8955 20.9808 20.6535 21.0423 20.6181C22.5779 19.6589 23.2009 18.4843 23.0341 16.6455C22.8733 14.8098 21.4752 12.9976 19.3136 12.8353C18.7403 12.791 17.9564 12.7999 17.0702 13.0212C16.4998 13.1659 15.9236 12.791 15.7715 12.2155L14.6747 8.07766C14.584 7.73235 14.6366 7.4018 14.8297 7.10371C15.0227 6.80562 15.5755 6.64328 15.9236 6.57835C17.5002 6.28616 18.869 6.17401 20.5392 6.44849C25.1957 7.2129 29.0274 11.0409 29.4602 16.253C29.8814 21.3205 26.9126 25.4053 22.3029 27.123C21.7472 27.3325 21.2441 27.4063 20.6971 27.1731C20.1531 26.94 19.7641 26.5415 19.5476 25.9837L18.7082 23.8381C18.2957 22.7815 18.7725 21.5478 19.8196 21.1316Z" fill="#E2004D"/>
</g>
</svg>
