<svg width="220" height="120" viewBox="0 0 220 120" fill="none" xmlns="http://www.w3.org/2000/svg">
<mask id="mask0" mask-type="alpha" maskUnits="userSpaceOnUse" x="0" y="0" width="220" height="120">
<rect width="220" height="120" fill="white"/>
</mask>
<g mask="url(#mask0)">
<path fill-rule="evenodd" clip-rule="evenodd" d="M140.141 105.464C143.611 108.44 148.823 106.9 150.708 102.459C152.672 97.8263 152.045 91.5953 147.129 89.1703C143.855 87.5558 135.109 88.6257 134.983 89.7863V112H140.141V105.464ZM140.141 101.123V93.4043C141.952 92.4965 144.344 92.7202 145.592 93.8452C147.318 95.4046 147.103 99.0647 145.849 100.88C144.717 102.521 141.485 102.945 140.141 101.123Z" fill="black"/>
<path fill-rule="evenodd" clip-rule="evenodd" d="M30 106.606C40.3798 107.824 44.6404 106.628 46.0746 101.409C47.7402 95.3528 44.3768 85.828 34.8233 90.2208V84.3108H30V106.606ZM34.8233 94.283C38.5148 91.7413 41.9651 94.9508 41.859 98.17C41.6853 103.474 35.0742 102.936 34.8233 102.054V94.283Z" fill="black"/>
<path fill-rule="evenodd" clip-rule="evenodd" d="M79.5146 97.9366L86.0132 89.2353H80.6593L75.5916 96.3156C75.5016 96.4388 75.3504 96.4907 75.2057 96.4421C75.061 96.3935 74.9678 96.2638 74.9678 96.1114L74.9646 84.3108H69.929L69.9258 107.157H74.9646V100.41C74.9646 100.258 75.0578 100.128 75.2025 100.08C75.3472 100.031 75.4983 100.08 75.5884 100.203L80.7461 107.16H86.3123L79.521 98.3645C79.4213 98.2349 79.4181 98.063 79.5146 97.9366Z" fill="black"/>
<path fill-rule="evenodd" clip-rule="evenodd" d="M97.8304 98.1272L97.8175 101.521C97.8111 102.287 95.9525 103.512 93.843 102.899C90.8558 102.03 91.7401 97.2324 97.8304 98.1272ZM103.499 106.611L104.081 103.574C103.114 103.266 102.3 102.802 102.335 101.609C102.522 95.3586 103.451 92.1848 100.21 89.9576C98.2998 88.6446 95.0489 88.2977 88.7431 89.695L89.7657 93.1671C91.4153 92.9725 98.0876 91.2641 98.0297 94.8885C94.9106 94.7977 91.5953 94.908 88.9168 96.9017C85.833 99.2002 86.3186 104.131 89.1933 106.167C91.1387 107.545 95.0907 107.684 97.9718 105.023C99.5378 107.01 102.068 107.295 103.499 106.611Z" fill="black"/>
<path fill-rule="evenodd" clip-rule="evenodd" d="M66.9605 103.486C65.7611 103.266 65.4266 102.899 65.4266 101.641L65.4299 89.241H60.6354V100.64C60.6354 102.082 59.1595 102.87 57.8154 102.893C56.1015 102.919 54.4262 101.771 54.4197 99.9167V89.2442H49.6768V101.32C49.9179 105.794 54.3426 109.331 60.8959 105.318C62.494 107.114 64.5102 107.017 66.3913 106.738L66.9605 103.486Z" fill="black"/>
<path d="M111.965 84.2666H107.017V107.096H111.965V84.2666Z" fill="black"/>
<path fill-rule="evenodd" clip-rule="evenodd" d="M125.889 98.1272L125.876 101.521C125.869 102.287 124.011 103.512 121.902 102.899C118.914 102.03 119.799 97.2324 125.889 98.1272ZM131.558 106.611L132.14 103.574C131.172 103.266 130.358 102.802 130.394 101.609C130.58 95.3586 131.509 92.1848 128.268 89.9576C126.358 88.6446 123.107 88.2977 116.802 89.695L117.824 93.1671C119.474 92.9725 126.146 91.2641 126.088 94.8885C122.969 94.7977 119.654 94.908 116.975 96.9017C113.892 99.2002 114.377 104.131 117.252 106.167C119.197 107.545 123.149 107.684 126.03 105.023C127.596 107.01 130.127 107.295 131.558 106.611Z" fill="black"/>
<path fill-rule="evenodd" clip-rule="evenodd" d="M164.487 98.1272L164.474 101.521C164.467 102.287 162.609 103.512 160.499 102.899C157.509 102.03 158.393 97.2324 164.487 98.1272ZM170.156 106.611L170.738 103.574C169.77 103.266 168.956 102.802 168.992 101.609C169.178 95.3586 170.107 92.1848 166.866 89.9576C164.956 88.6446 161.705 88.2977 155.399 89.695L156.422 93.1671C158.071 92.9725 164.744 91.2641 164.686 94.8885C161.567 94.7977 158.252 94.908 155.573 96.9017C152.489 99.2002 152.975 104.131 155.85 106.167C157.795 107.545 161.747 107.684 164.628 105.023C166.194 107.01 168.725 107.295 170.156 106.611Z" fill="black"/>
<path fill-rule="evenodd" clip-rule="evenodd" d="M183.198 97.9366L189.697 89.2353H184.343L179.275 96.3156C179.185 96.4388 179.034 96.4907 178.889 96.4421C178.745 96.3935 178.651 96.2638 178.651 96.1114L178.648 84.3108H173.613L173.609 107.157H178.648V100.41C178.648 100.258 178.741 100.128 178.886 100.08C179.031 100.031 179.182 100.08 179.272 100.203L184.43 107.16H189.996L183.205 98.3645C183.105 98.2349 183.105 98.063 183.198 97.9366Z" fill="black"/>
<path fill-rule="evenodd" clip-rule="evenodd" d="M81.4094 11.7595L91.9887 8.27752C93.4416 7.79793 94.868 7.94247 96.202 8.69142C97.5293 9.44037 98.3878 10.59 98.718 12.0748L106.101 45.0418C106.682 47.6237 105.236 50.199 102.72 51.0662L98.4077 52.551C95.8322 53.4379 93.0189 52.2159 91.9293 49.7325L78.2792 18.7628C77.6717 17.3766 77.6717 15.951 78.2924 14.5713C78.9066 13.1917 79.9632 12.2325 81.4094 11.7595Z" fill="#E2004D"/>
<path d="M108.103 74.1937C112.629 72.4598 114.886 67.4034 113.143 62.8999C111.4 58.3965 106.318 56.1513 101.791 57.8852C97.2643 59.6192 95.0076 64.6756 96.7505 69.179C98.4933 73.6825 103.576 75.9277 108.103 74.1937Z" fill="#E2004D"/>
<path fill-rule="evenodd" clip-rule="evenodd" d="M123.076 51.6696C122.938 51.7485 121.663 52.2872 120.316 52.8128C117.952 53.7391 116.875 56.4853 117.807 58.8372L119.702 63.6134C120.191 64.8551 121.069 65.742 122.297 66.261C123.532 66.78 124.668 66.6158 125.923 66.1494C136.33 62.3258 143.033 53.2333 142.082 41.953C141.105 30.3509 132.454 21.83 121.941 20.1284C118.17 19.5174 115.079 19.7671 111.52 20.4175C110.734 20.562 109.486 20.9234 109.05 21.5869C108.614 22.2504 108.495 22.9862 108.7 23.7549L111.176 32.9657C111.52 34.2468 112.821 35.0811 114.108 34.7592C116.109 34.2665 117.879 34.2467 119.174 34.3453C124.054 34.7066 127.21 38.7405 127.574 42.8268C127.95 46.9198 126.543 49.5345 123.076 51.6696Z" fill="#E2004D"/>
</g>
</svg>
