<svg width="24" height="24" viewBox="0 0 24 24" fill="none" xmlns="http://www.w3.org/2000/svg">
<path fill-rule="evenodd" clip-rule="evenodd" d="M24 24H0V1.90735e-06H24V24Z" fill="#E2004D"/>
<path fill-rule="evenodd" clip-rule="evenodd" d="M4.00239 4.11632L6.99666 3.08526C7.40704 2.94386 7.81417 2.97864 8.19456 3.18733C8.57495 3.39601 8.82236 3.72073 8.9221 4.142L11.1403 13.507C11.3143 14.2413 10.9131 14.9801 10.2012 15.2363L8.98077 15.6754C8.25225 15.9374 7.44909 15.5997 7.129 14.8963L3.13697 6.12317C2.95834 5.73051 2.95443 5.32518 3.12523 4.92894C3.29571 4.53303 3.59396 4.25706 4.00239 4.11632Z" fill="white"/>
<path d="M11.215 21.0246C12.4015 20.7621 13.15 19.5901 12.8867 18.4069C12.6235 17.2237 11.4482 16.4773 10.2617 16.7398C9.07516 17.0023 8.32668 18.1743 8.58992 19.3575C8.85316 20.5407 10.0284 21.2871 11.215 21.0246Z" fill="white"/>
<path fill-rule="evenodd" clip-rule="evenodd" d="M15.4634 15.0257C15.4227 15.0465 15.0537 15.1818 14.6645 15.3137C13.981 15.5461 13.6377 16.3116 13.8705 16.9933L14.3431 18.3783C14.4657 18.7375 14.701 19.0027 15.0439 19.1672C15.3868 19.332 15.7125 19.2998 16.0753 19.1857C19.0826 18.2392 21.1104 15.7434 20.9953 12.5199C20.877 9.20474 18.5376 6.66253 15.5769 6.03519C14.5139 5.80993 13.6338 5.83918 12.6149 5.97635C12.3903 6.00658 12.0311 6.09207 11.8981 6.27507C11.7651 6.45807 11.7214 6.66643 11.7693 6.88747L12.346 9.5415C12.4261 9.91043 12.7831 10.1659 13.1547 10.0925C13.7287 9.97901 14.2313 9.99884 14.598 10.0434C15.9791 10.2117 16.8201 11.4027 16.8667 12.5713C16.9136 13.7398 16.4775 14.465 15.4634 15.0257Z" fill="white"/>
</svg>
