<svg width="120" height="80" viewBox="0 0 120 80" fill="none" xmlns="http://www.w3.org/2000/svg">
<mask id="mask0" mask-type="alpha" maskUnits="userSpaceOnUse" x="0" y="0" width="120" height="80">
<rect width="120" height="80" fill="#C4C4C4"/>
</mask>
<g mask="url(#mask0)">
<g opacity="0.98">
<path d="M15.75 9C15.75 5.54822 18.5482 2.75 22 2.75H98C101.452 2.75 104.25 5.54822 104.25 9V71C104.25 74.4518 101.452 77.25 98 77.25H22C18.5482 77.25 15.75 74.4518 15.75 71V9Z" fill="#CCCCFF" stroke="#7373FF" stroke-width="1.5"/>
<rect x="22.75" y="9.75" width="74.5" height="60.5" rx="4.25" fill="white" stroke="#7373FF" stroke-width="1.5"/>
<path d="M69.25 24H64V41H69.25V24Z" fill="#CCCCFF"/>
<path d="M76.5 30H71.25V41H76.5V30Z" fill="#CCCCFF"/>
<path d="M83.75 19H78.5V41H83.75V19Z" fill="#CCCCFF"/>
<path d="M91 22H85.75V41H91V22Z" fill="#CCCCFF"/>
<path d="M72.8951 53.1206L73.2279 53.3338L73.5919 53.1798L90.2466 46.1331L90.1989 62.25H80.7836H75.3894H59.4874H43.9302H31.0085L36.7085 57.3035L55.2738 56.4149L55.4704 56.4055L55.6371 56.3007L66.8536 49.2509L72.8951 53.1206Z" fill="#CCCCFF" stroke="#7373FF" stroke-width="1.5"/>
<mask id="path-9-inside-1" fill="white">
<path fill-rule="evenodd" clip-rule="evenodd" d="M44.3555 17.0845V32.0432L56.8066 40.8306C54.1087 44.5735 49.7321 47.007 44.7918 47.007C36.5945 47.007 29.9492 40.3072 29.9492 32.0426C29.9492 23.9251 36.36 17.3172 44.3555 17.0845Z"/>
</mask>
<path fill-rule="evenodd" clip-rule="evenodd" d="M44.3555 17.0845V32.0432L56.8066 40.8306C54.1087 44.5735 49.7321 47.007 44.7918 47.007C36.5945 47.007 29.9492 40.3072 29.9492 32.0426C29.9492 23.9251 36.36 17.3172 44.3555 17.0845Z" fill="#CCCCFF"/>
<path d="M44.3555 32.0432H42.8555V32.8205L43.4906 33.2688L44.3555 32.0432ZM44.3555 17.0845H45.8555V15.5402L44.3118 15.5851L44.3555 17.0845ZM56.8066 40.8306L58.0234 41.7077L58.9093 40.4787L57.6715 39.6051L56.8066 40.8306ZM45.8555 32.0432V17.0845H42.8555V32.0432H45.8555ZM57.6715 39.6051L45.2204 30.8177L43.4906 33.2688L55.9417 42.0561L57.6715 39.6051ZM55.5898 39.9535C53.1598 43.3247 49.2265 45.507 44.7918 45.507V48.507C50.2377 48.507 55.0576 45.8224 58.0234 41.7077L55.5898 39.9535ZM44.7918 45.507C37.4344 45.507 31.4492 39.4904 31.4492 32.0426H28.4492C28.4492 41.124 35.7545 48.507 44.7918 48.507V45.507ZM31.4492 32.0426C31.4492 24.7278 37.2234 18.7927 44.3991 18.5838L44.3118 15.5851C35.4965 15.8417 28.4492 23.1224 28.4492 32.0426H31.4492Z" fill="#7373FF" mask="url(#path-9-inside-1)"/>
<mask id="path-11-inside-2" fill="white">
<path fill-rule="evenodd" clip-rule="evenodd" d="M45.6646 17.103V31.1626L57.6089 39.5923C58.8961 37.3759 59.6339 34.7958 59.6339 32.042C59.6339 24.0729 53.4554 17.5587 45.6646 17.103Z"/>
</mask>
<path fill-rule="evenodd" clip-rule="evenodd" d="M45.6646 17.103V31.1626L57.6089 39.5923C58.8961 37.3759 59.6339 34.7958 59.6339 32.042C59.6339 24.0729 53.4554 17.5587 45.6646 17.103Z" fill="white"/>
<path d="M45.6646 31.1626H44.1646V31.9399L44.7996 32.3881L45.6646 31.1626ZM45.6646 17.103L45.7521 15.6056L44.1646 15.5127V17.103H45.6646ZM57.6089 39.5923L56.744 40.8178L58.083 41.7628L58.906 40.3456L57.6089 39.5923ZM47.1646 31.1626V17.103H44.1646V31.1626H47.1646ZM58.4738 38.3668L46.5295 29.9371L44.7996 32.3881L56.744 40.8178L58.4738 38.3668ZM58.906 40.3456C60.3228 37.9061 61.1339 35.067 61.1339 32.042H58.1339C58.1339 34.5247 57.4694 36.8457 56.3118 38.839L58.906 40.3456ZM61.1339 32.042C61.1339 23.2844 54.342 16.108 45.7521 15.6056L45.577 18.6005C52.5689 19.0094 58.1339 24.8614 58.1339 32.042H61.1339Z" fill="#7373FF" mask="url(#path-11-inside-2)"/>
</g>
</g>
</svg>
