<svg width="34" height="30" viewBox="0 0 34 30" fill="none" xmlns="http://www.w3.org/2000/svg">
<mask id="mask0" mask-type="alpha" maskUnits="userSpaceOnUse" x="0" y="0" width="34" height="30">
<path d="M0 0H34V30H0V0Z" fill="#C4C4C4"/>
</mask>
<g mask="url(#mask0)">
<g opacity="0.98">
<path d="M0 3.375C0 1.92525 1.18396 0.75 2.64444 0.75H31.3556C32.816 0.75 34 1.92525 34 3.375V26.625C34 28.0747 32.816 29.25 31.3556 29.25H2.64445C1.18396 29.25 0 28.0747 0 26.625V3.375Z" fill="#CCCCFF"/>
<path fill-rule="evenodd" clip-rule="evenodd" d="M31.3556 1.3125H2.64444C1.49692 1.3125 0.566667 2.23591 0.566667 3.375V26.625C0.566667 27.7641 1.49692 28.6875 2.64445 28.6875H31.3556C32.5031 28.6875 33.4333 27.7641 33.4333 26.625V3.375C33.4333 2.23591 32.5031 1.3125 31.3556 1.3125ZM2.64444 0.75C1.18396 0.75 0 1.92525 0 3.375V26.625C0 28.0747 1.18396 29.25 2.64445 29.25H31.3556C32.816 29.25 34 28.0747 34 26.625V3.375C34 1.92525 32.816 0.75 31.3556 0.75H2.64444Z" fill="#7373FF"/>
<path d="M2.64453 5.25C2.64453 4.21447 3.49022 3.375 4.53342 3.375H29.4668C30.51 3.375 31.3556 4.21447 31.3556 5.25V24.75C31.3556 25.7855 30.51 26.625 29.4668 26.625H4.53342C3.49022 26.625 2.64453 25.7855 2.64453 24.75V5.25Z" fill="white"/>
<path fill-rule="evenodd" clip-rule="evenodd" d="M29.4668 3.9375H4.53342C3.80318 3.9375 3.2112 4.52513 3.2112 5.25V24.75C3.2112 25.4749 3.80318 26.0625 4.53342 26.0625H29.4668C30.197 26.0625 30.789 25.4749 30.789 24.75V5.25C30.789 4.52513 30.197 3.9375 29.4668 3.9375ZM4.53342 3.375C3.49022 3.375 2.64453 4.21447 2.64453 5.25V24.75C2.64453 25.7855 3.49022 26.625 4.53342 26.625H29.4668C30.51 26.625 31.3556 25.7855 31.3556 24.75V5.25C31.3556 4.21447 30.51 3.375 29.4668 3.375H4.53342Z" fill="#7373FF"/>
<path d="M20.4992 9H18.5117V15.375H20.4992V9Z" fill="#CCCCFF"/>
<path d="M23.2365 11.25H21.249V15.375H23.2365V11.25Z" fill="#CCCCFF"/>
<path d="M25.9738 7.125H23.9863V15.375H25.9738V7.125Z" fill="#CCCCFF"/>
<path d="M28.7121 8.25H26.7246V15.375H28.7121V8.25Z" fill="#CCCCFF"/>
<path d="M28.7113 16.875L22.0245 19.6834L19.5907 18.136L15.2012 20.8746L8.08959 21.2125L5.28906 23.625H10.9294H16.8065H22.814H24.8518H28.6911L28.7113 16.875Z" fill="#CCCCFF"/>
<path fill-rule="evenodd" clip-rule="evenodd" d="M21.9703 20.3169L19.5879 18.8022L15.3768 21.4294L8.31275 21.7651L6.80662 23.0625H28.1262L28.1421 17.7248L21.9703 20.3169ZM28.7113 16.875L28.6911 23.625H5.28906L8.08959 21.2125L15.2012 20.8746L19.5907 18.136L22.0245 19.6834L28.7113 16.875Z" fill="#7373FF"/>
<path fill-rule="evenodd" clip-rule="evenodd" d="M11.0898 6.40674V12.0163L15.7936 15.3115C14.7744 16.7151 13.121 17.6277 11.2546 17.6277C8.15788 17.6277 5.64746 15.1153 5.64746 12.016C5.64746 8.97196 8.0693 6.494 11.0898 6.40674Z" fill="#CCCCFF"/>
<path fill-rule="evenodd" clip-rule="evenodd" d="M10.5232 12.3078V7.01964C8.08935 7.37421 6.21413 9.47273 6.21413 12.016C6.21413 14.809 8.4752 17.0652 11.2546 17.0652C12.7254 17.0652 14.0502 16.4345 14.9729 15.4251L10.5232 12.3078ZM15.7936 15.3115C15.6827 15.4642 15.5643 15.6111 15.439 15.7516C14.4121 16.9029 12.918 17.6277 11.2546 17.6277C8.15788 17.6277 5.64746 15.1153 5.64746 12.016C5.64746 9.1649 7.77202 6.81039 10.5232 6.45168C10.7093 6.4274 10.8984 6.41227 11.0898 6.40674V12.0163L15.7936 15.3115Z" fill="#7373FF"/>
<path fill-rule="evenodd" clip-rule="evenodd" d="M11.584 6.41357V11.6859L16.0963 14.8471C16.5826 14.0159 16.8613 13.0484 16.8613 12.0157C16.8613 9.02728 14.5272 6.58447 11.584 6.41357Z" fill="white"/>
<path fill-rule="evenodd" clip-rule="evenodd" d="M12.1507 11.3944L15.8858 14.0111C16.1488 13.3996 16.2946 12.7252 16.2946 12.0157C16.2946 9.53026 14.5035 7.46933 12.1507 7.04612V11.3944ZM11.584 11.6859L16.0963 14.8471C16.1918 14.6838 16.2793 14.5153 16.3582 14.3421C16.6813 13.6333 16.8613 12.8456 16.8613 12.0157C16.8613 9.22186 14.8212 6.90488 12.1507 6.47537C11.9647 6.44546 11.7756 6.4247 11.584 6.41357V11.6859Z" fill="#7373FF"/>
</g>
</g>
</svg>
