<svg width="24" height="24" viewBox="0 0 24 24" fill="none" xmlns="http://www.w3.org/2000/svg">
<path fill-rule="evenodd" clip-rule="evenodd" d="M24 24H0V1.90735e-06H24V24Z" fill="#144199"/>
<path d="M11.2261 3.03676C10.9625 3.09562 10.6526 3.22804 10.4237 3.37813C10.218 3.5135 9.90518 3.8225 9.76904 4.02556C9.65606 4.1933 9.74876 4.00496 6.11911 11.4945C3.84225 16.1884 3.11516 17.7158 3.06882 17.8953C2.97902 18.2367 2.97612 18.8017 3.06592 19.1401C3.30635 20.0553 3.9755 20.7293 4.84743 20.9411C5.07917 20.9971 5.21822 21 12.4428 21C18.7287 21 19.8237 20.9941 19.957 20.9559C20.3596 20.847 20.6898 20.5733 20.8723 20.1937C20.9679 19.9965 20.9824 19.9406 20.9969 19.6963C21.0056 19.4903 20.9969 19.3785 20.9592 19.2461C20.8347 18.7987 20.4784 18.4279 20.0439 18.2896C19.873 18.2367 19.6557 18.2337 12.8889 18.2337H5.91344L6.06987 17.9041C6.7593 16.4592 11.7215 6.22977 11.733 6.22682C11.7475 6.22682 15.6726 13.5457 15.6958 13.6134C15.7016 13.634 14.7949 13.6428 13.1727 13.6428C10.7713 13.6428 10.6294 13.6458 10.4614 13.6988C10.218 13.7753 10.0645 13.8724 9.87622 14.0754C9.59233 14.3756 9.48805 14.667 9.50833 15.0996C9.51702 15.3438 9.5315 15.3968 9.62999 15.5998C9.81828 15.9883 10.1398 16.2561 10.5483 16.365C10.6786 16.4003 11.1856 16.4091 13.6101 16.4091C16.1448 16.4091 16.5446 16.4032 16.7358 16.362C17.6338 16.1737 18.3464 15.4674 18.5752 14.5316C18.6245 14.3315 18.6389 14.1961 18.636 13.9077C18.6331 13.4663 18.5694 13.1896 18.3869 12.8188C18.2334 12.504 13.9491 4.49936 13.7637 4.18448C13.4479 3.64005 12.9207 3.2251 12.3269 3.0603C12.0778 2.99262 11.4839 2.9779 11.2261 3.03676Z" fill="white"/>
</svg>
