<svg width="220" height="120" viewBox="0 0 220 120" fill="none" xmlns="http://www.w3.org/2000/svg">
<mask id="mask0" mask-type="alpha" maskUnits="userSpaceOnUse" x="0" y="0" width="220" height="120">
<rect width="220" height="120" fill="white"/>
</mask>
<g mask="url(#mask0)">
<path d="M107.537 7.17479C106.255 7.45468 104.747 8.08445 103.634 8.79819C102.634 9.44195 101.113 10.9114 100.451 11.8771C99.9014 12.6748 100.352 11.7791 82.7013 47.396C71.6291 69.7177 68.0932 76.981 67.8679 77.8347C67.4312 79.4581 67.4171 82.1451 67.8538 83.7545C69.023 88.1069 72.277 91.3117 76.5172 92.3194C77.6442 92.5853 78.3203 92.5993 113.453 92.5993C144.022 92.5993 149.346 92.5713 149.994 92.3894C151.952 91.8715 153.558 90.57 154.446 88.7647C154.911 87.827 154.981 87.5611 155.052 86.3996C155.094 85.4199 155.052 84.8881 154.868 84.2584C154.263 82.1311 152.53 80.3678 150.417 79.71C149.586 79.4581 148.529 79.4441 115.622 79.4441H81.7012L82.4619 77.8767C85.8145 71.0052 109.945 22.3592 110.002 22.3452C110.072 22.3452 129.16 57.1504 129.273 57.4722C129.301 57.5702 124.892 57.6122 117.003 57.6122C105.325 57.6122 104.635 57.6262 103.818 57.8781C102.634 58.2419 101.888 58.7038 100.972 59.6694C99.5915 61.0969 99.0844 62.4824 99.183 64.5396C99.2253 65.7012 99.2957 65.9531 99.7747 66.9187C100.69 68.7661 102.254 70.0396 104.24 70.5574C104.874 70.7253 107.339 70.7673 119.13 70.7673C131.456 70.7673 133.4 70.7393 134.33 70.5434C138.697 69.6477 142.162 66.289 143.275 61.8386C143.514 60.887 143.585 60.2432 143.571 58.8717C143.557 56.7725 143.247 55.457 142.359 53.6936C141.613 52.1962 120.778 14.1302 119.877 12.6328C118.341 10.0437 115.777 8.07046 112.89 7.28674C111.678 6.96487 108.79 6.89489 107.537 7.17479Z" fill="#144199"/>
<path fill-rule="evenodd" clip-rule="evenodd" d="M150.11 106.204C148.873 106.779 148.171 107.97 148.171 109.443C148.185 111.42 149.365 112.78 151.234 112.976C153.118 113.172 155.071 112.135 154.706 111.139C154.523 110.634 154.017 110.48 153.441 110.733C152.584 111.097 151.909 111.237 151.389 111.139C150.841 111.027 150.335 110.62 150.335 110.284C150.335 110.102 150.658 110.074 152.359 110.074C154.692 110.074 154.832 110.017 154.832 109.05C154.804 106.624 152.359 105.152 150.11 106.204ZM152.499 107.984C152.696 108.223 152.865 108.475 152.865 108.545C152.865 108.615 152.303 108.671 151.6 108.671C150.194 108.671 150.068 108.573 150.686 107.914C151.192 107.367 152.007 107.395 152.499 107.984ZM101.103 103.203L100.724 103.498V107.914C100.724 112.135 100.738 112.331 101.005 112.597C101.356 112.948 101.862 112.962 102.284 112.611C102.607 112.359 102.621 112.359 102.987 112.625C103.465 112.99 104.476 113.102 105.151 112.878C107.653 112.05 108.159 107.914 105.952 106.372C105.207 105.853 103.844 105.699 103.141 106.063L102.72 106.288L102.663 104.886C102.621 103.399 102.509 103.161 101.848 102.993C101.595 102.937 101.371 102.993 101.103 103.203ZM104.645 107.9C105.179 108.167 105.418 108.784 105.334 109.681C105.278 110.242 105.179 110.48 104.884 110.732C104.378 111.153 103.675 111.153 103.169 110.732C102.846 110.452 102.776 110.256 102.72 109.541C102.663 108.699 102.678 108.657 103.155 108.181C103.689 107.648 104.041 107.578 104.645 107.9ZM91.449 103.021C91.3366 103.063 91.1258 103.189 90.9993 103.315C90.7744 103.511 90.7463 103.918 90.7463 107.928C90.7463 112.134 90.7604 112.331 91.0274 112.597C91.435 113.004 92.0674 112.962 92.4328 112.499C92.7139 112.134 92.728 112.022 92.6858 107.802C92.6436 104.198 92.6155 103.455 92.4328 103.287C92.1658 103.049 91.7301 102.922 91.449 103.021ZM115.369 108.166C115.326 103.764 115.369 103.371 115.945 103.091C116.395 102.88 116.521 102.894 116.943 103.217L117.308 103.497V107.97C117.308 112.429 117.308 112.443 116.999 112.653C116.577 112.948 116.142 112.934 115.748 112.611L115.411 112.345L115.369 108.166ZM128.046 103.063C127.273 103.371 127.062 104.395 127.638 104.956C128.327 105.657 129.465 105.292 129.62 104.311C129.76 103.456 128.833 102.726 128.046 103.063ZM141.41 104.956C140.834 104.395 141.045 103.371 141.818 103.063C142.605 102.726 143.533 103.456 143.392 104.311C143.237 105.292 142.099 105.657 141.41 104.956ZM160.735 103.021C160.117 103.245 160.032 103.484 160.032 104.914C160.032 105.671 160.004 106.288 159.976 106.288C159.948 106.288 159.737 106.19 159.526 106.077C158.95 105.783 157.742 105.811 157.095 106.148C155.395 107.003 154.762 109.499 155.76 111.335C155.985 111.742 156.35 112.219 156.589 112.387C157.531 113.088 158.838 113.186 159.625 112.611L160.032 112.317L160.313 112.597C160.721 113.004 161.353 112.962 161.705 112.513C161.986 112.149 162 111.98 162 107.9C162 104.058 161.972 103.624 161.761 103.371C161.48 103.049 161.058 102.909 160.735 103.021ZM159.484 108.054C160.131 108.629 160.145 110.031 159.54 110.69C159.063 111.209 158.191 111.195 157.713 110.69C156.702 109.597 157.503 107.522 158.824 107.76C159.049 107.802 159.358 107.928 159.484 108.054ZM66.3199 104.142C66.4745 103.918 66.7415 103.694 66.9102 103.623C67.6129 103.343 68.3999 103.652 68.7653 104.353C69.2713 105.32 71.4918 111.545 71.4918 111.98C71.4918 112.513 71.0842 112.877 70.4799 112.877C69.988 112.877 69.5945 112.457 69.3837 111.672L69.201 111.055H67.4724H65.7437L65.5891 111.602C65.3783 112.415 64.9426 112.877 64.4367 112.877C63.8464 112.877 63.481 112.527 63.481 111.938C63.481 111.377 65.9124 104.717 66.3199 104.142ZM68.329 108.387L68.3289 108.387C68.2343 108.089 68.1101 107.699 67.9783 107.297C67.7394 106.512 67.5286 105.867 67.5145 105.867C67.4864 105.867 67.2615 106.512 67.0086 107.297C66.807 107.9 66.6214 108.464 66.5305 108.74L66.4745 108.909C66.4183 109.05 66.6713 109.092 67.4864 109.092C68.3437 109.092 68.5545 109.05 68.4983 108.909C68.4781 108.856 68.416 108.661 68.329 108.387ZM84.5197 103.68C83.6624 103.918 82.8051 104.507 82.2148 105.278C80.8657 107.045 81.0905 110.242 82.6646 111.826C83.4938 112.639 84.2808 112.934 85.6862 112.948C86.7262 112.948 86.9932 112.892 87.6959 112.555C89.0592 111.882 89.9024 110.438 89.9024 108.783C89.9024 108.237 89.8321 108.026 89.5511 107.76C89.2278 107.423 89.1154 107.409 87.6538 107.409C85.9251 107.409 85.5457 107.578 85.5457 108.377C85.5457 109.008 86.1078 109.372 87.0494 109.372C87.7803 109.372 87.8084 109.386 87.71 109.681C87.4148 110.662 86.6559 111.125 85.5316 111.027C84.2667 110.901 83.5781 109.919 83.5781 108.265C83.5781 107.199 83.9575 106.274 84.59 105.811C85.1662 105.39 86.3186 105.348 87.0213 105.727L87.1061 105.773L87.1061 105.773C88.0219 106.274 88.2482 106.398 88.4545 106.371C88.5223 106.362 88.5878 106.337 88.6749 106.304L88.6797 106.302C89.2138 106.091 89.3965 105.671 89.1997 105.082C88.9889 104.465 88.2862 103.988 87.1619 103.694C86.164 103.441 85.4332 103.441 84.5197 103.68ZM121.875 104.156L122.213 103.89C122.634 103.539 123.084 103.553 123.548 103.918L123.913 104.198V107.563V110.914H125.276C126.836 110.914 127.146 111.069 127.146 111.84C127.146 112.737 126.485 112.948 123.983 112.849C123.847 112.844 123.719 112.841 123.599 112.837C122.957 112.819 122.553 112.808 122.299 112.607C121.868 112.266 121.87 111.378 121.874 108.984C121.875 108.729 121.875 108.457 121.875 108.166V104.156ZM145.416 103.722C144.854 103.932 144.713 104.212 144.713 105.124C144.713 105.923 144.685 106.007 144.418 106.007C143.983 106.007 143.589 106.259 143.421 106.68C143.28 107.017 143.252 107.031 143.196 106.778C143.013 105.951 142.015 105.727 141.481 106.386C141.2 106.75 141.186 106.89 141.228 109.554L141.228 109.576C141.27 112.289 141.271 112.345 141.608 112.611C142.029 112.948 142.479 112.948 142.901 112.611C143.224 112.345 143.238 112.261 143.308 109.695C143.35 108.25 143.421 107.199 143.463 107.367C143.519 107.563 143.716 107.718 143.955 107.76C144.017 107.775 144.083 107.791 144.147 107.806L144.147 107.806C144.315 107.846 144.474 107.884 144.545 107.914C144.671 107.942 144.713 108.531 144.713 110.199C144.713 112.359 144.728 112.443 145.023 112.653C145.444 112.948 145.88 112.934 146.273 112.611C146.597 112.345 146.611 112.261 146.653 110.087L146.695 107.83H147.145C147.791 107.83 148.227 107.479 148.227 106.975C148.227 106.414 147.777 106.007 147.173 106.007H146.681V105.306C146.681 104.465 146.47 103.988 146.021 103.778C145.838 103.694 145.669 103.623 145.655 103.637C145.641 103.637 145.529 103.68 145.416 103.722ZM58 108.25C58 104.507 58.0141 104.311 58.2811 104.044C58.5341 103.792 58.7449 103.764 60.6281 103.764C62.9189 103.764 63.2 103.862 63.2 104.647C63.2 105.432 62.8908 105.586 61.4151 105.586H60.1081V106.428V107.269H61.3027C62.6519 107.269 63.0595 107.493 63.0595 108.208C63.0595 108.994 62.6097 109.232 61.1762 109.232H60.1081V110.073V110.914H61.4432C62.5957 110.914 62.8205 110.957 63.0595 111.195C63.4108 111.545 63.4249 112.05 63.0735 112.471C62.8205 112.779 62.68 112.807 61.1762 112.849C59.2789 112.919 58.6465 112.821 58.267 112.443C58.0141 112.19 58 111.952 58 108.25ZM72.3351 104.044C72.068 104.311 72.054 104.507 72.054 108.293C72.054 108.65 72.0529 108.98 72.0519 109.283V109.283V109.283V109.283V109.283C72.045 111.436 72.0423 112.275 72.4516 112.608C72.7131 112.821 73.1428 112.828 73.8471 112.839C74.0037 112.842 74.1739 112.844 74.3588 112.849C76.3967 112.905 77.0994 112.737 77.2961 112.12C77.3945 111.812 77.3664 111.658 77.1556 111.349C76.8886 111.013 76.7902 110.985 75.4832 110.914L74.0918 110.844L74.0497 110.031L74.0075 109.232H75.2161C76.3124 109.232 76.4529 109.204 76.7621 108.881C76.9588 108.699 77.1134 108.405 77.1134 108.25C77.1134 108.082 76.9588 107.802 76.7621 107.619C76.4529 107.297 76.3124 107.269 75.2161 107.269H74.0075L74.0497 106.456L74.0918 105.657L75.427 105.614C76.5794 105.586 76.7902 105.544 77.0151 105.292C77.3102 104.927 77.3243 104.479 77.0291 104.072C76.8324 103.778 76.734 103.764 74.7102 103.764C72.7988 103.764 72.588 103.792 72.3351 104.044ZM94.7092 112.359C92.6854 110.845 92.9244 107.339 95.1168 106.232C95.7773 105.895 96.0162 105.853 96.8876 105.895C97.7449 105.937 97.9838 106.007 98.5038 106.358C100.106 107.494 100.514 109.905 99.3611 111.63C98.3914 113.102 96.1708 113.439 94.7092 112.359ZM97.8573 110.284C98.2649 109.302 97.9135 108.125 97.1265 107.83C96.6346 107.634 96.5081 107.648 95.9881 107.956C95.5665 108.223 95.4962 108.335 95.3276 109.106C95.1308 110.003 95.8195 111.055 96.6065 111.055C97.2671 111.055 97.6184 110.831 97.8573 110.284ZM109.508 106.19C108.398 106.807 107.597 108.615 107.821 109.975C108.046 111.335 108.946 112.513 110.07 112.878C110.759 113.102 111.7 112.99 112.22 112.625C112.446 112.462 112.547 112.389 112.635 112.402C112.706 112.413 112.768 112.479 112.881 112.597L112.881 112.597L112.881 112.597C113.204 112.962 113.851 112.962 114.216 112.597C114.483 112.331 114.497 112.135 114.497 109.471C114.497 106.246 114.441 106.007 113.57 106.007C113.303 106.007 112.993 106.12 112.853 106.26C112.614 106.498 112.586 106.498 112.122 106.19C111.475 105.755 110.295 105.755 109.508 106.19ZM112.066 108.139C112.445 108.489 112.6 109.176 112.459 109.877C112.248 111.055 110.955 111.49 110.225 110.62C109.578 109.863 109.775 108.335 110.576 107.886C110.998 107.634 111.644 107.746 112.066 108.139ZM132.472 106.442C132.528 106.372 132.753 106.203 132.978 106.077C133.582 105.755 134.959 105.853 135.536 106.259L135.971 106.568L136.59 106.217C137.025 105.965 137.405 105.867 137.967 105.867C139.007 105.867 139.639 106.203 140.047 106.989C140.328 107.563 140.356 107.802 140.356 109.877C140.356 111.952 140.328 112.162 140.061 112.513C139.738 112.92 139.176 113.004 138.726 112.681C138.487 112.499 138.445 112.246 138.389 110.312C138.304 107.858 138.192 107.549 137.335 107.549C136.576 107.549 136.505 107.788 136.421 110.171C136.351 112.246 136.337 112.359 136.013 112.611C135.592 112.948 135.142 112.948 134.72 112.611C134.397 112.359 134.383 112.246 134.313 110.171C134.229 107.774 134.158 107.549 133.399 107.549C133.062 107.549 132.851 107.648 132.64 107.914C132.373 108.25 132.345 108.475 132.345 110.255C132.345 112.092 132.317 112.246 132.036 112.555C131.657 112.962 131.123 112.962 130.701 112.569C130.378 112.275 130.378 112.218 130.378 109.442C130.378 106.203 130.434 106.007 131.348 106.007C131.699 106.007 131.966 106.105 132.135 106.288C132.275 106.442 132.43 106.512 132.472 106.442ZM127.497 109.47C127.497 106.848 127.525 106.568 127.764 106.301C127.932 106.119 128.199 106.007 128.481 106.007C128.762 106.007 129.029 106.119 129.197 106.301C129.436 106.568 129.464 106.848 129.464 109.47C129.464 112.317 129.464 112.345 129.127 112.611C128.705 112.948 128.256 112.948 127.834 112.611C127.497 112.345 127.497 112.317 127.497 109.47Z" fill="black"/>
</g>
</svg>
