<svg width="176" height="32" viewBox="0 0 176 32" fill="none" xmlns="http://www.w3.org/2000/svg">
<path d="M14.7102 1.06127C14.2708 1.15936 13.7543 1.38008 13.3728 1.63022C13.0301 1.85584 12.5086 2.37084 12.2817 2.70927C12.0934 2.98884 12.2479 2.67494 6.19852 15.1576C2.40375 22.9807 1.19194 25.5263 1.11469 25.8255C0.965027 26.3944 0.960199 27.3361 1.10986 27.9002C1.51058 29.4256 2.62584 30.5488 4.07905 30.9019C4.46529 30.9951 4.69703 31 16.7379 31C27.2146 31 29.0395 30.9902 29.2616 30.9264C29.9327 30.745 30.4831 30.2888 30.7872 29.6561C30.9466 29.3275 30.9707 29.2343 30.9948 28.8272C31.0093 28.4839 30.9948 28.2975 30.9321 28.0768C30.7245 27.3312 30.1306 26.7132 29.4064 26.4827C29.1216 26.3944 28.7595 26.3895 17.4814 26.3895H5.85573L6.11644 25.8402C7.26549 23.4319 15.5358 6.38294 15.5551 6.37804C15.5792 6.37804 22.1211 18.5762 22.1597 18.689C22.1694 18.7234 20.6582 18.7381 17.9546 18.7381C13.9522 18.7381 13.7156 18.743 13.4356 18.8313C13.0301 18.9588 12.7742 19.1206 12.4604 19.4591C11.9872 19.9594 11.8134 20.4449 11.8472 21.1659C11.8617 21.573 11.8858 21.6613 12.05 21.9997C12.3638 22.6472 12.8997 23.0935 13.5804 23.275C13.7977 23.3338 14.6426 23.3486 18.6836 23.3486C22.908 23.3486 23.5743 23.3387 23.8929 23.2701C25.3896 22.9562 26.5773 21.779 26.9587 20.2193C27.0408 19.8858 27.0649 19.6602 27.0601 19.1795C27.0552 18.4438 26.949 17.9827 26.6449 17.3647C26.389 16.8399 19.2485 3.49894 18.9395 2.97413C18.4132 2.06674 17.5345 1.37517 16.5448 1.1005C16.1296 0.987694 15.1399 0.963169 14.7102 1.06127Z" fill="#144199"/>
<path fill-rule="evenodd" clip-rule="evenodd" d="M112.228 16.2585C112.171 10.318 112.228 9.78822 113.003 9.40984C113.609 9.12606 113.779 9.14497 114.346 9.58011L114.838 9.95849V15.9937C114.838 22.0099 114.838 22.0288 114.422 22.3126C113.855 22.7099 113.268 22.691 112.738 22.2558L112.284 21.8964L112.228 16.2585ZM93.0247 9.55988L92.5138 9.95717V15.9167C92.5138 21.6113 92.5328 21.8761 92.8922 22.2356C93.3652 22.7086 94.0463 22.7275 94.6138 22.2545C95.049 21.914 95.0679 21.914 95.5598 22.2734C96.203 22.7653 97.5652 22.9167 98.4733 22.614C101.841 21.4978 102.522 15.9167 99.5517 13.8356C98.549 13.1356 96.7139 12.9275 95.7679 13.4194L95.2003 13.7221L95.1247 11.8302C95.0679 9.82474 94.9166 9.50312 94.0274 9.27609C93.6868 9.20041 93.3841 9.27609 93.0247 9.55988ZM97.7922 15.8977C98.5112 16.2572 98.8328 17.0896 98.7193 18.3005C98.6436 19.0572 98.5112 19.3788 98.1139 19.7194C97.4328 20.2869 96.4868 20.2869 95.8057 19.7194C95.3706 19.341 95.276 19.0761 95.2003 18.1113C95.1247 16.9761 95.1436 16.9194 95.7868 16.2761C96.5057 15.5572 96.9787 15.4626 97.7922 15.8977ZM80.027 9.31499C79.8757 9.37175 79.5919 9.54202 79.4216 9.71229C79.1189 9.97716 79.0811 10.5258 79.0811 15.9366C79.0811 21.6123 79.1 21.8772 79.4594 22.2367C80.0081 22.7853 80.8595 22.7286 81.3513 22.1042C81.7297 21.6123 81.7486 21.461 81.6919 15.7664C81.6351 10.9042 81.5973 9.90148 81.3513 9.67445C80.9919 9.35283 80.4054 9.18256 80.027 9.31499ZM129.292 9.37027C128.252 9.78649 127.968 11.1676 128.744 11.9243C129.671 12.8703 131.203 12.3784 131.411 11.0541C131.6 9.9 130.352 8.91622 129.292 9.37027ZM147.284 11.9243C146.509 11.1676 146.792 9.78649 147.833 9.37027C148.892 8.91622 150.141 9.9 149.952 11.0541C149.744 12.3784 148.211 12.8703 147.284 11.9243ZM173.297 9.31425C172.464 9.61695 172.351 9.93857 172.351 11.8683C172.351 12.8899 172.313 13.7224 172.275 13.7224C172.237 13.7224 171.954 13.5899 171.67 13.4386C170.894 13.0413 169.267 13.0791 168.397 13.5332C166.108 14.6872 165.256 18.0548 166.6 20.5332C166.902 21.0819 167.394 21.7251 167.716 21.9521C168.983 22.8981 170.743 23.0305 171.802 22.2548L172.351 21.8575L172.729 22.2359C173.278 22.7846 174.129 22.7278 174.602 22.1224C174.981 21.6305 175 21.4035 175 15.8981C175 10.7143 174.962 10.1278 174.678 9.78722C174.3 9.35209 173.732 9.1629 173.297 9.31425ZM171.613 16.1062C172.483 16.8818 172.502 18.7737 171.689 19.6629C171.045 20.3629 169.872 20.344 169.229 19.6629C167.867 18.1873 168.945 15.3872 170.724 15.7089C171.027 15.7656 171.443 15.9359 171.613 16.1062ZM46.2005 10.8285C46.4086 10.5258 46.7681 10.2231 46.9951 10.1285C47.9411 9.75015 49.0005 10.1664 49.4924 11.1123C50.1735 12.4177 53.1627 20.8178 53.1627 21.4043C53.1627 22.1232 52.6141 22.6151 51.8005 22.6151C51.1384 22.6151 50.6086 22.0475 50.3249 20.988L50.0789 20.1556H47.7519H45.4248L45.2167 20.8934C44.9329 21.9907 44.3465 22.6151 43.6654 22.6151C42.8708 22.6151 42.3789 22.1421 42.3789 21.3475C42.3789 20.5907 45.6519 11.6042 46.2005 10.8285ZM48.9051 16.556L48.905 16.5558L48.9049 16.5556C48.7775 16.154 48.6104 15.6274 48.433 15.0853C48.1113 14.0258 47.8276 13.1556 47.8086 13.1556C47.7708 13.1556 47.4681 14.0258 47.1275 15.0853C46.8561 15.8995 46.6063 16.6598 46.4839 17.0323C46.4442 17.1532 46.4179 17.2332 46.4086 17.261C46.333 17.4502 46.6735 17.5069 47.7708 17.5069C48.9249 17.5069 49.2086 17.4502 49.133 17.261C49.1058 17.1885 49.0222 16.9251 48.9051 16.556L48.9051 16.556ZM70.7003 10.2036C69.5463 10.5252 68.3922 11.3198 67.5976 12.3604C65.7814 14.7442 66.0841 19.0577 68.203 21.1955C69.3192 22.2928 70.3787 22.6901 72.2706 22.7091C73.6706 22.7091 74.0301 22.6334 74.976 22.1793C76.8112 21.2712 77.9463 19.3226 77.9463 17.0901C77.9463 16.3523 77.8517 16.0685 77.4733 15.709C77.0382 15.255 76.8868 15.2361 74.9193 15.2361C72.5922 15.2361 72.0814 15.4631 72.0814 16.5415C72.0814 17.3928 72.8382 17.8847 74.1057 17.8847C75.0895 17.8847 75.1274 17.9036 74.9949 18.3009C74.5976 19.6253 73.576 20.2496 72.0625 20.1172C70.3598 19.9469 69.4327 18.6226 69.4327 16.3901C69.4327 14.9523 69.9436 13.7036 70.7949 13.0793C71.5706 12.5117 73.1219 12.455 74.0679 12.9658L74.1821 13.0284L74.1821 13.0284C75.4148 13.7046 75.7194 13.8716 75.9971 13.835C76.0883 13.823 76.1766 13.7891 76.2939 13.7439L76.3003 13.7415C77.0193 13.4577 77.2652 12.8901 77.0003 12.0955C76.7166 11.2631 75.7706 10.6198 74.2571 10.2225C72.9138 9.88199 71.93 9.88199 70.7003 10.2036ZM120.988 10.8488L121.442 10.4894C122.009 10.0164 122.615 10.0353 123.239 10.5272L123.731 10.9056V15.4462V19.9678H125.566C127.666 19.9678 128.082 20.1759 128.082 21.2165C128.082 22.4273 127.193 22.7111 123.825 22.5786C123.641 22.5717 123.469 22.5668 123.308 22.5623C122.445 22.5378 121.901 22.5225 121.559 22.252C120.978 21.7922 120.98 20.5953 120.986 17.3636C120.987 17.0192 120.988 16.6518 120.988 16.2597V10.8488ZM152.676 10.2612C151.919 10.545 151.73 10.9234 151.73 12.1531C151.73 13.2315 151.692 13.345 151.332 13.345C150.746 13.345 150.216 13.6855 149.989 14.2531C149.8 14.7072 149.762 14.7261 149.686 14.3855C149.44 13.2693 148.097 12.9666 147.378 13.8558C147 14.3477 146.981 14.5369 147.038 18.1315L147.038 18.1601C147.095 21.8211 147.096 21.8973 147.549 22.2558C148.116 22.7099 148.722 22.7099 149.289 22.2558C149.724 21.8964 149.743 21.7829 149.838 18.3207C149.895 16.372 149.989 14.9531 150.046 15.1801C150.122 15.445 150.386 15.6531 150.708 15.7099C150.792 15.7309 150.881 15.7519 150.967 15.7725L150.968 15.7726C151.193 15.8262 151.407 15.877 151.503 15.918C151.673 15.9558 151.73 16.7504 151.73 19.0018C151.73 21.9153 151.749 22.0288 152.146 22.3126C152.713 22.7099 153.3 22.691 153.83 22.2558C154.265 21.8964 154.284 21.7829 154.34 18.8504L154.397 15.8045H155.003C155.873 15.8045 156.459 15.3315 156.459 14.6504C156.459 13.8936 155.854 13.345 155.04 13.345H154.378V12.399C154.378 11.2639 154.095 10.6207 153.489 10.3369C153.243 10.2234 153.016 10.1288 152.997 10.1477C152.978 10.1477 152.827 10.2044 152.676 10.2612ZM35 16.3709C35 11.3195 35.0189 11.0546 35.3784 10.6952C35.7189 10.3546 36.0027 10.3168 38.5379 10.3168C41.6217 10.3168 42 10.4492 42 11.5087C42 12.5682 41.5838 12.7763 39.5973 12.7763H37.8379V13.9114V15.0465H39.446C41.2622 15.0465 41.8108 15.3493 41.8108 16.3141C41.8108 17.3736 41.2054 17.6952 39.2757 17.6952H37.8379V18.8303V19.9655H39.6352C41.1865 19.9655 41.4892 20.0222 41.8108 20.3439C42.2838 20.8168 42.3027 21.4979 41.8298 22.0655C41.4892 22.4817 41.3 22.5196 39.2757 22.5763C36.7216 22.6709 35.8703 22.5385 35.3595 22.0277C35.0189 21.6871 35 21.3655 35 16.3709ZM54.298 10.6966C53.9385 11.056 53.9196 11.3209 53.9196 16.429C53.9196 16.9119 53.9181 17.3565 53.9168 17.7659V17.7659C53.9075 20.672 53.9039 21.8038 54.4559 22.2533C54.808 22.54 55.3863 22.549 56.3334 22.5638C56.5442 22.5671 56.7733 22.5707 57.0223 22.5777C59.7655 22.6534 60.7115 22.4263 60.9764 21.5939C61.1088 21.1777 61.071 20.9696 60.7872 20.5534C60.4277 20.0993 60.2953 20.0615 58.5358 19.9669L56.6628 19.8723L56.6061 18.775L56.5493 17.6966H58.1763C59.652 17.6966 59.8412 17.6588 60.2574 17.2236C60.5223 16.9777 60.7304 16.5804 60.7304 16.3723C60.7304 16.1452 60.5223 15.7669 60.2574 15.5209C59.8412 15.0858 59.652 15.0479 58.1763 15.0479H56.5493L56.6061 13.9506L56.6628 12.8722L58.4601 12.8155C60.0115 12.7776 60.2953 12.7209 60.598 12.3804C60.9953 11.8885 61.0142 11.283 60.6169 10.7344C60.352 10.3371 60.2196 10.3182 57.4953 10.3182C54.9223 10.3182 54.6385 10.356 54.298 10.6966ZM84.4159 21.9146C81.6916 19.8714 82.0132 15.1416 84.9646 13.647C85.8538 13.193 86.1754 13.1362 87.3484 13.193C88.5024 13.2497 88.824 13.3443 89.524 13.8173C91.6808 15.3497 92.2295 18.6038 90.6781 20.9308C89.3727 22.9173 86.3835 23.3714 84.4159 21.9146ZM88.6538 19.1146C89.2024 17.7903 88.7294 16.2011 87.67 15.8038C87.0078 15.5389 86.8375 15.5579 86.1375 15.9741C85.57 16.3335 85.4754 16.4849 85.2484 17.5254C84.9835 18.7362 85.9105 20.1552 86.97 20.1552C87.8592 20.1552 88.3321 19.8525 88.6538 19.1146ZM104.338 13.5896C102.843 14.4221 101.765 16.8626 102.068 18.6978C102.37 20.5329 103.581 22.1221 105.095 22.614C106.022 22.9167 107.289 22.7653 107.989 22.2734C108.293 22.0532 108.429 21.955 108.547 21.9725C108.643 21.9866 108.727 22.0754 108.878 22.2356C109.314 22.7275 110.184 22.7275 110.676 22.2356C111.035 21.8761 111.054 21.6113 111.054 18.0167C111.054 13.6653 110.978 13.3437 109.805 13.3437C109.446 13.3437 109.03 13.495 108.841 13.6842C108.519 14.0058 108.481 14.0058 107.857 13.5896C106.986 13.0031 105.397 13.0031 104.338 13.5896ZM107.781 16.2194C108.292 16.6923 108.5 17.6194 108.311 18.5653C108.027 20.1545 106.286 20.741 105.303 19.568C104.432 18.5464 104.697 16.4842 105.776 15.8788C106.343 15.5383 107.214 15.6896 107.781 16.2194ZM135.251 13.9316C135.327 13.837 135.63 13.61 135.932 13.4397C136.746 13.0046 138.6 13.137 139.376 13.6857L139.962 14.1019L140.795 13.6289C141.381 13.2884 141.892 13.156 142.649 13.156C144.049 13.156 144.9 13.61 145.449 14.6695C145.827 15.4452 145.865 15.7668 145.865 18.5668C145.865 21.3668 145.827 21.6506 145.468 22.1236C145.032 22.6722 144.276 22.7857 143.67 22.3506C143.349 22.1046 143.292 21.7641 143.216 19.1533C143.103 15.8425 142.951 15.4262 141.797 15.4262C140.776 15.4262 140.681 15.7479 140.568 18.9641C140.473 21.7641 140.454 21.9155 140.019 22.256C139.451 22.71 138.846 22.71 138.278 22.256C137.843 21.9155 137.824 21.7641 137.73 18.9641C137.616 15.7289 137.522 15.4262 136.5 15.4262C136.046 15.4262 135.762 15.5587 135.478 15.9181C135.119 16.3722 135.081 16.6749 135.081 19.0776C135.081 21.556 135.043 21.7641 134.665 22.1803C134.154 22.729 133.435 22.729 132.868 22.1992C132.432 21.8019 132.432 21.7263 132.432 17.9803C132.432 13.61 132.508 13.3451 133.738 13.3451C134.211 13.3451 134.57 13.4776 134.797 13.7235C134.986 13.9316 135.195 14.0262 135.251 13.9316ZM158.996 13.6089C157.331 14.3846 156.385 15.9927 156.385 17.9792C156.404 20.6468 157.993 22.4819 160.509 22.7468C163.044 23.0117 165.674 21.6117 165.182 20.2684C164.936 19.5873 164.255 19.3792 163.479 19.7198C162.325 20.2116 161.417 20.4008 160.717 20.2684C159.979 20.1171 159.298 19.5684 159.298 19.1143C159.298 18.8684 159.733 18.8306 162.023 18.8306C165.163 18.8306 165.352 18.7549 165.352 17.4495C165.315 14.1765 162.023 12.19 158.996 13.6089ZM162.212 16.0116C162.477 16.3333 162.704 16.6738 162.704 16.7684C162.704 16.863 161.947 16.9387 161.001 16.9387C159.109 16.9387 158.939 16.8062 159.771 15.917C160.452 15.1792 161.55 15.217 162.212 16.0116ZM128.554 18.0186C128.554 14.4808 128.592 14.1024 128.914 13.7429C129.141 13.497 129.5 13.3456 129.879 13.3456C130.257 13.3456 130.617 13.497 130.844 13.7429C131.165 14.1024 131.203 14.4808 131.203 18.0186C131.203 21.8592 131.203 21.897 130.749 22.2565C130.182 22.7105 129.576 22.7105 129.009 22.2565C128.554 21.897 128.554 21.8592 128.554 18.0186Z" fill="black"/>
</svg>
