<svg width="220" height="120" viewBox="0 0 220 120" fill="none" xmlns="http://www.w3.org/2000/svg">
<mask id="mask0" mask-type="alpha" maskUnits="userSpaceOnUse" x="0" y="0" width="220" height="120">
<rect width="220" height="120" fill="white"/>
</mask>
<g mask="url(#mask0)">
<path fill-rule="evenodd" clip-rule="evenodd" d="M135.364 23.0868C137.191 21.7235 138.105 19.4515 138.105 16.9522C138.105 12.4081 134.451 9 129.883 9C126.914 9 124.402 10.3632 123.032 12.6353C118.921 10.5904 114.354 9.68162 109.786 9.68162C104.991 9.68162 100.423 10.8176 96.5408 12.6353C95.1705 10.3632 92.6584 9 89.6896 9C85.1221 9 81.4681 12.6353 81.4681 16.9522C81.4681 19.4515 82.61 21.4963 84.2086 23.0868C80.783 28.0853 78.9561 33.7655 78.9561 40.1272C78.9561 56.9405 92.6584 70.8001 109.786 70.8001C126.686 70.8001 140.617 57.1677 140.617 40.1272C140.617 33.7655 138.79 27.8581 135.364 23.0868ZM110.015 68.3008C94.4854 68.3008 81.6965 55.5773 81.6965 40.1272C81.6965 34.2199 83.5235 28.7669 86.4924 24.2228C89.2329 20.1331 93.1152 16.725 97.6826 14.6802C101.337 12.8625 105.676 11.9537 110.015 11.9537C114.354 11.9537 118.693 12.8625 122.347 14.6802C126.914 16.9522 130.568 20.1331 133.537 24.2228C136.506 28.7669 138.333 34.2199 138.333 40.1272C138.333 55.5773 125.544 68.3008 110.015 68.3008ZM117.55 47.8522C117.55 51.4875 114.125 54.4412 110.014 54.4412C105.675 54.4412 102.478 51.4875 102.478 47.8522H117.55ZM30.9603 86.2203H28V89.6656H31.0787V103.922H34.8679V89.6656H38.6571V86.2203H34.8679V83.0127C34.8679 81.8247 35.3415 81.1119 36.5257 81.1119L38.5387 81.4683V78.0231L36.6441 77.6667C32.8549 77.6667 30.9603 79.9239 30.9603 83.3691V86.2203ZM57.485 95.1304C57.485 89.6656 53.1037 85.864 48.2488 85.864C43.3939 85.864 39.0127 89.5468 39.0127 95.1304C39.0127 100.595 43.2755 104.397 48.2488 104.397C53.2222 104.397 57.485 100.595 57.485 95.1304ZM53.6958 95.1304C53.6958 98.338 51.8012 100.952 48.2488 100.952C44.6965 100.952 42.8019 98.2192 42.8019 95.1304C42.8019 91.9228 44.6965 89.3092 48.2488 89.3092C51.8012 89.3092 53.6958 91.9228 53.6958 95.1304ZM68.2596 85.864C73.1145 85.864 77.4957 89.6656 77.4957 95.1304C77.4957 100.595 73.2329 104.397 68.2596 104.397C63.2863 104.397 59.0234 100.595 59.0234 95.1304C59.1418 89.5468 63.4047 85.864 68.2596 85.864ZM68.2596 100.952C71.812 100.952 73.7066 98.338 73.7066 95.1304C73.7066 91.9228 71.812 89.3092 68.2596 89.3092C64.7072 89.3092 62.8126 91.9228 62.8126 95.1304C62.8126 98.2192 64.7072 100.952 68.2596 100.952ZM93.7183 103.922H97.1522V77.7855H93.363V87.646L93.1262 87.8836L92.8894 87.646C91.8236 86.458 89.9291 85.7452 88.0345 85.7452C83.1796 85.7452 79.0352 89.5468 79.0352 95.0116C79.0352 100.476 83.1796 104.278 88.0345 104.278C89.9291 104.278 91.7052 103.565 92.8894 102.377L93.1262 102.14L93.363 102.377L93.7183 103.922ZM82.8243 95.0116C82.8243 91.804 84.7189 89.1904 88.2713 89.1904C91.4684 89.1904 93.7183 91.9228 93.7183 95.0116C93.7183 98.2192 91.4684 100.833 88.2713 100.833C84.7189 100.833 82.8243 98.2192 82.8243 95.0116ZM101.062 86.2204H104.377L104.733 87.7648L104.969 88.0024L105.206 87.7648C106.39 86.5768 108.166 85.864 110.061 85.864C114.916 85.864 119.06 89.6656 119.06 95.1304C119.06 100.595 114.916 104.397 110.061 104.397C108.166 104.397 106.272 103.684 105.206 102.496L104.969 102.258L104.733 102.496V112H101.062V86.2204ZM109.706 100.952C113.258 100.952 115.153 98.338 115.153 95.1304C115.153 91.9228 113.258 89.3092 109.706 89.3092C106.509 89.3092 104.259 91.9228 104.259 95.1304C104.259 98.2192 106.509 100.952 109.706 100.952ZM131.492 92.8732H128.414C123.796 92.8732 120.717 95.1304 120.835 98.5756C120.835 102.14 123.085 104.04 126.282 104.04C128.769 104.04 130.664 103.209 131.848 101.427L132.203 103.803H135.282V92.7544C135.282 88.1211 132.913 85.7451 128.177 85.7451C124.743 85.7451 122.138 87.6459 121.427 90.6159L124.743 91.3288C125.335 89.7843 126.401 88.9527 128.058 88.9527C130.071 88.9527 131.492 89.9031 131.492 92.0415V92.8732ZM129.953 99.7636C129.124 100.595 127.94 100.952 126.756 100.952C125.335 100.952 124.506 100.001 124.506 98.8132C124.506 97.15 125.927 96.0808 128.177 96.0808H131.374V96.4372C131.374 97.8628 130.9 98.932 129.953 99.7636ZM138.598 86.2204H142.032L142.387 87.7648L142.624 88.0024L142.861 87.7648C143.571 86.5768 145.466 85.864 147.005 85.864C151.505 85.864 154.11 88.834 154.11 92.992V103.922H150.32V92.992C150.202 90.616 149.018 89.1904 146.531 89.1904C144.281 89.1904 142.505 90.9724 142.387 93.2296V103.922H138.598V86.2204ZM170.923 103.922H174.357V77.7855H170.568V87.646L170.331 87.8836L170.094 87.646C169.029 86.458 167.134 85.7452 165.24 85.7452C160.385 85.7452 156.24 89.5468 156.24 95.0116C156.24 100.476 160.385 104.278 165.24 104.278C167.134 104.278 168.91 103.565 170.094 102.377L170.331 102.14L170.568 102.377L170.923 103.922ZM160.148 95.0116C160.148 91.804 162.042 89.1904 165.595 89.1904C168.792 89.1904 171.042 91.9228 171.042 95.0116C171.042 98.2192 168.792 100.833 165.595 100.833C162.042 100.833 160.148 98.2192 160.148 95.0116ZM185.133 92.8732H188.211V92.0415C188.211 89.9031 186.79 88.9527 184.777 88.9527C183.12 88.9527 182.054 89.7843 181.462 91.3288L178.146 90.6159C178.857 87.6459 181.462 85.7451 184.896 85.7451C189.632 85.7451 192.001 88.1211 192.001 92.7544V103.803H188.922L188.567 101.427C187.382 103.209 185.488 104.04 183.001 104.04C179.804 104.04 177.554 102.14 177.554 98.5756C177.436 95.1304 180.396 92.8732 185.133 92.8732ZM183.475 100.952C184.659 100.952 185.843 100.595 186.672 99.7636C187.619 98.932 188.093 97.8628 188.093 96.4372V96.0808H184.896C182.646 96.0808 181.225 97.15 181.225 98.8132C181.225 100.001 182.054 100.952 183.475 100.952ZM115.267 42.172C115.267 44.4441 110.471 46.2618 110.014 46.0345C109.557 46.2618 104.533 44.4441 104.761 42.172C104.761 40.8088 108.644 40.5816 110.014 40.5816C111.384 40.5816 115.267 40.8088 115.267 42.172ZM127.827 26.9493C125.087 25.1316 119.149 24.2228 116.865 27.1765C116.865 27.1765 113.897 30.3574 116.865 33.5383C119.834 36.7192 121.89 39.9 122.575 42.3993C123.26 45.1258 124.402 46.0346 126.457 46.0346C128.512 46.0346 132.623 42.8537 133.308 37.628C133.765 32.4022 130.568 28.5397 127.827 26.9493ZM121.661 33.5383C120.748 33.5383 120.063 32.8567 120.063 31.9478C120.063 31.039 120.748 30.3574 121.661 30.3574C122.575 30.3574 123.26 31.039 123.26 31.9478C123.26 32.8567 122.575 33.5383 121.661 33.5383ZM91.9731 26.9493C94.7135 25.1316 100.651 24.2228 102.935 27.1765C102.935 27.1765 105.904 30.1302 102.935 33.5383C100.195 36.7192 97.9108 39.6728 97.2257 42.3993C96.5405 44.8986 95.3987 46.0346 93.3433 46.0346C91.0596 46.0346 86.9489 42.8537 86.4921 37.628C86.0354 32.4022 89.2326 28.7669 91.9731 26.9493ZM96.9973 31.9478C96.9973 32.8567 97.6824 33.5383 98.5959 33.5383C99.5094 33.5383 100.195 32.8567 100.195 31.9478C100.195 31.039 99.5094 30.3574 98.5959 30.3574C97.6824 30.3574 96.9973 31.039 96.9973 31.9478Z" fill="#D70F64"/>
</g>
</svg>
