<svg width="24" height="24" viewBox="0 0 24 24" fill="none" xmlns="http://www.w3.org/2000/svg">
<path fill-rule="evenodd" clip-rule="evenodd" d="M24 23.9998H0V-0.000242233H24V23.9998Z" fill="#D70F64"/>
<path fill-rule="evenodd" clip-rule="evenodd" d="M8.25613 4.64012C8.11523 4.49525 7.84701 4.29952 7.66012 4.20523C7.1919 3.96903 6.49844 3.93752 5.96081 4.12796C5.16839 4.40869 4.61289 5.21009 4.61367 6.07137C4.61419 6.67176 4.74622 7.00991 5.22097 7.62706C5.25208 7.66753 5.1515 7.90786 4.97864 8.20625C4.64753 8.7777 4.34845 9.54791 4.13899 10.3686C4.02001 10.8351 3.99894 11.0997 4.00057 12.1108C4.0024 13.2333 4.01421 13.3465 4.2022 14.0443C4.97205 16.9016 7.11799 19.0286 9.99673 19.7875C10.722 19.9788 10.8565 19.9938 11.8865 19.9995C12.7211 20.0041 13.1275 19.9775 13.5297 19.8916C15.2542 19.5238 16.5931 18.7882 17.7908 17.5506C18.439 16.8807 18.8738 16.2514 19.2778 15.398C20.3746 13.0811 20.2136 10.2324 18.8586 7.98023L18.6804 7.68416L18.8895 7.42714C19.6438 6.49975 19.45 5.04008 18.4853 4.3844C17.6187 3.79528 16.4647 3.89196 15.733 4.61499L15.445 4.89946L14.8399 4.67705C13.7811 4.28798 13.3355 4.21606 11.9843 4.21606C10.6316 4.21606 10.1878 4.28785 9.12311 4.67918L8.51235 4.90358L8.25613 4.64012ZM5.57249 5.22975C5.75566 4.98608 5.95044 4.84919 6.29355 4.723C6.58617 4.61538 7.06483 4.64985 7.36574 4.80015C7.5913 4.91286 7.87479 5.14352 7.87479 5.21441C7.87479 5.23716 7.64727 5.41175 7.36926 5.60239C7.09125 5.79308 6.60483 6.20626 6.28839 6.52063C5.64744 7.15743 5.61613 7.1624 5.38711 6.66506C5.17798 6.21083 5.24915 5.66 5.57249 5.22975ZM16.0938 5.22215C16.0938 5.09699 16.5239 4.80459 16.8728 4.69245C17.1211 4.61267 17.6159 4.67492 17.9095 4.8229C18.6876 5.21506 18.9536 6.31685 18.4186 6.93135L18.2707 7.10124L17.6524 6.49646C17.3122 6.16385 16.8224 5.7521 16.5639 5.5815C16.3053 5.41085 16.0938 5.24915 16.0938 5.22215ZM6.8103 9.14035C7.22497 8.70984 7.66449 8.46043 8.21732 8.34172C8.73153 8.23138 8.95814 8.22616 9.37705 8.31491C9.97619 8.44187 10.4334 8.97543 10.4419 9.55771C10.4476 9.94748 10.3899 10.0528 9.73386 10.8504C9.14 11.5723 8.81489 12.1061 8.6526 12.6255C8.42847 13.3428 8.18255 13.5931 7.7022 13.5931C7.03509 13.5931 6.26217 12.81 6.01912 11.8879C5.75448 10.8838 6.02036 9.9605 6.8103 9.14035ZM13.4849 9.61146C13.4843 8.97414 13.8944 8.47428 14.5609 8.30021C14.8756 8.21804 15.6286 8.29132 16.0771 8.44773C16.8622 8.72157 17.5752 9.45962 17.8595 10.2929C18.0694 10.9076 18.0245 11.7358 17.7505 12.3072C17.3711 13.0982 16.7785 13.5931 16.2106 13.5931C15.7645 13.5931 15.5161 13.3438 15.2798 12.6587C15.0617 12.0263 14.7798 11.5568 14.1907 10.8448C13.5839 10.1113 13.4851 9.93885 13.4849 9.61146ZM9.36968 10.2729C9.51592 10.1315 9.48494 9.78894 9.31351 9.6518C9.11293 9.49139 8.90517 9.50222 8.73414 9.68209C8.53793 9.88851 8.55175 10.1365 8.76891 10.3053C8.95833 10.4525 9.19727 10.4397 9.36968 10.2729ZM14.7977 10.3229C15.2154 10.6296 15.6822 10.0286 15.311 9.66185C15.1363 9.4892 14.9093 9.49919 14.7304 9.68737C14.5407 9.88684 14.569 10.155 14.7977 10.3229ZM10.7703 12.992C10.4441 12.6108 10.6418 12.3986 11.4032 12.3126C12.1956 12.223 13.1742 12.348 13.2826 12.5526C13.3134 12.611 13.3159 12.7183 13.288 12.7911C13.1489 13.1545 12.2253 13.644 11.8272 13.5653C11.5203 13.5047 10.9391 13.1894 10.7703 12.992ZM10.5964 15.2679C10.2879 14.9997 10.0274 14.5425 10.0274 14.2696V14.1068L11.968 14.1239L13.9086 14.1409L13.8872 14.3343C13.8754 14.4406 13.7843 14.6726 13.6848 14.8499C13.1009 15.8897 11.5523 16.0993 10.5964 15.2679Z" fill="white"/>
</svg>
