<svg width="167" height="32" viewBox="0 0 167 32" fill="none" xmlns="http://www.w3.org/2000/svg">
<mask id="mask0" mask-type="alpha" maskUnits="userSpaceOnUse" x="0" y="0" width="167" height="32">
<rect width="167" height="32" fill="white"/>
</mask>
<g mask="url(#mask0)">
<path fill-rule="evenodd" clip-rule="evenodd" d="M25.7001 4.31703C25.7001 5.35953 25.3187 6.30725 24.5557 6.87588C25.9863 8.8661 26.7492 11.3302 26.7492 13.9838C26.7492 21.0917 20.9318 26.7781 13.8746 26.7781C6.72204 26.7781 1 20.997 1 13.9838C1 11.3302 1.76294 8.96087 3.19345 6.87588C2.52588 6.21248 2.04903 5.35953 2.04903 4.31703C2.04903 2.51636 3.57492 1 5.48226 1C6.72204 1 7.77108 1.56863 8.34329 2.51636C9.96453 1.75818 11.8719 1.28432 13.8746 1.28432C15.7819 1.28432 17.6893 1.66341 19.4059 2.51636C19.9781 1.56863 21.0272 1 22.2669 1C24.1743 1 25.7001 2.42158 25.7001 4.31703ZM2.14441 13.9838C2.14441 20.4283 7.48497 25.7356 13.97 25.7356C20.4549 25.7356 25.7955 20.4283 25.7955 13.9838C25.7955 11.5197 25.0326 9.24519 23.7928 7.34974C22.553 5.64384 21.0272 4.31703 19.1198 3.36931C17.5939 2.61113 15.7819 2.23204 13.97 2.23204C12.158 2.23204 10.346 2.61113 8.82012 3.36931C6.91278 4.22226 5.29154 5.64384 4.14713 7.34974C2.90735 9.24519 2.14441 11.5197 2.14441 13.9838ZM17.1169 17.206C17.1169 18.7224 15.6864 19.9544 13.9698 19.9544C12.1578 19.9544 10.8227 18.7224 10.8227 17.206H17.1169ZM13.9696 16.4479C14.1603 16.5426 16.163 15.7845 16.163 14.8367C16.163 14.2681 14.5418 14.1733 13.9696 14.1733C13.3974 14.1733 11.7761 14.2681 11.7761 14.8367C11.6808 15.7845 13.7788 16.5426 13.9696 16.4479ZM16.8301 8.58178C17.7838 7.34974 20.2633 7.72883 21.4077 8.48701C22.5521 9.15041 23.8873 10.7615 23.6965 12.9413C23.4104 15.1211 21.6938 16.4479 20.8355 16.4479C19.9772 16.4479 19.5004 16.0688 19.2143 14.9315C18.9282 13.889 18.0699 12.5622 16.8301 11.2354C15.5903 9.90859 16.8301 8.58178 16.8301 8.58178ZM18.1652 10.572C18.1652 10.9511 18.4513 11.2354 18.8328 11.2354C19.2143 11.2354 19.5004 10.9511 19.5004 10.572C19.5004 10.1929 19.2143 9.90859 18.8328 9.90859C18.4513 9.90859 18.1652 10.1929 18.1652 10.572ZM11.0133 8.58178C10.0597 7.34974 7.5801 7.72883 6.43569 8.48701C5.29128 9.24519 3.95614 10.7615 4.14688 12.9413C4.33761 15.1211 6.05422 16.4479 7.0079 16.4479C7.8662 16.4479 8.34304 15.974 8.62914 14.9315C8.91524 13.7943 9.86892 12.5622 11.0133 11.2354C12.2531 9.81382 11.0133 8.58178 11.0133 8.58178ZM9.20134 11.2354C8.81987 11.2354 8.53377 10.9511 8.53377 10.572C8.53377 10.1929 8.81987 9.90859 9.20134 9.90859C9.5828 9.90859 9.86892 10.1929 9.86892 10.572C9.86892 10.9511 9.5828 11.2354 9.20134 11.2354ZM36.841 10.3472H34.4667V13.1072H36.936V24.5282H39.975V13.1072H43.0141V10.3472H39.975V7.77749C39.975 6.82575 40.3549 6.2547 41.3046 6.2547L42.9191 6.54023V3.78017L41.3996 3.49465C38.3605 3.49465 36.841 5.30296 36.841 8.06301V10.3472ZM58.1144 17.4853C58.1144 13.1073 54.6004 10.0617 50.7066 10.0617C46.8128 10.0617 43.2989 13.0121 43.2989 17.4853C43.2989 21.8633 46.7179 24.9089 50.7066 24.9089C54.6954 24.9089 58.1144 21.8633 58.1144 17.4853ZM55.0753 17.4853C55.0753 20.055 53.5558 22.1488 50.7066 22.1488C47.8575 22.1488 46.338 19.9598 46.338 17.4853C46.338 14.9156 47.8575 12.8217 50.7066 12.8217C53.5558 12.8217 55.0753 14.9156 55.0753 17.4853ZM66.7551 10.0617C70.6489 10.0617 74.1629 13.1073 74.1629 17.4853C74.1629 21.8633 70.7439 24.9089 66.7551 24.9089C62.7664 24.9089 59.3474 21.8633 59.3474 17.4853C59.4424 13.0121 62.8613 10.0617 66.7551 10.0617ZM66.7551 22.1488C69.6043 22.1488 71.1238 20.055 71.1238 17.4853C71.1238 14.9156 69.6043 12.8217 66.7551 12.8217C63.906 12.8217 62.3865 14.9156 62.3865 17.4853C62.3865 19.9598 63.906 22.1488 66.7551 22.1488ZM87.1752 24.5282H89.9294V3.58984H86.8903V11.4893L86.7004 11.6797L86.5104 11.4893C85.6557 10.5376 84.1361 9.96651 82.6166 9.96651C78.7228 9.96651 75.3988 13.0121 75.3988 17.3901C75.3988 21.7681 78.7228 24.8137 82.6166 24.8137C84.1361 24.8137 85.5607 24.2426 86.5104 23.2909L86.7004 23.1006L86.8903 23.2909L87.1752 24.5282ZM78.4379 17.3901C78.4379 14.8204 79.9574 12.7266 82.8065 12.7266C85.3708 12.7266 87.1752 14.9156 87.1752 17.3901C87.1752 19.9598 85.3708 22.0536 82.8065 22.0536C79.9574 22.0536 78.4379 19.9598 78.4379 17.3901ZM93.0636 10.3472H95.7227L96.0076 11.5845L96.1976 11.7748L96.3875 11.5845C97.3373 10.6327 98.7618 10.0617 100.281 10.0617C104.175 10.0617 107.499 13.1073 107.499 17.4853C107.499 21.8633 104.175 24.9089 100.281 24.9089C98.7618 24.9089 97.2423 24.3378 96.3875 23.3861L96.1976 23.1957L96.0076 23.3861V31H93.0636V10.3472ZM99.9964 22.1488C102.846 22.1488 104.365 20.055 104.365 17.4853C104.365 14.9156 102.846 12.8217 99.9964 12.8217C97.4322 12.8217 95.6278 14.9156 95.6278 17.4853C95.6278 19.9598 97.4322 22.1488 99.9964 22.1488ZM117.471 15.6769H115.002C111.298 15.6769 108.829 17.4852 108.924 20.2453C108.924 23.1005 110.728 24.6233 113.293 24.6233C115.287 24.6233 116.807 23.9571 117.756 22.5295L118.041 24.433H120.51V15.5818C120.51 11.87 118.611 9.96648 114.812 9.96648C112.058 9.96648 109.969 11.4893 109.399 13.8686L112.058 14.4397C112.533 13.2024 113.388 12.5362 114.717 12.5362C116.332 12.5362 117.471 13.2976 117.471 15.0107V15.6769ZM116.237 21.197C115.572 21.8633 114.622 22.1488 113.672 22.1488C112.533 22.1488 111.868 21.3874 111.868 20.4356C111.868 19.1032 113.008 18.2466 114.812 18.2466H117.376V18.5322C117.376 19.6742 116.996 20.5308 116.237 21.197ZM123.169 10.3472H125.923L126.208 11.5845L126.398 11.7748L126.588 11.5845C127.158 10.6327 128.677 10.0617 129.912 10.0617C133.521 10.0617 135.61 12.441 135.61 15.7721V24.5282H132.571V15.7721C132.476 13.8687 131.526 12.7266 129.532 12.7266C127.728 12.7266 126.303 14.1542 126.208 15.9625V24.5282H123.169V10.3472ZM149.096 24.5282H151.85V3.58984H148.811V11.4893L148.621 11.6797L148.431 11.4893C147.577 10.5376 146.057 9.96651 144.538 9.96651C140.644 9.96651 137.32 13.0121 137.32 17.3901C137.32 21.7681 140.644 24.8137 144.538 24.8137C146.057 24.8137 147.482 24.2426 148.431 23.2909L148.621 23.1006L148.811 23.2909L149.096 24.5282ZM140.454 17.3901C140.454 14.8204 141.973 12.7266 144.822 12.7266C147.387 12.7266 149.191 14.9156 149.191 17.3901C149.191 19.9598 147.387 22.0536 144.822 22.0536C141.973 22.0536 140.454 19.9598 140.454 17.3901ZM160.491 15.6769H162.961V15.0107C162.961 13.2976 161.821 12.5362 160.206 12.5362C158.877 12.5362 158.022 13.2024 157.547 14.4397L154.888 13.8686C155.458 11.4893 157.547 9.96648 160.301 9.96648C164.1 9.96648 166 11.87 166 15.5818V24.433H163.53L163.245 22.5295C162.296 23.9571 160.776 24.6233 158.782 24.6233C156.218 24.6233 154.413 23.1005 154.413 20.2453C154.318 17.4852 156.692 15.6769 160.491 15.6769ZM159.162 22.1488C160.111 22.1488 161.061 21.8633 161.726 21.197C162.486 20.5308 162.866 19.6742 162.866 18.5322V18.2466H160.301C158.497 18.2466 157.357 19.1032 157.357 20.4356C157.357 21.3874 158.022 22.1488 159.162 22.1488Z" fill="#D70F64"/>
</g>
</svg>
