<svg width="64" height="64" viewBox="0 0 64 64" fill="none" xmlns="http://www.w3.org/2000/svg">
<path d="M32 61C48.0163 61 61 48.0163 61 32C61 15.9837 48.0163 3 32 3C15.9837 3 3 15.9837 3 32C3 48.0163 15.9837 61 32 61Z" stroke="#FF6652" stroke-width="4" stroke-miterlimit="10"/>
<path d="M24 28.85V25.34C24.0132 23.3905 24.7962 21.5251 26.1785 20.1503C27.5608 18.7755 29.4304 18.0026 31.38 18H32.62C34.5696 18.0026 36.4392 18.7755 37.8215 20.1503C39.2038 21.5251 39.9868 23.3905 40 25.34V28.85" stroke="#FF6652" stroke-width="3" stroke-miterlimit="10"/>
<path d="M42 28H22C21.4696 28 20.9609 28.2107 20.5858 28.5858C20.2107 28.9609 20 29.4696 20 30V44C20 44.5304 20.2107 45.0391 20.5858 45.4142C20.9609 45.7893 21.4696 46 22 46H42C42.5304 46 43.0391 45.7893 43.4142 45.4142C43.7893 45.0391 44 44.5304 44 44V30C44 29.4696 43.7893 28.9609 43.4142 28.5858C43.0391 28.2107 42.5304 28 42 28ZM33.53 37.09C33.5777 37.2355 33.6046 37.387 33.61 37.54V39.77C33.61 40.197 33.4404 40.6065 33.1384 40.9084C32.8365 41.2104 32.427 41.38 32 41.38C31.573 41.38 31.1635 41.2104 30.8616 40.9084C30.5596 40.6065 30.39 40.197 30.39 39.77V37.56C30.3954 37.407 30.4223 37.2555 30.47 37.11C29.9617 36.78 29.5737 36.2946 29.3638 35.726C29.154 35.1575 29.1336 34.5363 29.3056 33.9552C29.4777 33.3741 29.833 32.8642 30.3186 32.5016C30.8042 32.139 31.394 31.9431 32 31.9431C32.606 31.9431 33.1958 32.139 33.6814 32.5016C34.167 32.8642 34.5223 33.3741 34.6944 33.9552C34.8664 34.5363 34.846 35.1575 34.6362 35.726C34.4263 36.2946 34.0383 36.78 33.53 37.11V37.09Z" fill="#FF6652"/>
</svg>
