<svg width="141" height="45" viewBox="0 0 141 45" fill="currentColor" xmlns="http://www.w3.org/2000/svg">
<path d="M135.417 45H5.20834C2.34379 45 0 42.4688 0 39.375V5.62503C0 2.53125 2.34374 0 5.20834 0H135.417C138.281 0 140.625 2.53125 140.625 5.62503V39.375C140.625 42.4688 138.281 45 135.417 45" fill="black"/>
<path d="M135.417 0H5.20834C2.34379 0 0 2.53125 0 5.62503V39.375C0 42.4688 2.34374 45 5.20834 45H135.417C138.281 45 140.625 42.4688 140.625 39.375V5.62503C140.625 2.53125 138.281 0 135.417 0H135.417ZM135.417 0.899972C137.829 0.899972 139.792 3.01996 139.792 5.62503V39.375C139.792 41.9805 137.829 44.1005 135.417 44.1005H5.20834C2.79628 44.1005 0.833342 41.9805 0.833342 39.375V5.62503C0.833342 3.01996 2.79623 0.900022 5.20834 0.900022H135.417" fill="#A6A6A6"/>
<path d="M49.3944 12.2101C49.3944 13.0938 49.136 13.7974 48.6184 14.3223C48.0304 14.9465 47.2642 15.2588 46.3222 15.2588C45.4201 15.2588 44.6531 14.9424 44.0224 14.3087C43.3905 13.6755 43.0752 12.8903 43.0752 11.9534C43.0752 11.0161 43.3905 10.2314 44.0224 9.59763C44.6531 8.96445 45.4201 8.64758 46.3222 8.64758C46.7698 8.64758 47.1983 8.73622 47.6052 8.91298C48.0121 9.09016 48.3384 9.32536 48.5826 9.6199L48.0332 10.1765C47.6195 9.67593 47.0498 9.42585 46.3222 9.42585C45.6643 9.42585 45.0954 9.65991 44.6153 10.1283C44.1351 10.5972 43.8951 11.2052 43.8951 11.9534C43.8951 12.7016 44.1351 13.3096 44.6153 13.7786C45.0954 14.247 45.6643 14.481 46.3222 14.481C47.0201 14.481 47.602 14.2457 48.0678 13.7744C48.3702 13.4674 48.5451 13.0407 48.5919 12.4927H46.3221V11.7326H49.3508C49.3801 11.8979 49.3943 12.0565 49.3943 12.2101" fill="white"/>
<path d="M49.394 12.2099H49.2898C49.289 13.0734 49.0399 13.744 48.5443 14.2475L48.5432 14.2484L48.5427 14.2492C47.9735 14.8519 47.2417 15.1518 46.3217 15.1531C45.4438 15.1518 44.7088 14.8486 44.0952 14.2339C43.4829 13.618 43.1801 12.8661 43.1789 11.9532C43.1801 11.0398 43.4829 10.2883 44.0952 9.67284C44.7088 9.05773 45.4438 8.75408 46.3217 8.7528C46.756 8.7528 47.1694 8.8386 47.5636 9.00952C47.9583 9.18177 48.2701 9.40749 48.5024 9.68772L48.5822 9.61966L48.5085 9.5451L47.9592 10.102L48.0328 10.1762L48.113 10.1087C47.68 9.5834 47.0722 9.31857 46.3218 9.32014C45.6395 9.31928 45.0393 9.56614 44.5428 10.0523C44.0415 10.5401 43.7897 11.1823 43.7905 11.9532C43.7897 12.724 44.0415 13.3663 44.5428 13.8541C45.0393 14.3402 45.6395 14.5871 46.3217 14.5862C47.0428 14.5875 47.6573 14.3398 48.1411 13.8488C48.4641 13.5207 48.6473 13.0664 48.6953 12.5015L48.705 12.387H46.4259V11.8378H49.3504V11.7323L49.2478 11.7509C49.2763 11.9108 49.2898 12.0628 49.2898 12.2099H49.4981C49.4981 12.0496 49.4835 11.8848 49.4529 11.7135L49.4375 11.6269H46.2177V12.5979H48.5915V12.4924L48.4878 12.4834C48.4418 13.0141 48.2749 13.4137 47.9938 13.6997C47.5462 14.1512 46.9969 14.374 46.3218 14.3753C45.6883 14.3744 45.1508 14.1536 44.6873 13.7025C44.2284 13.253 44 12.6791 43.9989 11.9532C44 11.2272 44.2284 10.6534 44.6873 10.2039C45.1508 9.75276 45.6883 9.53192 46.3218 9.53107C47.0262 9.53277 47.5581 9.7684 47.9532 10.2442L48.0264 10.3324L48.6559 9.69427L48.7234 9.62591L48.6619 9.55206C48.406 9.24316 48.065 8.99796 47.6459 8.81594C47.226 8.63335 46.7829 8.54187 46.3218 8.54187C45.3957 8.54107 44.5966 8.87064 43.9484 9.52287C43.2978 10.1738 42.9698 10.992 42.9707 11.9532C42.9698 12.9139 43.2978 13.7326 43.9488 14.3839C44.5966 15.0357 45.3957 15.3649 46.3218 15.364C47.2862 15.3649 48.0862 15.0406 48.6933 14.395L48.6179 14.3221L48.6916 14.3967C49.2312 13.8508 49.4989 13.1133 49.4982 12.2099H49.394H49.394ZM54.1954 9.56652H51.3491V11.573H53.9159V12.3334H51.3491V14.3398H54.1954V15.1172H50.5467V8.78911H54.1954V9.56652" fill="white"/>
<path d="M54.1957 9.56623V9.46076H51.2453V11.6781H53.812V12.2273L51.2452 12.2276V14.445H54.0915V15.0115H50.6512V8.89428H54.0915V9.56623H54.1957V9.46076V9.56623H54.2998V8.68335H50.4429V15.2224H54.2998V14.2341H51.4536V12.4385H54.0204V11.4672H51.4536V9.67169H54.2998V9.56623H54.1957V9.56623ZM57.5823 15.117H56.7787V9.56618H55.0331V8.78877H59.328V9.56618H57.5823V15.1169" fill="white"/>
<path d="M57.5821 15.117V15.0115H56.8826V9.46076H55.137V8.89433H59.2236V9.46076H57.478V15.1169H57.5821V15.0115V15.1169H57.6863V9.67169H59.4319V8.68335H54.9287V9.67164H56.6743V15.2223H57.6863V15.1169H57.5821V15.117ZM62.4353 15.117V8.78877H63.2381V15.1169H62.4353" fill="white"/>
<path d="M62.4352 15.117H62.5394V8.89428H63.1338V15.0115H62.4352V15.1169H62.5394H62.4352V15.2224H63.3422V8.68335H62.3311V15.2224H62.4352V15.1169V15.117ZM66.8004 15.117H65.9968V9.56618H64.2512V8.78877H68.546V9.56618H66.8004V15.1169" fill="white"/>
<path d="M66.8003 15.1175V15.012H66.1008V9.4613H64.3553V8.89487H68.4417V9.4613H66.6961V15.1175H66.8003V15.012V15.1175H66.9045V9.67223H68.6501V8.68389H64.147V9.67219H65.8925V15.2229H66.9045V15.1174H66.8003V15.1175ZM72.6866 13.7699C73.1491 14.2441 73.7152 14.4809 74.3846 14.4809C75.0539 14.4809 75.6203 14.2441 76.0822 13.7699C76.5452 13.2957 76.7772 12.6896 76.7772 11.9534C76.7772 11.2173 76.5452 10.6111 76.0822 10.1369C75.6203 9.66275 75.0539 9.42585 74.3846 9.42585C73.7152 9.42585 73.1491 9.66275 72.6866 10.1369C72.2247 10.6111 71.9928 11.2172 71.9928 11.9534C71.9928 12.6896 72.2247 13.2957 72.6866 13.7699ZM76.6762 14.2997C76.0618 14.9394 75.2976 15.2588 74.3846 15.2588C73.4706 15.2588 72.7068 14.9394 72.0937 14.2997C71.4789 13.6606 71.1729 12.8784 71.1729 11.9534C71.1729 11.0284 71.4789 10.2461 72.0937 9.60715C72.7069 8.96725 73.4706 8.64758 74.3846 8.64758C75.2928 8.64758 76.0549 8.96896 76.6722 9.61128C77.2886 10.2535 77.5971 11.0342 77.5971 11.9534C77.5971 12.8784 77.2894 13.6606 76.6762 14.2997Z" fill="white"/>
<path d="M72.6867 13.7697L72.6126 13.8438C73.0924 14.337 73.6909 14.5875 74.3847 14.5862C75.078 14.5875 75.6774 14.337 76.1563 13.8438C76.6393 13.3502 76.8822 12.7116 76.8814 11.9532C76.8821 11.1948 76.6393 10.5561 76.1563 10.0625C75.6774 9.56937 75.078 9.3189 74.3847 9.32014C73.6909 9.3189 73.0924 9.56937 72.6126 10.0625C72.1308 10.5561 71.8875 11.1948 71.8887 11.9532C71.8875 12.7116 72.1308 13.3502 72.6126 13.8438L72.6867 13.7697L72.7608 13.6955C72.3189 13.2402 72.0979 12.6675 72.0971 11.9532C72.0979 11.2388 72.3189 10.6662 72.7607 10.2108C73.2066 9.75565 73.7393 9.53235 74.3847 9.53111C75.0296 9.53235 75.5634 9.75565 76.0082 10.2108C76.4509 10.6662 76.6719 11.2388 76.6727 11.9532C76.6719 12.6675 76.4509 13.2402 76.0082 13.6955C75.5634 14.1507 75.0296 14.374 74.3847 14.3752C73.7393 14.374 73.2066 14.1507 72.7607 13.6955L72.6867 13.7697ZM76.6763 14.2994L76.6019 14.2262C76.0046 14.8458 75.2741 15.1519 74.3847 15.1531C73.4948 15.1518 72.7644 14.8458 72.1682 14.2262L72.1654 14.2228L72.1682 14.2262C71.5722 13.6044 71.278 12.8546 71.2772 11.9532C71.278 11.0517 71.5722 10.3019 72.1682 9.68024C72.7644 9.06057 73.4947 8.75408 74.3847 8.75285C75.2684 8.75408 75.9972 9.06185 76.5978 9.68474C77.1959 10.3093 77.4918 11.0579 77.493 11.9532C77.4918 12.8546 77.1968 13.6044 76.6019 14.2262L76.6763 14.2994L76.7513 14.3727C77.3827 13.7161 77.7021 12.9016 77.7014 11.9532C77.7021 11.0102 77.3815 10.1973 76.7471 9.53775C76.1124 8.87557 75.3173 8.54074 74.3847 8.54187C73.4472 8.54074 72.6497 8.87401 72.0189 9.53363V9.53315C71.3863 10.1903 71.068 11.0048 71.0688 11.9532C71.068 12.9016 71.3863 13.7161 72.0189 14.3731L72.0218 14.3761L72.0189 14.3727C72.6497 15.0323 73.4472 15.3649 74.3847 15.364C75.3217 15.3649 76.1193 15.0323 76.7513 14.3727L76.6763 14.2994V14.2994ZM78.7242 15.1173V8.78906H79.7017L82.7391 13.7119H82.7738L82.7391 12.4924V8.78906H83.5428V15.1172H82.7045L79.5267 9.95577H79.4921L79.5267 11.1757V15.1172H78.7243" fill="white"/>
<path d="M78.7245 15.117H78.8287V8.89428H79.6441L82.6816 13.8171H82.8809L82.8435 12.4906V8.89433H83.4389V15.0115H82.7626L79.5847 9.85006H79.3853L79.4227 11.1772V15.0115H78.7245V15.1169H78.8287H78.7245V15.2224H79.631V11.1738L79.5965 9.95268L79.4923 9.95552V10.061H79.5269V9.95552L79.4386 10.0116L82.647 15.2224H83.6472V8.68335H82.6352V12.4934L82.6698 13.7145L82.774 13.7117V13.6062H82.7394V13.7117L82.8277 13.6557L79.7596 8.68335H78.6204V15.2224H78.7245V15.1169L78.7245 15.117ZM111.392 33.0466H113.336V19.8618H111.392L111.392 33.0466ZM128.899 24.6113L126.671 30.3276H126.604L124.292 24.6112H122.198L125.666 32.6008L123.689 37.045H125.717L131.061 24.6112L128.899 24.6113ZM117.876 31.5491C117.239 31.5491 116.351 31.2269 116.351 30.4293C116.351 29.4116 117.457 29.0215 118.412 29.0215C119.267 29.0215 119.668 29.2081 120.188 29.4628C120.037 30.6839 118.998 31.5491 117.876 31.5491V31.5491ZM118.111 24.3228C116.703 24.3228 115.246 24.9506 114.643 26.3416L116.368 27.0708C116.737 26.3416 117.423 26.1038 118.144 26.1038C119.149 26.1038 120.171 26.7148 120.188 27.8004V27.936C119.836 27.7324 119.082 27.4271 118.161 27.4271C116.301 27.4271 114.407 28.4616 114.407 30.3955C114.407 32.1597 115.932 33.2963 117.641 33.2963C118.948 33.2963 119.668 32.7026 120.121 32.0072H120.188V33.0248H122.064V27.9697C122.064 25.6293 120.339 24.3228 118.111 24.3228V24.3228ZM106.098 26.2163H103.333V21.6968H106.098C107.551 21.6968 108.376 22.915 108.376 23.9565C108.376 24.9783 107.551 26.2163 106.098 26.2163ZM106.048 19.8618H101.391V33.0466H103.333V28.0513H106.048C108.202 28.0513 110.32 26.4721 110.32 23.9565C110.32 21.441 108.202 19.8618 106.048 19.8618V19.8618ZM80.6511 31.5515C79.3083 31.5515 78.1841 30.4132 78.1841 28.8497C78.1841 27.2698 79.3083 26.1142 80.6511 26.1142C81.9769 26.1142 83.0173 27.2698 83.0173 28.8497C83.0173 30.4132 81.9769 31.5515 80.6512 31.5515H80.6511ZM82.883 25.3495H82.8159C82.3797 24.8229 81.5402 24.3472 80.4831 24.3472C78.2679 24.3472 76.2375 26.3181 76.2375 28.8497C76.2375 31.3645 78.2679 33.3186 80.4831 33.3186C81.5402 33.3186 82.3797 32.8427 82.8159 32.2993H82.883V32.9449C82.883 34.6613 81.9769 35.5787 80.5169 35.5787C79.3254 35.5787 78.587 34.7119 78.2846 33.9814L76.5899 34.695C77.0766 35.8844 78.3688 37.3458 80.5169 37.3458C82.7992 37.3458 84.7291 35.9861 84.7291 32.673V24.6191H82.883V25.3495ZM86.0715 33.0466H88.0182V19.8613H86.0715V33.0466ZM90.8879 28.6969C90.8375 26.9636 92.2137 26.0803 93.2037 26.0803C93.9761 26.0803 94.6303 26.4709 94.848 27.0321L90.8879 28.6969ZM96.9293 27.2018C96.5605 26.199 95.4355 24.3472 93.1365 24.3472C90.8542 24.3472 88.958 26.1652 88.958 28.8328C88.958 31.3477 90.8375 33.3186 93.3546 33.3186C95.3855 33.3186 96.5605 32.0611 97.047 31.3306L95.5366 30.311C95.0334 31.0588 94.3449 31.5515 93.3546 31.5515C92.3646 31.5515 91.6599 31.0926 91.2065 30.1923L97.1303 27.7114L96.9293 27.2018ZM49.7332 25.7235V27.6265H54.2306C54.0964 28.6969 53.7439 29.4784 53.2069 30.0222C52.5526 30.6851 51.5289 31.4156 49.7332 31.4156C46.9641 31.4156 44.7995 29.1558 44.7995 26.3522C44.7995 23.5487 46.9641 21.2886 49.7332 21.2886C51.2269 21.2886 52.3174 21.8834 53.123 22.648L54.4488 21.3058C53.3245 20.2181 51.8307 19.3856 49.7332 19.3856C45.9404 19.3856 42.752 22.5121 42.752 26.3522C42.752 30.1923 45.9404 33.3186 49.7332 33.3186C51.7807 33.3186 53.3245 32.6392 54.5326 31.3645C55.7745 30.1071 56.1606 28.3401 56.1606 26.913C56.1606 26.4709 56.1272 26.0634 56.0597 25.7235H49.7332ZM61.2737 31.5515C59.9309 31.5515 58.7729 30.43 58.7729 28.8328C58.7729 27.2186 59.9309 26.1142 61.2737 26.1142C62.616 26.1142 63.7741 27.2186 63.7741 28.8328C63.7741 30.4301 62.616 31.5515 61.2737 31.5515ZM61.2737 24.3472C58.8233 24.3472 56.8263 26.2331 56.8263 28.8328C56.8263 31.4156 58.8233 33.3186 61.2737 33.3186C63.7236 33.3186 65.7207 31.4156 65.7207 28.8328C65.7207 26.2331 63.7236 24.3472 61.2737 24.3472ZM70.975 31.5515C69.6327 31.5515 68.4746 30.43 68.4746 28.8328C68.4746 27.2186 69.6327 26.1142 70.975 26.1142C72.3174 26.1142 73.4754 27.2186 73.4754 28.8328C73.4754 30.4301 72.3174 31.5515 70.975 31.5515H70.975ZM70.975 24.3472C68.5247 24.3472 66.528 26.2331 66.528 28.8328C66.528 31.4156 68.5247 33.3186 70.975 33.3186C73.425 33.3186 75.4221 31.4156 75.4221 28.8328C75.4221 26.2331 73.425 24.3472 70.975 24.3472H70.975Z" fill="white"/>
<path d="M10.9464 9.43423C10.5968 9.75356 10.3882 10.2862 10.3882 10.9932V10.8334V34.1642V34.0106C10.3882 34.6635 10.5672 35.1677 10.8703 35.4925L10.9476 35.5675V35.5678C11.193 35.792 11.5076 35.911 11.8681 35.9106C12.2204 35.9106 12.6168 35.7969 13.0351 35.5568L28.1551 26.8584L33.3487 23.8703C34.0083 23.4909 34.3786 23.0014 34.4405 22.5029V22.5009C34.3786 22.0012 34.0083 21.5121 33.3487 21.1326L28.1547 18.1449L13.0351 9.44655C12.6159 9.206 12.2193 9.09186 11.866 9.09186C11.5059 9.09186 11.1917 9.2105 10.9465 9.43423H10.9464Z" fill="#00C1FF"/>
<path d="M10.9477 35.5669L10.8703 35.4919C10.5672 35.1672 10.3882 34.6629 10.3882 34.01V34.1637V10.8386V10.9926C10.3882 10.2856 10.5968 9.75298 10.9464 9.43365L23.8525 22.5007L10.9477 35.5669Z" fill="url(#paint0_linear)"/>
<path d="M28.1551 26.8582L23.8525 22.501L28.1548 18.1446L33.3488 21.1324C34.0084 21.5118 34.3787 22.0009 34.4406 22.5006V22.5026C34.3787 23.0012 34.0084 23.4907 33.3488 23.87L28.1552 26.8581" fill="url(#paint1_linear)"/>
<path d="M11.8681 35.9102C11.5076 35.9105 11.193 35.7914 10.9478 35.5673V35.567L23.8525 22.5008L28.1551 26.8579L13.0351 35.5563C12.6168 35.7964 12.2204 35.9102 11.8681 35.9102Z" fill="url(#paint2_linear)"/>
<path d="M23.8524 22.5007L10.9463 9.43362C11.1916 9.20989 11.5058 9.09125 11.8659 9.09125C12.2191 9.09125 12.6158 9.20534 13.0349 9.44595L28.1546 18.1443L23.8524 22.5007" fill="url(#paint3_linear)"/>
<path d="M11.8683 36.0647C11.5078 36.0647 11.1928 35.9456 10.9474 35.7215L10.947 35.7219C10.946 35.7209 10.9449 35.7199 10.9438 35.7191L10.8767 35.6527C10.8746 35.6506 10.8726 35.6482 10.8701 35.6458L10.9475 35.5674C11.1928 35.7915 11.5074 35.9106 11.868 35.9102C12.2202 35.9102 12.6166 35.7965 13.0349 35.5563L28.1549 26.858L28.2518 26.9561L28.1537 27.0125L13.0348 35.7104C12.6536 35.9292 12.291 36.0433 11.9635 36.0623C11.9318 36.0638 11.9 36.0646 11.8683 36.0646" fill="url(#paint4_linear)"/>
<path d="M10.8703 35.6458C10.5672 35.3211 10.3882 34.8173 10.3882 34.1639V34.0102C10.3882 34.6632 10.5672 35.1674 10.8703 35.4921L10.9477 35.5671L10.8703 35.6458" fill="url(#paint5_linear)"/>
<path d="M28.2521 26.9563L28.1553 26.8581L33.3489 23.87C34.0085 23.4907 34.3788 23.0012 34.4407 22.5026C34.4407 22.6856 34.4004 22.8685 34.3203 23.0465C34.1587 23.4054 33.8349 23.7444 33.3489 24.0241L28.2521 26.9563" fill="url(#paint6_linear)"/>
<path d="M34.4406 22.5007C34.3787 22.0009 34.0084 21.5119 33.3489 21.1324L28.1548 18.1447L28.2517 18.0466H28.2521L33.3489 20.9787C34.0761 21.3973 34.4402 21.9489 34.4406 22.5007" fill="url(#paint7_linear)"/>
<path d="M10.3882 10.9932V10.832C10.3882 10.7739 10.3897 10.7171 10.3927 10.6619V10.6594C10.3927 10.6586 10.3927 10.6578 10.393 10.657V10.6507C10.4243 10.0883 10.5969 9.64965 10.8703 9.35672L10.9465 9.43412C10.5969 9.75351 10.3882 10.2861 10.3882 10.9932Z" fill="url(#paint8_linear)"/>
<path d="M28.1545 18.1446L13.0349 9.44618C12.6157 9.20563 12.2191 9.09153 11.8658 9.09153C11.5057 9.09153 11.1916 9.21018 10.9463 9.43391L10.8701 9.35645C10.8939 9.33096 10.9186 9.30638 10.9442 9.28275C10.945 9.28189 10.9463 9.28104 10.9471 9.28023C11.1904 9.05821 11.5013 8.93957 11.8582 8.93744H11.8658C12.2191 8.93744 12.6157 9.05158 13.0349 9.29223L28.2518 18.0461L28.2513 18.0465L28.1545 18.1446" fill="url(#paint9_linear)"/>
<defs>
<linearGradient id="paint0_linear" x1="18.6359" y1="10.5921" x2="7.39342" y2="21.7316" gradientUnits="userSpaceOnUse">
<stop stop-color="#00A0FF"/>
<stop offset="0.00657" stop-color="#00A1FF"/>
<stop offset="0.2601" stop-color="#00BEFF"/>
<stop offset="0.5122" stop-color="#00D2FF"/>
<stop offset="0.7604" stop-color="#00DFFF"/>
<stop offset="1" stop-color="#00E3FF"/>
</linearGradient>
<linearGradient id="paint1_linear" x1="35.2442" y1="22.4257" x2="10.039" y2="22.4257" gradientUnits="userSpaceOnUse">
<stop stop-color="#FFE000"/>
<stop offset="0.4087" stop-color="#FFBD00"/>
<stop offset="0.7754" stop-color="#FFA500"/>
<stop offset="1" stop-color="#FF9C00"/>
</linearGradient>
<linearGradient id="paint2_linear" x1="25.8708" y1="26.6434" x2="6.82108" y2="45.3809" gradientUnits="userSpaceOnUse">
<stop stop-color="#FF3A44"/>
<stop offset="1" stop-color="#C31162"/>
</linearGradient>
<linearGradient id="paint3_linear" x1="7.62003" y1="7.49637" x2="16.1102" y2="15.8602" gradientUnits="userSpaceOnUse">
<stop stop-color="#32A071"/>
<stop offset="0.0685" stop-color="#2DA771"/>
<stop offset="0.4762" stop-color="#15CF74"/>
<stop offset="0.8009" stop-color="#06E775"/>
<stop offset="1" stop-color="#00F076"/>
</linearGradient>
<linearGradient id="paint4_linear" x1="25.8612" y1="29.6658" x2="10.604" y2="44.7835" gradientUnits="userSpaceOnUse">
<stop stop-color="#CC2E36"/>
<stop offset="1" stop-color="#9C0E4E"/>
</linearGradient>
<linearGradient id="paint5_linear" x1="12.1076" y1="10.5922" x2="2.20309" y2="20.407" gradientUnits="userSpaceOnUse">
<stop stop-color="#008DE0"/>
<stop offset="0.00657" stop-color="#008DE0"/>
<stop offset="0.2601" stop-color="#00A7E0"/>
<stop offset="0.5122" stop-color="#00B8E0"/>
<stop offset="0.7604" stop-color="#00C4E0"/>
<stop offset="1" stop-color="#00C7E0"/>
</linearGradient>
<linearGradient id="paint6_linear" x1="35.2444" y1="22.5017" x2="10.0391" y2="22.5017" gradientUnits="userSpaceOnUse">
<stop stop-color="#E0C500"/>
<stop offset="0.4087" stop-color="#E0A600"/>
<stop offset="0.7754" stop-color="#E09100"/>
<stop offset="1" stop-color="#E08900"/>
</linearGradient>
<linearGradient id="paint7_linear" x1="35.2443" y1="22.5017" x2="10.0391" y2="22.5017" gradientUnits="userSpaceOnUse">
<stop stop-color="#FFE840"/>
<stop offset="0.4087" stop-color="#FFCE40"/>
<stop offset="0.7754" stop-color="#FFBC40"/>
<stop offset="1" stop-color="#FFB540"/>
</linearGradient>
<linearGradient id="paint8_linear" x1="12.097" y1="10.6105" x2="2.56171" y2="19.6499" gradientUnits="userSpaceOnUse">
<stop stop-color="#40B8FF"/>
<stop offset="0.00657" stop-color="#40B9FF"/>
<stop offset="0.2601" stop-color="#40CEFF"/>
<stop offset="0.5122" stop-color="#40DDFF"/>
<stop offset="0.7604" stop-color="#40E7FF"/>
<stop offset="1" stop-color="#40EAFF"/>
</linearGradient>
<linearGradient id="paint9_linear" x1="7.60115" y1="10.2601" x2="14.4142" y2="17.0108" gradientUnits="userSpaceOnUse">
<stop stop-color="#65B895"/>
<stop offset="0.0685" stop-color="#62BD95"/>
<stop offset="0.4762" stop-color="#50DB97"/>
<stop offset="0.8009" stop-color="#44ED98"/>
<stop offset="1" stop-color="#40F498"/>
</linearGradient>
</defs>
</svg>
