<svg width="24" height="24" viewBox="0 0 24 24" fill="none" xmlns="http://www.w3.org/2000/svg">
<path fill-rule="evenodd" clip-rule="evenodd" d="M24 24H0V1.90735e-06H24V24Z" fill="#F12117"/>
<path fill-rule="evenodd" clip-rule="evenodd" d="M4.44918 10.6499L4.43538 13.9125L4.30984 14.1825C4.06067 14.7184 3.50836 14.9833 2.52528 15.0387L2 15.0683V15.7665V16.4648L2.21489 16.4808C2.53001 16.5042 3.39466 16.4044 3.82363 16.295C4.70127 16.0714 5.3327 15.5937 5.66812 14.8997L5.70306 14.8277C5.91218 14.3978 5.97713 14.2642 6.00235 13.1859C6.01371 12.7 6.01701 12.0225 6.02179 11.0396L6.02359 10.674L6.03997 7.38729H5.25152H4.46303L4.44918 10.6499ZM7.22891 11.9436V16.5L8.67343 16.4765C10.1787 16.4521 10.5901 16.4078 11.3118 16.1927C12.886 15.7232 13.8481 14.6212 14.1348 12.9588C14.2499 12.2918 14.2052 11.0857 14.0424 10.4592C13.8522 9.72808 13.547 9.17929 13.0568 8.68751C12.5727 8.20181 12.1479 7.94513 11.4311 7.70536C10.6573 7.44647 10.1251 7.38729 8.57181 7.38729H7.22891V11.9436ZM10.0291 8.82224C11.4926 9.0073 12.2654 9.62693 12.5812 10.8685C12.7056 11.3576 12.7182 12.3319 12.607 12.8653C12.3028 14.3242 11.2459 15.0315 9.36758 15.0334L8.71098 15.034V11.9038V8.77365H9.17781C9.43458 8.77365 9.81765 8.79551 10.0291 8.82224ZM16.0768 13.9188V16.4291H16.4983H16.9197V13.9188V11.4085H16.4983H16.0768V13.9188ZM17.6573 13.9219V16.4353L18.4541 16.4223C19.4709 16.4058 19.8188 16.347 20.3046 16.1093C20.8395 15.8477 21.1765 15.4565 21.368 14.8751C21.481 14.532 21.5122 14.2636 21.4962 13.7768C21.4713 13.0268 21.2887 12.5438 20.872 12.1257C20.605 11.8578 20.3707 11.7162 19.9753 11.584C19.5485 11.4411 19.2549 11.4085 18.3981 11.4085H17.6573V13.9219ZM14.7009 15.2716C14.7405 15.2628 14.7848 15.2517 14.7993 15.2469C14.8555 15.228 15.015 15.2691 15.1194 15.3293C15.2364 15.3967 15.3656 15.6091 15.3656 15.7339C15.3656 16.0657 15.0429 16.3272 14.7362 16.2439C14.6138 16.2107 14.4601 16.0867 14.4028 15.9749C14.3548 15.8813 14.3535 15.6574 14.4002 15.5446C14.4441 15.4385 14.6044 15.2931 14.7009 15.2716ZM20.6096 13.3289C20.4354 12.644 20.0091 12.3022 19.2017 12.2002C19.0851 12.1854 18.8738 12.1733 18.7322 12.1733H18.4746V13.9V15.6267L18.8368 15.6263C19.8729 15.6253 20.456 15.2351 20.6238 14.4304C20.6851 14.1362 20.6782 13.5987 20.6096 13.3289Z" fill="white"/>
</svg>
