<svg width="63" height="35" viewBox="0 0 63 35" fill="none" xmlns="http://www.w3.org/2000/svg">
<g id="Group 23">
<g id="Group 3">
<mask id="mask0" mask-type="alpha" maskUnits="userSpaceOnUse" x="0" y="0" width="63" height="35">
<path id="Clip 2" fill-rule="evenodd" clip-rule="evenodd" d="M0 0.0803833H62.2332V34.491H0V0.0803833Z" fill="white"/>
</mask>
<g mask="url(#mask0)">
<path id="Fill 1" fill-rule="evenodd" clip-rule="evenodd" d="M52.4588 14.495C51.1689 14.4331 50.3985 13.7028 50.2473 13.0524C50.0873 12.3643 50.4692 11.9115 50.7494 11.7385C51.3976 11.3377 52.0177 11.6286 52.2917 11.9954C52.7366 12.5911 52.7763 13.6479 52.4588 14.495ZM50.178 17.6655C49.3058 18.3393 48.3456 18.7511 47.4793 18.7484C47.3041 18.748 46.6697 18.7484 46.3086 18.2574C45.9281 17.7395 45.8415 16.968 46.0709 16.0422C46.1747 15.623 46.39 15.0439 46.65 14.5964C47.0358 13.9323 47.4655 13.486 47.4655 13.486C47.4655 13.486 47.4795 13.7291 47.5796 14.1316C47.8044 15.036 48.4489 16.5527 50.7626 17.1526C50.5868 17.3246 50.3746 17.5137 50.178 17.6655ZM38.9474 14.495C37.6575 14.4331 36.8871 13.7028 36.7359 13.0524C36.5759 12.3643 36.9578 11.9115 37.2381 11.7385C37.8863 11.3377 38.5064 11.6286 38.7803 11.9954C39.2251 12.5911 39.2649 13.6479 38.9474 14.495ZM36.6269 17.6679C35.7552 18.3417 34.7957 18.7534 33.9299 18.7509C33.7548 18.7503 33.1207 18.7509 32.7599 18.2597C32.3795 17.7419 32.2935 16.9811 32.5223 16.0445C32.6419 15.5553 32.8417 15.0503 33.101 14.5988C33.4795 13.9403 33.9161 13.4884 33.9161 13.4884C33.9161 13.4884 33.9319 13.7311 34.03 14.134C34.254 15.0527 34.8837 16.5046 37.1947 17.1712C37.0189 17.3432 36.8234 17.516 36.6269 17.6679ZM15.4663 14.2362C14.7513 17.311 12.6423 18.5875 11.4852 18.7492C10.0616 18.9481 9.41874 17.4294 10.0941 15.4604C10.7688 13.4914 12.4723 11.7512 13.8988 11.5739C15.1692 11.4157 15.8465 12.6009 15.4663 14.2362ZM10.1586 29.2747C9.99428 29.6859 9.76393 30.1227 9.47934 30.5352C8.72336 31.5725 7.82528 31.7081 7.33316 31.3568C6.81806 30.9891 7.00348 29.933 8.10449 28.7975C9.04533 27.8267 10.55 26.8155 11.2426 26.3711C10.7999 27.5872 10.3859 28.7063 10.1586 29.2747ZM27.3232 4.4836C28.0677 3.46416 28.7909 2.89151 29.3398 3.0189C30.7105 3.33693 29.707 8.8388 23.584 14.083C24.2279 10.1706 26.2085 6.01003 27.3232 4.4836ZM60.7517 4.02813C59.1531 1.81444 56.4871 0.392178 53.4378 0.12679C51.2841 -0.0606381 49.1036 0.321612 47.0897 1.23842C45.2247 2.08739 43.6524 3.41939 42.5177 4.99951C42.2825 5.32694 42.1405 5.72286 42.1618 6.12624C42.2065 6.96236 42.9123 7.50125 43.738 7.32877C44.063 7.26102 44.3484 7.11764 44.6924 6.7611C44.9595 6.48438 46.3993 4.75124 48.3059 3.84874C49.7654 3.15778 51.4163 2.85807 53.1835 2.99085C53.9168 3.0459 54.6976 3.25945 54.6987 3.25994C56.2467 3.68358 57.5494 4.53456 58.3913 5.70092C59.2625 6.9081 59.4491 8.30079 59.0905 9.7233C58.9247 10.3808 58.6797 10.9516 58.4047 11.4543C57.6595 12.8163 56.7005 13.5735 56.1068 13.9725C55.7908 14.1849 55.5895 14.2871 55.5895 14.2871C55.5915 14.2373 55.6705 13.7904 55.6271 13.0296C55.601 12.5733 55.5179 12.0683 55.3372 11.5239C55.1301 10.9003 54.6451 9.92125 53.6285 9.29379C53.0113 8.91275 52.2689 8.68071 51.4226 8.63554C50.0928 8.56498 48.6631 8.8773 47.4512 9.6766C44.8808 11.372 44.2421 13.1447 42.0234 14.3139C42.0257 14.2552 42.1752 13.0622 41.8743 11.8731C41.6418 10.9543 41.1742 10.0765 40.2901 9.4084C39.6665 8.93718 38.826 8.64422 37.8746 8.63554C35.3593 8.61264 33.2381 9.75199 31.0253 12.7981C30.5056 13.5042 29.2839 15.4224 27.8953 16.8542C26.8649 17.9168 25.668 18.8744 24.7907 18.8748C23.6105 18.8753 23.4881 17.7046 23.4881 17.7046C23.4881 17.7046 24.2396 17.1422 25.2123 16.3379C31.0381 11.5211 33.2066 5.8742 32.647 2.8199C32.3706 1.31139 31.379 0.20901 29.7857 0.105009C28.683 0.0329954 25.917 0.239069 23.457 4.78789C22.1741 7.16007 21.0696 10.7922 20.7101 12.7822C20.3507 14.7722 20.3088 16.3548 20.3088 16.3548L17.332 18.4594C17.332 18.4594 17.7884 17.3223 18.1454 16.291C18.8352 14.2979 19.602 11.4475 17.6942 9.67604C16.7094 8.76181 14.9163 8.34468 12.9943 8.88453C12.0135 9.16005 11.0083 9.68456 10.0937 10.5042C7.25938 13.0428 5.52391 18.0269 3.85064 18.4965C2.57296 18.855 3.21795 16.2938 3.21795 16.2938C3.47538 15.0733 4.39219 12.5373 5.11272 10.8965C5.32153 10.421 5.38856 10.0494 5.25418 9.63368C4.97963 8.78672 4.02963 8.42336 3.22695 8.82651C2.85652 9.01257 2.6494 9.29741 2.37766 9.77289C1.94164 10.5355 0.79899 13.4623 0.479351 14.8403C0.308319 15.5778 -1.51082 21.729 3.28418 21.7257C4.83536 21.7247 6.19549 20.5987 6.89039 19.898C7.2036 19.5826 7.38307 19.3559 7.38307 19.3559C7.38307 19.3559 8.89551 22.5533 12.9938 21.4985C11.2351 22.7418 8.60666 24.5935 7.61398 25.3377C6.31597 26.3114 5.35512 27.3763 4.77379 28.4571C4.20733 29.5094 3.99981 30.5759 4.19037 31.5872C4.44467 32.9351 5.38695 33.9591 6.71044 34.327C7.10756 34.4374 7.50299 34.491 7.89424 34.491C10.3028 34.4905 12.292 32.4605 13.4425 29.0815C13.5369 28.8266 14.3692 26.4938 15.5158 23.3803C15.5158 23.3803 20.8898 19.5996 20.8898 19.5996C21.2354 20.3678 22.2087 21.7276 24.5275 21.7276C26.4795 21.7276 27.9823 20.8997 29.6397 19.2577C30.0024 19.9971 30.6265 20.7127 31.6353 21.2248C32.8999 21.867 34.7309 21.9929 36.8615 21.0049C38.4772 20.2557 40.0161 18.8732 40.9702 17.2801C41.7071 17.1527 42.3396 16.9719 42.7774 16.8285C42.7642 17.1613 42.7785 17.361 42.7785 17.361C42.8995 19.7892 44.525 21.5803 47.0727 21.7162C48.1822 21.7757 49.3301 21.5128 50.4114 21.0047C51.5037 20.4936 52.4295 19.7673 53.1012 19.0903C53.9064 18.2787 54.3579 17.5429 54.5019 17.3095C56.1974 17.04 57.853 16.2824 59.099 15.1254C60.6014 13.8137 61.5861 12.0783 62.0002 10.4108C62.555 8.17903 62.1112 5.91221 60.7517 4.02813Z" fill="#6C6CFF"/>
</g>
</g>
<path id="Fill 4" fill-rule="evenodd" clip-rule="evenodd" d="M5.72506 7.31843C6.65617 7.12417 7.37019 6.20254 7.32028 5.2597C7.26989 4.31741 6.47461 3.71012 5.5435 3.90438C4.61287 4.09872 3.89884 5.02027 3.94875 5.96311C3.99915 6.9054 4.79443 7.51269 5.72506 7.31843Z" fill="#6C6CFF"/>
<path id="Fill 6" fill-rule="evenodd" clip-rule="evenodd" d="M29.7846 0.104948C28.6819 0.0329343 25.9159 0.238767 23.4559 4.78751C22.173 7.15977 21.0685 10.7918 20.709 12.7819C20.3496 14.7719 20.3076 16.3545 20.3076 16.3545C20.2837 17.7 20.4799 18.6912 20.8885 19.5993C20.8889 19.6002 20.8894 19.601 20.8897 19.6019C21.2363 20.3704 22.2101 21.7276 24.5264 21.7276C26.4778 21.7276 27.9803 20.9001 29.6372 19.259L29.6386 19.2577C24.4932 21.8041 23.5735 18.3794 23.4888 17.7041C23.3212 16.3666 23.5829 14.082 23.5829 14.082C24.2122 10.2596 26.1172 6.20085 27.244 4.59293L27.2448 4.59172C30.1767 0.0410517 32.3093 1.65476 32.6447 2.81381C32.3668 1.30828 31.3757 0.208869 29.7846 0.104948Z" fill="#FF6652"/>
<g id="Group 10">
<mask id="mask1" mask-type="alpha" maskUnits="userSpaceOnUse" x="42" y="0" width="21" height="16">
<path id="Clip 9" fill-rule="evenodd" clip-rule="evenodd" d="M42.1611 0.0803833H62.2346V15.1194H42.1611V0.0803833Z" fill="white"/>
</mask>
<g mask="url(#mask1)">
<path id="Fill 8" fill-rule="evenodd" clip-rule="evenodd" d="M61.1114 10.192C61.1103 12.0536 60.4094 13.7884 59.1074 15.1194C60.6058 13.8084 61.5882 12.0756 62.0017 10.4108C62.5564 8.17903 62.1126 5.91221 60.7531 4.02813C59.1546 1.81436 56.4885 0.392178 53.4392 0.12679C51.2855 -0.0606381 49.105 0.321612 47.0911 1.23842C45.2262 2.08739 43.6538 3.41931 42.5191 4.99951C42.284 5.32694 42.1419 5.72286 42.1632 6.12616C42.208 6.96228 42.9137 7.50125 43.7394 7.32877C44.0644 7.26102 44.3499 7.11772 44.6939 6.7611C44.9609 6.48438 46.4007 4.75124 48.3073 3.84866C49.7669 3.15778 51.4178 2.85807 53.185 2.99077C53.8924 3.04389 54.6437 3.2445 54.6968 3.25905C58.3328 4.08295 61.113 6.71216 61.1114 10.192Z" fill="#FF6652"/>
</g>
</g>
<path id="Fill 11" fill-rule="evenodd" clip-rule="evenodd" d="M52.4577 14.495C51.1678 14.433 50.3973 13.7029 50.2461 13.0524C50.0862 12.3643 50.4681 11.9115 50.7484 11.7385C51.3965 11.3377 52.0167 11.6286 52.2906 11.9954C52.7354 12.5911 52.7751 13.6479 52.4577 14.495ZM55.6259 13.0296C55.5999 12.5733 55.5168 12.0683 55.336 11.5238C55.129 10.9004 54.6439 9.9212 53.6273 9.29373C53.6172 9.28754 53.6067 9.2816 53.5965 9.27541C52.5236 8.66289 50.687 8.65357 49.4007 9.51138C48.1765 10.3279 47.4026 11.6034 47.4644 13.4859C47.4644 13.4873 47.4645 13.489 47.4646 13.4906C47.4647 13.4916 47.4648 13.4929 47.4649 13.4942C47.4834 13.687 47.9416 15.492 51.0517 15.492C51.8897 15.492 52.7403 15.3967 53.7198 15.0919C54.8003 14.7557 55.5883 14.2871 55.5883 14.2871C55.5904 14.2373 55.6694 13.7904 55.6259 13.0296Z" fill="#FF6652"/>
<path id="Fill 13" fill-rule="evenodd" clip-rule="evenodd" d="M53.1285 17.4197C52.221 17.4197 51.4314 17.3272 50.7606 17.1524C50.5847 17.3244 50.3735 17.5137 50.1769 17.6656C49.3047 18.3393 48.3446 18.7511 47.4783 18.7485C47.303 18.748 46.6686 18.7485 46.3076 18.2574C45.927 17.7395 45.8405 16.968 46.0699 16.0422C46.1585 15.6845 46.328 15.2106 46.5375 14.8011C45.0736 17.5277 45.5933 19.3651 46.6016 20.3862C47.7918 21.5907 49.7274 21.3235 50.4478 20.9858C50.587 20.9205 50.7247 20.851 50.8611 20.7779C51.7579 20.2912 52.5229 19.6721 53.1001 19.0904C53.9053 18.2788 54.3569 17.5429 54.5009 17.3095C54.0447 17.3819 53.5829 17.4197 53.1285 17.4197Z" fill="#FF6652"/>
<path id="Fill 15" fill-rule="evenodd" clip-rule="evenodd" d="M16.9929 18.3775C16.2487 19.3559 15.3371 20.2127 14.6544 20.6852C14.0822 21.0807 13.5232 21.3429 12.9944 21.4985C12.9944 21.4985 10.8097 27.6463 10.1588 29.2747C9.50789 30.903 7.82257 32.9349 5.83143 32.2561C3.83394 31.5751 4.64956 28.7011 4.77445 28.4572C4.20799 29.5094 4.00047 30.5758 4.19103 31.5871C4.44533 32.935 5.38761 33.9591 6.7111 34.327C7.10814 34.4374 7.50365 34.491 7.8949 34.491C10.3035 34.4904 12.2927 32.4604 13.4431 29.0815C13.5376 28.8266 14.3698 26.4938 15.5165 23.3803L17.3326 18.4593C17.3326 18.4593 17.7697 17.3705 18.1229 16.3574C17.8421 17.1234 17.4842 17.7313 16.9929 18.3775Z" fill="#FF6652"/>
<path id="Fill 17" fill-rule="evenodd" clip-rule="evenodd" d="M38.946 14.4949C37.656 14.4329 36.8857 13.7027 36.7345 13.0523C36.5746 12.3642 36.9564 11.9114 37.2367 11.7384C37.8849 11.3375 38.5049 11.6285 38.7788 11.9953C39.2238 12.5909 39.2635 13.6478 38.946 14.4949ZM41.8729 11.873C41.6403 10.9542 41.1728 10.0763 40.2888 9.40829C40.2484 9.37783 40.207 9.3481 40.1649 9.31908C39.0914 8.70793 37.1379 8.68036 35.8526 9.53753C34.6284 10.354 33.8528 11.6061 33.9146 13.4886L33.9174 13.5197C33.9359 13.7126 34.3934 15.5182 37.5036 15.5182C38.3415 15.5182 39.1921 15.4229 40.1716 15.1181C41.2414 14.7853 42.0068 14.3231 42.0221 14.3138C42.0247 14.2532 42.1736 13.061 41.8729 11.873Z" fill="#FF6652"/>
<path id="Fill 19" fill-rule="evenodd" clip-rule="evenodd" d="M39.5609 17.4383C38.6534 17.4383 37.8647 17.3459 37.194 17.1712C37.0181 17.3432 36.8227 17.516 36.6262 17.6679C35.7546 18.3417 34.795 18.7534 33.9292 18.7508C33.754 18.7503 33.12 18.7508 32.7592 18.2597C32.3789 17.7419 32.2928 16.9811 32.5216 16.0445C32.6197 15.6432 32.7716 15.2318 32.9661 14.8476C32.9706 14.8383 32.9755 14.829 32.9804 14.8196C31.5165 17.5462 32.0257 19.3837 33.034 20.4047C34.2242 21.6093 36.1598 21.3341 36.8802 20.9964C36.881 20.996 36.8819 20.9956 36.8827 20.9952C38.49 20.244 40.0199 18.8655 40.9697 17.2801C40.5138 17.3524 40.0149 17.4383 39.5609 17.4383Z" fill="#FF6652"/>
<path id="Fill 21" fill-rule="evenodd" clip-rule="evenodd" d="M13.0894 8.8584C13.0574 8.86684 13.0258 8.87504 12.9937 8.88404C12.013 9.15956 11.0078 9.68407 10.093 10.5038C7.25872 13.0423 5.52091 18.0175 3.85006 18.4957C2.84862 18.7823 3.03307 17.2439 3.1554 16.5838C2.90842 17.7948 2.80249 19.4639 3.86493 20.2061C4.61874 20.7331 5.94086 20.6709 6.82704 19.9606C6.8485 19.9402 6.87004 19.9176 6.88997 19.8975C7.20294 19.5819 7.38233 19.3569 7.38233 19.3569C7.38233 19.3569 7.38434 19.3606 7.39077 19.3722C7.71097 19.8945 10.4995 21.4719 13.8727 17.3517C13.021 18.2428 12.1224 18.6595 11.4846 18.7487C10.0611 18.9476 9.4184 17.4289 10.0937 15.4599C10.7684 13.491 12.4717 11.7517 13.8982 11.5743C15.1685 11.4162 15.8458 12.6004 15.4656 14.2358C15.4654 14.237 15.465 14.2381 15.4647 14.2393C15.4647 14.2393 15.4648 14.2393 15.4648 14.2392C16.847 9.31307 14.2494 8.66004 13.0894 8.8584Z" fill="#FF6652"/>
</g>
</svg>
