<?xml version="1.0" encoding="UTF-8"?>
<svg width="43px" height="24px" viewBox="0 0 43 24" version="1.1" xmlns="http://www.w3.org/2000/svg" xmlns:xlink="http://www.w3.org/1999/xlink">
    <!-- Generator: Sketch 63.1 (92452) - https://sketch.com -->
    <title>Logo/Main</title>
    <desc>Created with Sketch.</desc>
    <defs>
        <polygon id="path-1" points="0 0.0459732026 41.488771 0.0459732026 41.488771 22.9863865 0 22.9863865"></polygon>
        <polygon id="path-3" points="0.0298105186 0.0459728372 13.4121198 0.0459728372 13.4121198 10.0719789 0.0298105186 10.0719789"></polygon>
    </defs>
    <g id="Logo/Main" stroke="none" stroke-width="1" fill="currentColor" fill-rule="evenodd">
        <g id="Group-23">
            <g id="Group-3" transform="translate(0.000000, 0.007609)">
                <mask id="mask-2" fill="white">
                    <use xlink:href="#path-1"></use>
                </mask>
                <g id="Clip-2"></g>
                <path d="M34.9725232,9.65571036 C34.1125953,9.61445269 33.5989641,9.12761213 33.4981775,8.6939779 C33.3915505,8.23526757 33.6461157,7.93338999 33.832954,7.81802925 C34.265088,7.55081883 34.6784685,7.74478348 34.8611274,7.98932897 C35.1577005,8.38642069 35.1841697,9.09096246 34.9725232,9.65571036 M33.4519903,11.7693892 C32.870525,12.2185621 32.2303881,12.4931132 31.6528878,12.4913535 C31.5360268,12.4910235 31.1131088,12.4913535 30.8724212,12.1639626 C30.6187133,11.8187377 30.5610061,11.3044099 30.7139274,10.6871522 C30.7831546,10.4077252 30.9266456,10.0216713 31.0999814,9.72333008 C31.3572257,9.28058701 31.6436718,8.98304953 31.6436718,8.98304953 C31.6436718,8.98304953 31.652995,9.14513325 31.7197038,9.41346887 C31.8696246,10.0163667 32.2992402,11.0275012 33.8417414,11.4274328 C33.7245053,11.5421505 33.5830504,11.668174 33.4519903,11.7693892 M25.9649548,9.65571036 C25.1049734,9.61445269 24.5913957,9.12761213 24.4906091,8.6939779 C24.3839286,8.23526757 24.6385473,7.93338999 24.8253857,7.81802925 C25.2575196,7.55081883 25.6709001,7.74478348 25.8535055,7.98932897 C26.1500785,8.38642069 26.1766013,9.09096246 25.9649548,9.65571036 M24.4179527,11.7709967 C23.8368089,12.2201695 23.1971007,12.494667 22.6199219,12.4929604 C22.503168,12.4925773 22.0804644,12.4929604 21.8399375,12.1655165 C21.5863367,11.8203452 21.5290047,11.3131437 21.6815509,10.6887061 C21.7612264,10.3625561 21.8944298,10.0259042 22.0673369,9.72493753 C22.3196517,9.28589157 22.6107059,8.98465697 22.6107059,8.98465697 C22.6107059,8.98465697 22.6212614,9.1464192 22.6866843,9.41507632 C22.8360156,10.0275117 23.2557723,10.9954596 24.7964517,11.4398637 C24.6792692,11.5545279 24.5489593,11.6697279 24.4179527,11.7709967 M10.3108287,9.48317827 C9.83422214,11.5330417 8.42819274,12.3840214 7.6567814,12.4918272 C6.70774772,12.6244412 6.27915014,11.6119671 6.7293946,10.2993301 C7.17921042,8.98663948 8.31486809,7.82649511 9.2658307,7.70829455 C10.1127918,7.60284636 10.5643222,8.39295762 10.3108287,9.48317827 M6.77242047,19.5088467 C6.66284651,19.7829692 6.50928223,20.074184 6.31955051,20.3492173 C5.81556391,21.0407388 5.2168454,21.1311306 4.88876651,20.8969264 C4.54536335,20.6517915 4.66897563,19.9477319 5.40298716,19.190734 C6.03021098,18.5435243 7.03330828,17.8693632 7.49507274,17.5731117 C7.19994642,18.3838518 6.92389507,19.1299191 6.77242047,19.5088467 M18.2154776,2.98145101 C18.711802,2.3018246 19.1939274,1.92005715 19.5598884,2.00498367 C20.4736655,2.21700525 19.8046482,5.88491967 15.7226567,9.38105213 C16.1518973,6.77276339 17.4723036,3.99906887 18.2154776,2.98145101 M40.5011051,2.67780525 C39.4354247,1.20201287 37.6580763,0.253836502 35.6251981,0.0769107349 C34.1893775,-0.0480410791 32.7357142,0.206792037 31.3931252,0.817995014 C30.1497689,1.38397529 29.1016097,2.27197976 28.345094,3.32538999 C28.1883148,3.5436806 28.0936365,3.80762255 28.1078891,4.07654757 C28.1376804,4.63395483 28.6081786,4.99321808 29.1586739,4.87823241 C29.3753034,4.83306329 29.5656246,4.73747408 29.7949529,4.49978701 C29.9730039,4.31530627 30.932861,3.15987706 32.2039189,2.55821157 C33.176957,2.09757232 34.2775189,1.89776729 35.4556666,1.98628376 C35.9445433,2.02298701 36.4650329,2.16535278 36.4657831,2.16567427 C37.4977607,2.4481018 38.3662616,3.01542162 38.9275267,3.79299483 C39.508349,4.59778739 39.6327114,5.5262458 39.3936848,6.47458292 C39.2831464,6.91293232 39.1197767,7.29346739 38.9364748,7.62856543 C38.4396681,8.53660934 37.8003349,9.04139967 37.4045291,9.30737771 C37.1938471,9.44899334 37.0596257,9.51714887 37.0596257,9.51714887 C37.0610188,9.48392841 37.1136893,9.18596227 37.0847018,8.67881436 C37.0673414,8.3745792 37.0119382,8.03792729 36.8914337,7.67496692 C36.753408,7.25928246 36.4300443,6.6065539 35.7522932,6.18824394 C35.3408417,5.93421455 34.8459103,5.77952506 34.2817518,5.74941232 C33.395194,5.70236785 32.4420346,5.91058515 31.6341343,6.44345213 C29.9205477,7.57369808 29.4947364,8.75554292 28.015622,9.53499148 C28.0171222,9.49582348 28.1167836,8.70051483 27.9161749,7.90777808 C27.7611639,7.29523557 27.4494273,6.71001957 26.8600856,6.26465101 C26.4443475,5.95050329 25.8839933,5.75519911 25.2497503,5.74941232 C23.572867,5.73414162 22.1586932,6.49371148 20.6835438,8.52444636 C20.3370865,8.99515892 19.5225957,10.2739861 18.59687,11.2285386 C17.9099565,11.9369383 17.1120223,12.575307 16.5271278,12.5755749 C15.7403386,12.57595 15.6587341,11.7954834 15.6587341,11.7954834 C15.6587341,11.7954834 16.1597202,11.4205208 16.8082158,10.8843318 C20.6920633,7.67314515 22.1377429,3.90851632 21.7646556,1.87231613 C21.5803892,0.866646921 20.919302,0.131724502 19.857158,0.0623901767 C19.1220212,0.0143812465 17.2780175,0.151763944 15.6379981,3.18431018 C14.7827319,4.76576506 14.0464164,7.1871619 13.8067468,8.51383725 C13.5671308,9.8405126 13.5392149,10.8955839 13.5392149,10.8955839 L11.5546672,12.2986663 C11.5546672,12.2986663 11.8589023,11.5405967 12.0969109,10.8530402 C12.5568,9.52432878 13.0680201,7.6240646 11.7961049,6.44307706 C11.1395721,5.83358869 9.94422474,5.55550125 8.66287926,5.91540748 C8.00902549,6.0990845 7.33888298,6.44875669 6.7291267,6.99517976 C4.83957879,8.68760171 3.68259572,12.0103448 2.56708465,12.3233673 C1.71530121,12.5623939 2.14529191,10.8549156 2.14529191,10.8549156 C2.31691312,10.0412285 2.92811609,8.35057473 3.4084733,7.25671055 C3.54767777,6.93972301 3.59236465,6.69196264 3.50277656,6.41483967 C3.31974251,5.85019892 2.68641042,5.60795743 2.15129302,5.87672171 C1.90433637,6.00076264 1.76625712,6.19065511 1.58509842,6.50764264 C1.29441935,7.01602292 0.532652651,8.96724301 0.319559442,9.88589604 C0.205538233,10.3775589 -1.00722307,14.4783574 2.18944298,14.4762142 C3.22356391,14.4755176 4.13032186,13.7248423 4.5935866,13.2577197 C4.8023933,13.0474663 4.92204056,12.8963132 4.92204056,12.8963132 C4.92204056,12.8963132 5.93033526,15.0279418 8.66250419,14.3247396 C7.49003609,15.1535902 5.73776372,16.3880519 5.07597991,16.8842157 C4.21064037,17.5333007 3.57007479,18.2432542 3.18252056,18.9638168 C2.80487888,19.6653044 2.66653172,20.3763295 2.79357321,21.0505442 C2.96310474,21.9491042 3.59129302,22.6317848 4.47361786,22.8770268 C4.73836353,22.9506477 5.001984,22.9863865 5.26281823,22.9863865 C6.86854549,22.986065 8.19468502,21.6327061 8.96164912,19.3800371 C9.02460726,19.2101305 9.5794426,17.6549305 10.3438884,15.5792408 C10.3438884,15.5792408 13.9265012,13.0587719 13.9265548,13.0587719 C14.1569548,13.5709029 14.8057719,14.4774465 16.3516487,14.4774465 C17.6529801,14.4774465 18.654845,13.9255046 19.7598006,12.8308367 C20.0016134,13.3237855 20.4176729,13.8008207 21.090173,14.1422413 C21.9332763,14.5703567 23.153914,14.6543187 24.5743568,13.9956426 C25.65145,13.4962105 26.677373,12.5745033 27.3134378,11.5124665 C27.8047256,11.4275399 28.2264112,11.3069818 28.518269,11.2113926 C28.5094281,11.4332732 28.5189656,11.5663693 28.5189656,11.5663693 C28.5996592,13.1851705 29.6833429,14.3792319 31.381766,14.469838 C32.1214571,14.5094882 32.8867066,14.3342235 33.6075907,13.9955355 C34.3358154,13.6547578 34.952966,13.1705963 35.4007993,12.7192266 C35.9375777,12.1782153 36.238598,11.6876776 36.3345622,11.5320772 C37.4649153,11.3523652 38.5686385,10.847307 39.3993109,10.0760028 C40.4009079,9.20150087 41.0573872,8.04457139 41.3334921,6.93291818 C41.7033109,5.44506999 41.4074344,3.93386032 40.5011051,2.67780525" id="Fill-1" fill="#6C6CFF" mask="url(#mask-2)"></path>
            </g>
            <path d="M3.81609377,4.87895576 C4.43683423,4.74944953 4.91285135,4.13503167 4.8795773,3.50646832 C4.84598177,2.87828004 4.31579386,2.47341901 3.6950534,2.60292525 C3.07463442,2.73248506 2.5986173,3.34684934 2.63189135,3.97541269 C2.66548688,4.60360097 3.19567479,5.00846199 3.81609377,4.87895576" id="Fill-4" fill="#6C6CFF"></path>
            <path d="M19.8571526,0.0699451535 C19.1220159,0.0219362233 17.2780121,0.159158177 15.6379928,3.19165083 C14.7827265,4.77315929 14.046411,7.19450255 13.8067414,8.52123148 C13.5671254,9.84790683 13.5391559,10.9029781 13.5391559,10.9029781 C13.5231887,11.7999842 13.6540345,12.4608036 13.9264423,13.0661662 C13.9266566,13.0667556 13.9269781,13.067345 13.9271924,13.0678808 C14.158289,13.5802797 14.8074812,14.4850551 16.3516434,14.4850551 C17.6525997,14.4850551 18.6543039,13.9333811 19.7588843,12.8393025 L19.7597952,12.8384452 C16.3295143,14.5360646 15.7164359,12.2529078 15.6599612,11.8027169 C15.5481904,10.9110689 15.722705,9.38796413 15.722705,9.38796413 C16.1421937,6.83968655 17.4122335,4.13387967 18.1633911,3.06193027 L18.1639269,3.06112655 C20.1185762,0.0273479442 21.540305,1.1031552 21.7638465,1.8758525 C21.5786157,0.872165805 20.9179035,0.139225898 19.8571526,0.0699451535" id="Fill-6" fill="#FF6652"></path>
            <g id="Group-10" transform="translate(28.076651, 0.007609)">
                <mask id="mask-4" fill="white">
                    <use xlink:href="#path-3"></use>
                </mask>
                <g id="Clip-9"></g>
                <path d="M12.6633037,6.78706426 C12.6626072,8.02811654 12.1953238,9.18461738 11.3273052,10.0719789 C12.3262768,9.19795914 12.9812022,8.04279784 13.2568249,6.93291282 C13.6266436,5.44506463 13.3308208,3.93385496 12.4244379,2.67779989 C11.3588111,1.20195393 9.58140904,0.253831144 7.5485309,0.0769053767 C6.11271025,-0.0480464372 4.659047,0.206786679 3.31645797,0.817989656 C2.07315527,1.38396993 1.02494244,2.27192082 0.268426716,3.32538463 C0.111701135,3.54367524 0.0169692279,3.80761719 0.0312218791,4.07648863 C0.0610667163,4.63389589 0.531511367,4.99321273 1.08200662,4.87822705 C1.2986362,4.83305793 1.4890109,4.73752231 1.71833927,4.49978166 C1.89633667,4.31530091 2.85619379,3.1598717 4.12725165,2.55815263 C5.10034337,2.09756696 6.20090523,1.89776193 7.37905295,1.98622482 C7.85067639,2.02164212 8.35155527,2.15538128 8.386919,2.16507952 C10.8109413,2.7143424 12.6643754,4.46715059 12.6633037,6.78706426" id="Fill-8" fill="#FF6652" mask="url(#mask-4)"></path>
            </g>
            <path d="M34.9725232,9.66331892 C34.1125953,9.62200767 33.5989641,9.13522069 33.4981775,8.70158646 C33.3915505,8.24287613 33.6461157,7.94099855 33.8330076,7.8256378 C34.265088,7.55842739 34.678522,7.75239204 34.8611274,7.99693753 C35.1577005,8.39402925 35.1841697,9.09857101 34.9725232,9.66331892 M37.0847018,8.68636934 C37.0673414,8.38218776 37.0119382,8.04553585 36.8914337,7.6825219 C36.753408,7.26689101 36.4300443,6.61410887 35.7522932,6.19579892 C35.745542,6.19167315 35.7385764,6.18770813 35.731718,6.18358236 C35.0164599,5.77523855 33.7920714,5.76902311 32.9345548,6.34089734 C32.118403,6.88523073 31.6024677,7.73556748 31.6436718,8.9906045 C31.6436718,8.99151539 31.643779,8.9926406 31.6438326,8.99371222 C31.6438861,8.9943552 31.6439397,8.99526608 31.6440469,8.99612339 C31.6563706,9.12466515 31.9618381,10.3279961 34.0352238,10.3279961 C34.5938634,10.3279961 35.1609153,10.2644486 35.8139654,10.0612679 C36.5343137,9.83713697 37.0596257,9.52470385 37.0596257,9.52470385 C37.0610188,9.49153697 37.1136893,9.19357083 37.0847018,8.68636934" id="Fill-11" fill="#FF6652"></path>
            <path d="M35.419751,11.6131513 C34.8147099,11.6131513 34.2883263,11.5514255 33.8411359,11.4349395 C33.7238463,11.5496037 33.5830343,11.6757879 33.4519743,11.7770567 C32.8705089,12.226176 32.2304256,12.5007271 31.6529253,12.4990125 C31.5360643,12.4986374 31.1130928,12.4990125 30.8724587,12.1715766 C30.6186972,11.8263516 30.5610436,11.3120238 30.7139649,10.6947661 C30.7730652,10.4563289 30.8860684,10.1403594 31.0257551,9.86736223 C30.0498236,11.6851111 30.3962809,12.9100889 31.0684595,13.590787 C31.8619463,14.3938113 33.1523471,14.2156532 33.6325971,13.9905578 C33.7254001,13.9469961 33.817185,13.9006482 33.9081127,13.8519427 C34.5059739,13.5274538 35.0160152,13.1147163 35.4007832,12.7268941 C35.9375616,12.1858292 36.238689,11.6952915 36.3346533,11.5396376 C36.0305253,11.5879144 35.7226466,11.6131513 35.419751,11.6131513" id="Fill-13" fill="#FF6652"></path>
            <path d="M11.3281893,12.2516807 C10.8320256,12.9039271 10.2243054,13.4751583 9.76918504,13.7901633 C9.38768551,14.0538374 9.0150269,14.2286199 8.6625149,14.3323535 C8.6625149,14.3323535 7.20601183,18.4309016 6.77210969,19.5164607 C6.33815397,20.6020197 5.21460569,21.956611 3.8871802,21.5040625 C2.55552179,21.0500673 3.09926579,19.1340502 3.18253127,18.9714843 C2.8048896,19.6729183 2.66654244,20.3838899 2.79358393,21.0581046 C2.96311546,21.9566646 3.59130374,22.6393987 4.47362858,22.8846407 C4.73832067,22.9582616 5.00199472,22.9940004 5.26282895,22.9940004 C6.8685562,22.9936253 8.19469574,21.6402664 8.96160625,19.387651 C9.02461797,19.2177444 9.57945332,17.6625444 10.3438991,15.5868547 L11.5546243,12.3062266 C11.5546243,12.3062266 11.8459999,11.5803594 12.0814902,10.9049124 C11.8942768,11.4155967 11.6556788,11.8208863 11.3281893,12.2516807" id="Fill-15" fill="#FF6652"></path>
            <path d="M25.9649387,9.66323855 C25.1049573,9.62192729 24.5913796,9.13514032 24.490593,8.70150608 C24.3839661,8.24279576 24.6385313,7.94091818 24.8253696,7.82555743 C25.2575036,7.55834701 25.670884,7.75231167 25.8534894,7.99685715 C26.150116,8.39394887 26.1765852,9.09849064 25.9649387,9.66323855 M27.9162124,7.91530627 C27.7611478,7.30276376 27.4494649,6.71754776 26.8601231,6.2721792 C26.8331716,6.25187185 26.8055772,6.23204673 26.7775006,6.21270385 C26.0618675,5.80527092 24.7595181,5.7868925 23.9026444,6.35833808 C23.0864926,6.90267148 22.5694857,7.73736246 22.6106362,8.99239948 L22.6125116,9.01313548 C22.6248353,9.14173083 22.9298742,10.3454369 25.0033134,10.3454369 C25.561953,10.3454369 26.1290049,10.2818893 26.7820014,10.0787087 C27.4951698,9.85682813 28.005479,9.54873511 28.0156595,9.54251967 C28.0173741,9.50211929 28.1166604,8.70734646 27.9162124,7.91530627" id="Fill-17" fill="#FF6652"></path>
            <path d="M26.3744345,11.6255018 C25.7693934,11.6255018 25.2436528,11.5639367 24.7964624,11.4474508 C24.6792263,11.562115 24.54897,11.677315 24.4179635,11.7785838 C23.8368732,12.2277567 23.1971649,12.5022541 22.6199862,12.5005395 C22.5031787,12.5001645 22.0804751,12.5005395 21.8399482,12.1731036 C21.586401,11.8279323 21.5290154,11.3207308 21.6815616,10.6962932 C21.7469309,10.4288149 21.8481997,10.1545317 21.9779203,9.89841265 C21.9809209,9.89219721 21.9841893,9.88598177 21.9874042,9.87971274 C21.0114727,11.6974616 21.3509644,12.9224394 22.023143,13.6031375 C22.8166299,14.4061619 24.1070306,14.2226992 24.5872807,13.9976037 C24.5878165,13.9973358 24.5884059,13.9970679 24.5889417,13.9968 C25.6604624,13.4959747 26.6804379,12.5770002 27.3136092,11.5200536 C27.0096956,11.5682768 26.6771158,11.6255018 26.3744345,11.6255018" id="Fill-19" fill="#FF6652"></path>
            <path d="M8.72667862,5.90560744 C8.70535323,5.91123349 8.68429574,5.91669879 8.66291676,5.92269991 C8.009063,6.10637693 7.33892048,6.45604912 6.72911062,7.00252577 C4.83956272,8.69489414 3.68102579,12.0116897 2.56712216,12.330499 C1.89949797,12.5215702 2.02246727,11.4959152 2.10401816,11.0559047 C1.93936253,11.8632156 1.86874225,12.9759405 2.57703472,13.4707647 C3.07957462,13.8220979 3.96098858,13.7806259 4.55177704,13.3070735 C4.56608327,13.2934638 4.58044309,13.2784074 4.59373127,13.2650121 C4.80237723,13.054598 4.9219709,12.9046236 4.9219709,12.9046236 C4.9219709,12.9046236 4.92331044,12.9070884 4.92759695,12.9148041 C5.14106523,13.262976 7.00007174,14.314618 9.2488829,11.5678214 C8.68108086,12.1618783 8.08204086,12.4396979 7.6568189,12.4991196 C6.70778523,12.6317336 6.27934839,11.6192595 6.72953927,10.3066225 C7.17935509,8.99398549 8.3149056,7.83448409 9.2658682,7.71622995 C10.1127757,7.61078177 10.5643062,8.40025005 10.3108126,9.49052428 C10.3106518,9.491328 10.3104375,9.49207814 10.3102232,9.49288186 C10.3102232,9.49288186 10.3102768,9.49288186 10.3102768,9.49282828 C11.2317696,6.2087174 9.5000189,5.77336856 8.72667862,5.90560744" id="Fill-21" fill="#FF6652"></path>
        </g>
    </g>
</svg>