<svg width="136" height="32" viewBox="0 0 136 32" fill="none" xmlns="http://www.w3.org/2000/svg">
<mask id="mask0" mask-type="alpha" maskUnits="userSpaceOnUse" x="0" y="0" width="136" height="32">
<rect width="136" height="32" fill="white"/>
</mask>
<g mask="url(#mask0)">
<path d="M115.964 11.2427C115.8 10.5266 115.502 9.92539 115.055 9.40413L115.052 9.40024C114.44 8.70818 113.662 8.24845 112.671 7.99419C111.755 7.74947 110.404 7.62994 108.548 7.62994C106.523 7.62994 105.221 7.86971 104.295 8.22511C103.882 8.37647 103.436 8.70251 103.105 9.01619V8.32872H100.485V22.1926H103.116V13.3864C103.116 11.0878 105.44 10.18 107.755 10.18H108.917C111.233 10.18 113.578 11.0878 113.578 13.3864V22.1926H116.175V14.6312C116.175 12.9143 116.11 11.869 115.964 11.2427ZM104.29 8.22653C104.292 8.22653 104.293 8.22582 104.295 8.22511L104.296 8.22476L104.29 8.22653Z" fill="#ED1C26"/>
<path d="M71.688 7.58929H74.3065C74.3373 6.17016 74.3835 4.8175 74.5361 4.20183C74.6578 3.58721 74.9318 3.06348 75.3276 2.66387C75.7839 2.11185 76.4229 1.71047 77.2438 1.43357C78.0361 1.21821 79.3805 1.03326 81.1463 1.00356L83.6056 1.00002L81.2386 3.33436C81.1546 3.33436 80.3183 3.33825 80.2375 3.33825C76.7553 3.33825 76.9985 5.59196 76.9985 7.58929H83.1227L80.6469 10.1379H76.938L76.952 22.1711H74.3065V10.1379H71.688V7.58929Z" fill="#ED1C26"/>
<path d="M69.0698 3.0299V5.74686H71.6898V3.0299H69.0698Z" fill="#ED1C26"/>
<path d="M94.6424 25.4974L95.0539 25.6049L94.2816 26.704L93.98 26.6138L94.6424 25.4974Z" fill="#2F67BA"/>
<path fill-rule="evenodd" clip-rule="evenodd" d="M91.2617 30.13V25.4012H90.5775V30.13H91.2617ZM87.6952 26.8204V30.13H87.0114V26.8204H87.6952ZM87.6952 25.717V26.2719H87.0114V25.717H87.6952ZM83.778 27.1856C83.3668 27.1856 83.0851 27.2489 82.9395 27.3685C82.8454 27.4441 82.7775 27.558 82.7513 27.7026C82.717 27.854 82.6998 28.0619 82.6914 28.3204C82.6998 28.3519 82.7086 28.4021 82.7086 28.4651C82.7086 28.5411 82.6998 28.598 82.6914 28.6422C82.6998 28.8753 82.717 29.0645 82.7429 29.2091C82.7688 29.3477 82.8202 29.4552 82.8884 29.5373C82.9826 29.6381 83.1187 29.7014 83.316 29.7325C83.5043 29.758 83.7433 29.7707 84.0261 29.7707C84.2738 29.7707 84.4876 29.758 84.6675 29.7389C84.847 29.7201 84.967 29.6635 85.0604 29.5875C85.2151 29.4489 85.3005 29.1589 85.3005 28.7109V28.4651C85.3005 28.1945 85.2921 27.9675 85.2662 27.7847C85.2403 27.6015 85.1721 27.4629 85.0783 27.3808C84.9838 27.2995 84.847 27.2358 84.6675 27.2171C84.4796 27.1916 84.2567 27.1856 83.9921 27.1856H83.778ZM84.9415 26.8323C85.2064 26.8642 85.4202 26.9459 85.5825 27.0657C85.7624 27.2044 85.8821 27.3872 85.9332 27.6202C85.9759 27.854 86.0018 28.1503 86.0018 28.516C86.0018 28.8562 85.9759 29.1398 85.9248 29.3729C85.8737 29.6002 85.7453 29.7831 85.5315 29.9344C85.3603 30.0419 85.1378 30.0982 84.8729 30.1236C84.6073 30.1551 84.2822 30.1678 83.906 30.1678C83.5127 30.1678 83.188 30.1424 82.9227 30.0921C82.6568 30.0419 82.4517 29.9344 82.3068 29.7707C82.1102 29.5564 82.007 29.1656 82.007 28.5917C82.007 28.2324 82.0245 27.936 82.0584 27.709C82.093 27.4823 82.1781 27.2995 82.324 27.1605C82.4776 27.0092 82.6827 26.9084 82.9311 26.8642C83.1796 26.8203 83.4956 26.7818 83.8801 26.7818C84.3165 26.7758 84.6762 26.8012 84.9415 26.8323ZM74.951 27.3374C75.1641 26.9837 75.6431 26.7949 76.4046 26.7818C76.7811 26.7758 77.0975 26.826 77.3627 26.9211C77.6195 27.0156 77.7816 27.1545 77.8418 27.3374C78.0815 26.9837 78.6032 26.7949 79.4154 26.7818C79.7405 26.7758 80.0061 26.8076 80.2195 26.8642C80.4337 26.9211 80.5961 27.0028 80.7077 27.104C80.8183 27.2044 80.8952 27.3243 80.9379 27.4629C80.981 27.6015 81.0065 27.7596 81.0065 27.9361V30.13H80.3133V27.9994C80.3133 27.7787 80.2797 27.6143 80.2283 27.5011C80.1684 27.3809 80.0827 27.2995 79.9455 27.255C79.8087 27.2108 79.6128 27.1857 79.3472 27.1857C79.0735 27.1857 78.8342 27.2044 78.6375 27.2426C78.4405 27.2801 78.2778 27.3625 78.1493 27.4884C78.0216 27.6143 77.9614 27.8038 77.9614 28.0496V30.13H77.2941V27.9361C77.2941 27.7278 77.2686 27.5761 77.2175 27.4696C77.166 27.3685 77.0723 27.2932 76.9263 27.249C76.7811 27.2044 76.5673 27.1857 76.2765 27.1857C75.8661 27.1857 75.541 27.255 75.3009 27.3943C75.0616 27.5389 74.9419 27.7914 74.9419 28.1567V30.13H74.249V26.8204H74.9419V27.3374H74.951ZM84.3725 31V30.4455H83.6884V31H84.3725ZM95.4268 29.7014C95.3075 29.8839 95.1185 30.0105 94.8708 30.0731C94.6223 30.1364 94.3238 30.1678 93.9728 30.1678C93.4339 30.1678 93.0403 30.0794 92.7838 29.8962C92.5269 29.7077 92.3989 29.4238 92.3989 29.0454V26.8203H93.0914V28.9952C93.0914 29.1847 93.1085 29.323 93.1341 29.4047C93.16 29.4871 93.2114 29.5564 93.2884 29.6133C93.4248 29.7201 93.7076 29.7771 94.1268 29.7707C94.3063 29.7707 94.4515 29.758 94.5712 29.7452C94.6828 29.7389 94.8022 29.7138 94.9134 29.6763C95.0244 29.6444 95.1276 29.5939 95.213 29.5246C95.3666 29.4047 95.4439 29.172 95.4439 28.8374V26.8203H96.1281V30.13H95.4439V29.6886L95.4268 29.7014ZM100.234 27.5323C100.268 27.6267 100.286 27.7278 100.286 27.829V27.8983H100.97C100.97 27.7091 100.953 27.539 100.893 27.3809C100.842 27.2296 100.714 27.104 100.534 27.0029C100.414 26.9332 100.234 26.883 100.004 26.8452C99.7638 26.8013 99.4989 26.7819 99.1994 26.7819C98.9341 26.7819 98.7119 26.7886 98.5321 26.8013C98.3526 26.8141 98.1646 26.8452 97.9848 26.8961C97.8049 26.953 97.6516 27.0471 97.5229 27.1606C97.4112 27.2359 97.3346 27.3307 97.2835 27.4386C97.2317 27.5454 97.1974 27.6773 97.1806 27.8477C97.1551 28.0178 97.1295 28.2381 97.1379 28.5161C97.146 28.9263 97.1806 29.2223 97.224 29.3988C97.2664 29.5816 97.3864 29.739 97.5656 29.8716C97.6852 29.9536 97.8137 30.0169 97.9589 30.0608C98.1044 30.105 98.2581 30.1364 98.4295 30.1492C98.6006 30.1679 98.8225 30.181 99.0965 30.181C99.8579 30.1867 100.388 30.0859 100.67 29.8963C100.919 29.7266 101.038 29.4554 101.038 29.0837V28.9383H100.371V29.0455C100.371 29.3425 100.311 29.5314 100.183 29.6134C100.089 29.6697 99.9776 29.7139 99.8321 29.7326C99.6872 29.752 99.4643 29.7581 99.1651 29.7581C98.6265 29.7581 98.2756 29.7015 98.1132 29.5876C98.0107 29.5123 97.9505 29.4111 97.9162 29.2916C97.8651 29.1721 97.8392 29.0076 97.8305 28.8121C97.8392 28.7237 97.848 28.5981 97.848 28.428C97.848 28.3142 97.8392 28.2261 97.8305 28.1692C97.8392 27.9612 97.8651 27.7915 97.8987 27.6645C97.9333 27.5454 97.9928 27.4506 98.0873 27.3809C98.1986 27.2932 98.3183 27.2359 98.4467 27.2108C98.5744 27.1981 98.763 27.1857 99.0024 27.1857H99.1651C99.6189 27.1857 99.9181 27.2296 100.072 27.312C100.148 27.3555 100.201 27.4315 100.234 27.5323ZM105.354 28.6423H103.131V28.1691H105.354V28.6423ZM109.8 26.7818C109.039 26.7949 108.559 26.9837 108.346 27.3374H108.338V26.8204H107.645V30.13H108.338V28.1567C108.338 27.7914 108.457 27.5389 108.697 27.3943C108.936 27.255 109.261 27.1857 109.672 27.1857C109.962 27.1857 110.177 27.2044 110.322 27.249C110.468 27.2932 110.561 27.3685 110.613 27.4696C110.664 27.5761 110.69 27.7278 110.69 27.9361V30.13H111.357V28.0496C111.357 27.8038 111.417 27.6143 111.545 27.4884C111.674 27.3625 111.836 27.2801 112.032 27.2426C112.23 27.2044 112.469 27.1857 112.743 27.1857C113.007 27.1857 113.204 27.2108 113.341 27.255C113.478 27.2995 113.563 27.3809 113.624 27.5011C113.675 27.6143 113.709 27.7787 113.709 27.9994V30.13H114.403V27.9361C114.403 27.7596 114.376 27.6015 114.333 27.4629C114.29 27.3243 114.214 27.2044 114.102 27.104C113.991 27.0028 113.829 26.9211 113.615 26.8642C113.401 26.8076 113.136 26.7758 112.811 26.7818C111.999 26.7949 111.477 26.9837 111.238 27.3374C111.177 27.1545 111.015 27.0156 110.758 26.9211C110.493 26.826 110.177 26.7758 109.8 26.7818ZM117.173 27.1856C116.764 27.1856 116.482 27.2489 116.335 27.3685C116.242 27.4441 116.173 27.558 116.147 27.7026C116.113 27.854 116.096 28.0619 116.087 28.3204C116.096 28.3519 116.105 28.4021 116.105 28.4651C116.105 28.5411 116.096 28.598 116.087 28.6422C116.096 28.8753 116.113 29.0645 116.139 29.2091C116.164 29.3477 116.216 29.4552 116.284 29.5373C116.379 29.6381 116.515 29.7014 116.712 29.7325C116.9 29.758 117.139 29.7707 117.422 29.7707C117.67 29.7707 117.883 29.758 118.064 29.7389C118.244 29.7201 118.362 29.6635 118.457 29.5875C118.611 29.4489 118.696 29.1589 118.696 28.7109V28.4651C118.696 28.1945 118.687 27.9675 118.662 27.7847C118.637 27.6015 118.569 27.4629 118.474 27.3808C118.38 27.2995 118.244 27.2358 118.064 27.2171C117.875 27.1916 117.653 27.1856 117.388 27.1856H117.173ZM118.337 26.8323C118.603 26.8642 118.816 26.9459 118.979 27.0657C119.159 27.2044 119.278 27.3872 119.33 27.6202C119.373 27.854 119.397 28.1503 119.397 28.516C119.397 28.8562 119.373 29.1398 119.321 29.3729C119.269 29.6002 119.142 29.7831 118.928 29.9344C118.756 30.0419 118.534 30.0982 118.269 30.1236C118.004 30.1551 117.678 30.1678 117.302 30.1678C116.909 30.1678 116.583 30.1424 116.318 30.0921C116.053 30.0419 115.848 29.9344 115.703 29.7707C115.506 29.5564 115.403 29.1656 115.403 28.5917C115.403 28.2324 115.421 27.936 115.455 27.709C115.49 27.4823 115.574 27.2995 115.72 27.1605C115.874 27.0092 116.079 26.9084 116.327 26.8642C116.575 26.8203 116.892 26.7818 117.277 26.7818C117.713 26.7758 118.072 26.8012 118.337 26.8323ZM117.769 31V30.4455H117.085V31H117.769ZM121.092 26.8204V30.13H120.407V26.8204H121.092ZM121.092 25.717V26.2719H120.407V25.717H121.092ZM124.99 26.953C124.845 27.0156 124.743 27.104 124.673 27.2235H124.657V26.8204H123.989V30.13H124.657V28.1567C124.657 27.7787 124.751 27.5262 124.947 27.3943C125.076 27.3059 125.213 27.249 125.375 27.2235C125.538 27.198 125.751 27.1857 126.017 27.1857C126.29 27.1857 126.505 27.2044 126.659 27.2426C126.804 27.2801 126.915 27.3497 126.992 27.4505C127.069 27.5513 127.103 27.6963 127.103 27.8919V30.13H127.77V27.8791C127.77 27.6079 127.719 27.3996 127.607 27.2426C127.497 27.0849 127.308 26.9657 127.051 26.8893C126.795 26.8204 126.445 26.7885 125.999 26.7885C125.794 26.7885 125.606 26.8013 125.444 26.826C125.282 26.8451 125.128 26.8893 124.99 26.953ZM130.576 27.1856C130.166 27.1856 129.884 27.2489 129.738 27.3685C129.644 27.4441 129.576 27.558 129.55 27.7026C129.516 27.854 129.498 28.0619 129.49 28.3204C129.498 28.3519 129.507 28.4021 129.507 28.4651C129.507 28.5411 129.498 28.598 129.49 28.6422C129.498 28.8753 129.516 29.0645 129.541 29.2091C129.567 29.3477 129.619 29.4552 129.687 29.5373C129.78 29.6381 129.918 29.7014 130.114 29.7325C130.303 29.758 130.542 29.7707 130.824 29.7707C131.073 29.7707 131.286 29.758 131.466 29.7389C131.645 29.7201 131.765 29.6635 131.86 29.5875C132.014 29.4489 132.1 29.1589 132.1 28.7109V28.4651C132.1 28.1945 132.091 27.9675 132.064 27.7847C132.039 27.6015 131.971 27.4629 131.877 27.3808C131.783 27.2995 131.645 27.2358 131.466 27.2171C131.277 27.1916 131.056 27.1856 130.79 27.1856H130.576ZM130.706 26.7818C131.141 26.7818 131.5 26.8012 131.765 26.8323C132.031 26.8642 132.245 26.9459 132.407 27.0657C132.586 27.2044 132.706 27.3872 132.758 27.6202C133.077 27.6202 133.053 27.2331 133.044 27.0799L133.044 27.0798C133.043 27.0605 133.042 27.0449 133.042 27.0343H133.564C133.495 27.7596 133.142 27.9866 132.784 27.9993C132.8 28.188 132.8 28.3139 132.8 28.5156V28.516C132.8 28.8562 132.774 29.1398 132.724 29.3729C132.672 29.6002 132.544 29.7831 132.33 29.9344C132.16 30.0419 131.936 30.0982 131.671 30.1236C131.406 30.1551 131.081 30.1678 130.706 30.1678C130.311 30.1678 129.986 30.1424 129.721 30.0921C129.456 30.0419 129.25 29.9344 129.105 29.7707C128.909 29.5564 128.806 29.1656 128.806 28.5917C128.806 28.2324 128.823 27.936 128.857 27.709C128.891 27.4823 128.977 27.2995 129.122 27.1605C129.276 27.0092 129.481 26.9084 129.73 26.8642C129.978 26.8203 130.295 26.7818 130.679 26.7818H130.706ZM134.493 30.13V26.8204H133.809V30.13H134.493ZM134.493 26.2719V25.717H133.809V26.2719H134.493Z" fill="#2F67BA"/>
<path d="M45.5303 11.7361C45.2867 11.1373 44.864 10.7494 44.2114 10.521C43.5336 10.301 42.3431 10.1737 40.2621 10.1433C38.181 10.1737 36.9906 10.301 36.3128 10.521C35.6601 10.7494 35.2371 11.1373 34.9939 11.7361C34.8004 12.1944 34.5803 13.3115 34.5803 14.9219C34.5803 16.5324 34.8004 17.6488 34.9939 18.1078C35.2371 18.7069 35.6601 19.0941 36.3128 19.3233C36.9906 19.5436 38.181 19.6709 40.2621 19.7013C42.3431 19.6709 43.5336 19.5436 44.2114 19.3233C44.864 19.0941 45.2867 18.7069 45.5303 18.1078C45.7245 17.6488 45.9435 16.5324 45.9435 14.9219C45.9435 13.3115 45.7245 12.1944 45.5303 11.7361ZM48.8424 14.9219C48.8424 16.5695 48.6516 17.925 48.2744 18.9392C47.8933 19.9948 46.5895 22.3766 40.2621 22.3766C33.9346 22.3766 32.6315 19.9948 32.2504 18.9392C31.8732 17.925 31.6821 16.5695 31.6821 14.9219C31.6821 13.2736 31.8732 11.9189 32.2504 10.9047C32.6315 9.84906 33.9346 7.46733 40.2621 7.46733C46.5895 7.46733 47.8933 9.84906 48.2744 10.9047C48.6516 11.9189 48.8424 13.2736 48.8424 14.9219Z" fill="#2F67BA"/>
<path d="M95.2495 11.7361C95.0059 11.1373 94.5832 10.7494 93.931 10.521C93.2531 10.301 92.0627 10.1737 89.9817 10.1433C87.9003 10.1737 86.7098 10.301 86.0327 10.521C85.3794 10.7494 84.956 11.1373 84.7135 11.7361C84.5192 12.1944 84.2998 13.3115 84.2998 14.9219C84.2998 16.5324 84.5192 17.6488 84.7135 18.1078C84.956 18.7069 85.3794 19.0941 86.0327 19.3233C86.7098 19.5436 87.9003 19.6709 89.9817 19.7013C92.0627 19.6709 93.2531 19.5436 93.931 19.3233C94.5832 19.0941 95.0059 18.7069 95.2495 18.1078C95.4434 17.6488 95.6631 16.5324 95.6631 14.9219C95.6631 13.3115 95.4434 12.1944 95.2495 11.7361ZM98.5619 14.9219C98.5619 16.5695 98.3709 17.925 97.9937 18.9392C97.6122 19.9948 96.3091 22.3766 89.9817 22.3766C83.6542 22.3766 82.3504 19.9948 81.9693 18.9392C81.5921 17.925 81.4014 16.5695 81.4014 14.9219C81.4014 13.2736 81.5921 11.9189 81.9693 10.9047C82.3504 9.84906 83.6542 7.46733 89.9817 7.46733C96.3091 7.46733 97.6122 9.84906 97.9937 10.9047C98.3709 11.9189 98.5619 13.2736 98.5619 14.9219Z" fill="#ED1C26"/>
<path d="M47.878 21.1282C47.8776 21.129 47.8763 21.1298 47.8755 21.1306L47.8805 21.1265C47.8796 21.1278 47.8788 21.1277 47.878 21.1282Z" fill="#919392"/>
<path d="M29.5834 11.2187C29.4175 10.504 29.1173 9.90243 28.6669 9.38012L28.6634 9.37588C28.0479 8.68452 27.263 8.22515 26.2639 7.97124C25.3401 7.72653 24.0069 7.607 22.1351 7.607C20.0936 7.607 18.7075 7.77214 17.7732 8.1279L17.7725 8.12825C17.7711 8.12861 17.7701 8.12932 17.7687 8.12932C16.9971 8.41116 16.3553 8.93384 15.8822 9.65101C15.3314 8.90024 14.6449 8.38676 13.7928 8.09643C12.8242 7.76684 11.0242 7.607 8.752 7.607C7.04647 7.607 5.87491 7.729 5.17082 7.98079L5.16399 7.98326C4.63308 8.18554 4.12498 8.52857 3.62552 9.01588C3.62552 8.58162 3.62552 8.30542 3.62552 8.30542H1.00049V22.1686H3.6173V13.3635C3.6173 11.0645 5.92754 10.1564 8.26248 10.1564H9.43328C11.7678 10.1564 14.1021 11.0645 14.1021 13.3635V22.1686H16.7171V13.3635C16.7171 11.0645 19.0011 10.1564 21.3355 10.1564H22.5067C24.8408 10.1564 27.1818 11.0645 27.1818 13.3635V22.1686H29.7954V14.6079C29.7954 12.8906 29.73 11.8457 29.5834 11.2187ZM17.7715 8.12825H17.7725H17.7715ZM17.7739 8.12719C17.7732 8.1279 17.7729 8.12825 17.7725 8.12825C17.7729 8.12825 17.7729 8.1279 17.7729 8.1279L17.7739 8.12719Z" fill="#2F67BA"/>
<path d="M122.471 10.521C123.149 10.301 124.34 10.1737 126.421 10.1433C128.502 10.1737 129.692 10.301 130.37 10.521C131.022 10.7494 131.446 11.1373 131.689 11.7361C131.816 12.0359 131.953 12.6205 132.034 13.4395H120.807C120.888 12.6205 121.026 12.0359 121.152 11.7361C121.396 11.1373 121.819 10.7494 122.471 10.521ZM133.632 15.9355H134.972C134.99 15.6101 135.001 15.2742 135.001 14.9219C135.001 13.2736 134.811 11.9189 134.433 10.9047C134.051 9.84906 132.748 7.46733 126.421 7.46733C120.094 7.46733 118.79 9.84906 118.409 10.9047C118.032 11.9189 117.84 13.2736 117.84 14.9219C117.84 16.5695 118.032 17.925 118.409 18.9392C118.79 19.9948 120.094 22.3766 126.421 22.3766C132.748 22.3766 134.051 19.9948 134.433 18.9392C134.467 18.8473 134.498 18.75 134.529 18.6528H131.369C131.125 18.9537 130.798 19.1733 130.37 19.3233C129.692 19.5436 128.502 19.6709 126.421 19.7013C124.34 19.6709 123.149 19.5436 122.471 19.3233C121.819 19.0941 121.396 18.7069 121.152 18.1078C121.003 17.7549 120.839 17.0094 120.772 15.9503H133.632V15.9355Z" fill="#ED1C26"/>
<path d="M69.0698 7.58895V22.1686H71.6898V7.58895H69.0698Z" fill="#2F67BA"/>
<path d="M63.9135 18.1085C63.6699 18.7069 63.2472 19.0944 62.5946 19.3232C61.9164 19.5443 60.726 19.6709 58.6453 19.7016C56.5646 19.6709 55.7444 19.5443 55.0672 19.3232C54.4143 19.0944 53.9909 18.7069 53.748 18.1085C53.5951 17.7457 53.4261 16.9712 53.362 15.8679V13.9766C53.4261 12.8736 53.5951 12.0988 53.748 11.7364C53.9909 11.1377 54.4143 10.7497 55.0672 10.5213C55.7444 10.3017 56.5646 10.1736 58.6453 10.1432C60.726 10.1736 61.9164 10.3017 62.5946 10.5213C63.2472 10.7497 63.6699 11.1377 63.9135 11.7364C64.1077 12.195 64.3267 13.3122 64.3267 14.9223C64.3267 16.5327 64.1077 17.6495 63.9135 18.1085ZM66.6573 10.9053C66.2759 9.84901 64.9727 7.46764 58.6453 7.46764C56.2227 7.46764 54.5409 7.81774 53.362 8.30752V1.00249H50.7456V22.2068H53.362V21.5366C54.5409 22.0264 56.2227 22.3762 58.6453 22.3762C64.9727 22.3762 66.2759 19.9955 66.6573 18.9399C67.0349 17.9257 67.2252 16.5702 67.2252 14.9223C67.2252 13.2743 67.0349 11.9192 66.6573 10.9053Z" fill="#2F67BA"/>
</g>
</svg>
