<svg width="24" height="24" viewBox="0 0 24 24" fill="none" xmlns="http://www.w3.org/2000/svg">
<path d="M24 0H0V24H24V0Z" fill="white"/>
<rect width="24" height="24" fill="url(#paint0_linear)"/>
<path d="M11.7023 7.80399C10.9338 7.05972 10.1611 6.67107 9.10161 6.49591C8.84433 6.45338 8.52717 6.42099 8.39681 6.42392C7.99357 6.43304 7.07214 6.62488 6.79882 6.75657C6.74536 6.78238 6.60318 6.84891 6.48288 6.90451C6.20257 7.03406 6.14701 7.06962 5.70654 7.40164C4.97457 7.95344 4.50299 8.60319 4.1367 9.56461C3.91291 10.1519 3.90674 10.2678 3.90674 13.8685C3.90674 17.112 3.91111 17.2845 3.99564 17.3612C4.04454 17.4056 4.0982 17.442 4.11492 17.442C4.13169 17.442 4.39241 17.2925 4.69441 17.1099C4.99635 16.9272 5.27623 16.7624 5.31633 16.7435C5.35643 16.7247 5.45486 16.6659 5.53506 16.613C5.61526 16.56 5.72948 16.4952 5.78888 16.4689C5.84828 16.4426 5.9085 16.3709 5.92264 16.3096C5.93684 16.2483 5.95438 14.9032 5.96163 13.3204C5.97451 10.5015 5.97694 10.4373 6.07955 10.1846C6.57417 8.96618 7.7728 8.29575 8.97601 8.56451C9.68012 8.72176 10.406 9.30259 10.7136 9.95487C10.9715 10.5017 10.9995 10.8697 11.0015 13.7412C11.0029 15.6948 11.0169 16.2706 11.064 16.3094C11.1727 16.399 12.4192 17.1493 12.4592 17.1493C12.4807 17.1493 12.5254 17.1822 12.5587 17.2225C12.592 17.2627 12.6936 17.2956 12.7846 17.2956C12.9174 17.2956 12.9593 17.271 12.9974 17.1705C13.0263 17.0941 13.0451 15.8454 13.0457 13.9635C13.0463 12.2684 13.0664 10.7452 13.0904 10.5786C13.221 9.67236 14.0736 8.78483 15.0234 8.56622C15.6619 8.4193 16.3764 8.55529 16.9333 8.92974C17.4233 9.25928 17.7641 9.72397 17.9546 10.3225C18.0465 10.6111 18.0512 10.7661 18.0512 13.4655C18.0512 16.1093 18.0571 16.3101 18.1363 16.3783C18.183 16.4186 18.2542 16.4661 18.2943 16.4839C18.3344 16.5017 18.4328 16.5597 18.513 16.6128C18.5932 16.6658 18.6916 16.7246 18.7317 16.7434C18.7718 16.7622 19.0005 16.8963 19.2399 17.0416C19.7794 17.3689 19.8774 17.4078 19.9986 17.3427C20.0903 17.2935 20.0927 17.2034 20.0927 13.851C20.0927 9.97565 20.1082 10.1689 19.7189 9.1866C19.5956 8.87531 19.136 8.1841 18.857 7.89003C18.3125 7.31623 17.5333 6.83315 16.8118 6.62205C16.5368 6.54162 15.7778 6.4189 15.554 6.4187C15.2408 6.41846 14.4528 6.56552 14.0655 6.69653C13.3938 6.92373 12.9494 7.1998 12.3978 7.73273C12.2157 7.90862 12.0491 8.0589 12.0274 8.0667C12.0058 8.07446 11.8595 7.95622 11.7023 7.80399Z" fill="white"/>
<defs>
<linearGradient id="paint0_linear" x1="12" y1="0" x2="12" y2="24" gradientUnits="userSpaceOnUse">
<stop stop-color="#0058A3"/>
<stop offset="1" stop-color="#174889"/>
</linearGradient>
</defs>
</svg>
