<svg width="220" height="120" viewBox="0 0 220 120" fill="none" xmlns="http://www.w3.org/2000/svg">
<mask id="mask0" mask-type="alpha" maskUnits="userSpaceOnUse" x="0" y="0" width="220" height="120">
<rect width="220" height="120" fill="white"/>
</mask>
<g mask="url(#mask0)">
<path d="M177.292 53.3398C177.062 52.3372 176.643 51.4956 176.016 50.7658L176.012 50.7604C175.154 49.7915 174.063 49.1479 172.672 48.7919C171.387 48.4493 169.492 48.282 166.888 48.282C164.047 48.282 162.22 48.6176 160.921 49.1152C160.341 49.3271 159.715 49.7836 159.25 50.2227V49.2603H155.576V68.6697H159.267V56.341C159.267 53.1229 162.528 51.8521 165.776 51.8521H167.405C170.654 51.8521 173.945 53.1229 173.945 56.341V68.6697H177.588V58.0837C177.588 55.6801 177.497 54.2166 177.292 53.3398ZM160.914 49.1172C160.916 49.1172 160.918 49.1162 160.921 49.1152L160.922 49.1147L160.914 49.1172Z" fill="#ED1C26"/>
<path d="M115.174 48.225H118.848C118.891 46.2382 118.956 44.3445 119.17 43.4825C119.34 42.6221 119.725 41.8888 120.28 41.3294C120.92 40.5566 121.817 39.9946 122.969 39.607C124.08 39.3055 125.966 39.0465 128.444 39.005L131.894 39L128.573 42.2681C128.455 42.2681 127.282 42.2735 127.169 42.2735C122.283 42.2735 122.624 45.4287 122.624 48.225H131.217L127.743 51.7931H122.54L122.559 68.6395H118.848V51.7931H115.174V48.225Z" fill="#ED1C26"/>
<path d="M111.5 41.8419V45.6456H115.176V41.8419H111.5Z" fill="#ED1C26"/>
<path d="M147.379 73.2963L147.956 73.4469L146.872 74.9856L146.449 74.8593L147.379 73.2963Z" fill="#2F67BA"/>
<path fill-rule="evenodd" clip-rule="evenodd" d="M142.635 79.7821V73.1618H141.675V79.7821H142.635ZM137.631 75.1486V79.7821H136.672V75.1486H137.631ZM137.631 73.6039V74.3807H136.672V73.6039H137.631ZM132.135 75.66C131.558 75.66 131.163 75.7486 130.959 75.9159C130.827 76.0219 130.731 76.1813 130.695 76.3838C130.647 76.5957 130.622 76.8868 130.611 77.2487C130.622 77.2928 130.635 77.3631 130.635 77.4512C130.635 77.5577 130.622 77.6374 130.611 77.6993C130.622 78.0255 130.647 78.2904 130.683 78.4929C130.719 78.687 130.791 78.8375 130.887 78.9523C131.019 79.0934 131.21 79.182 131.487 79.2256C131.751 79.2613 132.086 79.2791 132.483 79.2791C132.831 79.2791 133.131 79.2613 133.383 79.2345C133.635 79.2083 133.803 79.1291 133.934 79.0226C134.151 78.8286 134.271 78.4226 134.271 77.7953V77.4512C134.271 77.0725 134.259 76.7546 134.223 76.4987C134.187 76.2422 134.091 76.0481 133.959 75.9333C133.827 75.8194 133.635 75.7303 133.383 75.704C133.119 75.6684 132.807 75.66 132.436 75.66H132.135ZM133.767 75.1654C134.139 75.2099 134.439 75.3243 134.667 75.4921C134.919 75.6862 135.087 75.9422 135.159 76.2684C135.219 76.5957 135.255 77.0106 135.255 77.5225C135.255 77.9988 135.219 78.3958 135.147 78.7221C135.075 79.0405 134.895 79.2964 134.595 79.5083C134.355 79.6588 134.043 79.7375 133.671 79.7732C133.299 79.8172 132.843 79.8351 132.315 79.8351C131.763 79.8351 131.307 79.7994 130.935 79.7291C130.562 79.6588 130.274 79.5083 130.071 79.2791C129.795 78.9791 129.65 78.432 129.65 77.6285C129.65 77.1254 129.675 76.7106 129.723 76.3927C129.771 76.0754 129.89 75.8194 130.095 75.6248C130.311 75.4129 130.598 75.2718 130.947 75.21C131.296 75.1486 131.739 75.0946 132.278 75.0946C132.891 75.0862 133.395 75.1218 133.767 75.1654ZM119.751 75.8724C120.05 75.3773 120.723 75.113 121.791 75.0946C122.319 75.0862 122.763 75.1565 123.135 75.2897C123.495 75.4219 123.723 75.6165 123.807 75.8724C124.143 75.3773 124.875 75.113 126.015 75.0946C126.471 75.0862 126.844 75.1308 127.143 75.21C127.444 75.2897 127.671 75.4041 127.828 75.5457C127.983 75.6863 128.091 75.8541 128.151 76.0482C128.211 76.2423 128.247 76.4636 128.247 76.7106V79.7821H127.275V76.7992C127.275 76.4903 127.228 76.2601 127.155 76.1017C127.071 75.9333 126.951 75.8194 126.759 75.7571C126.567 75.6952 126.292 75.66 125.919 75.66C125.535 75.66 125.199 75.6863 124.924 75.7397C124.647 75.7922 124.419 75.9076 124.239 76.0838C124.06 76.2601 123.975 76.5254 123.975 76.8695V79.7821H123.039V76.7106C123.039 76.419 123.003 76.2066 122.931 76.0576C122.859 75.916 122.728 75.8105 122.523 75.7486C122.319 75.6863 122.019 75.66 121.611 75.66C121.035 75.66 120.579 75.7571 120.242 75.9521C119.907 76.1546 119.739 76.5081 119.739 77.0195V79.7821H118.767V75.1486H119.739V75.8724H119.751ZM132.97 81.0001V80.2238H132.01V81.0001H132.97ZM148.479 79.1821C148.312 79.4375 148.047 79.6148 147.699 79.7024C147.35 79.791 146.932 79.8351 146.439 79.8351C145.683 79.8351 145.131 79.7113 144.771 79.4548C144.411 79.191 144.231 78.7934 144.231 78.2637V75.1486H145.203V78.1934C145.203 78.4587 145.227 78.6523 145.262 78.7667C145.299 78.882 145.371 78.9791 145.479 79.0588C145.67 79.2083 146.067 79.288 146.655 79.2791C146.907 79.2791 147.111 79.2613 147.279 79.2434C147.435 79.2345 147.603 79.1994 147.759 79.1469C147.915 79.1023 148.059 79.0315 148.179 78.9345C148.395 78.7667 148.503 78.4409 148.503 77.9725V75.1486H149.463V79.7821H148.503V79.1642L148.479 79.1821ZM155.223 76.1453C155.271 76.2775 155.296 76.4191 155.296 76.5607V76.6577H156.256C156.256 76.3929 156.232 76.1547 156.147 75.9334C156.075 75.7215 155.896 75.5457 155.643 75.4042C155.475 75.3066 155.223 75.2363 154.9 75.1833C154.563 75.122 154.192 75.0947 153.771 75.0947C153.399 75.0947 153.088 75.1041 152.835 75.122C152.583 75.1398 152.32 75.1833 152.067 75.2546C151.815 75.3343 151.6 75.466 151.419 75.625C151.263 75.7304 151.155 75.8631 151.083 76.0141C151.011 76.1636 150.963 76.3483 150.939 76.5869C150.903 76.8251 150.867 77.1335 150.879 77.5226C150.891 78.0969 150.939 78.5113 151 78.7584C151.059 79.0143 151.228 79.2347 151.479 79.4203C151.647 79.5352 151.827 79.6238 152.031 79.6852C152.235 79.7471 152.451 79.7911 152.691 79.809C152.931 79.8352 153.243 79.8535 153.627 79.8535C154.695 79.8614 155.44 79.7203 155.835 79.455C156.184 79.2173 156.351 78.8376 156.351 78.3173V78.1138H155.416V78.2638C155.416 78.6797 155.331 78.944 155.151 79.0589C155.019 79.1376 154.863 79.1995 154.659 79.2257C154.456 79.253 154.143 79.2614 153.723 79.2614C152.968 79.2614 152.475 79.1822 152.248 79.0228C152.104 78.9173 152.019 78.7757 151.971 78.6084C151.899 78.441 151.863 78.2108 151.851 77.937C151.863 77.8133 151.875 77.6375 151.875 77.3994C151.875 77.2399 151.863 77.1167 151.851 77.037C151.863 76.7458 151.899 76.5082 151.947 76.3305C151.995 76.1636 152.079 76.0309 152.211 75.9334C152.367 75.8106 152.535 75.7304 152.715 75.6953C152.895 75.6774 153.159 75.6601 153.495 75.6601H153.723C154.36 75.6601 154.78 75.7215 154.996 75.8369C155.103 75.8978 155.176 76.0042 155.223 76.1453ZM162.407 77.6993H159.288V77.0369H162.407V77.6993ZM168.644 75.0946C167.577 75.113 166.903 75.3773 166.605 75.8724H166.593V75.1486H165.621V79.7821H166.593V77.0195C166.593 76.5081 166.76 76.1546 167.097 75.9521C167.432 75.7571 167.889 75.66 168.465 75.66C168.872 75.66 169.173 75.6863 169.377 75.7486C169.581 75.8105 169.713 75.916 169.785 76.0576C169.857 76.2066 169.893 76.419 169.893 76.7106V79.7821H170.829V76.8695C170.829 76.5254 170.913 76.2601 171.093 76.0838C171.273 75.9076 171.501 75.7922 171.776 75.7397C172.053 75.6863 172.389 75.66 172.773 75.66C173.144 75.66 173.421 75.6952 173.613 75.7571C173.805 75.8194 173.924 75.9333 174.009 76.1017C174.081 76.2601 174.128 76.4903 174.128 76.7992V79.7821H175.102V76.7106C175.102 76.4636 175.064 76.2423 175.005 76.0482C174.944 75.8541 174.837 75.6863 174.681 75.5457C174.525 75.4041 174.297 75.2897 173.997 75.21C173.696 75.1308 173.325 75.0862 172.869 75.0946C171.729 75.113 170.996 75.3773 170.661 75.8724C170.576 75.6165 170.349 75.4219 169.988 75.2897C169.616 75.1565 169.173 75.0862 168.644 75.0946ZM178.989 75.66C178.414 75.66 178.018 75.7486 177.813 75.9159C177.682 76.0219 177.585 76.1813 177.549 76.3838C177.501 76.5957 177.477 76.8868 177.465 77.2487C177.477 77.2928 177.489 77.3631 177.489 77.4512C177.489 77.5577 177.477 77.6374 177.465 77.6993C177.477 78.0255 177.501 78.2904 177.537 78.4929C177.573 78.687 177.646 78.8375 177.741 78.9523C177.874 79.0934 178.065 79.182 178.341 79.2256C178.605 79.2613 178.941 79.2791 179.338 79.2791C179.686 79.2791 179.985 79.2613 180.238 79.2345C180.491 79.2083 180.657 79.1291 180.79 79.0226C181.006 78.8286 181.125 78.4226 181.125 77.7953V77.4512C181.125 77.0725 181.113 76.7546 181.077 76.4987C181.042 76.2422 180.946 76.0481 180.814 75.9333C180.682 75.8194 180.491 75.7303 180.238 75.704C179.973 75.6684 179.662 75.66 179.29 75.66H178.989ZM180.621 75.1654C180.994 75.2099 181.294 75.3243 181.522 75.4921C181.774 75.6862 181.942 75.9422 182.014 76.2684C182.075 76.5957 182.109 77.0106 182.109 77.5225C182.109 77.9988 182.075 78.3958 182.002 78.7221C181.929 79.0405 181.751 79.2964 181.45 79.5083C181.209 79.6588 180.897 79.7375 180.526 79.7732C180.154 79.8172 179.697 79.8351 179.169 79.8351C178.617 79.8351 178.161 79.7994 177.789 79.7291C177.417 79.6588 177.129 79.5083 176.926 79.2791C176.65 78.9791 176.505 78.432 176.505 77.6285C176.505 77.1254 176.53 76.7106 176.578 76.3927C176.627 76.0754 176.745 75.8194 176.95 75.6248C177.165 75.4129 177.453 75.2718 177.801 75.21C178.15 75.1486 178.593 75.0946 179.133 75.0946C179.745 75.0862 180.249 75.1218 180.621 75.1654ZM179.825 81.0001V80.2238H178.865V81.0001H179.825ZM184.486 75.1486V79.7821H183.526V75.1486H184.486ZM184.486 73.6039V74.3807H183.526V73.6039H184.486ZM189.955 75.3343C189.752 75.4219 189.608 75.5457 189.511 75.713H189.488V75.1486H188.551V79.7821H189.488V77.0195C189.488 76.4903 189.621 76.1368 189.895 75.9521C190.076 75.8284 190.268 75.7486 190.496 75.713C190.724 75.6774 191.024 75.66 191.396 75.66C191.78 75.66 192.08 75.6863 192.297 75.7397C192.5 75.7922 192.657 75.8897 192.764 76.0308C192.872 76.1719 192.92 76.3749 192.92 76.6487V79.7821H193.856V76.6309C193.856 76.2512 193.784 75.9596 193.628 75.7397C193.473 75.5189 193.207 75.3521 192.848 75.2451C192.488 75.1486 191.997 75.104 191.371 75.104C191.084 75.104 190.82 75.1219 190.592 75.1565C190.364 75.1833 190.149 75.2451 189.955 75.3343ZM197.792 75.66C197.217 75.66 196.821 75.7486 196.616 75.9159C196.484 76.0219 196.389 76.1813 196.352 76.3838C196.305 76.5957 196.28 76.8868 196.268 77.2487C196.28 77.2928 196.293 77.3631 196.293 77.4512C196.293 77.5577 196.28 77.6374 196.268 77.6993C196.28 78.0255 196.305 78.2904 196.341 78.4929C196.376 78.687 196.449 78.8375 196.545 78.9523C196.676 79.0934 196.869 79.182 197.145 79.2256C197.409 79.2613 197.745 79.2791 198.141 79.2791C198.489 79.2791 198.788 79.2613 199.041 79.2345C199.293 79.2083 199.46 79.1291 199.593 79.0226C199.809 78.8286 199.93 78.4226 199.93 77.7953V77.4512C199.93 77.0725 199.918 76.7546 199.88 76.4987C199.845 76.2422 199.75 76.0481 199.617 75.9333C199.486 75.8194 199.293 75.7303 199.041 75.704C198.776 75.6684 198.465 75.66 198.093 75.66H197.792ZM197.974 75.0946C198.585 75.0946 199.089 75.1218 199.46 75.1654C199.833 75.2099 200.133 75.3243 200.361 75.4921C200.612 75.6862 200.78 75.9422 200.853 76.2684C201.301 76.2684 201.268 75.7265 201.255 75.512C201.253 75.4849 201.252 75.463 201.252 75.4481H201.985C201.888 76.4635 201.393 76.7814 200.89 76.7992C200.913 77.0634 200.913 77.2396 200.913 77.522V77.5225C200.913 77.9988 200.876 78.3958 200.805 78.7221C200.733 79.0405 200.553 79.2964 200.253 79.5083C200.014 79.6588 199.701 79.7375 199.328 79.7732C198.957 79.8172 198.501 79.8351 197.974 79.8351C197.421 79.8351 196.965 79.7994 196.593 79.7291C196.221 79.6588 195.932 79.5083 195.728 79.2791C195.454 78.9791 195.309 78.432 195.309 77.6285C195.309 77.1254 195.333 76.7106 195.381 76.3927C195.428 76.0754 195.549 75.8194 195.752 75.6248C195.969 75.4129 196.257 75.2718 196.605 75.2099C196.953 75.1486 197.398 75.0946 197.937 75.0946H197.974ZM203.288 79.7821V75.1486H202.329V79.7821H203.288ZM203.288 74.3807V73.6039H202.329V74.3807H203.288Z" fill="#2F67BA"/>
<path d="M78.4747 54.0305C78.133 53.1923 77.5399 52.6492 76.6243 52.3294C75.6733 52.0214 74.0031 51.8432 71.0834 51.8006C68.1638 51.8432 66.4936 52.0214 65.5426 52.3294C64.627 52.6492 64.0334 53.1923 63.6922 54.0305C63.4207 54.6721 63.1119 56.2361 63.1119 58.4908C63.1119 60.7454 63.4207 62.3084 63.6922 62.951C64.0334 63.7897 64.627 64.3318 65.5426 64.6527C66.4936 64.9611 68.1638 65.1393 71.0834 65.1819C74.0031 65.1393 75.6733 64.9611 76.6243 64.6527C77.5399 64.3318 78.133 63.7897 78.4747 62.951C78.7471 62.3084 79.0545 60.7454 79.0545 58.4908C79.0545 56.2361 78.7471 54.6721 78.4747 54.0305ZM83.1215 58.4908C83.1215 60.7974 82.8539 62.6951 82.3247 64.115C81.79 65.5928 79.9608 68.9272 71.0834 68.9272C62.2061 68.9272 60.3778 65.5928 59.8432 64.115C59.314 62.6951 59.0459 60.7974 59.0459 58.4908C59.0459 56.1831 59.314 54.2865 59.8432 52.8665C60.3778 51.3887 62.2061 48.0543 71.0834 48.0543C79.9608 48.0543 81.79 51.3887 82.3247 52.8665C82.8539 54.2865 83.1215 56.1831 83.1215 58.4908Z" fill="#2F67BA"/>
<path d="M148.23 54.0305C147.888 53.1923 147.295 52.6492 146.38 52.3294C145.429 52.0214 143.759 51.8432 140.839 51.8006C137.919 51.8432 136.249 52.0214 135.299 52.3294C134.382 52.6492 133.788 53.1923 133.448 54.0305C133.176 54.6721 132.868 56.2361 132.868 58.4908C132.868 60.7454 133.176 62.3084 133.448 62.951C133.788 63.7897 134.382 64.3318 135.299 64.6527C136.249 64.9611 137.919 65.1393 140.839 65.1819C143.759 65.1393 145.429 64.9611 146.38 64.6527C147.295 64.3318 147.888 63.7897 148.23 62.951C148.502 62.3084 148.81 60.7454 148.81 58.4908C148.81 56.2361 148.502 54.6721 148.23 54.0305ZM152.877 58.4908C152.877 60.7974 152.609 62.6951 152.08 64.115C151.545 65.5928 149.717 68.9272 140.839 68.9272C131.962 68.9272 130.133 65.5928 129.598 64.115C129.069 62.6951 128.801 60.7974 128.801 58.4908C128.801 56.1831 129.069 54.2865 129.598 52.8665C130.133 51.3887 131.962 48.0543 140.839 48.0543C149.717 48.0543 151.545 51.3887 152.08 52.8665C152.609 54.2865 152.877 56.1831 152.877 58.4908Z" fill="#ED1C26"/>
<path d="M81.7687 67.1799C81.7682 67.1809 81.7667 67.182 81.7656 67.183L81.7718 67.1779C81.7708 67.1794 81.7697 67.1794 81.7687 67.1799Z" fill="#919392"/>
<path d="M56.1014 53.3062C55.8687 52.3056 55.4475 51.4634 54.8156 50.7322L54.8107 50.7262C53.9472 49.7584 52.846 49.1152 51.4443 48.7598C50.1482 48.4172 48.2777 48.2498 45.6516 48.2498C42.7874 48.2498 40.8428 48.481 39.532 48.9791L39.531 48.9796C39.529 48.9801 39.5275 48.9811 39.5256 48.9811C38.443 49.3756 37.5426 50.1074 36.8789 51.1114C36.1061 50.0604 35.1429 49.3415 33.9474 48.935C32.5885 48.4736 30.0631 48.2498 26.8753 48.2498C24.4824 48.2498 22.8388 48.4206 21.8509 48.7731L21.8413 48.7766C21.0965 49.0598 20.3836 49.54 19.6829 50.2223C19.6829 49.6143 19.6829 49.2276 19.6829 49.2276H16V68.6361H19.6714V56.3089C19.6714 53.0903 22.9126 51.8189 26.1885 51.8189H27.8311C31.1064 51.8189 34.3814 53.0903 34.3814 56.3089V68.6361H38.0503V56.3089C38.0503 53.0903 41.2547 51.8189 44.5298 51.8189H46.173C49.4476 51.8189 52.7321 53.0903 52.7321 56.3089V68.6361H56.399V58.0511C56.399 55.6469 56.3072 54.1839 56.1014 53.3062ZM39.5295 48.9796H39.531H39.5295ZM39.5329 48.9781C39.532 48.9791 39.5315 48.9796 39.531 48.9796C39.5315 48.9796 39.5315 48.9791 39.5315 48.9791L39.5329 48.9781Z" fill="#2F67BA"/>
<path d="M186.422 52.3294C187.372 52.0214 189.044 51.8432 191.963 51.8006C194.883 51.8432 196.553 52.0214 197.504 52.3294C198.419 52.6492 199.013 53.1923 199.355 54.0305C199.532 54.4503 199.725 55.2687 199.838 56.4153H184.088C184.2 55.2687 184.394 54.4503 184.572 54.0305C184.913 53.1923 185.506 52.6492 186.422 52.3294ZM202.081 59.9097H203.96C203.985 59.4542 204 58.9839 204 58.4908C204 56.1831 203.734 54.2865 203.204 52.8665C202.668 51.3887 200.84 48.0543 191.963 48.0543C183.086 48.0543 181.257 51.3887 180.722 52.8665C180.193 54.2865 179.925 56.1831 179.925 58.4908C179.925 60.7974 180.193 62.6951 180.722 64.115C181.257 65.5928 183.086 68.9272 191.963 68.9272C200.84 68.9272 202.668 65.5928 203.204 64.115C203.252 63.9863 203.295 63.8501 203.339 63.714H198.906C198.563 64.1353 198.104 64.4427 197.504 64.6527C196.553 64.9611 194.883 65.1393 191.963 65.1819C189.044 65.1393 187.372 64.9611 186.422 64.6527C185.506 64.3318 184.913 63.7897 184.572 62.951C184.362 62.4569 184.132 61.4133 184.037 59.9305H202.081V59.9097Z" fill="#ED1C26"/>
<path d="M111.5 48.2246V68.6361H115.176V48.2246H111.5Z" fill="#2F67BA"/>
<path d="M104.266 62.952C103.924 63.7897 103.331 64.3323 102.415 64.6526C101.464 64.962 99.7938 65.1393 96.8746 65.1823C93.9555 65.1393 92.8047 64.962 91.8547 64.6526C90.9386 64.3323 90.3446 63.7897 90.0038 62.952C89.7893 62.444 89.5522 61.3597 89.4623 59.8151V57.1673C89.5522 55.6231 89.7893 54.5384 90.0038 54.0309C90.3446 53.1928 90.9386 52.6496 91.8547 52.3298C92.8047 52.0224 93.9555 51.8431 96.8746 51.8006C99.7938 51.8431 101.464 52.0224 102.415 52.3298C103.331 52.6496 103.924 53.1928 104.266 54.0309C104.538 54.6731 104.846 56.2371 104.846 58.4912C104.846 60.7458 104.538 62.3093 104.266 62.952ZM108.115 52.8675C107.58 51.3887 105.752 48.0547 96.8746 48.0547C93.4758 48.0547 91.1163 48.5449 89.4623 49.2306V39.0035H85.7915V68.6895H89.4623V67.7514C91.1163 68.4371 93.4758 68.9267 96.8746 68.9267C105.752 68.9267 107.58 65.5938 108.115 64.1159C108.645 62.696 108.912 60.7983 108.912 58.4912C108.912 56.1841 108.645 54.2869 108.115 52.8675Z" fill="#2F67BA"/>
</g>
</svg>
