<svg width="24" height="24" viewBox="0 0 24 24" fill="none" xmlns="http://www.w3.org/2000/svg">
<path d="M0.125 0.125002V23.875H23.875V0.125002H0.125Z" fill="white" stroke="#EEEEEE" stroke-width="0.25"/>
<path d="M4.69622 11.6157C5.4392 10.7037 6.30359 9.7576 7.40492 8.69971C8.50722 7.64112 9.48951 6.81307 10.4394 6.10057C11.4913 5.3115 12.8311 5.28393 13.8629 6.09638C14.8131 6.80957 15.7965 7.63734 16.8994 8.69621C18.0017 9.75494 18.8645 10.6991 19.6069 11.6118C20.4816 12.6844 20.4791 13.8228 19.6036 14.8956C18.8616 15.8083 17.9976 16.7524 16.8963 17.8116C15.793 18.8693 14.8131 19.6935 13.8632 20.4082C12.8105 21.1987 11.4973 21.1978 10.4436 20.4082C9.493 19.6924 8.5107 18.8665 7.40909 17.8082C6.30637 16.7496 5.44575 15.8083 4.70262 14.8956C3.88264 13.8879 3.85438 12.6081 4.69622 11.6157" fill="#0B004A"/>
<path d="M3.92584 13.4713C4.02176 13.9845 4.26246 14.4105 4.66006 14.898C5.40374 15.8098 6.30711 16.7518 7.40983 17.8106C8.51144 18.8689 9.49373 19.6948 10.4443 20.4095C10.8887 20.7439 11.3884 20.9396 11.88 20.9878C10.8697 20.7422 9.38807 19.1872 10.1741 16.3751C10.9222 13.7046 12.1252 11.7503 12.7299 10.5517L12.7473 10.5168C13.9699 8.21443 12.2431 7.42787 10.8866 8.58349C11.8495 7.26039 14.0476 5.09783 14.8138 4.30723C15.5762 3.51329 15.0316 2.69958 13.514 3.10999C10.3906 4.05289 6.50702 6.9906 4.69612 10.4426C4.09053 11.5968 3.8341 12.5989 3.92584 13.4713Z" fill="#F00000"/>
</svg>
