<svg width="78" height="32" viewBox="0 0 78 32" fill="none" xmlns="http://www.w3.org/2000/svg">
<mask id="mask0" mask-type="alpha" maskUnits="userSpaceOnUse" x="0" y="0" width="78" height="32">
<rect width="78" height="32" fill="white"/>
</mask>
<g mask="url(#mask0)">
<path d="M2.05805 15.145C3.3259 13.6043 4.80089 12.0059 6.68022 10.2187C8.5612 8.43035 10.2374 7.03145 11.8583 5.82776C13.6533 4.49471 15.9395 4.44814 17.7003 5.82068C19.3216 7.02555 20.9997 8.42397 22.8817 10.2128C24.7626 12.0014 26.235 13.5965 27.5019 15.1384C28.9945 16.9505 28.9902 18.8736 27.4962 20.686C26.23 22.2279 24.7558 23.8229 22.8764 25.6122C20.9938 27.3992 19.3216 28.7915 17.7008 29.999C15.9044 31.3344 13.6635 31.333 11.8654 29.999C10.2433 28.7896 8.56714 27.3945 6.68734 25.6066C4.80565 23.8182 3.33707 22.2279 2.06898 20.686C0.669761 18.9837 0.621537 16.8216 2.05805 15.145" fill="#0B004A"/>
<path d="M1.0307 18.464C1.19313 19.3198 1.60072 20.0303 2.27399 20.8434C3.53332 22.3642 5.06305 23.9352 6.93035 25.7011C8.79577 27.4662 10.4592 28.8435 12.0688 30.0355C12.8213 30.5932 13.6676 30.9197 14.5 31C12.7892 30.5904 10.2802 27.997 11.6112 23.3069C12.8781 18.8532 14.9151 15.5938 15.9392 13.5947L15.9687 13.5364C18.0389 9.69659 15.1148 8.38476 12.8177 10.3121C14.4484 8.10545 18.1705 4.49873 19.468 3.18016C20.7589 1.85603 19.8367 0.498926 17.2669 1.1834C11.9778 2.75597 5.40157 7.65548 2.33505 13.4127C1.30958 15.3377 0.875343 17.0089 1.0307 18.464Z" fill="#F00000"/>
<path fill-rule="evenodd" clip-rule="evenodd" d="M74.9651 19.4991H72.8289V17.7347H77.0001V23.471L76.8037 23.54C75.888 23.8505 74.8465 24 73.6172 24C70.2459 24 67.9813 21.7742 67.9813 18.4567C67.9813 15.2444 70.3049 13 73.6315 13C75.1762 13 75.8839 13.2407 76.7026 13.5223L76.9169 13.5955L76.7455 15.7643L76.3322 15.4967C75.7327 15.1085 75.0554 14.8512 73.7026 14.8512C71.5857 14.8512 70.1054 16.352 70.1054 18.5034C70.1054 20.6153 71.5879 22.1519 73.6315 22.1519C74.388 22.1519 74.6904 22.0932 74.9651 22.0345V19.4991ZM55.0087 14.6937C54.2804 14.6937 53.3414 15.0073 53.3414 16.154C53.3414 16.9181 54.1534 17.2282 55.0981 17.5889C56.4119 18.0905 57.9823 18.6902 57.9823 20.7452C57.9823 23.0542 56.1477 23.9271 54.0075 23.9271C52.9404 23.9271 52.421 23.7988 51.5203 23.5764L51.293 23.5204L51.4889 21.6172C52.215 22.0101 53.0515 22.2636 53.8859 22.2636C54.6916 22.2636 55.7674 21.861 55.7674 20.9094C55.7674 20.0442 54.9043 19.7067 53.9225 19.3228C52.6274 18.8163 51.1257 18.2291 51.1257 16.2435C51.1257 13.8905 52.9589 13.0305 54.8271 13.0305C55.737 13.0305 56.587 13.1524 57.3618 13.4091L57.1637 15.1435C56.4971 14.8583 55.7549 14.6937 55.0087 14.6937ZM40.9208 21.1987H40.9449L40.945 21.1987L43.4663 13.2139H46.8675V23.7505H44.8312V15.0572H44.8039L41.9479 23.7505H39.9142L37.0659 15.0572L37.0346 15.0859V23.7505H35V13.2139H38.3961L40.9208 21.1987ZM62.2563 23.5372H64.3822V13.0005H62.2563V23.5372Z" fill="black"/>
</g>
</svg>
