<svg width="220" height="120" viewBox="0 0 220 120" fill="none" xmlns="http://www.w3.org/2000/svg">
<mask id="mask0" mask-type="alpha" maskUnits="userSpaceOnUse" x="0" y="0" width="220" height="120">
<rect width="220" height="120" rx="3" fill="white"/>
</mask>
<g mask="url(#mask0)">
<path fill-rule="evenodd" clip-rule="evenodd" d="M91.6708 45.3792H96.6283V74.6471C94.0571 76.1958 91.1097 77.008 88.1082 76.9949C82.6553 76.9949 77.4297 73.549 77.4297 67.0012C77.4297 60.8289 81.6329 56.512 87.578 56.512C89.0257 56.4923 90.449 56.8864 91.6803 57.648L91.6708 45.3792ZM91.6708 62.1037C90.7999 61.1949 89.1716 60.6269 87.7295 60.6269C84.6276 60.6269 82.6585 63.2397 82.6585 66.9886C82.6585 70.5828 85.183 72.9305 88.1113 72.9305C89.1716 72.9305 90.5695 72.779 91.6708 72.0974V62.1037ZM148.474 73.2458C145.862 75.7703 142.479 77.0704 138.099 77.0704C128.948 77.0704 122.157 70.2196 122.157 62.1161C122.157 54.0126 128.443 47.1208 137.619 47.1208C143.905 47.1208 147.578 50.3016 148.26 51.2483L145.42 54.6437C143.375 52.7125 140.762 51.9678 137.354 51.9678C131.788 51.9678 127.925 56.1521 127.925 62.0972C127.925 62.3663 127.547 62.8338 127.164 63.3058C126.753 63.8135 126.338 64.3263 126.385 64.6027C126.422 64.8207 126.899 64.8563 127.375 64.8919C127.837 64.9264 128.299 64.9609 128.361 65.1612C129.026 67.2272 130.334 69.0267 132.093 70.2971C133.853 71.5675 135.973 72.2424 138.143 72.2234C142.536 72.2234 145.085 70.5951 146.032 69.7242L148.474 73.2458ZM167.518 74.6057C166.041 75.7796 163.201 76.9913 158.733 76.9913C152.788 76.9913 150.062 73.6969 150.062 69.9481C150.062 65.5303 154.303 63.8547 157.951 63.8547C159.276 63.8547 161.699 64.3091 162.798 65.1421V63.1731C162.798 61.5953 161.624 60.4845 158.973 60.4845C157.127 60.5042 155.304 60.8904 153.608 61.6205L152.17 58.1494C154.425 57.0639 156.899 56.507 159.402 56.5211C165.84 56.5211 167.544 59.5883 167.544 64.3596L167.518 74.6057ZM162.785 68.7742C161.632 67.8893 160.224 67.3992 158.771 67.3763C156.878 67.3763 155.174 68.323 155.174 70.0238C155.174 72.0308 156.688 73.3182 159.112 73.3182C160.383 73.3632 161.645 73.091 162.785 72.5262V68.7742ZM171.52 57.0799V76.4268H176.43V65.7514C176.43 63.8202 177.591 61.1695 179.8 61.1695C181.012 61.1695 181.845 61.7376 182.451 62.1541L184.155 57.4965C183.114 56.8496 181.908 56.5206 180.683 56.5498C178.411 56.5498 176.897 59.1626 176.442 60.1471V57.0799H171.52ZM203.281 74.6059C202.258 75.4768 199.305 76.9915 194.988 76.9915C188.588 76.9915 184.274 73.0154 184.274 66.8084C184.274 60.9012 188.588 56.5086 194.609 56.5086C200.895 56.5086 204 61.2798 204 66.7327V68.626H189.27C189.8 72.2202 193.056 73.0438 196.086 73.0438C199.039 73.0438 201.135 71.8321 201.842 71.1505L203.281 74.6059ZM199.039 64.9182C199.002 62.4569 197.335 60.3742 194.647 60.3742C191.807 60.3742 189.841 62.0782 189.282 64.9182H199.039ZM16 47.7649V76.4271H21.3771V66.5091H23.3841C31.1846 66.5091 34.8199 62.7224 34.8199 57.0045C34.8199 49.9234 29.5942 47.7649 22.3995 47.7649H16ZM29.1272 57.0045C29.1272 59.8445 27.196 61.6242 23.2578 61.6242H21.3771V52.6498H23.8637C27.4611 52.6498 29.1272 54.3917 29.1272 57.0045ZM52.9424 74.6057C51.4656 75.7796 48.6255 76.9913 44.1572 76.9913C38.2121 76.9913 35.4857 73.6969 35.4857 69.9481C35.4857 65.5303 39.7268 63.8547 43.3747 63.8547C44.7 63.8547 47.1235 64.3091 48.2216 65.1421V63.1731C48.2216 61.5953 47.0478 60.4845 44.3971 60.4845C42.5513 60.5042 40.7279 60.8904 39.0326 61.6205L37.5936 58.1494C39.8494 57.0639 42.3229 56.507 44.8262 56.5211C51.2636 56.5211 52.9676 59.5883 52.9676 64.3596L52.9424 74.6057ZM48.209 68.7742C47.0559 67.8893 45.6485 67.3992 44.1951 67.3763C42.3018 67.3763 40.5978 68.323 40.5978 70.0238C40.5978 72.0308 42.1124 73.3182 44.5359 73.3182C45.8073 73.3622 47.0697 73.0889 48.209 72.523V68.7742ZM69.4492 66.0859V76.4267L74.4098 76.4299V63.492C74.4098 58.6451 72.1756 56.5245 68.0481 56.5245C65.0945 56.5245 62.8603 58.1402 61.9137 59.049V57.0799H56.9531V76.4204H61.9137V63.0187C62.4438 62.2235 64.3371 60.8603 66.0412 60.8603C69.0326 60.8603 69.4492 62.9051 69.4492 66.0859ZM108.121 76.9913C112.589 76.9913 115.429 75.7796 116.906 74.6057L116.918 64.3596C116.918 59.5883 115.214 56.5211 108.777 56.5211C106.275 56.5069 103.802 57.0638 101.548 58.1494L102.983 61.6205C104.679 60.8904 106.502 60.5042 108.348 60.4845C110.999 60.4845 112.172 61.5953 112.172 63.1731V65.1421C111.074 64.3091 108.651 63.8547 107.325 63.8547C103.693 63.8547 99.4523 65.5303 99.4523 69.9481C99.4523 73.6969 102.176 76.9913 108.121 76.9913ZM108.159 67.3763C109.612 67.3992 111.019 67.8893 112.172 68.7742V72.523C111.033 73.0889 109.771 73.3622 108.499 73.3183C106.076 73.3183 104.561 72.0308 104.561 70.0238C104.561 68.323 106.265 67.3763 108.159 67.3763Z" fill="#5858FF"/>
<path fill-rule="evenodd" clip-rule="evenodd" d="M135.926 55.3466C136.233 55.3349 136.491 55.5744 136.503 55.8816L136.945 67.4336L142.64 75.6782C142.672 75.7246 142.696 75.7741 142.713 75.8252L144.909 76.1838C142.05 78.3643 140.696 75.4959 140.696 75.4959L141.22 75.5815L136.044 68.0878L124.57 64.3688C124.277 64.274 124.117 63.96 124.212 63.6675C124.307 63.3751 124.621 63.2148 124.913 63.3096L135.808 66.841L135.391 55.9242C135.379 55.617 135.618 55.3584 135.926 55.3466Z" fill="#000095"/>
<path d="M119.554 56.2406C119.432 58.9665 119.776 61.6932 120.573 64.3031C120.738 64.8601 121.098 65.3391 121.587 65.6531C122.076 65.967 122.661 66.0949 123.236 66.0134L126.392 65.4738C127.105 65.3728 127.91 65.0667 128.307 64.4735C128.353 64.3995 128.382 64.3167 128.392 64.2305L128.708 61.7281C128.756 61.295 128.892 60.8762 129.106 60.4967C129.32 60.1171 129.609 59.7847 129.954 59.5192C130.211 59.312 130.52 59.1799 130.847 59.1374L135.331 58.7808C136.049 58.7187 136.721 58.4019 137.225 57.8878L138.721 56.3605C139.229 55.8437 139.907 55.5267 140.63 55.4675C145.508 55.0667 148.878 54.2557 148.872 53.3437C148.872 52.0815 146.398 43.6845 135.502 43.0155C135.502 43.0155 132.977 42.7915 129.115 44.0316C126.48 44.8722 124.159 46.4861 122.454 48.6635C120.749 50.8409 119.738 53.4811 119.554 56.2406Z" fill="#D70F64"/>
<path d="M132.122 52.0911C132.089 52.0911 132.057 52.1009 132.029 52.1193C132.002 52.1377 131.98 52.1638 131.968 52.1943C131.955 52.2249 131.952 52.2585 131.958 52.291C131.964 52.3234 131.98 52.3532 132.004 52.3766C132.027 52.4 132.057 52.4159 132.089 52.4224C132.122 52.4288 132.155 52.4255 132.186 52.4129C132.217 52.4002 132.243 52.3788 132.261 52.3513C132.279 52.3238 132.289 52.2914 132.289 52.2583C132.289 52.214 132.272 52.1714 132.24 52.1401C132.209 52.1087 132.166 52.0911 132.122 52.0911ZM132.122 52.0911C132.089 52.0911 132.057 52.1009 132.029 52.1193C132.002 52.1377 131.98 52.1638 131.968 52.1943C131.955 52.2249 131.952 52.2585 131.958 52.291C131.964 52.3234 131.98 52.3532 132.004 52.3766C132.027 52.4 132.057 52.4159 132.089 52.4224C132.122 52.4288 132.155 52.4255 132.186 52.4129C132.217 52.4002 132.243 52.3788 132.261 52.3513C132.279 52.3238 132.289 52.2914 132.289 52.2583C132.289 52.214 132.272 52.1714 132.24 52.1401C132.209 52.1087 132.166 52.0911 132.122 52.0911ZM132.122 52.0911C132.089 52.0911 132.057 52.1009 132.029 52.1193C132.002 52.1377 131.98 52.1638 131.968 52.1943C131.955 52.2249 131.952 52.2585 131.958 52.291C131.964 52.3234 131.98 52.3532 132.004 52.3766C132.027 52.4 132.057 52.4159 132.089 52.4224C132.122 52.4288 132.155 52.4255 132.186 52.4129C132.217 52.4002 132.243 52.3788 132.261 52.3513C132.279 52.3238 132.289 52.2914 132.289 52.2583C132.289 52.214 132.272 52.1714 132.24 52.1401C132.209 52.1087 132.166 52.0911 132.122 52.0911ZM134.489 52.0911C134.456 52.0911 134.423 52.1009 134.396 52.1193C134.368 52.1377 134.347 52.1638 134.334 52.1943C134.322 52.2249 134.318 52.2585 134.325 52.291C134.331 52.3234 134.347 52.3532 134.37 52.3766C134.394 52.4 134.424 52.4159 134.456 52.4224C134.489 52.4288 134.522 52.4255 134.553 52.4129C134.583 52.4002 134.609 52.3788 134.628 52.3513C134.646 52.3238 134.656 52.2914 134.656 52.2583C134.656 52.2363 134.652 52.2143 134.644 52.1938C134.636 52.1733 134.624 52.1547 134.608 52.1391C134.592 52.1235 134.574 52.1112 134.553 52.1029C134.533 52.0947 134.511 52.0907 134.489 52.0911ZM134.489 52.0911C134.456 52.0911 134.423 52.1009 134.396 52.1193C134.368 52.1377 134.347 52.1638 134.334 52.1943C134.322 52.2249 134.318 52.2585 134.325 52.291C134.331 52.3234 134.347 52.3532 134.37 52.3766C134.394 52.4 134.424 52.4159 134.456 52.4224C134.489 52.4288 134.522 52.4255 134.553 52.4129C134.583 52.4002 134.609 52.3788 134.628 52.3513C134.646 52.3238 134.656 52.2914 134.656 52.2583C134.656 52.2363 134.652 52.2143 134.644 52.1938C134.636 52.1733 134.624 52.1547 134.608 52.1391C134.592 52.1235 134.574 52.1112 134.553 52.1029C134.533 52.0947 134.511 52.0907 134.489 52.0911ZM132.122 52.0911C132.089 52.0911 132.057 52.1009 132.029 52.1193C132.002 52.1377 131.98 52.1638 131.968 52.1943C131.955 52.2249 131.952 52.2585 131.958 52.291C131.964 52.3234 131.98 52.3532 132.004 52.3766C132.027 52.4 132.057 52.4159 132.089 52.4224C132.122 52.4288 132.155 52.4255 132.186 52.4129C132.217 52.4002 132.243 52.3788 132.261 52.3513C132.279 52.3238 132.289 52.2914 132.289 52.2583C132.289 52.214 132.272 52.1714 132.24 52.1401C132.209 52.1087 132.166 52.0911 132.122 52.0911ZM136.448 52.921C136.452 52.879 136.452 52.8368 136.448 52.7948C136.45 52.7854 136.45 52.7758 136.448 52.7664L136.429 52.6181C136.429 52.5581 136.407 52.495 136.395 52.4287L136.366 52.3088C136.366 52.2583 136.338 52.2078 136.325 52.1574C136.31 52.108 136.292 52.0595 136.272 52.0122C136.255 51.9628 136.236 51.9143 136.215 51.867C136.177 51.7716 136.133 51.6788 136.082 51.5894C136.032 51.501 135.978 51.4126 135.925 51.3274C135.93 51.3285 135.935 51.3285 135.94 51.3274C135.954 51.3164 135.967 51.3037 135.978 51.2896L135.994 51.2738L136.032 51.2296L136.051 51.2075C136.066 51.1901 136.078 51.1711 136.089 51.1507L136.12 51.0908C136.134 51.0648 136.145 51.0372 136.152 51.0087V50.974V50.9425V50.9046C136.153 50.8836 136.153 50.8625 136.152 50.8415C136.15 50.8331 136.15 50.8246 136.152 50.8162C136.152 50.7941 136.152 50.7721 136.152 50.7468C136.151 50.5256 136.062 50.3137 135.906 50.1576C135.749 50.0014 135.537 49.9137 135.316 49.9137H135.205C135.184 49.9122 135.163 49.9122 135.142 49.9137C135.117 49.9182 135.093 49.9245 135.069 49.9327H135.054L134.994 49.9548C134.968 49.9636 134.943 49.9763 134.921 49.9926L134.864 50.0273L134.814 50.0652C134.806 50.0684 134.799 50.0739 134.795 50.081L134.751 50.1189C134.751 50.1189 134.735 50.1189 134.732 50.1378L134.691 50.182L134.643 50.2482C134.596 50.2261 134.549 50.2009 134.498 50.182L134.356 50.1252L134.265 50.0936L134.179 50.0652L134.097 50.0431H134.037L133.952 50.0242L133.836 49.9989H133.795L133.681 49.9832H133.618H133.466H133.451H133.271C133.21 49.98 133.149 49.98 133.088 49.9832H133.072C133.021 49.98 132.971 49.98 132.92 49.9832C132.899 49.9799 132.878 49.9799 132.857 49.9832L132.747 49.9989H132.703L132.586 50.0242C132.558 50.0287 132.531 50.035 132.504 50.0431H132.441L132.359 50.0652C132.33 50.0718 132.303 50.0814 132.277 50.0936L132.182 50.1252C132.134 50.1414 132.086 50.1603 132.04 50.182L131.895 50.2482L131.848 50.182C131.836 50.1658 131.822 50.1509 131.806 50.1378L131.791 50.1189L131.743 50.0873C131.739 50.0802 131.732 50.0747 131.724 50.0715C131.709 50.0569 131.692 50.0442 131.674 50.0337H131.658L131.601 49.9989C131.579 49.9845 131.556 49.9718 131.532 49.9611L131.469 49.939C131.445 49.9308 131.421 49.9245 131.396 49.9201C131.375 49.9183 131.354 49.9183 131.333 49.9201H131.302C131.276 49.9155 131.249 49.9155 131.223 49.9201C131.001 49.9201 130.789 50.0077 130.633 50.1639C130.476 50.32 130.387 50.5319 130.386 50.7531C130.385 50.7762 130.385 50.7994 130.386 50.8226C130.385 50.8309 130.385 50.8395 130.386 50.8478C130.385 50.8688 130.385 50.8899 130.386 50.9109C130.385 50.9235 130.385 50.9362 130.386 50.9488V50.9803V51.015C130.395 51.0431 130.406 51.0705 130.418 51.0971C130.427 51.1177 130.438 51.1377 130.45 51.157L130.491 51.2138L130.506 51.2359L130.544 51.2801C130.543 51.2853 130.543 51.2907 130.544 51.2959L130.582 51.3338H130.598C130.542 51.4181 130.49 51.5055 130.443 51.5957C130.393 51.6857 130.348 51.7784 130.308 51.8734L130.251 52.0185C130.251 52.0658 130.216 52.1132 130.2 52.1637C130.182 52.2131 130.168 52.2637 130.156 52.3151L130.128 52.4351C130.128 52.4982 130.102 52.5613 130.093 52.6244L130.074 52.7727C130.076 52.7821 130.076 52.7917 130.074 52.8011V52.9273V53.1072C130.075 53.687 130.234 54.2556 130.535 54.7512L130.601 54.8554L130.689 54.9848C130.753 55.0668 130.816 55.1457 130.885 55.2214C130.954 55.2972 130.958 55.3003 130.992 55.335L131.169 55.5054L131.267 55.5843C131.494 55.765 131.745 55.9146 132.012 56.0293C132.106 56.0707 132.203 56.1065 132.302 56.1365C132.919 56.3277 133.579 56.3277 134.195 56.1365C134.296 56.105 134.391 56.0703 134.489 56.0293C134.756 55.9151 135.006 55.7654 135.233 55.5843L135.328 55.5054L135.508 55.335C135.544 55.3014 135.578 55.2635 135.612 55.2214C135.682 55.1462 135.747 55.0672 135.808 54.9848L135.896 54.8554L135.962 54.7512C136.264 54.256 136.424 53.6871 136.423 53.1072C136.455 53.0441 136.452 52.9841 136.448 52.921ZM133.293 53.1608C133.435 53.1608 133.842 53.1861 133.842 53.3186C133.842 53.5553 133.34 53.7257 133.293 53.7099C133.245 53.6941 132.741 53.5553 132.741 53.3186C132.728 53.1861 133.138 53.1482 133.283 53.1482L133.293 53.1608ZM131.447 51.7314C131.721 51.5483 132.333 51.4379 132.57 51.7566C132.652 51.8462 132.698 51.9633 132.698 52.0848C132.698 52.2063 132.652 52.3234 132.57 52.413C132.31 52.6748 132.107 52.9888 131.977 53.3344C131.911 53.6058 131.803 53.7194 131.582 53.7225C131.385 53.6695 131.211 53.5543 131.084 53.3939C130.958 53.2335 130.887 53.0367 130.882 52.8327C130.869 52.6164 130.913 52.4004 131.011 52.207C131.108 52.0135 131.256 51.8494 131.437 51.7314H131.447ZM134.069 53.9055C134.069 54.1148 133.986 54.3154 133.838 54.4634C133.69 54.6113 133.489 54.6944 133.28 54.6944C133.071 54.6944 132.87 54.6113 132.722 54.4634C132.574 54.3154 132.491 54.1148 132.491 53.9055H134.069ZM134.99 53.7225C134.773 53.7225 134.675 53.6089 134.596 53.3344C134.468 52.9875 134.266 52.673 134.003 52.413C133.92 52.3237 133.874 52.2065 133.874 52.0848C133.874 51.9631 133.92 51.8459 134.003 51.7566C134.243 51.441 134.852 51.5483 135.126 51.7314C135.308 51.8493 135.455 52.0135 135.552 52.207C135.649 52.4006 135.693 52.6166 135.678 52.8327C135.673 53.0363 135.603 53.2328 135.477 53.3931C135.351 53.5534 135.178 53.669 134.981 53.7225H134.99ZM135.375 50.1125C135.532 50.1134 135.682 50.1762 135.793 50.2874C135.903 50.3986 135.966 50.549 135.966 50.7058C135.966 50.7866 135.949 50.8665 135.916 50.9405C135.884 51.0144 135.836 51.0806 135.776 51.135L135.738 51.0908L135.641 50.9772C135.609 50.9374 135.574 50.9004 135.536 50.8667L135.426 50.7626L135.312 50.6616L135.189 50.5701L135.076 50.4881C135.036 50.4595 134.995 50.4332 134.953 50.4092L134.902 50.3776C134.953 50.3001 135.022 50.2356 135.102 50.1896C135.183 50.1435 135.273 50.1171 135.366 50.1125H135.375ZM130.642 50.6995C130.642 50.543 130.704 50.3929 130.815 50.2822C130.926 50.1716 131.076 50.1094 131.232 50.1094C131.327 50.109 131.421 50.1318 131.505 50.1758C131.589 50.2198 131.661 50.2837 131.715 50.3618L131.664 50.3934C131.623 50.4175 131.583 50.4438 131.545 50.4723C131.504 50.4975 131.466 50.5259 131.428 50.5543L131.308 50.6458C131.267 50.6774 131.229 50.7121 131.191 50.7468C131.153 50.7791 131.117 50.8139 131.084 50.8509L130.977 50.9614L130.879 51.075L130.841 51.1192C130.776 51.0688 130.723 51.0054 130.685 50.9331C130.647 50.8607 130.625 50.7811 130.62 50.6995H130.642ZM134.511 52.0911C134.478 52.0911 134.445 52.1009 134.418 52.1193C134.39 52.1377 134.369 52.1638 134.356 52.1943C134.344 52.2249 134.34 52.2585 134.347 52.291C134.353 52.3234 134.369 52.3532 134.393 52.3766C134.416 52.4 134.446 52.4159 134.478 52.4224C134.511 52.4288 134.544 52.4255 134.575 52.4129C134.605 52.4002 134.632 52.3788 134.65 52.3513C134.668 52.3238 134.678 52.2914 134.678 52.2583C134.679 52.2342 134.674 52.2102 134.665 52.1881C134.655 52.166 134.641 52.1462 134.623 52.1302C134.605 52.1143 134.583 52.1025 134.56 52.0957C134.537 52.0889 134.513 52.0874 134.489 52.0911H134.511ZM132.144 52.4066C132.177 52.4066 132.21 52.3968 132.237 52.3782C132.265 52.3597 132.286 52.3334 132.299 52.3027C132.311 52.2719 132.315 52.2381 132.308 52.2056C132.301 52.1731 132.285 52.1433 132.261 52.12C132.238 52.0968 132.207 52.0811 132.175 52.075C132.142 52.0689 132.108 52.0727 132.078 52.0858C132.047 52.099 132.022 52.1209 132.004 52.1488C131.986 52.1767 131.976 52.2094 131.977 52.2426C131.973 52.2851 131.987 52.3274 132.014 52.3604C132.041 52.3934 132.08 52.4145 132.122 52.4193L132.144 52.4066ZM134.511 52.0911C134.478 52.0911 134.445 52.1009 134.418 52.1193C134.39 52.1377 134.369 52.1638 134.356 52.1943C134.344 52.2249 134.34 52.2585 134.347 52.291C134.353 52.3234 134.369 52.3532 134.393 52.3766C134.416 52.4 134.446 52.4159 134.478 52.4224C134.511 52.4288 134.544 52.4255 134.575 52.4129C134.605 52.4002 134.632 52.3788 134.65 52.3513C134.668 52.3238 134.678 52.2914 134.678 52.2583C134.679 52.2342 134.674 52.2102 134.665 52.1881C134.655 52.166 134.641 52.1462 134.623 52.1302C134.605 52.1143 134.583 52.1025 134.56 52.0957C134.537 52.0889 134.513 52.0874 134.489 52.0911H134.511ZM132.144 52.0911C132.111 52.0911 132.079 52.1009 132.051 52.1193C132.024 52.1377 132.002 52.1638 131.99 52.1943C131.977 52.2249 131.974 52.2585 131.98 52.291C131.987 52.3234 132.002 52.3532 132.026 52.3766C132.049 52.4 132.079 52.4159 132.112 52.4224C132.144 52.4288 132.178 52.4255 132.208 52.4129C132.239 52.4002 132.265 52.3788 132.283 52.3513C132.302 52.3238 132.311 52.2914 132.311 52.2583C132.312 52.2344 132.307 52.2107 132.297 52.1888C132.287 52.1669 132.273 52.1474 132.255 52.1315C132.237 52.1157 132.216 52.1039 132.193 52.0969C132.17 52.0899 132.146 52.0879 132.122 52.0911H132.144ZM134.511 52.0911C134.478 52.0911 134.445 52.1009 134.418 52.1193C134.39 52.1377 134.369 52.1638 134.356 52.1943C134.344 52.2249 134.34 52.2585 134.347 52.291C134.353 52.3234 134.369 52.3532 134.393 52.3766C134.416 52.4 134.446 52.4159 134.478 52.4224C134.511 52.4288 134.544 52.4255 134.575 52.4129C134.605 52.4002 134.632 52.3788 134.65 52.3513C134.668 52.3238 134.678 52.2914 134.678 52.2583C134.679 52.2342 134.674 52.2102 134.665 52.1881C134.655 52.166 134.641 52.1462 134.623 52.1302C134.605 52.1143 134.583 52.1025 134.56 52.0957C134.537 52.0889 134.513 52.0874 134.489 52.0911H134.511ZM132.144 52.0911C132.111 52.0911 132.079 52.1009 132.051 52.1193C132.024 52.1377 132.002 52.1638 131.99 52.1943C131.977 52.2249 131.974 52.2585 131.98 52.291C131.987 52.3234 132.002 52.3532 132.026 52.3766C132.049 52.4 132.079 52.4159 132.112 52.4224C132.144 52.4288 132.178 52.4255 132.208 52.4129C132.239 52.4002 132.265 52.3788 132.283 52.3513C132.302 52.3238 132.311 52.2914 132.311 52.2583C132.312 52.2344 132.307 52.2107 132.297 52.1888C132.287 52.1669 132.273 52.1474 132.255 52.1315C132.237 52.1157 132.216 52.1039 132.193 52.0969C132.17 52.0899 132.146 52.0879 132.122 52.0911H132.144Z" fill="white"/>
</g>
</svg>
