<svg width="177" height="32" viewBox="0 0 177 32" fill="none" xmlns="http://www.w3.org/2000/svg">
<path fill-rule="evenodd" clip-rule="evenodd" d="M71.0716 2.23486H75.7277V29.724C73.3128 31.1785 70.5446 31.9413 67.7255 31.929C62.6041 31.929 57.696 28.6926 57.696 22.5427C57.696 16.7456 61.6438 12.6911 67.2276 12.6911C68.5873 12.6726 69.924 13.0427 71.0805 13.7581L71.0716 2.23486ZM71.0716 17.9429C70.2536 17.0894 68.7243 16.5559 67.3698 16.5559C64.4564 16.5559 62.607 19.0099 62.607 22.5309C62.607 25.9066 64.9781 28.1117 67.7285 28.1117C68.7243 28.1117 70.0373 27.9694 71.0716 27.3292V17.9429ZM124.423 28.4078C121.969 30.7788 118.791 31.9999 114.678 31.9999C106.083 31.9999 99.7047 25.5655 99.7047 17.9545C99.7047 10.3435 105.609 3.87061 114.227 3.87061C120.131 3.87061 123.581 6.8581 124.221 7.74724L121.554 10.9363C119.633 9.12244 117.179 8.42298 113.978 8.42298C108.75 8.42298 105.123 12.353 105.123 17.9367C105.123 18.1895 104.767 18.6286 104.408 19.0719C104.022 19.5488 103.632 20.0304 103.676 20.29C103.711 20.4947 104.158 20.5282 104.606 20.5616C105.04 20.594 105.473 20.6264 105.532 20.8146C106.156 22.755 107.384 24.445 109.037 25.6383C110.69 26.8315 112.681 27.4654 114.719 27.4475C118.845 27.4475 121.24 25.9182 122.129 25.1002L124.423 28.4078ZM142.309 29.6852C140.922 30.7877 138.255 31.9258 134.058 31.9258C128.474 31.9258 125.913 28.8316 125.913 25.3106C125.913 21.1613 129.897 19.5875 133.323 19.5875C134.568 19.5875 136.844 20.0143 137.875 20.7968V18.9474C137.875 17.4655 136.773 16.4222 134.283 16.4222C132.55 16.4407 130.837 16.8034 129.245 17.4892L127.893 14.229C130.012 13.2095 132.335 12.6865 134.686 12.6997C140.732 12.6997 142.333 15.5805 142.333 20.0617L142.309 29.6852ZM137.863 24.2081C136.78 23.377 135.459 22.9166 134.094 22.8951C132.315 22.8951 130.715 23.7843 130.715 25.3817C130.715 27.2667 132.137 28.4759 134.414 28.4759C135.607 28.5182 136.793 28.2625 137.863 27.732V24.2081ZM146.067 13.2245V31.3954H150.679V21.3689C150.679 19.5551 151.77 17.0655 153.844 17.0655C154.982 17.0655 155.765 17.599 156.334 17.9902L157.934 13.6157C156.957 13.0081 155.824 12.6991 154.674 12.7265C152.54 12.7265 151.118 15.1805 150.691 16.1052V13.2245H146.067ZM175.898 29.6853C174.938 30.5033 172.163 31.9259 168.109 31.9259C162.098 31.9259 158.047 28.1915 158.047 22.3618C158.047 16.8136 162.098 12.688 167.753 12.688C173.657 12.688 176.574 17.1692 176.574 22.2907V24.0689H162.739C163.236 27.4447 166.295 28.2182 169.14 28.2182C171.914 28.2182 173.882 27.0801 174.546 26.4399L175.898 29.6853ZM171.914 20.5865C171.879 18.2747 170.314 16.3186 167.789 16.3186C165.121 16.3186 163.275 17.9191 162.75 20.5865H171.914ZM0 4.47559V31.3956H5.05029V22.0805H6.93526C14.2617 22.0805 17.676 18.5239 17.676 13.1535C17.676 6.50281 12.768 4.47559 6.01056 4.47559H0ZM12.3293 13.1535C12.3293 15.821 10.5155 17.4925 6.81671 17.4925H5.05029V9.06352H7.38575C10.7645 9.06352 12.3293 10.6995 12.3293 13.1535ZM34.6971 29.6852C33.31 30.7877 30.6426 31.9258 26.4459 31.9258C20.8621 31.9258 18.3014 28.8316 18.3014 25.3106C18.3014 21.1613 22.2847 19.5875 25.7109 19.5875C26.9556 19.5875 29.2318 20.0143 30.2632 20.7968V18.9474C30.2632 17.4655 29.1607 16.4222 26.6711 16.4222C24.9376 16.4407 23.2249 16.8034 21.6327 17.4892L20.2812 14.229C22.3998 13.2095 24.7231 12.6865 27.0742 12.6997C33.1203 12.6997 34.7208 15.5805 34.7208 20.0617L34.6971 29.6852ZM30.2514 24.2081C29.1683 23.377 27.8465 22.9166 26.4814 22.8951C24.7032 22.8951 23.1027 23.7843 23.1027 25.3817C23.1027 27.2667 24.5253 28.4759 26.8015 28.4759C27.9956 28.5172 29.1813 28.2606 30.2514 27.7291V24.2081ZM50.2006 21.6832V31.3955L54.8597 31.3984V19.2469C54.8597 14.6945 52.7613 12.7029 48.8847 12.7029C46.1106 12.7029 44.0122 14.2203 43.1231 15.0739V13.2245H38.464V31.3895H43.1231V18.8024C43.621 18.0555 45.3993 16.7751 46.9997 16.7751C49.8094 16.7751 50.2006 18.6957 50.2006 21.6832ZM86.5216 31.9258C90.7184 31.9258 93.3858 30.7877 94.7728 29.6852L94.7847 20.0618C94.7847 15.5805 93.1842 12.6997 87.1381 12.6997C84.7879 12.6864 82.4657 13.2094 80.3481 14.229L81.6966 17.4892C83.2889 16.8034 85.0015 16.4407 86.735 16.4222C89.2246 16.4222 90.3271 17.4655 90.3271 18.9474V20.7968C89.2957 20.0143 87.0196 19.5875 85.7748 19.5875C82.3635 19.5875 78.3801 21.1613 78.3801 25.3106C78.3801 28.8316 80.9379 31.9258 86.5216 31.9258ZM86.5572 22.8951C87.9222 22.9166 89.2441 23.377 90.3271 24.2081V27.7291C89.257 28.2606 88.0714 28.5173 86.8773 28.4759C84.6011 28.4759 83.1785 27.2667 83.1785 25.3817C83.1785 23.7843 84.7789 22.8951 86.5572 22.8951Z" fill="#5858FF"/>
<path fill-rule="evenodd" clip-rule="evenodd" d="M112.637 11.5961C112.925 11.5851 113.168 11.81 113.179 12.0986L113.594 22.9486L118.943 30.692C118.973 30.7356 118.996 30.7821 119.011 30.8301L121.074 31.1669C118.388 33.2148 117.117 30.5208 117.117 30.5208L117.609 30.6011L112.747 23.5629L101.971 20.0699C101.696 19.9809 101.546 19.686 101.635 19.4113C101.724 19.1366 102.019 18.9861 102.293 19.0751L112.526 22.3919L112.134 12.1386C112.123 11.85 112.348 11.6071 112.637 11.5961Z" fill="#000095"/>
<path d="M97.2597 12.436C97.1451 14.9963 97.4689 17.5573 98.217 20.0085C98.3721 20.5316 98.7101 20.9816 99.1692 21.2765C99.6284 21.5713 100.178 21.6914 100.718 21.6149L103.682 21.1081C104.352 21.0132 105.108 20.7258 105.481 20.1686C105.524 20.0991 105.551 20.0213 105.561 19.9404L105.858 17.5901C105.903 17.1833 106.03 16.7899 106.232 16.4335C106.433 16.077 106.704 15.7648 107.028 15.5154C107.269 15.3208 107.56 15.1967 107.867 15.1568L112.079 14.8219C112.752 14.7635 113.383 14.466 113.857 13.9831L115.262 12.5487C115.74 12.0633 116.376 11.7656 117.055 11.7099C121.637 11.3335 124.802 10.5718 124.796 9.71529C124.796 8.52978 122.473 0.643147 112.239 0.0148242C112.239 0.0148242 109.868 -0.195604 106.24 0.969163C103.765 1.75864 101.585 3.27448 99.9838 5.31955C98.3822 7.36461 97.433 9.84427 97.2597 12.436Z" fill="#D70F64"/>
<path d="M109.064 8.53827C109.033 8.53827 109.003 8.54749 108.977 8.56475C108.951 8.58201 108.931 8.60654 108.919 8.63524C108.907 8.66394 108.904 8.69553 108.91 8.726C108.916 8.75647 108.931 8.78446 108.953 8.80643C108.975 8.8284 109.003 8.84336 109.034 8.84942C109.064 8.85548 109.096 8.85237 109.124 8.84048C109.153 8.82859 109.178 8.80846 109.195 8.78263C109.212 8.75679 109.221 8.72642 109.221 8.69535C109.221 8.65369 109.205 8.61374 109.175 8.58428C109.146 8.55483 109.106 8.53827 109.064 8.53827ZM109.064 8.53827C109.033 8.53827 109.003 8.54749 108.977 8.56475C108.951 8.58201 108.931 8.60654 108.919 8.63524C108.907 8.66394 108.904 8.69553 108.91 8.726C108.916 8.75647 108.931 8.78446 108.953 8.80643C108.975 8.8284 109.003 8.84336 109.034 8.84942C109.064 8.85548 109.096 8.85237 109.124 8.84048C109.153 8.82859 109.178 8.80846 109.195 8.78263C109.212 8.75679 109.221 8.72642 109.221 8.69535C109.221 8.65369 109.205 8.61374 109.175 8.58428C109.146 8.55483 109.106 8.53827 109.064 8.53827ZM109.064 8.53827C109.033 8.53827 109.003 8.54749 108.977 8.56475C108.951 8.58201 108.931 8.60654 108.919 8.63524C108.907 8.66394 108.904 8.69553 108.91 8.726C108.916 8.75647 108.931 8.78446 108.953 8.80643C108.975 8.8284 109.003 8.84336 109.034 8.84942C109.064 8.85548 109.096 8.85237 109.124 8.84048C109.153 8.82859 109.178 8.80846 109.195 8.78263C109.212 8.75679 109.221 8.72642 109.221 8.69535C109.221 8.65369 109.205 8.61374 109.175 8.58428C109.146 8.55483 109.106 8.53827 109.064 8.53827ZM111.287 8.53827C111.256 8.53827 111.226 8.54749 111.2 8.56475C111.174 8.58201 111.154 8.60654 111.142 8.63524C111.13 8.66394 111.127 8.69553 111.133 8.726C111.139 8.75647 111.154 8.78446 111.176 8.80643C111.198 8.8284 111.226 8.84336 111.256 8.84942C111.287 8.85548 111.318 8.85237 111.347 8.84048C111.376 8.82859 111.4 8.80846 111.418 8.78263C111.435 8.75679 111.444 8.72642 111.444 8.69535C111.445 8.67461 111.441 8.65401 111.433 8.63477C111.425 8.61553 111.414 8.59805 111.399 8.58338C111.384 8.56872 111.367 8.55716 111.348 8.54941C111.328 8.54166 111.308 8.53787 111.287 8.53827ZM111.287 8.53827C111.256 8.53827 111.226 8.54749 111.2 8.56475C111.174 8.58201 111.154 8.60654 111.142 8.63524C111.13 8.66394 111.127 8.69553 111.133 8.726C111.139 8.75647 111.154 8.78446 111.176 8.80643C111.198 8.8284 111.226 8.84336 111.256 8.84942C111.287 8.85548 111.318 8.85237 111.347 8.84048C111.376 8.82859 111.4 8.80846 111.418 8.78263C111.435 8.75679 111.444 8.72642 111.444 8.69535C111.445 8.67461 111.441 8.65401 111.433 8.63477C111.425 8.61553 111.414 8.59805 111.399 8.58338C111.384 8.56872 111.367 8.55716 111.348 8.54941C111.328 8.54166 111.308 8.53787 111.287 8.53827ZM109.064 8.53827C109.033 8.53827 109.003 8.54749 108.977 8.56475C108.951 8.58201 108.931 8.60654 108.919 8.63524C108.907 8.66394 108.904 8.69553 108.91 8.726C108.916 8.75647 108.931 8.78446 108.953 8.80643C108.975 8.8284 109.003 8.84336 109.034 8.84942C109.064 8.85548 109.096 8.85237 109.124 8.84048C109.153 8.82859 109.178 8.80846 109.195 8.78263C109.212 8.75679 109.221 8.72642 109.221 8.69535C109.221 8.65369 109.205 8.61374 109.175 8.58428C109.146 8.55483 109.106 8.53827 109.064 8.53827ZM113.128 9.31775C113.131 9.27829 113.131 9.23866 113.128 9.1992C113.129 9.19037 113.129 9.18136 113.128 9.17252L113.11 9.03323C113.11 8.97692 113.089 8.91764 113.077 8.8554L113.051 8.74277C113.051 8.69535 113.024 8.64793 113.012 8.60051C112.998 8.55414 112.981 8.50862 112.962 8.46418C112.946 8.41776 112.929 8.37225 112.908 8.32785C112.873 8.23816 112.831 8.15101 112.784 8.06703C112.736 7.98405 112.686 7.90106 112.636 7.82104C112.64 7.82208 112.646 7.82208 112.65 7.82104C112.664 7.81071 112.676 7.79877 112.686 7.78547L112.701 7.77065L112.736 7.72916L112.754 7.70842C112.768 7.69206 112.78 7.67416 112.79 7.65507L112.819 7.59875C112.832 7.57434 112.842 7.54847 112.849 7.5217V7.48909V7.45946V7.42389C112.851 7.40417 112.851 7.38434 112.849 7.36462C112.848 7.35678 112.848 7.34874 112.849 7.34091C112.849 7.32016 112.849 7.29941 112.849 7.2757C112.848 7.06791 112.765 6.8689 112.618 6.72225C112.471 6.5756 112.271 6.49326 112.064 6.49326H111.96C111.94 6.49183 111.92 6.49183 111.901 6.49326C111.877 6.49744 111.855 6.50338 111.832 6.51104H111.818L111.761 6.53179C111.737 6.54005 111.714 6.55204 111.693 6.56736L111.64 6.59996L111.592 6.63552C111.585 6.63852 111.579 6.6437 111.575 6.65034L111.533 6.68591C111.533 6.68591 111.518 6.68591 111.515 6.70369L111.477 6.74519L111.432 6.80742C111.388 6.78668 111.343 6.76297 111.296 6.74519L111.163 6.69184L111.077 6.6622L110.997 6.63552L110.92 6.61478H110.863L110.783 6.597L110.674 6.57329H110.635L110.528 6.55847H110.469H110.327H110.312H110.143C110.086 6.55545 110.028 6.55545 109.971 6.55847H109.956C109.909 6.55553 109.861 6.55553 109.814 6.55847C109.794 6.55541 109.774 6.55541 109.755 6.55847L109.651 6.57329H109.61L109.5 6.597C109.474 6.6012 109.448 6.60714 109.423 6.61478H109.364L109.287 6.63552C109.26 6.64175 109.234 6.65069 109.209 6.6622L109.121 6.69184C109.075 6.70705 109.031 6.72486 108.987 6.74519L108.851 6.80742L108.806 6.74519C108.795 6.72997 108.782 6.71605 108.768 6.70369L108.753 6.68591L108.709 6.65627C108.704 6.64963 108.698 6.64445 108.691 6.64145C108.676 6.62773 108.661 6.61579 108.643 6.60589H108.629L108.575 6.57329C108.554 6.55969 108.533 6.54779 108.51 6.53772L108.451 6.51697C108.429 6.50931 108.406 6.50337 108.383 6.49919C108.363 6.49754 108.343 6.49754 108.323 6.49919H108.294C108.269 6.49487 108.244 6.49487 108.22 6.49919C108.012 6.49919 107.812 6.58153 107.665 6.72818C107.518 6.87483 107.435 7.07384 107.434 7.28163C107.433 7.30334 107.433 7.32513 107.434 7.34683C107.433 7.35467 107.433 7.36271 107.434 7.37055C107.433 7.39027 107.433 7.4101 107.434 7.42982C107.433 7.44164 107.433 7.45357 107.434 7.46538V7.49502V7.52763C107.442 7.55397 107.452 7.57972 107.464 7.60468C107.473 7.62405 107.482 7.64285 107.493 7.661L107.532 7.71434L107.547 7.73509L107.582 7.77658C107.581 7.78147 107.581 7.78652 107.582 7.7914L107.618 7.82697H107.633C107.58 7.90619 107.531 7.98832 107.488 8.07296C107.44 8.15752 107.398 8.24459 107.36 8.33378L107.307 8.47011C107.307 8.51456 107.274 8.55902 107.259 8.60644C107.242 8.6529 107.228 8.70042 107.218 8.7487L107.191 8.86133C107.191 8.9206 107.167 8.97988 107.159 9.03915L107.141 9.17845C107.142 9.18728 107.142 9.19629 107.141 9.20512V9.32368V9.49261C107.141 10.0372 107.291 10.5712 107.573 11.0367L107.636 11.1346L107.719 11.2561C107.778 11.3331 107.837 11.4072 107.902 11.4784C107.968 11.5495 107.971 11.5524 108.003 11.585L108.169 11.7451L108.261 11.8192C108.475 11.9889 108.71 12.1294 108.961 12.2371C109.049 12.276 109.14 12.3096 109.233 12.3378C109.812 12.5174 110.432 12.5174 111.011 12.3378C111.106 12.3082 111.195 12.2756 111.287 12.2371C111.538 12.1298 111.773 11.9893 111.987 11.8192L112.075 11.7451L112.244 11.585C112.278 11.5534 112.311 11.5179 112.342 11.4784C112.407 11.4077 112.469 11.3335 112.526 11.2561L112.609 11.1346L112.671 11.0367C112.955 10.5716 113.104 10.0373 113.104 9.49261C113.134 9.43334 113.131 9.37703 113.128 9.31775ZM110.164 9.543C110.297 9.543 110.68 9.56671 110.68 9.69119C110.68 9.91347 110.208 10.0735 110.164 10.0587C110.119 10.0439 109.645 9.91347 109.645 9.69119C109.633 9.56671 110.019 9.53114 110.155 9.53114L110.164 9.543ZM108.43 8.2004C108.688 8.0285 109.263 7.92477 109.485 8.22411C109.562 8.30827 109.605 8.41824 109.605 8.53235C109.605 8.64646 109.562 8.75642 109.485 8.84058C109.24 9.08648 109.05 9.38143 108.928 9.70601C108.866 9.96089 108.765 10.0676 108.557 10.0706C108.372 10.0208 108.208 9.91251 108.09 9.7619C107.971 9.61128 107.904 9.42639 107.899 9.23476C107.887 9.03162 107.929 8.82883 108.021 8.6471C108.112 8.46538 108.25 8.31123 108.421 8.2004H108.43ZM110.893 10.2424C110.893 10.439 110.815 10.6274 110.676 10.7664C110.537 10.9053 110.348 10.9834 110.152 10.9834C109.955 10.9834 109.767 10.9053 109.628 10.7664C109.489 10.6274 109.411 10.439 109.411 10.2424H110.893ZM111.758 10.0706C111.554 10.0706 111.462 9.96385 111.388 9.70601C111.268 9.38021 111.078 9.08478 110.831 8.84058C110.753 8.75674 110.71 8.64665 110.71 8.53235C110.71 8.41804 110.753 8.30795 110.831 8.22411C111.056 7.92773 111.628 8.0285 111.886 8.2004C112.056 8.31114 112.194 8.46537 112.286 8.64718C112.377 8.82899 112.418 9.03181 112.404 9.23476C112.4 9.426 112.333 9.61061 112.215 9.76117C112.097 9.91174 111.934 10.0202 111.749 10.0706H111.758ZM112.12 6.67998C112.267 6.68077 112.408 6.73981 112.512 6.84422C112.616 6.94863 112.674 7.08991 112.674 7.23717C112.674 7.31306 112.659 7.38815 112.628 7.45758C112.597 7.52701 112.552 7.58924 112.496 7.64025L112.461 7.59875L112.369 7.49206C112.339 7.45467 112.307 7.41996 112.271 7.38833L112.167 7.29052L112.061 7.19568L111.945 7.10973L111.838 7.03267C111.801 7.00589 111.763 6.98116 111.723 6.95858L111.675 6.92894C111.723 6.8561 111.788 6.79559 111.863 6.75233C111.939 6.70907 112.024 6.68428 112.111 6.67998H112.12ZM107.674 7.23125C107.674 7.08426 107.733 6.94328 107.837 6.83935C107.94 6.73541 108.081 6.67702 108.228 6.67702C108.318 6.67669 108.406 6.69811 108.485 6.73942C108.564 6.78074 108.631 6.84071 108.682 6.91412L108.634 6.94376C108.596 6.96637 108.558 6.99111 108.522 7.01785C108.483 7.04156 108.448 7.06824 108.412 7.09491L108.3 7.18086C108.261 7.2105 108.225 7.2431 108.19 7.2757C108.154 7.306 108.121 7.33867 108.089 7.37351L107.988 7.47724L107.897 7.58393L107.861 7.62543C107.8 7.57816 107.751 7.51857 107.715 7.45062C107.679 7.38267 107.658 7.30789 107.653 7.23125H107.674ZM111.308 8.53827C111.277 8.53827 111.246 8.54749 111.221 8.56475C111.195 8.58201 111.175 8.60654 111.163 8.63524C111.151 8.66394 111.148 8.69553 111.154 8.726C111.16 8.75647 111.175 8.78446 111.197 8.80643C111.219 8.8284 111.247 8.84336 111.277 8.84942C111.308 8.85548 111.339 8.85237 111.368 8.84048C111.397 8.82859 111.421 8.80846 111.438 8.78263C111.456 8.75679 111.465 8.72642 111.465 8.69535C111.466 8.67271 111.461 8.65019 111.452 8.62939C111.443 8.60859 111.43 8.59004 111.413 8.57504C111.396 8.56004 111.376 8.54897 111.354 8.54261C111.332 8.53626 111.309 8.53478 111.287 8.53827H111.308ZM109.085 8.83465C109.116 8.83465 109.147 8.82536 109.173 8.80796C109.198 8.79057 109.219 8.76586 109.23 8.73698C109.242 8.70811 109.245 8.67637 109.239 8.64582C109.232 8.61527 109.217 8.58729 109.195 8.56545C109.173 8.5436 109.144 8.52888 109.114 8.52316C109.083 8.51744 109.051 8.52097 109.023 8.53332C108.994 8.54566 108.97 8.56625 108.953 8.59247C108.936 8.61869 108.927 8.64935 108.928 8.68054C108.925 8.7205 108.937 8.76019 108.962 8.79118C108.988 8.82217 109.024 8.84202 109.064 8.84651L109.085 8.83465ZM111.308 8.53827C111.277 8.53827 111.246 8.54749 111.221 8.56475C111.195 8.58201 111.175 8.60654 111.163 8.63524C111.151 8.66394 111.148 8.69553 111.154 8.726C111.16 8.75647 111.175 8.78446 111.197 8.80643C111.219 8.8284 111.247 8.84336 111.277 8.84942C111.308 8.85548 111.339 8.85237 111.368 8.84048C111.397 8.82859 111.421 8.80846 111.438 8.78263C111.456 8.75679 111.465 8.72642 111.465 8.69535C111.466 8.67271 111.461 8.65019 111.452 8.62939C111.443 8.60859 111.43 8.59004 111.413 8.57504C111.396 8.56004 111.376 8.54897 111.354 8.54261C111.332 8.53626 111.309 8.53478 111.287 8.53827H111.308ZM109.085 8.53827C109.054 8.53827 109.024 8.54749 108.998 8.56475C108.972 8.58201 108.952 8.60654 108.94 8.63524C108.928 8.66394 108.925 8.69553 108.931 8.726C108.937 8.75647 108.952 8.78446 108.974 8.80643C108.996 8.8284 109.024 8.84336 109.054 8.84942C109.085 8.85548 109.116 8.85237 109.145 8.84048C109.174 8.82859 109.198 8.80846 109.216 8.78263C109.233 8.75679 109.242 8.72642 109.242 8.69535C109.242 8.67286 109.238 8.65058 109.228 8.63004C109.219 8.60949 109.206 8.59115 109.189 8.57625C109.172 8.56136 109.152 8.55026 109.131 8.54371C109.109 8.53716 109.087 8.5353 109.064 8.53827H109.085ZM111.308 8.53827C111.277 8.53827 111.246 8.54749 111.221 8.56475C111.195 8.58201 111.175 8.60654 111.163 8.63524C111.151 8.66394 111.148 8.69553 111.154 8.726C111.16 8.75647 111.175 8.78446 111.197 8.80643C111.219 8.8284 111.247 8.84336 111.277 8.84942C111.308 8.85548 111.339 8.85237 111.368 8.84048C111.397 8.82859 111.421 8.80846 111.438 8.78263C111.456 8.75679 111.465 8.72642 111.465 8.69535C111.466 8.67271 111.461 8.65019 111.452 8.62939C111.443 8.60859 111.43 8.59004 111.413 8.57504C111.396 8.56004 111.376 8.54897 111.354 8.54261C111.332 8.53626 111.309 8.53478 111.287 8.53827H111.308ZM109.085 8.53827C109.054 8.53827 109.024 8.54749 108.998 8.56475C108.972 8.58201 108.952 8.60654 108.94 8.63524C108.928 8.66394 108.925 8.69553 108.931 8.726C108.937 8.75647 108.952 8.78446 108.974 8.80643C108.996 8.8284 109.024 8.84336 109.054 8.84942C109.085 8.85548 109.116 8.85237 109.145 8.84048C109.174 8.82859 109.198 8.80846 109.216 8.78263C109.233 8.75679 109.242 8.72642 109.242 8.69535C109.242 8.67286 109.238 8.65058 109.228 8.63004C109.219 8.60949 109.206 8.59115 109.189 8.57625C109.172 8.56136 109.152 8.55026 109.131 8.54371C109.109 8.53716 109.087 8.5353 109.064 8.53827H109.085Z" fill="white"/>
</svg>
