<svg width="24" height="24" viewBox="0 0 24 24" fill="none" xmlns="http://www.w3.org/2000/svg">
<rect width="24" height="24" fill="#5858FF"/>
<path fill-rule="evenodd" clip-rule="evenodd" d="M9.85509 10.2793H10.4352V13.7155C10.1343 13.8973 9.78943 13.9926 9.43819 13.9911C8.80009 13.9911 8.18858 13.5865 8.18858 12.8178C8.18858 12.0931 8.68045 11.5863 9.37615 11.5863C9.54556 11.584 9.71211 11.6303 9.8562 11.7197L9.85509 10.2793ZM9.85509 12.2428C9.75317 12.1361 9.56263 12.0694 9.39387 12.0694C9.03088 12.0694 8.80046 12.3762 8.80046 12.8163C8.80046 13.2383 9.09587 13.5139 9.43856 13.5139C9.56263 13.5139 9.72622 13.4961 9.85509 13.4161V12.2428ZM16.5023 13.5509C16.1966 13.8473 15.8007 14 15.2882 14C14.2173 14 13.4226 13.1957 13.4226 12.2443C13.4226 11.2929 14.1582 10.4838 15.232 10.4838C15.9676 10.4838 16.3974 10.8572 16.4772 10.9684L16.1449 11.367C15.9056 11.1403 15.5998 11.0528 15.201 11.0528C14.5496 11.0528 14.0976 11.5441 14.0976 12.2421C14.0976 12.2736 14.0533 12.3285 14.0086 12.384C13.9605 12.4436 13.9119 12.5038 13.9174 12.5362C13.9217 12.5618 13.9775 12.566 14.0333 12.5702C14.0873 12.5742 14.1413 12.5783 14.1486 12.6018C14.2264 12.8443 14.3795 13.0556 14.5854 13.2048C14.7913 13.3539 15.0394 13.4331 15.2933 13.4309C15.8074 13.4309 16.1057 13.2397 16.2165 13.1375L16.5023 13.5509ZM18.7309 13.7106C18.558 13.8484 18.2257 13.9907 17.7028 13.9907C17.0071 13.9907 16.6881 13.6039 16.6881 13.1638C16.6881 12.6451 17.1844 12.4484 17.6112 12.4484C17.7663 12.4484 18.0499 12.5017 18.1784 12.5995V12.3684C18.1784 12.1831 18.0411 12.0527 17.7309 12.0527C17.5149 12.055 17.3015 12.1004 17.1031 12.1861L16.9347 11.7786C17.1987 11.6511 17.4882 11.5857 17.7811 11.5874C18.5344 11.5874 18.7338 11.9475 18.7338 12.5077L18.7309 13.7106ZM18.177 13.0259C18.042 12.9221 17.8773 12.8645 17.7072 12.8618C17.4857 12.8618 17.2863 12.973 17.2863 13.1727C17.2863 13.4083 17.4635 13.5594 17.7471 13.5594C17.8959 13.5647 18.0436 13.5328 18.177 13.4664V13.0259ZM19.1991 11.653V13.9244H19.7737V12.6711C19.7737 12.4444 19.9096 12.1332 20.1681 12.1332C20.3099 12.1332 20.4074 12.1998 20.4783 12.2487L20.6777 11.7019C20.5559 11.626 20.4148 11.5873 20.2715 11.5908C20.0056 11.5908 19.8284 11.8975 19.7752 12.0131V11.653H19.1991ZM22.9158 13.7106C22.7962 13.8129 22.4505 13.9907 21.9454 13.9907C21.1965 13.9907 20.6917 13.5239 20.6917 12.7952C20.6917 12.1016 21.1965 11.5859 21.901 11.5859C22.6366 11.5859 23 12.1461 23 12.7863V13.0086H21.2762C21.3383 13.4305 21.7194 13.5272 22.0739 13.5272C22.4195 13.5272 22.6647 13.385 22.7474 13.3049L22.9158 13.7106ZM22.4195 12.5733C22.4151 12.2843 22.2201 12.0398 21.9055 12.0398C21.5731 12.0398 21.3431 12.2398 21.2777 12.5733H22.4195ZM1 10.5594V13.9244H1.62924V12.76H1.86409C2.77693 12.76 3.20233 12.3155 3.20233 11.6442C3.20233 10.8128 2.59081 10.5594 1.74888 10.5594H1ZM2.53616 11.6442C2.53616 11.9776 2.31017 12.1865 1.84932 12.1865H1.62924V11.1329H1.92022C2.34119 11.1329 2.53616 11.3374 2.53616 11.6442ZM5.32305 13.7106C5.15023 13.8484 4.81789 13.9907 4.295 13.9907C3.5993 13.9907 3.28025 13.6039 3.28025 13.1638C3.28025 12.6451 3.77655 12.4484 4.20342 12.4484C4.35852 12.4484 4.64211 12.5017 4.77062 12.5995V12.3684C4.77062 12.1831 4.63325 12.0527 4.32307 12.0527C4.10707 12.055 3.89369 12.1004 3.69531 12.1861L3.52692 11.7786C3.79089 11.6511 4.08035 11.5857 4.37329 11.5874C5.1266 11.5874 5.326 11.9475 5.326 12.5077L5.32305 13.7106ZM4.76914 13.0259C4.6342 12.9221 4.46951 12.8645 4.29943 12.8618C4.07787 12.8618 3.87846 12.973 3.87846 13.1727C3.87846 13.4083 4.05571 13.5594 4.33931 13.5594C4.48809 13.5646 4.63581 13.5325 4.76914 13.4661V13.0259ZM7.25469 12.7104V13.9244L7.83518 13.9248V12.4058C7.83518 11.8368 7.57373 11.5878 7.09073 11.5878C6.74509 11.5878 6.48365 11.7775 6.37287 11.8842V11.653H5.79238V13.9237H6.37287V12.3503C6.43491 12.2569 6.65647 12.0969 6.85587 12.0969C7.20594 12.0969 7.25469 12.3369 7.25469 12.7104ZM11.7801 13.9907C12.303 13.9907 12.6353 13.8484 12.8081 13.7106L12.8096 12.5077C12.8096 11.9475 12.6102 11.5874 11.8569 11.5874C11.5641 11.5857 11.2747 11.6511 11.0109 11.7786L11.1789 12.1861C11.3773 12.1004 11.5907 12.055 11.8067 12.0527C12.1168 12.0527 12.2542 12.1831 12.2542 12.3684V12.5995C12.1257 12.5017 11.8421 12.4484 11.687 12.4484C11.262 12.4484 10.7657 12.6451 10.7657 13.1638C10.7657 13.6039 11.0844 13.9907 11.7801 13.9907ZM11.7845 12.8618C11.9546 12.8645 12.1193 12.9221 12.2542 13.0259V13.4661C12.1209 13.5325 11.9732 13.5646 11.8244 13.5594C11.5408 13.5594 11.3635 13.4083 11.3635 13.1727C11.3635 12.973 11.5629 12.8618 11.7845 12.8618Z" fill="white"/>
<path fill-rule="evenodd" clip-rule="evenodd" d="M15.0339 11.4498C15.0698 11.4484 15.1001 11.4765 15.1015 11.5126L15.1532 12.8689L15.8196 13.8368C15.8233 13.8423 15.8262 13.8481 15.8281 13.8541L16.0851 13.8962C15.7505 14.1522 15.5921 13.8154 15.5921 13.8154L15.6534 13.8255L15.0476 12.9456L13.705 12.509C13.6708 12.4979 13.652 12.461 13.6631 12.4267C13.6742 12.3923 13.7109 12.3735 13.7452 12.3846L15.0201 12.7992L14.9713 11.5176C14.9699 11.4815 14.9979 11.4511 15.0339 11.4498Z" fill="#000095"/>
<path d="M13.1179 11.5545C13.1036 11.8745 13.144 12.1947 13.2372 12.5011C13.2565 12.5665 13.2986 12.6227 13.3558 12.6596C13.413 12.6964 13.4815 12.7114 13.5489 12.7019L13.9181 12.6385C14.0016 12.6267 14.0957 12.5907 14.1423 12.5211C14.1476 12.5124 14.151 12.5027 14.1522 12.4926L14.1892 12.1988C14.1948 12.1479 14.2107 12.0988 14.2358 12.0542C14.2608 12.0096 14.2946 11.9706 14.335 11.9394C14.3651 11.9151 14.4012 11.8996 14.4395 11.8946L14.9643 11.8527C15.0482 11.8455 15.1268 11.8083 15.1858 11.7479L15.3609 11.5686C15.4204 11.5079 15.4997 11.4707 15.5843 11.4637C16.1552 11.4167 16.5495 11.3215 16.5488 11.2144C16.5488 11.0662 16.2593 10.0804 14.9842 10.0019C14.9842 10.0019 14.6888 9.97555 14.2368 10.1211C13.9285 10.2198 13.6569 10.4093 13.4573 10.6649C13.2578 10.9206 13.1395 11.2305 13.1179 11.5545Z" fill="#D70F64"/>
<path d="M14.5888 11.0673C14.5849 11.0673 14.5811 11.0684 14.5779 11.0706C14.5747 11.0728 14.5722 11.0758 14.5707 11.0794C14.5692 11.083 14.5688 11.0869 14.5696 11.0908C14.5703 11.0946 14.5722 11.0981 14.5749 11.1008C14.5777 11.1036 14.5812 11.1054 14.585 11.1062C14.5888 11.1069 14.5927 11.1065 14.5963 11.1051C14.5998 11.1036 14.6029 11.1011 14.6051 11.0978C14.6072 11.0946 14.6083 11.0908 14.6083 11.0869C14.6083 11.0817 14.6063 11.0767 14.6026 11.073C14.5989 11.0694 14.594 11.0673 14.5888 11.0673ZM14.5888 11.0673C14.5849 11.0673 14.5811 11.0684 14.5779 11.0706C14.5747 11.0728 14.5722 11.0758 14.5707 11.0794C14.5692 11.083 14.5688 11.0869 14.5696 11.0908C14.5703 11.0946 14.5722 11.0981 14.5749 11.1008C14.5777 11.1036 14.5812 11.1054 14.585 11.1062C14.5888 11.1069 14.5927 11.1065 14.5963 11.1051C14.5998 11.1036 14.6029 11.1011 14.6051 11.0978C14.6072 11.0946 14.6083 11.0908 14.6083 11.0869C14.6083 11.0817 14.6063 11.0767 14.6026 11.073C14.5989 11.0694 14.594 11.0673 14.5888 11.0673ZM14.5888 11.0673C14.5849 11.0673 14.5811 11.0684 14.5779 11.0706C14.5747 11.0728 14.5722 11.0758 14.5707 11.0794C14.5692 11.083 14.5688 11.0869 14.5696 11.0908C14.5703 11.0946 14.5722 11.0981 14.5749 11.1008C14.5777 11.1036 14.5812 11.1054 14.585 11.1062C14.5888 11.1069 14.5927 11.1065 14.5963 11.1051C14.5998 11.1036 14.6029 11.1011 14.6051 11.0978C14.6072 11.0946 14.6083 11.0908 14.6083 11.0869C14.6083 11.0817 14.6063 11.0767 14.6026 11.073C14.5989 11.0694 14.594 11.0673 14.5888 11.0673ZM14.8657 11.0673C14.8619 11.0673 14.8581 11.0684 14.8549 11.0706C14.8516 11.0728 14.8491 11.0758 14.8476 11.0794C14.8462 11.083 14.8458 11.0869 14.8465 11.0908C14.8473 11.0946 14.8492 11.0981 14.8519 11.1008C14.8546 11.1036 14.8581 11.1054 14.8619 11.1062C14.8657 11.1069 14.8696 11.1065 14.8732 11.1051C14.8768 11.1036 14.8799 11.1011 14.882 11.0978C14.8842 11.0946 14.8853 11.0908 14.8853 11.0869C14.8854 11.0843 14.8849 11.0818 14.8839 11.0793C14.8829 11.0769 14.8815 11.0748 14.8797 11.0729C14.8779 11.0711 14.8757 11.0696 14.8733 11.0687C14.8709 11.0677 14.8683 11.0672 14.8657 11.0673ZM14.8657 11.0673C14.8619 11.0673 14.8581 11.0684 14.8549 11.0706C14.8516 11.0728 14.8491 11.0758 14.8476 11.0794C14.8462 11.083 14.8458 11.0869 14.8465 11.0908C14.8473 11.0946 14.8492 11.0981 14.8519 11.1008C14.8546 11.1036 14.8581 11.1054 14.8619 11.1062C14.8657 11.1069 14.8696 11.1065 14.8732 11.1051C14.8768 11.1036 14.8799 11.1011 14.882 11.0978C14.8842 11.0946 14.8853 11.0908 14.8853 11.0869C14.8854 11.0843 14.8849 11.0818 14.8839 11.0793C14.8829 11.0769 14.8815 11.0748 14.8797 11.0729C14.8779 11.0711 14.8757 11.0696 14.8733 11.0687C14.8709 11.0677 14.8683 11.0672 14.8657 11.0673ZM14.5888 11.0673C14.5849 11.0673 14.5811 11.0684 14.5779 11.0706C14.5747 11.0728 14.5722 11.0758 14.5707 11.0794C14.5692 11.083 14.5688 11.0869 14.5696 11.0908C14.5703 11.0946 14.5722 11.0981 14.5749 11.1008C14.5777 11.1036 14.5812 11.1054 14.585 11.1062C14.5888 11.1069 14.5927 11.1065 14.5963 11.1051C14.5998 11.1036 14.6029 11.1011 14.6051 11.0978C14.6072 11.0946 14.6083 11.0908 14.6083 11.0869C14.6083 11.0817 14.6063 11.0767 14.6026 11.073C14.5989 11.0694 14.594 11.0673 14.5888 11.0673ZM15.095 11.1647C15.0954 11.1598 15.0954 11.1548 15.095 11.1499C15.0952 11.1488 15.0952 11.1477 15.095 11.1466L15.0928 11.1292C15.0928 11.1221 15.0902 11.1147 15.0888 11.1069L15.0854 11.0928C15.0854 11.0869 15.0821 11.081 15.0806 11.0751C15.0789 11.0693 15.0768 11.0636 15.0744 11.058C15.0725 11.0522 15.0703 11.0465 15.0677 11.041C15.0633 11.0298 15.0581 11.0189 15.0522 11.0084C15.0463 10.998 15.04 10.9876 15.0337 10.9776C15.0344 10.9778 15.035 10.9778 15.0356 10.9776C15.0373 10.9763 15.0387 10.9748 15.04 10.9732L15.0419 10.9713L15.0463 10.9661L15.0485 10.9636C15.0502 10.9615 15.0517 10.9593 15.0529 10.9569L15.0566 10.9498C15.0583 10.9468 15.0595 10.9436 15.0603 10.9402V10.9361V10.9324V10.928C15.0605 10.9255 15.0605 10.923 15.0603 10.9206C15.0602 10.9196 15.0602 10.9186 15.0603 10.9176C15.0603 10.915 15.0603 10.9124 15.0603 10.9095C15.0602 10.8835 15.0499 10.8586 15.0315 10.8403C15.0132 10.822 14.9884 10.8117 14.9625 10.8117H14.9496C14.9471 10.8115 14.9446 10.8115 14.9422 10.8117C14.9393 10.8122 14.9364 10.8129 14.9337 10.8139H14.9318L14.9248 10.8165C14.9218 10.8175 14.9189 10.819 14.9163 10.8209L14.9097 10.825L14.9038 10.8294C14.9029 10.8298 14.9021 10.8305 14.9015 10.8313L14.8964 10.8357C14.8964 10.8357 14.8945 10.8357 14.8942 10.838L14.8894 10.8431L14.8838 10.8509C14.8783 10.8483 14.8727 10.8454 14.8668 10.8431L14.8502 10.8365L14.8395 10.8328L14.8295 10.8294L14.8199 10.8268H14.8129L14.803 10.8246L14.7893 10.8217H14.7845L14.7712 10.8198H14.7638H14.7461H14.7442H14.7232C14.7161 10.8194 14.7089 10.8194 14.7018 10.8198H14.6999C14.694 10.8194 14.6881 10.8194 14.6822 10.8198C14.6798 10.8194 14.6773 10.8194 14.6748 10.8198L14.6619 10.8217H14.6567L14.6431 10.8246C14.6398 10.8252 14.6366 10.8259 14.6335 10.8268H14.6261L14.6165 10.8294C14.6132 10.8302 14.6099 10.8313 14.6069 10.8328L14.5958 10.8365C14.5901 10.8384 14.5846 10.8406 14.5792 10.8431L14.5622 10.8509L14.5567 10.8431C14.5552 10.8412 14.5536 10.8395 14.5518 10.838L14.55 10.8357L14.5445 10.832C14.5439 10.8312 14.5432 10.8306 14.5422 10.8302C14.5405 10.8285 14.5385 10.827 14.5363 10.8257H14.5345L14.5278 10.8217C14.5253 10.82 14.5225 10.8185 14.5197 10.8172L14.5123 10.8146C14.5096 10.8137 14.5067 10.8129 14.5038 10.8124C14.5014 10.8122 14.4989 10.8122 14.4965 10.8124H14.4928C14.4897 10.8119 14.4866 10.8119 14.4835 10.8124C14.4576 10.8124 14.4328 10.8227 14.4145 10.841C14.3961 10.8594 14.3858 10.8842 14.3857 10.9102C14.3855 10.9129 14.3855 10.9156 14.3857 10.9184C14.3855 10.9193 14.3855 10.9203 14.3857 10.9213C14.3855 10.9238 14.3855 10.9263 14.3857 10.9287C14.3855 10.9302 14.3855 10.9317 14.3857 10.9332V10.9369V10.941C14.3867 10.9442 14.3879 10.9475 14.3894 10.9506C14.3905 10.953 14.3917 10.9554 14.3931 10.9576L14.3979 10.9643L14.3997 10.9669L14.4041 10.9721C14.404 10.9727 14.404 10.9733 14.4041 10.9739L14.4086 10.9784H14.4104C14.4038 10.9883 14.3978 10.9985 14.3923 11.0091C14.3864 11.0197 14.3811 11.0306 14.3764 11.0417L14.3698 11.0588C14.3698 11.0643 14.3657 11.0699 14.3639 11.0758C14.3618 11.0816 14.3601 11.0876 14.3587 11.0936L14.3554 11.1077C14.3554 11.1151 14.3524 11.1225 14.3513 11.1299L14.3491 11.1473C14.3493 11.1484 14.3493 11.1495 14.3491 11.1506V11.1655V11.1866C14.3492 11.2547 14.3678 11.3214 14.403 11.3796L14.4108 11.3918L14.4211 11.407C14.4285 11.4166 14.4359 11.4259 14.444 11.4348C14.4521 11.4437 14.4525 11.4441 14.4566 11.4481L14.4773 11.4681L14.4887 11.4774C14.5153 11.4986 14.5446 11.5162 14.5759 11.5296C14.5869 11.5345 14.5983 11.5387 14.6098 11.5422C14.682 11.5647 14.7592 11.5647 14.8314 11.5422C14.8432 11.5385 14.8543 11.5345 14.8657 11.5296C14.897 11.5162 14.9263 11.4987 14.9529 11.4774L14.964 11.4681L14.985 11.4481C14.9892 11.4442 14.9933 11.4397 14.9972 11.4348C15.0053 11.426 15.013 11.4167 15.0201 11.407L15.0304 11.3918L15.0382 11.3796C15.0735 11.3215 15.0921 11.2547 15.0921 11.1866C15.0958 11.1792 15.0954 11.1721 15.095 11.1647ZM14.7258 11.1929C14.7424 11.1929 14.79 11.1958 14.79 11.2114C14.79 11.2392 14.7313 11.2592 14.7258 11.2573C14.7202 11.2555 14.6612 11.2392 14.6612 11.2114C14.6597 11.1958 14.7077 11.1914 14.7247 11.1914L14.7258 11.1929ZM14.5098 11.0251C14.5419 11.0036 14.6135 10.9906 14.6412 11.028C14.6508 11.0385 14.6561 11.0523 14.6561 11.0665C14.6561 11.0808 14.6508 11.0946 14.6412 11.1051C14.6107 11.1358 14.5871 11.1727 14.5718 11.2133C14.564 11.2451 14.5515 11.2585 14.5256 11.2588C14.5026 11.2526 14.4821 11.2391 14.4674 11.2202C14.4526 11.2014 14.4443 11.1783 14.4437 11.1543C14.4421 11.129 14.4473 11.1036 14.4587 11.0809C14.4702 11.0582 14.4874 11.0389 14.5086 11.0251H14.5098ZM14.8166 11.2803C14.8166 11.3049 14.8069 11.3284 14.7896 11.3458C14.7723 11.3632 14.7488 11.3729 14.7243 11.3729C14.6998 11.3729 14.6763 11.3632 14.659 11.3458C14.6417 11.3284 14.632 11.3049 14.632 11.2803H14.8166ZM14.9244 11.2588C14.899 11.2588 14.8875 11.2455 14.8783 11.2133C14.8633 11.1725 14.8396 11.1356 14.8089 11.1051C14.7992 11.0946 14.7938 11.0808 14.7938 11.0665C14.7938 11.0523 14.7992 11.0385 14.8089 11.028C14.8369 10.991 14.9082 11.0036 14.9403 11.0251C14.9616 11.0389 14.9788 11.0582 14.9901 11.0809C15.0015 11.1036 15.0066 11.129 15.0049 11.1543C15.0044 11.1783 14.9961 11.2013 14.9814 11.2201C14.9667 11.239 14.9463 11.2525 14.9233 11.2588H14.9244ZM14.9695 10.835C14.9878 10.8351 15.0054 10.8425 15.0183 10.8555C15.0313 10.8686 15.0385 10.8862 15.0385 10.9046C15.0386 10.9141 15.0366 10.9235 15.0328 10.9322C15.029 10.9409 15.0234 10.9487 15.0164 10.955L15.012 10.9498L15.0005 10.9365C14.9968 10.9318 14.9928 10.9275 14.9883 10.9235L14.9754 10.9113L14.9621 10.8995L14.9477 10.8887L14.9344 10.8791C14.9298 10.8757 14.925 10.8726 14.92 10.8698L14.9141 10.8661C14.9201 10.857 14.9281 10.8494 14.9375 10.844C14.947 10.8386 14.9575 10.8355 14.9684 10.835H14.9695ZM14.4156 10.9039C14.4156 10.8855 14.4229 10.8679 14.4358 10.8549C14.4488 10.8419 14.4663 10.8346 14.4846 10.8346C14.4958 10.8346 14.5067 10.8373 14.5166 10.8424C14.5264 10.8476 14.5348 10.8551 14.5411 10.8643L14.5352 10.868C14.5304 10.8708 14.5257 10.8739 14.5212 10.8772C14.5164 10.8802 14.512 10.8835 14.5075 10.8869L14.4935 10.8976C14.4887 10.9013 14.4843 10.9054 14.4798 10.9095C14.4754 10.9133 14.4712 10.9173 14.4673 10.9217L14.4547 10.9347L14.4433 10.948L14.4389 10.9532C14.4313 10.9473 14.4251 10.9398 14.4207 10.9313C14.4162 10.9228 14.4136 10.9135 14.413 10.9039H14.4156ZM14.8683 11.0673C14.8644 11.0673 14.8607 11.0684 14.8574 11.0706C14.8542 11.0728 14.8517 11.0758 14.8502 11.0794C14.8488 11.083 14.8484 11.0869 14.8491 11.0908C14.8499 11.0946 14.8517 11.0981 14.8545 11.1008C14.8572 11.1036 14.8607 11.1054 14.8645 11.1062C14.8683 11.1069 14.8722 11.1065 14.8758 11.1051C14.8794 11.1036 14.8824 11.1011 14.8846 11.0978C14.8867 11.0946 14.8879 11.0908 14.8879 11.0869C14.888 11.0841 14.8874 11.0813 14.8863 11.0787C14.8852 11.0761 14.8835 11.0738 14.8814 11.0719C14.8793 11.07 14.8768 11.0686 14.8741 11.0678C14.8714 11.067 14.8685 11.0668 14.8657 11.0673H14.8683ZM14.5914 11.1043C14.5952 11.1043 14.599 11.1032 14.6023 11.101C14.6055 11.0988 14.608 11.0957 14.6095 11.0921C14.6109 11.0885 14.6113 11.0845 14.6105 11.0807C14.6097 11.0769 14.6078 11.0734 14.6051 11.0707C14.6023 11.068 14.5988 11.0661 14.5949 11.0654C14.5911 11.0647 14.5872 11.0651 14.5836 11.0667C14.58 11.0682 14.577 11.0708 14.5749 11.0741C14.5728 11.0773 14.5717 11.0812 14.5718 11.0851C14.5714 11.0901 14.5729 11.095 14.5761 11.0989C14.5793 11.1028 14.5838 11.1053 14.5888 11.1058L14.5914 11.1043ZM14.8683 11.0673C14.8644 11.0673 14.8607 11.0684 14.8574 11.0706C14.8542 11.0728 14.8517 11.0758 14.8502 11.0794C14.8488 11.083 14.8484 11.0869 14.8491 11.0908C14.8499 11.0946 14.8517 11.0981 14.8545 11.1008C14.8572 11.1036 14.8607 11.1054 14.8645 11.1062C14.8683 11.1069 14.8722 11.1065 14.8758 11.1051C14.8794 11.1036 14.8824 11.1011 14.8846 11.0978C14.8867 11.0946 14.8879 11.0908 14.8879 11.0869C14.888 11.0841 14.8874 11.0813 14.8863 11.0787C14.8852 11.0761 14.8835 11.0738 14.8814 11.0719C14.8793 11.07 14.8768 11.0686 14.8741 11.0678C14.8714 11.067 14.8685 11.0668 14.8657 11.0673H14.8683ZM14.5914 11.0673C14.5875 11.0673 14.5837 11.0684 14.5805 11.0706C14.5773 11.0728 14.5748 11.0758 14.5733 11.0794C14.5718 11.083 14.5714 11.0869 14.5722 11.0908C14.5729 11.0946 14.5748 11.0981 14.5775 11.1008C14.5803 11.1036 14.5837 11.1054 14.5875 11.1062C14.5913 11.1069 14.5953 11.1065 14.5989 11.1051C14.6024 11.1036 14.6055 11.1011 14.6076 11.0978C14.6098 11.0946 14.6109 11.0908 14.6109 11.0869C14.611 11.0841 14.6104 11.0813 14.6092 11.0788C14.6081 11.0762 14.6064 11.0739 14.6043 11.072C14.6022 11.0702 14.5997 11.0688 14.5971 11.068C14.5944 11.0671 14.5916 11.0669 14.5888 11.0673H14.5914ZM14.8683 11.0673C14.8644 11.0673 14.8607 11.0684 14.8574 11.0706C14.8542 11.0728 14.8517 11.0758 14.8502 11.0794C14.8488 11.083 14.8484 11.0869 14.8491 11.0908C14.8499 11.0946 14.8517 11.0981 14.8545 11.1008C14.8572 11.1036 14.8607 11.1054 14.8645 11.1062C14.8683 11.1069 14.8722 11.1065 14.8758 11.1051C14.8794 11.1036 14.8824 11.1011 14.8846 11.0978C14.8867 11.0946 14.8879 11.0908 14.8879 11.0869C14.888 11.0841 14.8874 11.0813 14.8863 11.0787C14.8852 11.0761 14.8835 11.0738 14.8814 11.0719C14.8793 11.07 14.8768 11.0686 14.8741 11.0678C14.8714 11.067 14.8685 11.0668 14.8657 11.0673H14.8683ZM14.5914 11.0673C14.5875 11.0673 14.5837 11.0684 14.5805 11.0706C14.5773 11.0728 14.5748 11.0758 14.5733 11.0794C14.5718 11.083 14.5714 11.0869 14.5722 11.0908C14.5729 11.0946 14.5748 11.0981 14.5775 11.1008C14.5803 11.1036 14.5837 11.1054 14.5875 11.1062C14.5913 11.1069 14.5953 11.1065 14.5989 11.1051C14.6024 11.1036 14.6055 11.1011 14.6076 11.0978C14.6098 11.0946 14.6109 11.0908 14.6109 11.0869C14.611 11.0841 14.6104 11.0813 14.6092 11.0788C14.6081 11.0762 14.6064 11.0739 14.6043 11.072C14.6022 11.0702 14.5997 11.0688 14.5971 11.068C14.5944 11.0671 14.5916 11.0669 14.5888 11.0673H14.5914Z" fill="white"/>
</svg>
