<svg width="220" height="120" viewBox="0 0 220 120" fill="none" xmlns="http://www.w3.org/2000/svg">
<mask id="mask0" mask-type="alpha" maskUnits="userSpaceOnUse" x="50" y="4" width="120" height="80">
<rect x="50" y="4" width="120" height="80" fill="#C4C4C4"/>
</mask>
<g mask="url(#mask0)">
<path d="M131.797 78.5725H83.3962C79.8783 78.5725 77 75.7206 77 72.235V12.1378C77 8.65217 79.8783 5.80029 83.3962 5.80029H131.797C135.315 5.80029 138.193 8.65217 138.193 12.1378V72.1822C138.193 75.7206 135.368 78.5725 131.797 78.5725Z" fill="#CCCCFF" stroke="#7373FF" stroke-width="1.5" stroke-miterlimit="10" stroke-linejoin="round"/>
<path d="M84.4146 68.6711V15.6496C84.4146 14.0126 85.7351 12.6924 87.3726 12.6924H128.356C129.993 12.6924 131.314 14.0126 131.314 15.6496V68.7239C131.314 70.3609 129.993 71.6811 128.356 71.6811H87.3726C85.7351 71.6283 84.4146 70.3081 84.4146 68.6711Z" fill="white" stroke="#7373FF" stroke-width="1.5" stroke-miterlimit="10" stroke-linejoin="round"/>
<path fill-rule="evenodd" clip-rule="evenodd" d="M104.518 18.6872C103.877 18.9572 103.371 19.4674 103.028 20.189C102.725 20.8246 102.667 21.1343 102.617 22.3826C102.532 24.5152 102.98 26.8611 103.967 29.4471L104.424 30.6467L103.934 31.9581C103.112 34.1613 101.75 37.224 100.296 40.1413C99.5349 41.6691 98.8317 43.0513 98.7334 43.2132C98.6335 43.3775 97.8989 43.8437 97.0679 44.27C93.9894 45.8494 91.2231 48.0198 90.6149 49.3331C90.3438 49.9182 90.2198 50.7817 90.3386 51.2564C90.4424 51.6711 91.1148 52.4443 91.5827 52.687C92.0879 52.9492 93.0709 52.9137 93.7396 52.6094C95.2375 51.9277 97.3128 49.4552 99.309 45.9737L99.9115 44.923L101.425 44.2817C104.435 43.0069 108.588 41.7189 111.627 41.1184L112.652 40.9158L114.382 41.7935C118.643 43.9554 122.547 44.4834 123.968 43.0899C124.459 42.6085 124.559 42.2804 124.477 41.4204C124.356 40.1658 123.016 39.1588 120.982 38.7963C119.698 38.5672 116.192 38.5587 114.422 38.7803L113.115 38.9438L112.243 38.3041C110.241 36.8359 108.524 34.6895 107.084 31.8553L106.43 30.5694L106.757 29.6057C107.203 28.2947 107.927 25.2801 108.113 23.9623C108.439 21.6576 108.018 19.7614 107.011 18.9903C106.61 18.6834 106.387 18.6159 105.682 18.5877C105.216 18.5691 104.692 18.6138 104.518 18.6872ZM105.917 20.6005C106.054 20.7381 106.206 21.0655 106.255 21.3282C106.399 22.0994 106.209 24.2937 105.871 25.7497C105.375 27.8884 105.371 27.8928 105.044 26.7043C104.203 23.6528 104.236 21.0074 105.123 20.4895C105.454 20.296 105.639 20.3218 105.917 20.6005ZM107.432 36.0813C108.133 37.0385 108.701 37.6717 109.673 38.5768C110.182 39.0504 110.473 39.4071 110.378 39.4412C110.289 39.4729 109.727 39.6123 109.128 39.7507C107.6 40.1037 105.308 40.814 103.267 41.5672C102.311 41.9201 101.507 42.1868 101.48 42.1599C101.453 42.1329 101.938 41.0759 102.558 39.8113C103.514 37.8617 104.898 34.7529 105.408 33.4074C105.547 33.0401 105.549 33.0419 106.251 34.2337C106.638 34.8907 107.17 35.722 107.432 36.0813ZM120.807 40.6751C121.585 40.8406 122.324 41.1826 122.585 41.4972C122.855 41.8234 122.547 41.9426 121.431 41.9439C120.324 41.945 118.915 41.6345 117.266 41.0257L116.112 40.6001L116.625 40.5114C117.319 40.3912 119.957 40.4945 120.807 40.6751ZM96.5009 46.928C94.9257 49.4037 93.0765 51.2508 92.4247 50.9999C91.5896 50.6785 92.7592 49.1444 94.9375 47.7039C96.9548 46.3698 96.8104 46.4415 96.5009 46.928Z" fill="#CCCCFF"/>
<path d="M140.148 48.7263C142.147 46.7053 145.403 46.691 147.42 48.6943C149.437 50.6977 149.451 53.9602 147.452 55.9812L122.297 81.4109L114.993 74.156L140.148 48.7263Z" fill="white"/>
<path d="M122.297 81.4109L121.769 81.9441C122.063 82.236 122.537 82.2339 122.829 81.9394L122.297 81.4109ZM114.993 74.156L114.46 73.6275C114.169 73.9219 114.171 74.3973 114.465 74.6892L114.993 74.156ZM146.92 55.4527L121.764 80.8824L122.829 81.9394L147.984 56.5097L146.92 55.4527ZM122.824 80.8777L115.52 73.6228L114.465 74.6892L121.769 81.9441L122.824 80.8777ZM115.525 74.6845L140.68 49.2548L139.616 48.1977L114.46 73.6275L115.525 74.6845ZM146.893 49.2275C148.616 50.939 148.628 53.7261 146.92 55.4527L147.984 56.5097C150.275 54.1942 150.258 50.4564 147.947 48.1612L146.893 49.2275ZM147.947 48.1612C145.637 45.8659 141.907 45.8822 139.616 48.1977L140.68 49.2548C142.388 47.5283 145.17 47.5161 146.893 49.2275L147.947 48.1612Z" fill="#7373FF"/>
<path d="M114.975 74.1567L113.266 81.3855C113.086 82.1495 113.746 82.8491 114.519 82.7135L122.174 81.371L114.975 74.1567Z" fill="white" stroke="#7373FF" stroke-width="1.5" stroke-linecap="round" stroke-linejoin="round"/>
<path d="M140.139 48.7359C142.143 46.7095 145.407 46.6952 147.43 48.7038C149.452 50.7125 149.466 53.9834 147.462 56.0098L145.395 58.099L138.072 50.8251L140.139 48.7359Z" fill="white" stroke="#7373FF" stroke-width="1.5"/>
<path fill-rule="evenodd" clip-rule="evenodd" d="M96.5098 65.4697H98.7263V62.1018H99.2088C100.56 62.1018 101.581 61.7733 102.268 61.1669C102.957 60.5574 103.28 59.6915 103.28 58.6778C103.28 57.4191 102.812 56.5676 102 56.0423C101.205 55.5275 100.107 55.3438 98.8752 55.3438H96.5098V65.4697ZM96.7075 65.2722H96.7072V55.5412H98.8752C100.587 55.5412 101.969 55.9025 102.641 56.95C101.969 55.9028 100.587 55.5417 98.8755 55.5417H96.7075V65.2722ZM107.437 55.3438H104.289V65.4697H107.129C108.848 65.4697 110.293 65.021 111.312 64.1549C112.335 63.2852 112.906 62.0126 112.906 60.4132C112.906 58.7663 112.295 57.4919 111.293 56.6319C110.296 55.7753 108.929 55.3438 107.437 55.3438ZM114.059 65.4697H116.276V61.2148H119.393V59.1616H116.276V57.397H120.124V55.3566H114.059V65.4697ZM114.257 65.2722H114.257V55.5541H119.927V55.5545H114.257V65.2722ZM116.079 59.3591V59.3595H119.196V59.3591H116.079ZM98.7263 60.0486V57.397H99.3755C99.9556 57.397 100.348 57.5378 100.594 57.7541C100.835 57.9673 100.961 58.2776 100.961 58.6778C100.961 59.1121 100.816 59.4435 100.539 59.6709C100.257 59.9031 99.811 60.0486 99.1703 60.0486H98.7263ZM104.486 55.5412V65.2722H104.486V55.5417H107.437C109.351 55.5417 111.028 56.2696 111.951 57.6744C111.028 56.2694 109.351 55.5412 107.437 55.5412H104.486ZM106.505 63.4165V57.397H107.667C108.535 57.397 109.256 57.7092 109.759 58.2301C110.263 58.7517 110.562 59.4944 110.562 60.3746C110.562 61.512 110.197 62.2615 109.644 62.7307C109.085 63.2046 108.306 63.4165 107.437 63.4165H106.505ZM100.943 57.8612C101.088 58.0878 101.159 58.3643 101.159 58.6778C101.159 59.6419 100.504 60.246 99.1703 60.246H98.5291V60.2465H99.1706C100.505 60.2465 101.159 59.6423 101.159 58.6782C101.159 58.3645 101.088 58.0879 100.943 57.8612ZM110.265 58.5565C110.582 59.0604 110.759 59.6804 110.759 60.3746C110.759 62.7399 109.233 63.614 107.437 63.614H106.308V63.6144H107.437C109.233 63.6144 110.759 62.7403 110.759 60.375C110.759 59.6807 110.582 59.0605 110.265 58.5565Z" fill="#7373FF"/>
</g>
<path d="M66.8457 107.717V113H64.375V98.7812H69.8145C71.403 98.7812 72.6628 99.1947 73.5938 100.021C74.5312 100.848 75 101.942 75 103.303C75 104.696 74.541 105.78 73.623 106.555C72.7116 107.329 71.4323 107.717 69.7852 107.717H66.8457ZM66.8457 105.734H69.8145C70.6934 105.734 71.3639 105.529 71.8262 105.119C72.2884 104.702 72.5195 104.104 72.5195 103.322C72.5195 102.554 72.2852 101.942 71.8164 101.486C71.3477 101.024 70.7031 100.786 69.8828 100.773H66.8457V105.734ZM77.168 113V98.7812H81.3672C82.6237 98.7812 83.737 99.0612 84.707 99.6211C85.6836 100.181 86.4388 100.975 86.9727 102.004C87.5065 103.033 87.7734 104.211 87.7734 105.539V106.252C87.7734 107.6 87.5033 108.785 86.9629 109.807C86.429 110.829 85.6641 111.617 84.668 112.17C83.6784 112.723 82.5423 113 81.2598 113H77.168ZM79.6387 100.773V111.027H81.25C82.5456 111.027 83.5384 110.624 84.2285 109.816C84.9251 109.003 85.2799 107.837 85.293 106.32V105.529C85.293 103.986 84.9577 102.808 84.2871 101.994C83.6165 101.18 82.6432 100.773 81.3672 100.773H79.6387ZM98.4277 106.975H92.7051V113H90.2344V98.7812H99.2676V100.773H92.7051V105.002H98.4277V106.975ZM114.521 106.652H108.682V111.027H115.508V113H106.211V98.7812H115.439V100.773H108.682V104.699H114.521V106.652ZM116.65 107.639C116.65 106.011 117.028 104.706 117.783 103.723C118.538 102.733 119.551 102.238 120.82 102.238C121.94 102.238 122.845 102.629 123.535 103.41V98H125.908V113H123.76L123.643 111.906C122.933 112.766 121.986 113.195 120.801 113.195C119.564 113.195 118.561 112.697 117.793 111.701C117.031 110.705 116.65 109.351 116.65 107.639ZM119.023 107.844C119.023 108.918 119.229 109.758 119.639 110.363C120.055 110.962 120.645 111.262 121.406 111.262C122.376 111.262 123.086 110.829 123.535 109.963V105.451C123.099 104.605 122.396 104.182 121.426 104.182C120.658 104.182 120.065 104.488 119.648 105.1C119.232 105.705 119.023 106.62 119.023 107.844ZM130.908 113H128.535V102.434H130.908V113ZM128.389 99.6895C128.389 99.3249 128.503 99.0221 128.73 98.7812C128.965 98.5404 129.297 98.4199 129.727 98.4199C130.156 98.4199 130.488 98.5404 130.723 98.7812C130.957 99.0221 131.074 99.3249 131.074 99.6895C131.074 100.048 130.957 100.347 130.723 100.588C130.488 100.822 130.156 100.939 129.727 100.939C129.297 100.939 128.965 100.822 128.73 100.588C128.503 100.347 128.389 100.048 128.389 99.6895ZM136.475 99.8652V102.434H138.34V104.191H136.475V110.09C136.475 110.493 136.553 110.786 136.709 110.969C136.872 111.145 137.158 111.232 137.568 111.232C137.842 111.232 138.118 111.2 138.398 111.135V112.971C137.858 113.12 137.337 113.195 136.836 113.195C135.013 113.195 134.102 112.189 134.102 110.178V104.191H132.363V102.434H134.102V99.8652H136.475ZM139.424 107.619C139.424 106.584 139.629 105.653 140.039 104.826C140.449 103.993 141.025 103.355 141.768 102.912C142.51 102.463 143.363 102.238 144.326 102.238C145.752 102.238 146.908 102.697 147.793 103.615C148.685 104.533 149.167 105.751 149.238 107.268L149.248 107.824C149.248 108.866 149.046 109.797 148.643 110.617C148.245 111.438 147.673 112.072 146.924 112.521C146.182 112.971 145.322 113.195 144.346 113.195C142.855 113.195 141.66 112.701 140.762 111.711C139.87 110.715 139.424 109.39 139.424 107.736V107.619ZM141.797 107.824C141.797 108.911 142.021 109.764 142.471 110.383C142.92 110.995 143.545 111.301 144.346 111.301C145.146 111.301 145.768 110.988 146.211 110.363C146.66 109.738 146.885 108.824 146.885 107.619C146.885 106.551 146.654 105.705 146.191 105.08C145.736 104.455 145.114 104.143 144.326 104.143C143.551 104.143 142.936 104.452 142.48 105.07C142.025 105.682 141.797 106.6 141.797 107.824ZM156.787 104.602C156.475 104.549 156.152 104.523 155.82 104.523C154.733 104.523 154.001 104.94 153.623 105.773V113H151.25V102.434H153.516L153.574 103.615C154.147 102.697 154.941 102.238 155.957 102.238C156.296 102.238 156.576 102.284 156.797 102.375L156.787 104.602Z" fill="#424242"/>
</svg>
