<svg width="159" height="24" viewBox="0 0 159 24" fill="none" xmlns="http://www.w3.org/2000/svg">
<mask id="mask0" mask-type="alpha" maskUnits="userSpaceOnUse" x="0" y="0" width="24" height="24">
<rect width="24" height="24" fill="#999999"/>
</mask>
<g mask="url(#mask0)">
</g>
<path fill-rule="evenodd" clip-rule="evenodd" d="M16.3631 1.58579C15.9881 1.21071 15.4793 1 14.9489 1H4.77734C3.5347 1 2.77734 2 2.77734 3V21C2.77734 22.215 3.5347 23 4.77734 23H18.7505C19.9931 23 20.7773 22.215 20.7773 21V6.82843C20.7773 6.29799 20.5666 5.78929 20.1916 5.41421L16.3631 1.58579Z" stroke="#5858FF" stroke-width="2" stroke-linecap="round" stroke-linejoin="round"/>
<path d="M14.7773 2L14.7773 6C14.7773 6.55228 15.2251 7 15.7773 7H20.2773" stroke="#5858FF" stroke-width="2" stroke-linecap="round" stroke-linejoin="round"/>
<path d="M7.59375 15.5527V17H6.56543V12.7344H8.26758C8.59375 12.7344 8.88184 12.7949 9.13184 12.916C9.38379 13.0352 9.57812 13.2061 9.71484 13.4287C9.85352 13.6494 9.92285 13.9004 9.92285 14.1816C9.92285 14.5977 9.77344 14.9307 9.47461 15.1807C9.17773 15.4287 8.76953 15.5527 8.25 15.5527H7.59375ZM7.59375 14.7588H8.26758C8.4668 14.7588 8.61816 14.709 8.72168 14.6094C8.82715 14.5098 8.87988 14.3691 8.87988 14.1875C8.87988 13.9883 8.82617 13.8291 8.71875 13.71C8.61133 13.5908 8.46484 13.5303 8.2793 13.5283H7.59375V14.7588ZM10.4736 17V12.7344H11.8477C12.2246 12.7344 12.5635 12.8203 12.8643 12.9922C13.165 13.1621 13.3994 13.4033 13.5674 13.7158C13.7373 14.0264 13.8232 14.375 13.8252 14.7617V14.958C13.8252 15.3486 13.7422 15.6992 13.5762 16.0098C13.4121 16.3184 13.1797 16.5605 12.8789 16.7363C12.5801 16.9102 12.2461 16.998 11.877 17H10.4736ZM11.502 13.5283V16.209H11.8594C12.1543 16.209 12.3809 16.1045 12.5391 15.8955C12.6973 15.6846 12.7764 15.3721 12.7764 14.958V14.7734C12.7764 14.3613 12.6973 14.0508 12.5391 13.8418C12.3809 13.6328 12.1504 13.5283 11.8477 13.5283H11.502ZM17.0391 15.3008H15.3809V17H14.3525V12.7344H17.2061V13.5283H15.3809V14.5098H17.0391V15.3008Z" fill="#5858FF"/>
<path d="M34.8203 12.5469V17H33.3203V5.625H37.5156C38.7604 5.625 39.7344 5.94271 40.4375 6.57812C41.1458 7.21354 41.5 8.05469 41.5 9.10156C41.5 10.2057 41.1536 11.0573 40.4609 11.6562C39.7734 12.25 38.7865 12.5469 37.5 12.5469H34.8203ZM34.8203 11.3203H37.5156C38.3177 11.3203 38.9323 11.1328 39.3594 10.7578C39.7865 10.3776 40 9.83073 40 9.11719C40 8.4401 39.7865 7.89844 39.3594 7.49219C38.9323 7.08594 38.3464 6.875 37.6016 6.85938H34.8203V11.3203ZM43.4141 17V5.625H46.625C47.6146 5.625 48.4896 5.84375 49.25 6.28125C50.0104 6.71875 50.5964 7.34115 51.0078 8.14844C51.4245 8.95573 51.6354 9.88281 51.6406 10.9297V11.6562C51.6406 12.7292 51.4323 13.6693 51.0156 14.4766C50.6042 15.2839 50.013 15.9036 49.2422 16.3359C48.4766 16.7682 47.5833 16.9896 46.5625 17H43.4141ZM44.9141 6.85938V15.7734H46.4922C47.6484 15.7734 48.5469 15.4141 49.1875 14.6953C49.8333 13.9766 50.1562 12.9531 50.1562 11.625V10.9609C50.1562 9.66927 49.8516 8.66667 49.2422 7.95312C48.638 7.23438 47.7786 6.86979 46.6641 6.85938H44.9141ZM60.1875 11.9766H55.4141V17H53.9141V5.625H60.9609V6.85938H55.4141V10.75H60.1875V11.9766ZM73.1562 11.7422H68.2266V15.7734H73.9531V17H66.7266V5.625H73.875V6.85938H68.2266V10.5156H73.1562V11.7422ZM75.0859 12.7031C75.0859 11.4062 75.3932 10.3646 76.0078 9.57812C76.6224 8.78646 77.4271 8.39062 78.4219 8.39062C79.4115 8.39062 80.1953 8.72917 80.7734 9.40625V5H82.2188V17H80.8906L80.8203 16.0938C80.2422 16.8021 79.4375 17.1562 78.4062 17.1562C77.4271 17.1562 76.6276 16.7552 76.0078 15.9531C75.3932 15.151 75.0859 14.1042 75.0859 12.8125V12.7031ZM76.5312 12.8672C76.5312 13.8255 76.7292 14.5755 77.125 15.1172C77.5208 15.6589 78.0677 15.9297 78.7656 15.9297C79.6823 15.9297 80.3516 15.5182 80.7734 14.6953V10.8125C80.3411 10.0156 79.6771 9.61719 78.7812 9.61719C78.0729 9.61719 77.5208 9.89062 77.125 10.4375C76.7292 10.9844 76.5312 11.7943 76.5312 12.8672ZM86.0391 17H84.5938V8.54688H86.0391V17ZM84.4766 6.30469C84.4766 6.07031 84.5469 5.8724 84.6875 5.71094C84.8333 5.54948 85.0469 5.46875 85.3281 5.46875C85.6094 5.46875 85.8229 5.54948 85.9688 5.71094C86.1146 5.8724 86.1875 6.07031 86.1875 6.30469C86.1875 6.53906 86.1146 6.73438 85.9688 6.89062C85.8229 7.04688 85.6094 7.125 85.3281 7.125C85.0469 7.125 84.8333 7.04688 84.6875 6.89062C84.5469 6.73438 84.4766 6.53906 84.4766 6.30469ZM90.3203 6.5V8.54688H91.8984V9.66406H90.3203V14.9062C90.3203 15.2448 90.3906 15.5 90.5312 15.6719C90.6719 15.8385 90.9115 15.9219 91.25 15.9219C91.4167 15.9219 91.6458 15.8906 91.9375 15.8281V17C91.5573 17.1042 91.1875 17.1562 90.8281 17.1562C90.1823 17.1562 89.6953 16.9609 89.3672 16.5703C89.0391 16.1797 88.875 15.625 88.875 14.9062V9.66406H87.3359V8.54688H88.875V6.5H90.3203ZM93.0547 12.6953C93.0547 11.8672 93.2161 11.1224 93.5391 10.4609C93.8672 9.79948 94.3203 9.28906 94.8984 8.92969C95.4818 8.57031 96.1458 8.39062 96.8906 8.39062C98.0417 8.39062 98.9714 8.78906 99.6797 9.58594C100.393 10.3828 100.75 11.4427 100.75 12.7656V12.8672C100.75 13.6901 100.591 14.4297 100.273 15.0859C99.9609 15.737 99.5104 16.2448 98.9219 16.6094C98.3385 16.974 97.6667 17.1562 96.9062 17.1562C95.7604 17.1562 94.8307 16.7578 94.1172 15.9609C93.4089 15.1641 93.0547 14.1094 93.0547 12.7969V12.6953ZM94.5078 12.8672C94.5078 13.8047 94.724 14.5573 95.1562 15.125C95.5938 15.6927 96.1771 15.9766 96.9062 15.9766C97.6406 15.9766 98.224 15.6901 98.6562 15.1172C99.0885 14.5391 99.3047 13.7318 99.3047 12.6953C99.3047 11.7682 99.0833 11.0182 98.6406 10.4453C98.2031 9.86719 97.6198 9.57812 96.8906 9.57812C96.1771 9.57812 95.6016 9.86198 95.1641 10.4297C94.7266 10.9974 94.5078 11.8099 94.5078 12.8672ZM106.648 9.84375C106.43 9.80729 106.193 9.78906 105.938 9.78906C104.99 9.78906 104.346 10.1927 104.008 11V17H102.562V8.54688H103.969L103.992 9.52344C104.466 8.76823 105.138 8.39062 106.008 8.39062C106.289 8.39062 106.503 8.42708 106.648 8.5V9.84375Z" fill="#212121"/>
</svg>
