<svg width="90" height="80" viewBox="0 0 90 80" fill="none" xmlns="http://www.w3.org/2000/svg">
<mask id="mask0" mask-type="alpha" maskUnits="userSpaceOnUse" x="0" y="0" width="90" height="80">
<path d="M0 0H90V80H0V0Z" fill="#C4C4C4"/>
</mask>
<g mask="url(#mask0)">
<path d="M66.7295 74.5265H18.3884C14.8748 74.5265 12 71.6451 12 68.1233V7.40319C12 3.88144 14.8748 1 18.3884 1H66.7295C70.2431 1 73.1179 3.88144 73.1179 7.40319V68.0699C73.1179 71.6451 70.2963 74.5265 66.7295 74.5265Z" fill="#CCCCFF"/>
<path fill-rule="evenodd" clip-rule="evenodd" d="M18.3884 1.75C15.2906 1.75 12.75 4.29401 12.75 7.40319V68.1233C12.75 71.2325 15.2906 73.7765 18.3884 73.7765H66.7295C69.8724 73.7765 72.3679 71.2406 72.3679 68.0699V7.40319C72.3679 4.29401 69.8273 1.75 66.7295 1.75H18.3884ZM11.25 7.40319C11.25 3.46886 14.4589 0.25 18.3884 0.25H66.7295C70.659 0.25 73.8679 3.46886 73.8679 7.40319V68.0699C73.8679 72.0495 70.7203 75.2765 66.7295 75.2765H18.3884C14.4589 75.2765 11.25 72.0576 11.25 68.1233V7.40319Z" fill="#7373FF"/>
<path d="M19.4053 64.5223V10.9512C19.4053 9.29724 20.7242 7.96338 22.3597 7.96338H63.2924C64.9279 7.96338 66.2469 9.29724 66.2469 10.9512V64.5757C66.2469 66.2296 64.9279 67.5635 63.2924 67.5635H22.3597C20.7242 67.5101 19.4053 66.1763 19.4053 64.5223Z" fill="white"/>
<path fill-rule="evenodd" clip-rule="evenodd" d="M22.3597 8.71338C21.1464 8.71338 20.1553 9.70348 20.1553 10.9512V64.5223C20.1553 65.7614 21.1407 66.7673 22.3727 66.8135H63.2924C64.5058 66.8135 65.4969 65.8234 65.4969 64.5757V10.9512C65.4969 9.70348 64.5058 8.71338 63.2924 8.71338H22.3597ZM18.6553 10.9512C18.6553 8.89099 20.3021 7.21338 22.3597 7.21338H63.2924C65.3501 7.21338 66.9969 8.891 66.9969 10.9512V64.5757C66.9969 66.6359 65.3501 68.3135 63.2924 68.3135H22.3597C22.3516 68.3135 22.3434 68.3134 22.3353 68.3131C20.3016 68.2468 18.6553 66.5873 18.6553 64.5223V10.9512Z" fill="#7373FF"/>
<path fill-rule="evenodd" clip-rule="evenodd" d="M39.4842 14.0205C38.8446 14.2932 38.3391 14.8087 37.9958 15.5378C37.6936 16.18 37.6356 16.4929 37.5857 17.7541C37.5005 19.9088 37.9481 22.279 38.9337 24.8918L39.3908 26.1039L38.9016 27.4289C38.0797 29.655 36.7197 32.7494 35.2678 35.6969C34.5074 37.2405 33.8051 38.6371 33.7069 38.8006C33.6071 38.9666 32.8734 39.4377 32.0434 39.8684C28.9687 41.4642 26.2058 43.6571 25.5984 44.984C25.3276 45.5752 25.2037 46.4476 25.3224 46.9273C25.4261 47.3463 26.0977 48.1275 26.565 48.3727C27.0696 48.6375 28.0514 48.6017 28.7193 48.2943C30.2153 47.6055 32.288 45.1074 34.2818 41.5898L34.8835 40.5282L36.3956 39.8802C39.4012 38.5922 43.5498 37.2909 46.5844 36.6841L47.6084 36.4794L49.3364 37.3662C53.5922 39.5506 57.4915 40.084 58.9106 38.6761C59.4008 38.1897 59.5007 37.8582 59.4184 36.9893C59.2983 35.7217 57.9592 34.7042 55.9284 34.3379C54.6452 34.1065 51.1438 34.0979 49.3757 34.3218L48.0711 34.487L47.1997 33.8406C45.2002 32.3573 43.4851 30.1886 42.0468 27.325L41.3941 26.0258L41.721 25.0521C42.1657 23.7275 42.889 20.6816 43.075 19.3502C43.4005 17.0216 42.9806 15.1057 41.974 14.3267C41.5733 14.0166 41.3507 13.9484 40.6465 13.9199C40.1812 13.9011 39.6581 13.9463 39.4842 14.0205ZM40.8812 15.9536C41.0182 16.0926 41.1703 16.4234 41.2194 16.6888C41.3634 17.468 41.1731 19.6851 40.8358 21.1561C40.3404 23.317 40.3367 23.3215 40.0095 22.1206C39.1695 19.0375 39.203 16.3647 40.0884 15.8414C40.4191 15.6459 40.6037 15.672 40.8812 15.9536ZM42.3952 31.5949C43.0946 32.5619 43.6624 33.2017 44.6332 34.1162C45.1411 34.5947 45.4316 34.9551 45.3372 34.9895C45.2487 35.0216 44.6868 35.1624 44.0884 35.3023C42.5623 35.6589 40.2735 36.3765 38.2353 37.1376C37.2802 37.4942 36.4769 37.7637 36.45 37.7364C36.4231 37.7091 36.9078 36.6412 37.5272 35.3635C38.4821 33.3937 39.8636 30.2527 40.3729 28.8932C40.5119 28.5221 40.5139 28.524 41.2151 29.7281C41.6016 30.3919 42.1327 31.2318 42.3952 31.5949ZM55.7533 36.2363C56.5299 36.4034 57.2689 36.749 57.5288 37.0669C57.7984 37.3965 57.4909 37.5169 56.3764 37.5182C55.2714 37.5194 53.8639 37.2056 52.2164 36.5905L51.0644 36.1604L51.5764 36.0708C52.2697 35.9494 54.9048 36.0538 55.7533 36.2363ZM31.4772 42.5539C29.9039 45.0553 28.057 46.9215 27.406 46.668C26.5719 46.3433 27.7401 44.7933 29.9157 43.3379C31.9305 41.99 31.7863 42.0625 31.4772 42.5539Z" fill="#CCCCFF"/>
<path d="M75.0709 44.3707C77.0675 42.3289 80.3191 42.3146 82.3335 44.3388C84.348 46.3629 84.3624 49.659 82.3659 51.7008L57.2409 77.3944L49.9459 70.0643L75.0709 44.3707Z" fill="white"/>
<path fill-rule="evenodd" clip-rule="evenodd" d="M74.5417 43.839C76.8278 41.5011 80.551 41.4847 82.8577 43.8025C85.1643 46.1202 85.1809 49.8944 82.8947 52.2323L57.7697 77.926C57.4801 78.2222 57.0085 78.2242 56.7163 77.9306L49.4214 70.6005C49.1292 70.3069 49.1271 69.8288 49.4167 69.5327L74.5417 43.839ZM81.809 44.875C80.0867 43.1444 77.3067 43.1566 75.5998 44.9022L50.9991 70.0597L57.236 76.3266L81.8366 51.1691C83.5436 49.4235 83.5312 46.6055 81.809 44.875Z" fill="#7373FF"/>
<path d="M49.9283 70.0651L48.2179 77.3856C48.0393 78.1498 48.7004 78.8476 49.4732 78.7105L57.119 77.3541L49.9283 70.0651Z" fill="white"/>
<path fill-rule="evenodd" clip-rule="evenodd" d="M49.725 69.343C49.988 69.269 50.2704 69.3438 50.4622 69.5382L57.6529 76.8273C57.8486 77.0257 57.9182 77.3162 57.8336 77.5816C57.7491 77.8471 57.5243 78.0439 57.25 78.0925L49.6042 79.4488C48.3013 79.68 47.1865 78.5034 47.4876 77.2148L49.198 69.8943C49.2601 69.6283 49.462 69.4171 49.725 69.343ZM50.3493 71.5596L48.9483 77.5561C48.8922 77.7959 49.0997 78.0149 49.3422 77.9719L55.5829 76.8648L50.3493 71.5596Z" fill="#7373FF"/>
<path d="M75.0614 44.3803C77.0632 42.3332 80.3233 42.3189 82.3431 44.3483C84.3628 46.3778 84.3773 49.6825 82.3755 51.7296L80.3109 53.8409L72.9969 46.4916L75.0614 44.3803Z" fill="white"/>
<path fill-rule="evenodd" clip-rule="evenodd" d="M74.5322 43.8487C76.8236 41.5054 80.5553 41.489 82.8672 43.8121C85.1791 46.1351 85.1957 49.9179 82.9043 52.2612L80.3154 54.9087L71.9433 46.4962L74.5322 43.8487ZM81.8185 44.8845C80.091 43.1487 77.3025 43.1609 75.5903 44.9119L74.0501 46.4869L80.3061 52.773L81.8462 51.198C83.5584 49.447 83.546 46.6204 81.8185 44.8845Z" fill="#7373FF"/>
<path fill-rule="evenodd" clip-rule="evenodd" d="M31.4858 61.2879H33.6997V57.8851H34.1815C35.5306 57.8851 36.5512 57.5532 37.2366 56.9405C37.9255 56.3247 38.2482 55.4498 38.2482 54.4256C38.2482 53.1539 37.7803 52.2935 36.9697 51.7628C36.1753 51.2426 35.0783 51.057 33.8484 51.057H31.4858V61.2879ZM31.6836 61.0884H31.6831V51.2565H33.8484C35.6293 51.2565 37.0536 51.6527 37.69 52.8163C37.0533 51.6535 35.6293 51.2575 33.8489 51.2575H31.6836V61.0884ZM42.3992 51.057H39.2551V61.2879H42.0917C43.8088 61.2879 45.2523 60.8346 46.2698 59.9595C47.2915 59.0808 47.8624 57.7949 47.8624 56.179C47.8624 54.515 47.2514 53.2274 46.2514 52.3585C45.2552 51.493 43.8898 51.057 42.3992 51.057ZM49.0138 61.2879H51.2276V56.9889H54.3411V54.9144H51.2276V53.1315H55.0714V51.07H49.0138V61.2879ZM49.2115 61.0884H49.211V51.2695H54.8742V51.2705H49.2115V61.0884ZM51.0309 55.114V55.1149H54.1438V55.114H51.0309ZM33.6997 55.8106V53.1315H34.3481C34.9274 53.1315 35.3195 53.2738 35.5646 53.4924C35.8061 53.7078 35.9318 54.0213 35.9318 54.4256C35.9318 54.8644 35.7868 55.1992 35.5105 55.429C35.2284 55.6636 34.783 55.8106 34.1431 55.8106H33.6997ZM39.4523 51.2565V61.0884H39.4528V51.2575H42.3997C44.4374 51.2575 46.2047 52.0926 47.0803 53.7004C46.2049 52.092 44.4373 51.2565 42.3992 51.2565H39.4523ZM41.4689 59.2134V53.1315H42.6298C43.4967 53.1315 44.2161 53.4469 44.719 53.9733C45.2225 54.5003 45.5204 55.2507 45.5204 56.14C45.5204 57.2892 45.1559 58.0465 44.6035 58.5205C44.0455 58.9994 43.2675 59.2134 42.3992 59.2134H41.4689ZM35.955 53.6706C36.072 53.8856 36.129 54.1405 36.129 54.4256C36.129 55.3997 35.4756 56.0101 34.1431 56.0101H33.503V56.0111H34.1436C35.4761 56.0111 36.1296 55.4006 36.1296 54.4265C36.1296 54.141 36.0723 53.8858 35.955 53.6706ZM45.3118 54.4539C45.5736 54.934 45.7177 55.5064 45.7177 56.14C45.7177 58.5298 44.193 59.413 42.3992 59.413H41.2722V59.4139H42.3997C44.1935 59.4139 45.7182 58.5307 45.7182 56.141C45.7182 55.507 45.5739 54.9342 45.3118 54.4539Z" fill="#7373FF"/>
</g>
</svg>
