<svg width="115" height="32" viewBox="0 0 115 32" fill="none" xmlns="http://www.w3.org/2000/svg">
<mask id="mask0" mask-type="alpha" maskUnits="userSpaceOnUse" x="0" y="0" width="115" height="32">
<rect width="115" height="32" fill="white"/>
</mask>
<g mask="url(#mask0)">
<path fill-rule="evenodd" clip-rule="evenodd" d="M8.49821 1.16499C6.37463 1.46829 4.86811 1.90514 3.41893 2.63798C2.07147 3.31912 1 4.20507 1 4.6379C1 4.8904 1.1004 4.85551 2.10756 4.2533C4.21309 2.99426 6.99357 2.36355 10.4005 2.37178C17.9344 2.39041 22.3109 5.31977 19.942 8.75814C18.3488 11.0705 14.6155 11.9088 13.3413 10.2401L12.9561 9.73563L13.4833 7.68218C13.7734 6.55286 14.0488 5.53335 14.0956 5.4166C14.2227 5.10033 13.4041 4.44113 12.8847 4.44113C11.5005 4.44113 10.555 5.58542 10.3178 7.54716C10.0342 9.89166 9.18049 13.6445 8.21149 16.8048C7.0479 20.6 7.02647 21.0675 8.01578 21.0675C8.48279 21.0675 8.79526 20.9016 9.30608 20.3824C10.1702 19.5039 10.1916 19.4592 11.2539 16.3171C11.7465 14.86 12.2686 13.4899 12.4143 13.2723C12.7598 12.756 13.811 12.3591 15.9853 11.9245C19.5506 11.2115 22.4953 9.67972 23.5804 7.97378C24.1348 7.10208 24.0218 5.499 23.335 4.49027C22.4707 3.22119 18.9115 1.7091 15.6708 1.23442C13.7503 0.953053 10.2219 0.918885 8.49821 1.16499ZM25.9944 4.71007C25.3226 5.06507 25.0636 5.72775 24.8515 7.63376C24.5516 10.3298 23.943 13.8796 23.3578 16.3465C22.7698 18.8253 22.6666 20.1829 23.0442 20.4719C23.1735 20.5707 23.5117 20.7058 23.796 20.7717C24.2401 20.8748 24.4351 20.769 25.1814 20.0204C25.6592 19.5412 26.6408 18.4091 27.3627 17.5047C28.0847 16.6003 28.7345 15.8384 28.8067 15.8118C28.8788 15.7849 29.1325 16.5472 29.3703 17.5056C29.717 18.9032 29.9195 19.362 30.3929 19.8222C32.273 21.6491 35.2934 21.5899 37.4647 19.6837L38.2553 18.9894L38.7127 19.5573C39.6755 20.7529 41.9927 21.094 44.1308 20.3552C44.7414 20.1439 45.2611 19.9713 45.2853 19.9713C45.3096 19.9713 45.384 20.1823 45.4506 20.4401C45.6394 21.1711 46.6619 21.4978 48.4014 21.3827C50.0967 21.2707 51.2977 20.8035 52.5688 19.7619L53.4692 19.0241L54.2688 19.7405C55.6123 20.9438 57.064 21.1101 59.4024 20.3283L60.3885 19.9985L60.4468 20.3959C60.4874 20.6731 60.6578 20.8106 61.0092 20.8501C61.6569 20.9228 62.7187 20.0104 63.9149 18.3536C64.957 16.9098 65.8525 15.9517 66.1595 15.9517C66.2932 15.9517 66.466 16.5159 66.5932 17.3677C66.8382 19.008 67.625 20.6782 68.3118 21.0158C68.9315 21.3206 70.6182 21.3107 71.8701 20.995C72.7412 20.7754 72.9886 20.7763 73.6432 21.0007C75.0204 21.473 76.8862 21.5024 78.5497 21.0783C80.7419 20.5194 81.811 19.7407 82.1326 18.4685C82.2334 18.0708 82.1509 17.8661 81.7224 17.4501C81.1781 16.9217 80.5714 16.6674 78.134 15.9453C75.77 15.2448 75.177 14.2807 76.6768 13.5752C77.4433 13.2146 77.6159 13.197 78.4595 13.3936C78.9733 13.5135 79.7056 13.8524 80.0871 14.1469C80.8461 14.7331 81.1567 14.7451 81.2415 14.1915C81.4334 12.937 77.6377 12.3295 75.1834 13.2219C73.6771 13.7696 72.9109 14.4553 73.0788 15.1058C73.2306 15.6932 74.4882 16.5263 75.9022 16.9762C79.1181 17.9993 80.3486 19.3026 78.8225 20.0694C77.5367 20.7156 74.964 20.2326 73.1224 18.9995C71.9758 18.2314 70.9203 18.4819 71.6046 19.3598C72.0072 19.8761 71.9387 19.9457 71.1891 19.7815C70.1921 19.5629 69.5805 19.0475 69.1637 18.0748C68.8005 17.2272 68.8005 17.2062 69.1756 15.2099C69.4762 13.6092 69.5051 13.1603 69.3175 13.009C68.9014 12.6734 67.5645 13.4406 65.5045 15.1968C64.4283 16.1145 63.4854 16.8653 63.4095 16.8653C63.1192 16.8653 63.0758 16.3053 63.2687 15.0429C63.493 13.574 63.3664 13.2754 62.5995 13.4625C61.7537 13.6688 61.3703 14.4628 61.1643 16.4359C60.8693 19.2578 60.9172 19.1546 59.7912 19.3948C58.3229 19.7082 57.3274 19.323 56.4234 18.0912C56.0299 17.5552 55.9929 17.3085 55.9929 15.2209C55.9929 12.9993 55.9814 12.9354 55.5747 12.8793C55.0654 12.809 54.615 13.4636 53.9001 15.3122C52.8868 17.9335 51.8298 19.2616 50.1768 19.9914C48.6966 20.6447 47.7697 20.2921 47.4736 18.9633C47.3482 18.4007 47.4335 17.6335 47.8393 15.6745C48.5315 12.3325 48.8993 9.88746 49.0476 7.63851C49.227 4.91799 48.8681 4.35068 47.4854 5.16995C46.8934 5.52075 46.8744 5.57044 46.8723 6.76791C46.8689 8.66167 46.1889 14.5761 45.7743 16.3171C45.5709 17.1713 45.3526 18.1683 45.2893 18.5326C45.1859 19.1266 45.0902 19.218 44.3635 19.4157C43.6799 19.6017 43.4378 19.5894 42.8166 19.3373C41.851 18.9454 41.0839 18.2149 40.8784 17.4918C40.7876 17.1718 40.7577 15.9956 40.8122 14.8778C40.9064 12.9462 40.8931 12.8457 40.5415 12.8457C39.9173 12.8457 39.3749 13.6193 38.5303 15.7136C37.2175 18.9695 36.2611 20.0082 34.5413 20.0458C32.8667 20.0824 32.1017 19.1115 31.4598 16.1344C31.2324 15.0793 30.9592 14.1133 30.8528 13.9876C30.3805 13.4294 29.6952 13.7382 28.3099 15.1334C27.5596 15.889 26.7199 16.8388 26.4441 17.2436C26.0433 17.8323 25.8453 17.969 25.4571 17.925C24.6631 17.8352 24.7152 16.9877 25.6221 15.2346C26.7337 13.0863 27.1371 11.2857 27.265 7.90472C27.3601 5.3839 27.3362 5.02981 27.0514 4.75301C26.6705 4.38284 26.6175 4.38065 25.9944 4.71007ZM40.148 8.01434C39.3031 8.58932 39.8222 9.92236 40.8908 9.92236C41.8998 9.92236 42.381 8.5674 41.5682 8.01434C41.3385 7.85794 41.0188 7.72987 40.8581 7.72987C40.6973 7.72987 40.3777 7.85794 40.148 8.01434ZM55.2542 8.0169C54.827 8.4322 54.8693 9.49756 55.3224 9.73326C56.6159 10.406 57.8478 9.07569 56.8389 8.09528C56.3883 7.65733 55.6612 7.62152 55.2542 8.0169ZM105.662 12.8638C103.484 13.3615 101.597 15.7664 101.59 18.0529C101.586 19.4177 102.014 20.1644 103.129 20.7343C103.825 21.09 104.206 21.1443 105.909 21.1313C108.871 21.1088 113.554 20.2326 113.377 19.7341C113.284 19.4727 113.27 19.4732 109.2 19.8874C107.367 20.0738 105.694 20.1558 105.277 20.0798C104.248 19.8916 103.653 19.2551 103.653 18.3417C103.653 17.5714 103.989 17.2307 104.749 17.2307C104.952 17.2307 105.698 17.0565 106.406 16.8439C107.891 16.3983 109.294 15.2388 109.294 14.457C109.294 13.8928 108.433 13.0774 107.589 12.842C106.85 12.6363 106.647 12.6385 105.662 12.8638ZM99.3218 13.3549C98.964 13.5345 98.4404 13.8305 98.1586 14.0126C97.6491 14.3417 97.6448 14.3408 97.4233 13.8687C97.242 13.4821 97.0715 13.3938 96.5064 13.3938C95.7908 13.3938 94.824 14.0397 94.8101 14.527C94.6866 18.8341 94.5778 19.5103 93.9417 19.9152C93.3594 20.2861 92.1376 20.2857 91.5547 19.9146C90.8553 19.4692 90.7074 18.7915 90.9885 17.322C91.1231 16.6186 91.2895 15.4586 91.3581 14.7444C91.4933 13.3394 91.3479 13.0468 90.6865 13.3907C90.0969 13.6975 89.7045 14.626 89.5318 16.1235C89.3594 17.6169 89.0625 18.1601 88.0534 18.8275C86.7426 19.6943 85.6103 19.6939 85.0526 18.8263C84.6772 18.242 84.5984 16.3772 84.8921 15.0195C85.2707 13.2688 85.0107 12.9232 84.0488 13.8988C83.2943 14.6642 82.9394 15.8346 82.8446 17.8701C82.7506 19.8898 82.9745 20.5187 84.0259 21.1881C85.1284 21.8901 87.7607 21.3959 88.7008 20.3102L89.1755 19.7619L89.3607 20.2353C89.4626 20.4957 89.7801 20.7969 90.0663 20.9049C90.8473 21.1994 93.1617 21.1561 93.7919 20.8353C94.2867 20.5834 94.3691 20.5919 94.8641 20.9477C95.3595 21.3034 95.439 21.3118 95.9077 21.0566C96.3691 20.8053 96.4272 20.6508 96.5494 19.3461C96.8798 15.8194 98.4162 13.9114 100.69 14.2045C101.386 14.2942 101.738 14.2518 102.074 14.0378C102.648 13.6724 102.642 13.5043 102.046 13.2405C101.342 12.9285 100.065 12.9822 99.3218 13.3549ZM107.325 13.9511C107.603 14.3883 106.848 15.3714 105.871 15.8445C104.965 16.2835 104.029 16.4664 104.029 16.2046C104.029 15.9188 105.437 14.2715 105.881 14.0368C106.474 13.7241 107.155 13.6838 107.325 13.9511Z" fill="#263C92"/>
<path d="M114 1.00003H101.592L107.608 6.84668L114 1.00003Z" fill="#263C92"/>
<path d="M113.998 13.2414V1.00003L107.605 6.84668L113.998 13.2414Z" fill="#2991D6"/>
<path d="M7.14634 28.4947V29.9285H6.64941V26.2661H8.03926C8.45164 26.2661 8.7743 26.3684 9.00723 26.573C9.24189 26.7776 9.35922 27.0484 9.35922 27.3855C9.35922 27.741 9.24448 28.0151 9.015 28.208C8.78724 28.3992 8.46027 28.4947 8.03408 28.4947H7.14634ZM7.14634 28.0998H8.03926C8.30498 28.0998 8.50858 28.0395 8.65007 27.9187C8.79155 27.7963 8.8623 27.6202 8.8623 27.3905C8.8623 27.1725 8.79155 26.9981 8.65007 26.8673C8.50858 26.7365 8.31447 26.6686 8.06773 26.6636H7.14634V28.0998Z" fill="#263C92"/>
<path d="M10.3971 27.5364C10.6093 27.2832 10.8854 27.1566 11.2253 27.1566C11.8171 27.1566 12.1156 27.4811 12.1208 28.13V29.9285H11.642V28.1275C11.6403 27.9313 11.5937 27.7863 11.5022 27.6923C11.4125 27.5984 11.2719 27.5515 11.0804 27.5515C10.9251 27.5515 10.7888 27.5917 10.6714 27.6722C10.5541 27.7527 10.4626 27.8584 10.3971 27.9892V29.9285H9.91827V26.0649H10.3971V27.5364Z" fill="#263C92"/>
<path d="M13.3579 29.9285H12.8791V27.2069H13.3579V29.9285ZM12.8403 26.485C12.8403 26.4095 12.8636 26.3458 12.9102 26.2938C12.9585 26.2418 13.0292 26.2158 13.1224 26.2158C13.2156 26.2158 13.2863 26.2418 13.3346 26.2938C13.383 26.3458 13.4071 26.4095 13.4071 26.485C13.4071 26.5604 13.383 26.6233 13.3346 26.6736C13.2863 26.7239 13.2156 26.7491 13.1224 26.7491C13.0292 26.7491 12.9585 26.7239 12.9102 26.6736C12.8636 26.6233 12.8403 26.5604 12.8403 26.485Z" fill="#263C92"/>
<path d="M14.6468 29.9285H14.168V26.0649H14.6468V29.9285Z" fill="#263C92"/>
<path d="M15.9875 28.4947V29.9285H15.4906V26.2661H16.8804C17.2928 26.2661 17.6155 26.3684 17.8484 26.573C18.0831 26.7776 18.2004 27.0484 18.2004 27.3855C18.2004 27.741 18.0857 28.0151 17.8562 28.208C17.6284 28.3992 17.3014 28.4947 16.8753 28.4947H15.9875ZM15.9875 28.0998H16.8804C17.1462 28.0998 17.3498 28.0395 17.4912 27.9187C17.6327 27.7963 17.7035 27.6202 17.7035 27.3905C17.7035 27.1725 17.6327 26.9981 17.4912 26.8673C17.3498 26.7365 17.1556 26.6686 16.9089 26.6636H15.9875V28.0998Z" fill="#263C92"/>
<path d="M20.4573 29.9285C20.4297 29.8748 20.4072 29.7793 20.39 29.6417C20.1674 29.8665 19.9017 29.9788 19.5928 29.9788C19.3168 29.9788 19.0899 29.9033 18.9121 29.7524C18.7362 29.5998 18.6482 29.407 18.6482 29.1739C18.6482 28.8905 18.7586 28.6708 18.9794 28.5149C19.202 28.3572 19.5143 28.2784 19.9164 28.2784H20.3822V28.0646C20.3822 27.902 20.3322 27.7728 20.2321 27.6773C20.132 27.58 19.9845 27.5314 19.7895 27.5314C19.6187 27.5314 19.4755 27.5733 19.3599 27.6571C19.2443 27.741 19.1865 27.8424 19.1865 27.9615H18.7051C18.7051 27.8257 18.7543 27.6949 18.8526 27.5691C18.9527 27.4416 19.0873 27.341 19.2564 27.2672C19.4272 27.1935 19.6144 27.1566 19.818 27.1566C20.1407 27.1566 20.3934 27.2354 20.5763 27.393C20.7592 27.549 20.8541 27.7645 20.861 28.0395V29.2921C20.861 29.542 20.8938 29.7407 20.9594 29.8883V29.9285H20.4573ZM19.6627 29.5738C19.8128 29.5738 19.9552 29.5361 20.0898 29.4606C20.2243 29.3852 20.3218 29.2871 20.3822 29.1663V28.6079H20.0069C19.4203 28.6079 19.127 28.7748 19.127 29.1085C19.127 29.2544 19.177 29.3684 19.2771 29.4506C19.3772 29.5327 19.5057 29.5738 19.6627 29.5738Z" fill="#263C92"/>
<path d="M22.7349 29.599C22.9057 29.599 23.0549 29.5487 23.1826 29.4481C23.3103 29.3475 23.381 29.2217 23.3949 29.0708H23.8478C23.8392 29.2267 23.7839 29.3751 23.6821 29.516C23.5803 29.6568 23.444 29.7692 23.2732 29.853C23.1041 29.9369 22.9247 29.9788 22.7349 29.9788C22.3535 29.9788 22.0499 29.8556 21.8238 29.609C21.5995 29.3609 21.4874 29.0221 21.4874 28.5928V28.5149C21.4874 28.2499 21.5374 28.0143 21.6375 27.8081C21.7376 27.6018 21.8808 27.4416 22.0671 27.3276C22.2552 27.2136 22.4769 27.1566 22.7323 27.1566C23.0463 27.1566 23.3069 27.248 23.5139 27.4307C23.7227 27.6135 23.834 27.8508 23.8478 28.1426H23.3949C23.381 27.9665 23.312 27.8223 23.1878 27.71C23.0653 27.5959 22.9135 27.5389 22.7323 27.5389C22.489 27.5389 22.3001 27.6244 22.1655 27.7955C22.0326 27.9648 21.9662 28.2105 21.9662 28.5325V28.6205C21.9662 28.9341 22.0326 29.1756 22.1655 29.3449C22.2983 29.5143 22.4881 29.599 22.7349 29.599Z" fill="#263C92"/>
<path d="M24.9063 29.9285H24.4275V27.2069H24.9063V29.9285ZM24.3887 26.485C24.3887 26.4095 24.412 26.3458 24.4586 26.2938C24.5069 26.2418 24.5776 26.2158 24.6708 26.2158C24.764 26.2158 24.8347 26.2418 24.883 26.2938C24.9314 26.3458 24.9555 26.4095 24.9555 26.485C24.9555 26.5604 24.9314 26.6233 24.883 26.6736C24.8347 26.7239 24.764 26.7491 24.6708 26.7491C24.5776 26.7491 24.5069 26.7239 24.4586 26.6736C24.412 26.6233 24.3887 26.5604 24.3887 26.485Z" fill="#263C92"/>
<path d="M25.9105 29.9285V27.5666H25.468V27.2069H25.9105V26.9277C25.9105 26.6359 25.9908 26.4104 26.1512 26.251C26.3117 26.0917 26.5386 26.0121 26.8319 26.0121C26.9424 26.0121 27.0519 26.0263 27.1606 26.0548L27.1348 26.4321C27.0537 26.4171 26.9674 26.4095 26.8759 26.4095C26.7206 26.4095 26.6007 26.4539 26.5162 26.5428C26.4316 26.63 26.3894 26.7558 26.3894 26.9201V27.2069H26.9872V27.5666H26.3894V29.9285H25.9105Z" fill="#263C92"/>
<path d="M28.038 29.9285H27.5592V27.2069H28.038V29.9285ZM27.5204 26.485C27.5204 26.4095 27.5437 26.3458 27.5903 26.2938C27.6386 26.2418 27.7093 26.2158 27.8025 26.2158C27.8957 26.2158 27.9664 26.2418 28.0147 26.2938C28.063 26.3458 28.0872 26.4095 28.0872 26.485C28.0872 26.5604 28.063 26.6233 28.0147 26.6736C27.9664 26.7239 27.8957 26.7491 27.8025 26.7491C27.7093 26.7491 27.6386 26.7239 27.5903 26.6736C27.5437 26.6233 27.5204 26.5604 27.5204 26.485Z" fill="#263C92"/>
<path d="M29.93 29.599C30.1008 29.599 30.25 29.5487 30.3777 29.4481C30.5054 29.3475 30.5762 29.2217 30.59 29.0708H31.0429C31.0343 29.2267 30.979 29.3751 30.8772 29.516C30.7754 29.6568 30.6391 29.7692 30.4683 29.853C30.2992 29.9369 30.1198 29.9788 29.93 29.9788C29.5486 29.9788 29.245 29.8556 29.0189 29.609C28.7946 29.3609 28.6825 29.0221 28.6825 28.5928V28.5149C28.6825 28.2499 28.7325 28.0143 28.8326 27.8081C28.9327 27.6018 29.0759 27.4416 29.2622 27.3276C29.4503 27.2136 29.672 27.1566 29.9274 27.1566C30.2414 27.1566 30.502 27.248 30.709 27.4307C30.9178 27.6135 31.0291 27.8508 31.0429 28.1426H30.59C30.5762 27.9665 30.5071 27.8223 30.3829 27.71C30.2604 27.5959 30.1086 27.5389 29.9274 27.5389C29.6841 27.5389 29.4952 27.6244 29.3606 27.7955C29.2277 27.9648 29.1613 28.2105 29.1613 28.5325V28.6205C29.1613 28.9341 29.2277 29.1756 29.3606 29.3449C29.4934 29.5143 29.6832 29.599 29.93 29.599Z" fill="#263C92"/>
<path d="M33.5042 29.9285H33.0073V26.2661H33.5042V29.9285Z" fill="#263C92"/>
<path d="M34.7931 27.2069L34.8087 27.549C35.0226 27.2874 35.3021 27.1566 35.6472 27.1566C36.2391 27.1566 36.5376 27.4811 36.5427 28.13V29.9285H36.0639V28.1275C36.0622 27.9313 36.0156 27.7863 35.9242 27.6923C35.8344 27.5984 35.6938 27.5515 35.5023 27.5515C35.347 27.5515 35.2107 27.5917 35.0934 27.6722C34.976 27.7527 34.8846 27.8584 34.819 27.9892V29.9285H34.3402V27.2069H34.7931Z" fill="#263C92"/>
<path d="M38.8954 29.2066C38.8954 29.0808 38.8462 28.9836 38.7479 28.9148C38.6512 28.8444 38.4813 28.784 38.238 28.7337C37.9964 28.6834 37.804 28.623 37.6608 28.5526C37.5193 28.4822 37.4141 28.3983 37.3451 28.3011C37.2778 28.2038 37.2441 28.0881 37.2441 27.9539C37.2441 27.7309 37.3408 27.5423 37.534 27.388C37.729 27.2337 37.9774 27.1566 38.2794 27.1566C38.5969 27.1566 38.854 27.2362 39.0507 27.3955C39.2491 27.5548 39.3483 27.7586 39.3483 28.0068H38.8669C38.8669 27.8793 38.8108 27.7695 38.6987 27.6773C38.5883 27.585 38.4485 27.5389 38.2794 27.5389C38.1051 27.5389 37.9688 27.5758 37.8705 27.6496C37.7721 27.7234 37.7229 27.8198 37.7229 27.9389C37.7229 28.0512 37.7687 28.1359 37.8601 28.1929C37.9516 28.2499 38.1163 28.3044 38.3545 28.3564C38.5943 28.4084 38.7884 28.4704 38.9368 28.5425C39.0852 28.6146 39.1947 28.7018 39.2655 28.8041C39.338 28.9047 39.3742 29.028 39.3742 29.1739C39.3742 29.417 39.2741 29.6124 39.074 29.76C38.8738 29.9059 38.6141 29.9788 38.2949 29.9788C38.0706 29.9788 37.8722 29.9402 37.6996 29.8631C37.5271 29.786 37.3917 29.6786 37.2933 29.5411C37.1967 29.402 37.1484 29.2519 37.1484 29.0909H37.6272C37.6358 29.2468 37.6996 29.3709 37.8187 29.4632C37.9395 29.5537 38.0982 29.599 38.2949 29.599C38.4761 29.599 38.621 29.5638 38.7297 29.4933C38.8402 29.4212 38.8954 29.3257 38.8954 29.2066Z" fill="#263C92"/>
<path d="M41.7268 29.6594C41.5405 29.8723 41.267 29.9788 40.9064 29.9788C40.6079 29.9788 40.3801 29.895 40.2231 29.7273C40.0678 29.5579 39.9893 29.308 39.9876 28.9777V27.2069H40.4664V28.9651C40.4664 29.3776 40.6389 29.5839 40.984 29.5839C41.3498 29.5839 41.5931 29.4514 41.7139 29.1865V27.2069H42.1927V29.9285H41.7372L41.7268 29.6594Z" fill="#263C92"/>
<path d="M44.2762 27.6244C44.2037 27.6127 44.1252 27.6068 44.0407 27.6068C43.7266 27.6068 43.5135 27.7368 43.4014 27.9967V29.9285H42.9226V27.2069H43.3884L43.3962 27.5213C43.5532 27.2781 43.7758 27.1566 44.0639 27.1566C44.1571 27.1566 44.2279 27.1683 44.2762 27.1918V27.6244Z" fill="#263C92"/>
<path d="M46.3441 29.9285C46.3165 29.8748 46.2941 29.7793 46.2768 29.6417C46.0543 29.8665 45.7885 29.9788 45.4797 29.9788C45.2036 29.9788 44.9767 29.9033 44.799 29.7524C44.623 29.5998 44.535 29.407 44.535 29.1739C44.535 28.8905 44.6454 28.6708 44.8663 28.5149C45.0889 28.3572 45.4012 28.2784 45.8032 28.2784H46.2691V28.0646C46.2691 27.902 46.219 27.7728 46.119 27.6773C46.0189 27.58 45.8714 27.5314 45.6764 27.5314C45.5056 27.5314 45.3623 27.5733 45.2467 27.6571C45.1311 27.741 45.0733 27.8424 45.0733 27.9615H44.5919C44.5919 27.8257 44.6411 27.6949 44.7395 27.5691C44.8395 27.4416 44.9741 27.341 45.1432 27.2672C45.314 27.1935 45.5012 27.1566 45.7048 27.1566C46.0275 27.1566 46.2803 27.2354 46.4632 27.393C46.6461 27.549 46.741 27.7645 46.7479 28.0395V29.2921C46.7479 29.542 46.7807 29.7407 46.8462 29.8883V29.9285H46.3441ZM45.5496 29.5738C45.6997 29.5738 45.842 29.5361 45.9766 29.4606C46.1112 29.3852 46.2087 29.2871 46.2691 29.1663V28.6079H45.8938C45.3071 28.6079 45.0138 28.7748 45.0138 29.1085C45.0138 29.2544 45.0638 29.3684 45.1639 29.4506C45.264 29.5327 45.3925 29.5738 45.5496 29.5738Z" fill="#263C92"/>
<path d="M47.9514 27.2069L47.9669 27.549C48.1809 27.2874 48.4604 27.1566 48.8055 27.1566C49.3973 27.1566 49.6958 27.4811 49.701 28.13V29.9285H49.2222V28.1275C49.2204 27.9313 49.1739 27.7863 49.0824 27.6923C48.9927 27.5984 48.8521 27.5515 48.6605 27.5515C48.5052 27.5515 48.3689 27.5917 48.2516 27.6722C48.1343 27.7527 48.0428 27.8584 47.9773 27.9892V29.9285H47.4984V27.2069H47.9514Z" fill="#263C92"/>
<path d="M51.5463 29.599C51.7172 29.599 51.8664 29.5487 51.9941 29.4481C52.1218 29.3475 52.1925 29.2217 52.2063 29.0708H52.6593C52.6506 29.2267 52.5954 29.3751 52.4936 29.516C52.3918 29.6568 52.2555 29.7692 52.0847 29.853C51.9156 29.9369 51.7361 29.9788 51.5463 29.9788C51.165 29.9788 50.8613 29.8556 50.6353 29.609C50.411 29.3609 50.2988 29.0221 50.2988 28.5928V28.5149C50.2988 28.2499 50.3489 28.0143 50.449 27.8081C50.549 27.6018 50.6922 27.4416 50.8786 27.3276C51.0667 27.2136 51.2884 27.1566 51.5438 27.1566C51.8578 27.1566 52.1183 27.248 52.3254 27.4307C52.5342 27.6135 52.6454 27.8508 52.6593 28.1426H52.2063C52.1925 27.9665 52.1235 27.8223 51.9993 27.71C51.8768 27.5959 51.7249 27.5389 51.5438 27.5389C51.3005 27.5389 51.1115 27.6244 50.9769 27.7955C50.8441 27.9648 50.7777 28.2105 50.7777 28.5325V28.6205C50.7777 28.9341 50.8441 29.1756 50.9769 29.3449C51.1098 29.5143 51.2996 29.599 51.5463 29.599Z" fill="#263C92"/>
<path d="M54.3597 29.9788C53.9801 29.9788 53.6712 29.8581 53.4331 29.6166C53.195 29.3734 53.0759 29.049 53.0759 28.6432V28.5576C53.0759 28.2876 53.1286 28.047 53.2338 27.8357C53.3408 27.6228 53.4892 27.4567 53.679 27.3377C53.8705 27.2169 54.0776 27.1566 54.3001 27.1566C54.6642 27.1566 54.9472 27.2731 55.1491 27.5062C55.3509 27.7393 55.4519 28.073 55.4519 28.5073V28.701H53.5548C53.5617 28.9693 53.6419 29.1865 53.7955 29.3525C53.9507 29.5168 54.1474 29.599 54.3856 29.599C54.5547 29.599 54.6979 29.5654 54.8152 29.4984C54.9325 29.4313 55.0352 29.3424 55.1232 29.2317L55.4156 29.4531C55.181 29.8036 54.829 29.9788 54.3597 29.9788ZM54.3001 27.5389C54.1069 27.5389 53.9447 27.6077 53.8136 27.7452C53.6824 27.881 53.6013 28.0722 53.5703 28.3187H54.9731V28.2835C54.9593 28.047 54.8937 27.8642 54.7764 27.7351C54.659 27.6043 54.5003 27.5389 54.3001 27.5389Z" fill="#263C92"/>
<path d="M57.3982 29.9285V26.2661H58.6302C59.0391 26.2661 59.3462 26.3483 59.5515 26.5126C59.7586 26.677 59.8621 26.9201 59.8621 27.2421C59.8621 27.4131 59.8121 27.5649 59.712 27.6974C59.6119 27.8282 59.4756 27.9296 59.3031 28.0017C59.5067 28.0571 59.6671 28.1627 59.7845 28.3187C59.9035 28.4729 59.9631 28.6574 59.9631 28.872C59.9631 29.2007 59.8535 29.459 59.6344 29.6468C59.4152 29.8346 59.1055 29.9285 58.7052 29.9285H57.3982ZM57.8951 28.2155V29.5336H58.7156C58.9468 29.5336 59.1288 29.4757 59.2617 29.36C59.3963 29.2426 59.4635 29.0817 59.4635 28.8771C59.4635 28.4361 59.2168 28.2155 58.7233 28.2155H57.8951ZM57.8951 27.8282H58.6457C58.8631 27.8282 59.0365 27.7754 59.1659 27.6697C59.297 27.5641 59.3626 27.4207 59.3626 27.2396C59.3626 27.0384 59.3022 26.8925 59.1814 26.8019C59.0606 26.7097 58.8769 26.6636 58.6302 26.6636H57.8951V27.8282Z" fill="#263C92"/>
<path d="M61.9792 27.6244C61.9068 27.6127 61.8283 27.6068 61.7437 27.6068C61.4297 27.6068 61.2166 27.7368 61.1044 27.9967V29.9285H60.6256V27.2069H61.0915L61.0993 27.5213C61.2563 27.2781 61.4789 27.1566 61.767 27.1566C61.8602 27.1566 61.9309 27.1683 61.9792 27.1918V27.6244Z" fill="#263C92"/>
<path d="M62.2432 28.5425C62.2432 28.2759 62.2967 28.0361 62.4037 27.8231C62.5124 27.6102 62.6625 27.4458 62.854 27.3301C63.0473 27.2144 63.2673 27.1566 63.514 27.1566C63.8953 27.1566 64.2033 27.2849 64.438 27.5414C64.6744 27.798 64.7926 28.1392 64.7926 28.5652V28.5979C64.7926 28.8628 64.74 29.1009 64.6347 29.3122C64.5312 29.5218 64.3819 29.6853 64.1869 29.8027C63.9937 29.9201 63.7711 29.9788 63.5192 29.9788C63.1396 29.9788 62.8316 29.8505 62.5952 29.594C62.3606 29.3374 62.2432 28.9978 62.2432 28.5752V28.5425ZM62.7246 28.5979C62.7246 28.8997 62.7962 29.142 62.9394 29.3248C63.0844 29.5076 63.2776 29.599 63.5192 29.599C63.7625 29.599 63.9557 29.5068 64.0989 29.3223C64.2422 29.1362 64.3138 28.8762 64.3138 28.5425C64.3138 28.244 64.2404 28.0026 64.0938 27.8181C63.9488 27.632 63.7556 27.5389 63.514 27.5389C63.2776 27.5389 63.087 27.6303 62.942 27.8131C62.7971 27.9959 62.7246 28.2575 62.7246 28.5979Z" fill="#263C92"/>
<path d="M66.1747 28.6683L65.8744 28.9727V29.9285H65.3956V26.0649H65.8744V28.4017L66.1307 28.1023L67.0029 27.2069H67.5852L66.4956 28.3438L67.712 29.9285H67.1504L66.1747 28.6683Z" fill="#263C92"/>
<path d="M69.1899 29.9788C68.8103 29.9788 68.5014 29.8581 68.2633 29.6166C68.0252 29.3734 67.9061 29.049 67.9061 28.6432V28.5576C67.9061 28.2876 67.9588 28.047 68.064 27.8357C68.171 27.6228 68.3194 27.4567 68.5092 27.3377C68.7007 27.2169 68.9078 27.1566 69.1303 27.1566C69.4944 27.1566 69.7774 27.2731 69.9793 27.5062C70.1811 27.7393 70.2821 28.073 70.2821 28.5073V28.701H68.385C68.3919 28.9693 68.4721 29.1865 68.6257 29.3525C68.7809 29.5168 68.9776 29.599 69.2158 29.599C69.3848 29.599 69.5281 29.5654 69.6454 29.4984C69.7627 29.4313 69.8654 29.3424 69.9534 29.2317L70.2458 29.4531C70.0112 29.8036 69.6592 29.9788 69.1899 29.9788ZM69.1303 27.5389C68.9371 27.5389 68.7749 27.6077 68.6438 27.7452C68.5126 27.881 68.4315 28.0722 68.4005 28.3187H69.8033V28.2835C69.7895 28.047 69.7239 27.8642 69.6066 27.7351C69.4892 27.6043 69.3305 27.5389 69.1303 27.5389Z" fill="#263C92"/>
<path d="M72.1921 27.6244C72.1197 27.6127 72.0412 27.6068 71.9566 27.6068C71.6426 27.6068 71.4295 27.7368 71.3173 27.9967V29.9285H70.8385V27.2069H71.3044L71.3122 27.5213C71.4692 27.2781 71.6918 27.1566 71.9799 27.1566C72.0731 27.1566 72.1438 27.1683 72.1921 27.1918V27.6244Z" fill="#263C92"/>
<path d="M74.2653 29.2066C74.2653 29.0808 74.2161 28.9836 74.1177 28.9148C74.0211 28.8444 73.8512 28.784 73.6079 28.7337C73.3663 28.6834 73.1739 28.623 73.0307 28.5526C72.8892 28.4822 72.784 28.3983 72.715 28.3011C72.6477 28.2038 72.614 28.0881 72.614 27.9539C72.614 27.7309 72.7106 27.5423 72.9039 27.388C73.0989 27.2337 73.3473 27.1566 73.6493 27.1566C73.9668 27.1566 74.2239 27.2362 74.4206 27.3955C74.619 27.5548 74.7182 27.7586 74.7182 28.0068H74.2368C74.2368 27.8793 74.1807 27.7695 74.0686 27.6773C73.9581 27.585 73.8184 27.5389 73.6493 27.5389C73.475 27.5389 73.3387 27.5758 73.2404 27.6496C73.142 27.7234 73.0928 27.8198 73.0928 27.9389C73.0928 28.0512 73.1385 28.1359 73.23 28.1929C73.3214 28.2499 73.4862 28.3044 73.7243 28.3564C73.9642 28.4084 74.1583 28.4704 74.3067 28.5425C74.4551 28.6146 74.5646 28.7018 74.6354 28.8041C74.7078 28.9047 74.7441 29.028 74.7441 29.1739C74.7441 29.417 74.644 29.6124 74.4438 29.76C74.2437 29.9059 73.984 29.9788 73.6648 29.9788C73.4405 29.9788 73.2421 29.9402 73.0695 29.8631C72.897 29.786 72.7615 29.6786 72.6632 29.5411C72.5666 29.402 72.5183 29.2519 72.5183 29.0909H72.9971C73.0057 29.2468 73.0695 29.3709 73.1886 29.4632C73.3094 29.5537 73.4681 29.599 73.6648 29.599C73.846 29.599 73.9909 29.5638 74.0996 29.4933C74.2101 29.4212 74.2653 29.3257 74.2653 29.2066Z" fill="#263C92"/>
<path d="M76.5817 28.945C76.5817 28.7689 76.6317 28.6071 76.7318 28.4595C76.8336 28.312 77.0268 28.1401 77.3115 27.9439C77.1442 27.746 77.032 27.5867 76.9751 27.466C76.9181 27.3452 76.8897 27.2253 76.8897 27.1063C76.8897 26.8279 76.9742 26.6099 77.1433 26.4523C77.3124 26.2946 77.5419 26.2158 77.8318 26.2158C78.0906 26.2158 78.3045 26.2896 78.4736 26.4372C78.6427 26.5831 78.7273 26.7675 78.7273 26.9906C78.7273 27.1381 78.6884 27.2748 78.6108 27.4006C78.5349 27.5247 78.4012 27.6555 78.2096 27.793L77.9327 27.9917L78.7713 28.9651C78.8886 28.7471 78.9473 28.5048 78.9473 28.2382H79.3795C79.3795 28.6658 79.2734 29.0205 79.0611 29.3022L79.5995 29.9285H79.0249L78.7739 29.6392C78.6462 29.7499 78.4961 29.8346 78.3235 29.8933C78.1527 29.9503 77.9784 29.9788 77.8007 29.9788C77.4332 29.9788 77.1381 29.8841 76.9156 29.6946C76.693 29.5051 76.5817 29.2552 76.5817 28.945ZM77.8007 29.599C78.0543 29.599 78.2864 29.5051 78.4969 29.3173L77.5781 28.2482L77.4927 28.3086C77.2046 28.5149 77.0605 28.727 77.0605 28.945C77.0605 29.1429 77.1261 29.3013 77.2572 29.4204C77.39 29.5395 77.5712 29.599 77.8007 29.599ZM77.3685 27.0912C77.3685 27.2522 77.4703 27.4534 77.6739 27.6949L77.9793 27.4861C78.0966 27.4056 78.1768 27.3293 78.22 27.2572C78.2631 27.1834 78.2847 27.0945 78.2847 26.9906C78.2847 26.8782 78.2416 26.7851 78.1553 26.7114C78.069 26.6359 77.9603 26.5982 77.8292 26.5982C77.6877 26.5982 77.5755 26.6451 77.4927 26.739C77.4099 26.8313 77.3685 26.9486 77.3685 27.0912Z" fill="#263C92"/>
<path d="M82.0117 26.2661L83.2436 29.2544L84.4756 26.2661H85.12V29.9285H84.6231V28.5023L84.6697 26.9629L83.4326 29.9285H83.0521L81.8175 26.9704L81.8667 28.5023V29.9285H81.3698V26.2661H82.0117Z" fill="#263C92"/>
<path d="M87.6513 29.9285C87.6237 29.8748 87.6012 29.7793 87.584 29.6417C87.3614 29.8665 87.0957 29.9788 86.7868 29.9788C86.5107 29.9788 86.2839 29.9033 86.1061 29.7524C85.9301 29.5998 85.8421 29.407 85.8421 29.1739C85.8421 28.8905 85.9526 28.6708 86.1734 28.5149C86.396 28.3572 86.7083 28.2784 87.1103 28.2784H87.5762V28.0646C87.5762 27.902 87.5262 27.7728 87.4261 27.6773C87.326 27.58 87.1785 27.5314 86.9835 27.5314C86.8127 27.5314 86.6695 27.5733 86.5539 27.6571C86.4383 27.741 86.3805 27.8424 86.3805 27.9615H85.8991C85.8991 27.8257 85.9482 27.6949 86.0466 27.5691C86.1467 27.4416 86.2813 27.341 86.4504 27.2672C86.6212 27.1935 86.8084 27.1566 87.012 27.1566C87.3346 27.1566 87.5874 27.2354 87.7703 27.393C87.9532 27.549 88.0481 27.7645 88.055 28.0395V29.2921C88.055 29.542 88.0878 29.7407 88.1534 29.8883V29.9285H87.6513ZM86.8567 29.5738C87.0068 29.5738 87.1492 29.5361 87.2837 29.4606C87.4183 29.3852 87.5158 29.2871 87.5762 29.1663V28.6079H87.2009C86.6143 28.6079 86.3209 28.7748 86.3209 29.1085C86.3209 29.2544 86.371 29.3684 86.4711 29.4506C86.5711 29.5327 86.6997 29.5738 86.8567 29.5738Z" fill="#263C92"/>
<path d="M89.2585 27.2069L89.274 27.549C89.488 27.2874 89.7675 27.1566 90.1126 27.1566C90.7044 27.1566 91.0029 27.4811 91.0081 28.13V29.9285H90.5293V28.1275C90.5276 27.9313 90.481 27.7863 90.3895 27.6923C90.2998 27.5984 90.1592 27.5515 89.9677 27.5515C89.8124 27.5515 89.6761 27.5917 89.5587 27.6722C89.4414 27.7527 89.35 27.8584 89.2844 27.9892V29.9285H88.8056V27.2069H89.2585Z" fill="#263C92"/>
<path d="M93.4591 29.9285C93.4315 29.8748 93.4091 29.7793 93.3918 29.6417C93.1692 29.8665 92.9035 29.9788 92.5947 29.9788C92.3186 29.9788 92.0917 29.9033 91.914 29.7524C91.738 29.5998 91.65 29.407 91.65 29.1739C91.65 28.8905 91.7604 28.6708 91.9813 28.5149C92.2038 28.3572 92.5162 28.2784 92.9182 28.2784H93.3841V28.0646C93.3841 27.902 93.334 27.7728 93.2339 27.6773C93.1339 27.58 92.9863 27.5314 92.7914 27.5314C92.6205 27.5314 92.4773 27.5733 92.3617 27.6571C92.2461 27.741 92.1883 27.8424 92.1883 27.9615H91.7069C91.7069 27.8257 91.7561 27.6949 91.8544 27.5691C91.9545 27.4416 92.0891 27.341 92.2582 27.2672C92.429 27.1935 92.6162 27.1566 92.8198 27.1566C93.1425 27.1566 93.3953 27.2354 93.5782 27.393C93.7611 27.549 93.856 27.7645 93.8629 28.0395V29.2921C93.8629 29.542 93.8956 29.7407 93.9612 29.8883V29.9285H93.4591ZM92.6645 29.5738C92.8147 29.5738 92.957 29.5361 93.0916 29.4606C93.2262 29.3852 93.3237 29.2871 93.3841 29.1663V28.6079H93.0088C92.4221 28.6079 92.1288 28.7748 92.1288 29.1085C92.1288 29.2544 92.1788 29.3684 92.2789 29.4506C92.379 29.5327 92.5075 29.5738 92.6645 29.5738Z" fill="#263C92"/>
<path d="M94.4996 28.5451C94.4996 28.1208 94.6005 27.7837 94.8024 27.5339C95.0042 27.2823 95.2717 27.1566 95.6047 27.1566C95.9463 27.1566 96.2129 27.274 96.4044 27.5087L96.4277 27.2069H96.8651V29.8631C96.8651 30.2153 96.7573 30.4928 96.5416 30.6957C96.3277 30.8986 96.0395 31 95.6772 31C95.4753 31 95.2777 30.9581 95.0845 30.8743C94.8912 30.7904 94.7437 30.6756 94.6419 30.5297L94.8904 30.2505C95.0957 30.497 95.3467 30.6202 95.6435 30.6202C95.8765 30.6202 96.0576 30.5565 96.187 30.4291C96.3182 30.3016 96.3837 30.1222 96.3837 29.8908V29.6568C96.1922 29.8715 95.9308 29.9788 95.5995 29.9788C95.2717 29.9788 95.006 29.8505 94.8024 29.594C94.6005 29.3374 94.4996 28.9878 94.4996 28.5451ZM94.9809 28.5979C94.9809 28.9047 95.0457 29.1462 95.1751 29.3223C95.3045 29.4967 95.4856 29.5839 95.7186 29.5839C96.0205 29.5839 96.2423 29.4506 96.3837 29.184V27.9414C96.2371 27.6814 96.0171 27.5515 95.7238 27.5515C95.4908 27.5515 95.3088 27.6395 95.1777 27.8156C95.0465 27.9917 94.9809 28.2524 94.9809 28.5979Z" fill="#263C92"/>
<path d="M98.7519 29.9788C98.3723 29.9788 98.0635 29.8581 97.8253 29.6166C97.5872 29.3734 97.4682 29.049 97.4682 28.6432V28.5576C97.4682 28.2876 97.5208 28.047 97.6261 27.8357C97.733 27.6228 97.8814 27.4567 98.0712 27.3377C98.2627 27.2169 98.4698 27.1566 98.6924 27.1566C99.0564 27.1566 99.3394 27.2731 99.5413 27.5062C99.7432 27.7393 99.8441 28.073 99.8441 28.5073V28.701H97.947C97.9539 28.9693 98.0341 29.1865 98.1877 29.3525C98.343 29.5168 98.5397 29.599 98.7778 29.599C98.9469 29.599 99.0901 29.5654 99.2074 29.4984C99.3248 29.4313 99.4274 29.3424 99.5154 29.2317L99.8079 29.4531C99.5732 29.8036 99.2212 29.9788 98.7519 29.9788ZM98.6924 27.5389C98.4991 27.5389 98.3369 27.6077 98.2058 27.7452C98.0747 27.881 97.9936 28.0722 97.9625 28.3187H99.3653V28.2835C99.3515 28.047 99.2859 27.8642 99.1686 27.7351C99.0513 27.6043 98.8925 27.5389 98.6924 27.5389Z" fill="#263C92"/>
<path d="M101.754 27.6244C101.682 27.6127 101.603 27.6068 101.519 27.6068C101.205 27.6068 100.992 27.7368 100.879 27.9967V29.9285H100.401V27.2069H100.866L100.874 27.5213C101.031 27.2781 101.254 27.1566 101.542 27.1566C101.635 27.1566 101.706 27.1683 101.754 27.1918V27.6244Z" fill="#263C92"/>
<path d="M103.827 29.2066C103.827 29.0808 103.778 28.9836 103.68 28.9148C103.583 28.8444 103.413 28.784 103.17 28.7337C102.928 28.6834 102.736 28.623 102.593 28.5526C102.451 28.4822 102.346 28.3983 102.277 28.3011C102.21 28.2038 102.176 28.0881 102.176 27.9539C102.176 27.7309 102.273 27.5423 102.466 27.388C102.661 27.2337 102.909 27.1566 103.211 27.1566C103.529 27.1566 103.786 27.2362 103.983 27.3955C104.181 27.5548 104.28 27.7586 104.28 28.0068H103.799C103.799 27.8793 103.743 27.7695 103.631 27.6773C103.52 27.585 103.38 27.5389 103.211 27.5389C103.037 27.5389 102.901 27.5758 102.802 27.6496C102.704 27.7234 102.655 27.8198 102.655 27.9389C102.655 28.0512 102.701 28.1359 102.792 28.1929C102.883 28.2499 103.048 28.3044 103.286 28.3564C103.526 28.4084 103.72 28.4704 103.869 28.5425C104.017 28.6146 104.127 28.7018 104.197 28.8041C104.27 28.9047 104.306 29.028 104.306 29.1739C104.306 29.417 104.206 29.6124 104.006 29.76C103.806 29.9059 103.546 29.9788 103.227 29.9788C103.003 29.9788 102.804 29.9402 102.632 29.8631C102.459 29.786 102.324 29.6786 102.225 29.5411C102.129 29.402 102.08 29.2519 102.08 29.0909H102.559C102.568 29.2468 102.632 29.3709 102.751 29.4632C102.871 29.5537 103.03 29.599 103.227 29.599C103.408 29.599 103.553 29.5638 103.662 29.4933C103.772 29.4212 103.827 29.3257 103.827 29.2066Z" fill="#263C92"/>
<path d="M106.853 29.9285H106.356V26.2661H106.853V29.9285Z" fill="#263C92"/>
<path d="M108.142 27.2069L108.157 27.549C108.371 27.2874 108.651 27.1566 108.996 27.1566C109.588 27.1566 109.886 27.4811 109.891 28.13V29.9285H109.413V28.1275C109.411 27.9313 109.364 27.7863 109.273 27.6923C109.183 27.5984 109.042 27.5515 108.851 27.5515C108.696 27.5515 108.559 27.5917 108.442 27.6722C108.325 27.7527 108.233 27.8584 108.168 27.9892V29.9285H107.689V27.2069H108.142Z" fill="#263C92"/>
<path d="M111.737 29.599C111.908 29.599 112.057 29.5487 112.184 29.4481C112.312 29.3475 112.383 29.2217 112.397 29.0708H112.85C112.841 29.2267 112.786 29.3751 112.684 29.516C112.582 29.6568 112.446 29.7692 112.275 29.853C112.106 29.9369 111.927 29.9788 111.737 29.9788C111.355 29.9788 111.052 29.8556 110.826 29.609C110.601 29.3609 110.489 29.0221 110.489 28.5928V28.5149C110.489 28.2499 110.539 28.0143 110.639 27.8081C110.739 27.6018 110.883 27.4416 111.069 27.3276C111.257 27.2136 111.479 27.1566 111.734 27.1566C112.048 27.1566 112.309 27.248 112.516 27.4307C112.725 27.6135 112.836 27.8508 112.85 28.1426H112.397C112.383 27.9665 112.314 27.8223 112.19 27.71C112.067 27.5959 111.915 27.5389 111.734 27.5389C111.491 27.5389 111.302 27.6244 111.167 27.7955C111.034 27.9648 110.968 28.2105 110.968 28.5325V28.6205C110.968 28.9341 111.034 29.1756 111.167 29.3449C111.3 29.5143 111.49 29.599 111.737 29.599Z" fill="#263C92"/>
<path d="M113.398 29.6845C113.398 29.604 113.423 29.5369 113.471 29.4833C113.521 29.4296 113.595 29.4028 113.693 29.4028C113.792 29.4028 113.866 29.4296 113.916 29.4833C113.968 29.5369 113.994 29.604 113.994 29.6845C113.994 29.7616 113.968 29.8262 113.916 29.8782C113.866 29.9302 113.792 29.9562 113.693 29.9562C113.595 29.9562 113.521 29.9302 113.471 29.8782C113.423 29.8262 113.398 29.7616 113.398 29.6845Z" fill="#263C92"/>
</g>
</svg>
