<svg width="220" height="120" viewBox="0 0 220 120" fill="none" xmlns="http://www.w3.org/2000/svg">
<mask id="mask0" mask-type="alpha" maskUnits="userSpaceOnUse" x="0" y="0" width="220" height="120">
<rect width="220" height="120" fill="white"/>
</mask>
<g mask="url(#mask0)">
<path fill-rule="evenodd" clip-rule="evenodd" d="M30.8622 37.0627C30.7642 37.0968 30.642 37.1954 30.5774 37.2928L30.4642 37.463V60.0229V82.5827L30.5772 82.753C30.6506 82.8637 30.7595 82.9456 30.8885 82.9873C31.0825 83.0499 31.3051 82.9872 40.6453 80.2418C45.9023 78.6965 50.2593 77.3921 50.3274 77.343C50.6217 77.1307 50.6005 78.5167 50.5931 60.0176C50.5884 48.6094 50.5697 43.0439 50.5357 42.9796C50.5079 42.927 50.4428 42.8453 50.3911 42.7979C50.3145 42.7278 31.1914 36.9899 31.0682 37C31.0493 37.0016 30.9566 37.0298 30.8622 37.0627ZM23.1943 39.9248L23.0093 40.0963L22.9968 60.0212C22.9855 77.9484 22.9919 79.961 23.0611 80.0964C23.1525 80.2751 23.4045 80.4423 23.583 80.4426C23.683 80.4427 26.8676 79.5253 29.3373 78.7849L29.6717 78.6847V60.0998V41.5149L29.5107 41.4627C28.3224 41.0776 23.7256 39.7533 23.5771 39.7533C23.421 39.7533 23.3404 39.7894 23.1943 39.9248ZM16.2587 45.7946C15.9817 45.9908 16.0003 44.9628 16.0003 60.1231C16.0003 72.5038 16.0088 74.1004 16.0754 74.2308C16.1651 74.4062 16.3816 74.5298 16.5992 74.5298C16.7185 74.5298 19.555 73.7208 22.1549 72.9453C22.2371 72.9208 22.2416 72.2673 22.2416 60.1316V47.3439L19.5039 46.5301C17.9706 46.0744 16.6789 45.7164 16.5676 45.7164C16.4584 45.7164 16.3194 45.7516 16.2587 45.7946ZM113.285 60.0507V71.4785L118.053 71.4581C122.183 71.4404 122.884 71.4267 123.291 71.3555C124.09 71.2162 124.676 71.068 125.347 70.8361C128.25 69.8325 130.564 67.7699 131.914 64.9838C132.461 63.8553 132.747 62.9355 132.934 61.7015C133.055 60.9041 133.053 59.1961 132.931 58.3943C132.494 55.538 130.958 52.8801 128.713 51.0965C127.558 50.1795 125.993 49.3977 124.557 49.0216C123.147 48.6521 122.635 48.623 117.533 48.6229L113.285 48.6228V60.0507ZM121.905 53.8016C124.007 54.1958 125.498 55.2957 126.311 57.0511C126.708 57.9085 126.907 58.9162 126.907 60.073C126.907 61.2844 126.704 62.2675 126.265 63.1831C125.474 64.8303 124.101 65.8411 122.075 66.2665C121.686 66.3482 121.324 66.3757 120.356 66.397L119.13 66.4241V60.0478V53.6714L120.307 53.697C121.063 53.7134 121.634 53.7508 121.905 53.8016ZM142.925 55.288C138.352 55.6124 135.078 58.3729 134.56 62.343C134.37 63.7989 134.539 65.3703 135.016 66.5873C136.082 69.3034 138.59 71.1443 141.99 71.7072C142.76 71.8346 144.677 71.8335 145.482 71.7052C147.337 71.4097 148.962 70.7092 150.213 69.6666C151.559 68.5447 152.498 66.9291 152.848 65.1341C152.916 64.7837 152.936 64.4315 152.936 63.5556C152.937 62.2736 152.858 61.7305 152.536 60.7881C151.986 59.1793 150.767 57.6666 149.272 56.7387C147.554 55.6727 145.174 55.1286 142.925 55.288ZM162.696 55.2893C160.085 55.4681 157.812 56.4704 156.303 58.1084C155.624 58.8459 154.949 59.9866 154.653 60.8998C154.09 62.6392 154.144 64.8976 154.79 66.5699C155.348 68.0121 156.374 69.266 157.767 70.2072C160.603 72.1232 165.032 72.3601 168.298 70.7706C169.856 70.0126 171.203 68.6855 171.957 67.1659C173.023 65.0198 173.022 62.0331 171.955 59.9183C170.569 57.1711 167.849 55.5353 164.256 55.2882C163.477 55.2347 163.495 55.2346 162.696 55.2893ZM184.441 55.7679C183.636 55.9112 182.785 56.2451 182.196 56.6491C181.829 56.9003 181.24 57.5322 180.946 57.9885L180.676 58.4072L180.663 57.1476L180.65 55.8879L177.926 55.9009L175.202 55.9138V63.6558V71.3979L177.924 71.4108L180.646 71.4238L180.667 67.6525C180.684 64.4302 180.699 63.8236 180.767 63.4847C181.017 62.2504 181.443 61.5206 182.199 61.0314C182.809 60.6363 183.396 60.4981 184.451 60.5007C185.451 60.503 185.842 60.5806 186.633 60.9331C186.682 60.9549 186.695 60.4147 186.695 58.3245V55.6883L185.766 55.6928C185.209 55.6955 184.679 55.7256 184.441 55.7679ZM188.726 58.0686V60.3486H191.822C193.524 60.3486 194.918 60.3646 194.918 60.3841C194.918 60.4037 193.313 62.8578 191.351 65.8377C189.389 68.8176 187.785 71.2708 187.785 71.2892C187.785 71.3076 191.284 71.3227 195.561 71.3227H203.338V69.018V66.7133L200.121 66.7004L196.904 66.6875L200.433 61.3007C202.373 58.3379 203.979 55.8857 204 55.8512C204.03 55.8012 202.494 55.7885 196.382 55.7885H188.726V58.0686ZM36.012 58.4945C36.1615 58.6457 36.1558 59.2667 36.0034 59.4309L35.8957 59.5468H34.2922H32.6888L32.5672 59.4238C32.4634 59.3188 32.4456 59.2538 32.4456 58.9796C32.4456 58.7305 32.4686 58.6287 32.5483 58.5263L32.6509 58.3943H34.282C35.8469 58.3943 35.917 58.3983 36.012 58.4945ZM144.69 60.181C145.368 60.3567 146.111 60.8419 146.503 61.3657C146.981 62.0044 147.181 62.6359 147.187 63.5306C147.192 64.2564 147.095 64.7252 146.831 65.2471C146.4 66.0972 145.706 66.6668 144.82 66.8967C144.329 67.024 143.072 67.0222 142.609 66.8937C142.053 66.739 141.564 66.4458 141.18 66.0366C140.459 65.2692 140.128 64.1721 140.28 63.0589C140.471 61.6662 141.296 60.6569 142.598 60.2261C143.144 60.045 144.087 60.0247 144.69 60.181ZM164.007 60.1008C165.508 60.2913 166.603 61.2963 166.908 62.7649C167.002 63.2137 167 63.9101 166.905 64.3971C166.72 65.3401 166.065 66.2473 165.295 66.6284C164.68 66.933 164.393 66.9887 163.463 66.9847C162.715 66.9815 162.613 66.9699 162.25 66.8474C162.032 66.7738 161.742 66.6482 161.605 66.5684C160.995 66.2118 160.485 65.5624 160.228 64.8143C160.101 64.4448 160.076 64.2881 160.056 63.7289C160.037 63.1771 160.05 63.0092 160.138 62.6515C160.302 61.99 160.543 61.5459 160.981 61.0992C161.777 60.2874 162.805 59.9483 164.007 60.1008Z" fill="#EB2727"/>
<path fill-rule="evenodd" clip-rule="evenodd" d="M104.022 58.3021V52.7609V47.2197H106.747H109.471V59.7973V72.375H106.747H104.022L104.02 71.4855C104.017 70.6336 104.014 70.6013 103.933 70.7192C103.224 71.7571 102.199 72.3957 100.7 72.7336C100.027 72.8853 98.6556 72.8983 97.9545 72.7597C94.6709 72.1106 92.2988 69.5402 91.6802 65.9609C91.5942 65.4632 91.5942 63.7025 91.6802 63.2048C92.3048 59.5908 94.709 56.988 97.9545 56.4122C98.6181 56.2944 99.8675 56.2913 100.492 56.4058C101.793 56.6445 102.91 57.1904 103.688 57.9679L104.022 58.3021ZM54.0425 60.0813C54.0425 53.8158 54.0586 48.6733 54.0783 48.6533C54.1411 48.5899 63.8756 48.6497 64.3208 48.7163C65.511 48.8941 66.457 49.1638 67.19 49.534C68.4865 50.1886 69.3747 51.094 69.9909 52.3888C70.4576 53.3694 70.6467 54.296 70.6489 55.6131C70.652 57.4441 70.203 58.8658 69.2387 60.0784C68.4837 61.0278 67.4388 61.6934 66.1906 62.0198C65.9658 62.0786 65.7875 62.1433 65.7943 62.1636C65.8012 62.1839 67.3226 64.2002 69.1752 66.6444C71.0277 69.0885 72.6067 71.1749 72.684 71.2806L72.8245 71.473H69.1666H65.5087L62.7997 67.1761C61.3097 64.8127 60.0568 62.834 60.0155 62.7789C59.9479 62.689 59.94 63.1319 59.9386 67.0758L59.937 71.473H56.9898H54.0425V60.0813ZM80.147 55.2674C79.0806 55.4107 77.9206 55.7839 77.0502 56.2637C74.4288 57.7087 72.9866 60.511 73.1296 63.8813C73.3072 68.066 75.8257 70.8559 80.0981 71.6008C80.8224 71.7271 82.5921 71.7546 83.3667 71.6517C86.1573 71.2808 88.2505 69.9379 89.2924 67.8498C89.4919 67.4501 89.8061 66.6044 89.8061 66.4671C89.8061 66.4276 89.0623 66.4119 87.1865 66.4119H84.5669L84.4792 66.5497C84.1325 67.0947 83.7087 67.4296 83.0888 67.648C82.726 67.776 82.643 67.7857 81.9302 67.7836C81.3068 67.7819 81.0906 67.7615 80.7807 67.6756C80.2212 67.5203 79.8683 67.3278 79.4993 66.9767C78.969 66.4721 78.6847 65.7975 78.6189 64.8876L78.5843 64.4079L84.3066 64.3951L90.029 64.3824L90.016 63.6308C89.9701 60.9664 89.2261 58.9541 87.7276 57.4413C86.5014 56.2034 84.8921 55.47 82.8961 55.2395C82.278 55.1681 80.772 55.1834 80.147 55.2674ZM61.8426 53.2902C62.7291 53.3961 63.356 53.6734 63.8522 54.1793C64.3383 54.6747 64.5419 55.2239 64.5419 56.0391C64.5419 57.2612 63.9757 58.1051 62.8734 58.5258C62.3375 58.7304 61.9083 58.796 60.8905 58.829L59.937 58.8599V56.0141V53.1683L60.6676 53.2027C61.0695 53.2216 61.5982 53.261 61.8426 53.2902ZM84.9207 61.0626C84.6703 60.0064 83.8086 59.1562 82.6997 58.871C82.2793 58.7629 81.3586 58.7745 80.9145 58.8935C79.7568 59.2037 79.0394 59.878 78.7403 60.9373L78.666 61.2004H81.8097H84.9534L84.9207 61.0626ZM101.669 61.2251C102.869 61.5342 103.834 62.5299 104.098 63.7322C104.162 64.0235 104.177 64.2682 104.159 64.7738C104.13 65.5946 103.992 66.0739 103.622 66.6337C103.003 67.5704 102.19 67.9933 100.901 68.049C99.3358 68.1168 98.1995 67.5092 97.6058 66.2866C97.3739 65.8092 97.2832 65.431 97.2505 64.8061C97.1517 62.9208 98.3157 61.439 100.124 61.1473C100.477 61.0904 101.309 61.1324 101.669 61.2251Z" fill="#414141"/>
</g>
</svg>
