<svg width="24" height="24" viewBox="0 0 24 24" fill="none" xmlns="http://www.w3.org/2000/svg">
<path d="M0.125 0.125002V23.875H23.875V0.125002H0.125Z" fill="white" stroke="#EEEEEE" stroke-width="0.25"/>
<path fill-rule="evenodd" clip-rule="evenodd" d="M10.5734 2.02724C10.53 2.0421 10.476 2.08498 10.4474 2.12729L10.3974 2.20132V12.01V21.8186L10.4473 21.8927C10.4798 21.9408 10.528 21.9764 10.5851 21.9945C10.6708 22.0217 10.7693 21.9945 14.9004 20.8008C17.2255 20.129 19.1526 19.5618 19.1827 19.5405C19.3129 19.4482 19.3035 20.0508 19.3002 12.0077C19.2981 7.04756 19.2899 4.62777 19.2748 4.59982C19.2625 4.57697 19.2337 4.54143 19.2108 4.52082C19.177 4.49036 10.719 1.9956 10.6645 2.00001C10.6562 2.00068 10.6152 2.01295 10.5734 2.02724ZM7.18199 3.27165L7.10016 3.34623L7.0946 12.0092C7.0896 19.8037 7.09245 20.6788 7.12306 20.7376C7.16348 20.8153 7.27495 20.888 7.35391 20.8881C7.39812 20.8882 8.80664 20.4893 9.89897 20.1674L10.0469 20.1238V12.0434V3.96301L9.97565 3.94032C9.45007 3.77287 7.41698 3.19708 7.3513 3.19708C7.28224 3.19708 7.2466 3.21279 7.18199 3.27165ZM4.11441 5.82376C3.99192 5.90907 4.00011 5.46209 4.00011 12.0535C4.00011 17.4365 4.00388 18.1307 4.03335 18.1873C4.073 18.2636 4.16877 18.3173 4.26501 18.3173C4.31777 18.3173 5.57235 17.9656 6.72224 17.6285C6.75863 17.6178 6.76058 17.3337 6.76058 12.0573V6.49735L5.54974 6.14355C4.87159 5.94539 4.30026 5.78975 4.25105 5.78975C4.20275 5.78975 4.14125 5.80504 4.11441 5.82376ZM12.8511 11.3455C12.9173 11.4112 12.9147 11.6812 12.8473 11.7526L12.7997 11.803H12.0905H11.3813L11.3275 11.7495C11.2816 11.7039 11.2737 11.6756 11.2737 11.5564C11.2737 11.4481 11.2839 11.4038 11.3191 11.3593L11.3645 11.3019H12.0859C12.7781 11.3019 12.8091 11.3037 12.8511 11.3455Z" fill="#EB2727"/>
</svg>
