<svg width="125" height="32" viewBox="0 0 125 32" fill="none" xmlns="http://www.w3.org/2000/svg">
<mask id="mask0" mask-type="alpha" maskUnits="userSpaceOnUse" x="0" y="0" width="125" height="32">
<rect width="125" height="32" fill="white"/>
</mask>
<g mask="url(#mask0)">
<path fill-rule="evenodd" clip-rule="evenodd" d="M10.7237 1.04086C10.6595 1.06315 10.5796 1.12746 10.5373 1.19093L10.4633 1.30198V16.0149V30.7278L10.5372 30.8389C10.5852 30.9111 10.6565 30.9645 10.7409 30.9917C10.8678 31.0325 11.0135 30.9917 17.1243 29.2012C20.5638 28.1934 23.4143 27.3427 23.4589 27.3106C23.6515 27.1722 23.6376 28.0761 23.6327 16.0115C23.6297 8.57132 23.6174 4.94165 23.5952 4.89972C23.577 4.86543 23.5344 4.81213 23.5005 4.78122C23.4505 4.73553 10.939 0.993407 10.8584 1.00001C10.8461 1.00102 10.7855 1.01942 10.7237 1.04086ZM5.70694 2.90748L5.5859 3.01934L5.57766 16.0138C5.57028 27.7055 5.57449 29.0181 5.61976 29.1063C5.67956 29.2229 5.84445 29.332 5.96125 29.3321C6.02664 29.3322 8.11019 28.7339 9.72601 28.251L9.94477 28.1856V16.0651V3.9445L9.83944 3.91048C9.06197 3.65929 6.05455 2.79561 5.95739 2.79561C5.85524 2.79561 5.80251 2.81917 5.70694 2.90748ZM1.16924 6.73561C0.988048 6.86359 1.00017 6.19312 1.00017 16.0803C1.00017 24.1547 1.00574 25.1959 1.04933 25.2809C1.10799 25.3953 1.24965 25.4759 1.39201 25.4759C1.47005 25.4759 3.32589 24.9483 5.02686 24.4426C5.08069 24.4266 5.08357 24.0004 5.08357 16.0859V7.746L3.29245 7.2153C2.28929 6.91807 1.44416 6.6846 1.37137 6.6846C1.29991 6.6846 1.20894 6.70754 1.16924 6.73561ZM64.6494 16.033V23.486L67.7687 23.4727C70.4708 23.4611 70.9291 23.4522 71.1958 23.4058C71.7182 23.3149 72.102 23.2183 72.5407 23.0671C74.44 22.4125 75.9544 21.0674 76.8376 19.2503C77.1954 18.5143 77.3823 17.9144 77.5047 17.1097C77.5837 16.5896 77.5826 15.4757 77.5024 14.9528C77.2168 13.09 76.2117 11.3566 74.7428 10.1934C73.9877 9.59533 72.9632 9.08545 72.024 8.84015C71.1014 8.59919 70.7665 8.58024 67.4284 8.58014L64.6494 8.58007V16.033ZM70.2888 11.9576C71.6639 12.2147 72.6398 12.932 73.1717 14.0768C73.4316 14.636 73.5616 15.2932 73.5616 16.0476C73.5616 16.8376 73.4287 17.4788 73.1413 18.0759C72.6242 19.1502 71.7255 19.8094 70.4 20.0869C70.1456 20.1401 69.9089 20.1581 69.2757 20.172L68.4735 20.1896V16.0312V11.8727L69.2432 11.8893C69.7377 11.9001 70.1116 11.9244 70.2888 11.9576ZM84.0414 12.927C81.0492 13.1385 78.9076 14.9389 78.5684 17.5281C78.444 18.4776 78.5546 19.5024 78.8671 20.2961C79.5645 22.0674 81.2051 23.268 83.4298 23.6351C83.9335 23.7182 85.1878 23.7175 85.7146 23.6338C86.9279 23.4411 87.9914 22.9842 88.8095 22.3043C89.69 21.5726 90.3045 20.519 90.5335 19.3483C90.5781 19.1198 90.591 18.8901 90.5912 18.3189C90.5915 17.4828 90.5401 17.1286 90.3294 16.514C89.9696 15.4648 89.1718 14.4782 88.1938 13.8731C87.0701 13.1778 85.5127 12.823 84.0414 12.927ZM96.9764 12.9278C95.2682 13.0444 93.7811 13.6981 92.7939 14.7663C92.3494 15.2473 91.9084 15.9913 91.7148 16.5868C91.3458 17.7212 91.3815 19.1941 91.8044 20.2847C92.1691 21.2253 92.8404 22.043 93.7518 22.6569C95.607 23.9065 98.5049 24.061 100.642 23.0243C101.661 22.5299 102.542 21.6644 103.036 20.6734C103.733 19.2738 103.732 17.326 103.034 15.9467C102.128 14.1551 100.348 13.0882 97.9972 12.9271C97.4878 12.8922 97.4994 12.8921 96.9764 12.9278ZM111.203 13.2399C110.677 13.3334 110.12 13.5512 109.735 13.8147C109.495 13.9785 109.109 14.3906 108.917 14.6882L108.74 14.9613L108.732 14.1397L108.723 13.3182L106.941 13.3267L105.159 13.3351V18.3843V23.4334L106.94 23.4418L108.721 23.4503L108.734 20.9908C108.745 18.8893 108.755 18.4937 108.8 18.2726C108.963 17.4676 109.242 16.9917 109.737 16.6726C110.136 16.415 110.519 16.3249 111.21 16.3265C111.864 16.3281 112.12 16.3786 112.638 16.6085C112.67 16.6228 112.678 16.2704 112.678 14.9073V13.188L112.07 13.191C111.706 13.1927 111.359 13.2123 111.203 13.2399ZM114.007 14.7404V16.2273H116.032C117.146 16.2273 118.058 16.2378 118.058 16.2505C118.058 16.2633 117.008 17.8638 115.724 19.8072C114.441 21.7506 113.391 23.3505 113.391 23.3626C113.391 23.3745 115.681 23.3844 118.479 23.3844H123.567V21.8813V20.3782L121.462 20.3698L119.357 20.3614L121.666 16.8483C122.936 14.916 123.986 13.3167 124 13.2942C124.02 13.2616 123.015 13.2534 119.016 13.2534H114.007V14.7404ZM14.093 15.0182C14.1908 15.1168 14.187 15.5218 14.0873 15.6288L14.0169 15.7044H12.9678H11.9187L11.8392 15.6242C11.7712 15.5557 11.7596 15.5134 11.7596 15.3345C11.7596 15.172 11.7747 15.1057 11.8268 15.0389L11.8939 14.9528H12.9611C13.985 14.9528 14.0308 14.9554 14.093 15.0182ZM85.1961 16.118C85.6398 16.2326 86.1256 16.5491 86.3822 16.8907C86.6951 17.3072 86.8256 17.719 86.8298 18.3025C86.8333 18.7759 86.7696 19.0817 86.5966 19.4221C86.315 19.9764 85.8607 20.3479 85.281 20.4978C84.96 20.5808 84.1375 20.5797 83.8349 20.4959C83.471 20.395 83.151 20.2038 82.8996 19.9369C82.4282 19.4364 82.2113 18.7209 82.3109 17.9949C82.4357 17.0867 82.9758 16.4284 83.8271 16.1474C84.1848 16.0294 84.8015 16.0161 85.1961 16.118ZM97.8343 16.0658C98.8167 16.19 99.5327 16.8454 99.7325 17.8032C99.7936 18.0959 99.7926 18.5501 99.7301 18.8677C99.6092 19.4827 99.1811 20.0744 98.6772 20.3229C98.2744 20.5215 98.0871 20.5578 97.4787 20.5552C96.9889 20.5531 96.9221 20.5456 96.6847 20.4657C96.5421 20.4177 96.3523 20.3358 96.2629 20.2837C95.8634 20.0512 95.5298 19.6276 95.3617 19.1398C95.2786 18.8988 95.2624 18.7966 95.2496 18.4319C95.2369 18.072 95.2452 17.9625 95.3032 17.7292C95.4103 17.2978 95.5682 17.0082 95.8548 16.7169C96.3756 16.1875 97.0479 15.9663 97.8343 16.0658Z" fill="#EB2727"/>
<path fill-rule="evenodd" clip-rule="evenodd" d="M58.5893 14.8927V11.2788V7.66499H60.3717H62.1542V15.8678V24.0706H60.3717H58.5893L58.5876 23.4906C58.5859 22.935 58.5836 22.9139 58.5309 22.9908C58.0668 23.6677 57.3961 24.0842 56.4153 24.3045C55.975 24.4034 55.078 24.4119 54.6193 24.3215C52.471 23.8982 50.9191 22.2219 50.5144 19.8875C50.4581 19.5629 50.4581 18.4147 50.5144 18.0901C50.923 15.7331 52.4959 14.0356 54.6193 13.6601C55.0535 13.5833 55.8709 13.5813 56.2794 13.656C57.1308 13.8116 57.8617 14.1677 58.3705 14.6747L58.5893 14.8927ZM25.8896 16.053C25.8896 11.9668 25.9002 8.61299 25.9131 8.59998C25.9541 8.55861 32.323 8.5976 32.6143 8.64103C33.393 8.75705 34.0119 8.9329 34.4915 9.17431C35.3397 9.60129 35.9209 10.1917 36.324 11.0362C36.6294 11.6757 36.7531 12.28 36.7545 13.139C36.7565 14.3331 36.4627 15.2603 35.8318 16.0512C35.3379 16.6703 34.6543 17.1044 33.8376 17.3172C33.6905 17.3556 33.5739 17.3978 33.5783 17.411C33.5828 17.4243 34.5782 18.7393 35.7903 20.3333C37.0023 21.9273 38.0354 23.2879 38.086 23.3569L38.1779 23.4824H35.7847H33.3915L31.6191 20.68C30.6443 19.1387 29.8246 17.8483 29.7975 17.8123C29.7533 17.7537 29.7481 18.0425 29.7472 20.6147L29.7462 23.4824H27.8179H25.8896V16.053ZM42.9686 12.9135C42.271 13.007 41.512 13.2504 40.9426 13.5633C39.2275 14.5057 38.2839 16.3333 38.3775 18.5313C38.4937 21.2604 40.1414 23.0799 42.9367 23.5657C43.4106 23.6481 44.5684 23.6661 45.0752 23.5989C46.9009 23.3571 48.2704 22.4812 48.9521 21.1195C49.0826 20.8587 49.2882 20.3072 49.2882 20.2177C49.2882 20.1919 48.8015 20.1817 47.5743 20.1817H45.8604L45.803 20.2715C45.5762 20.627 45.2989 20.8454 44.8934 20.9879C44.656 21.0713 44.6017 21.0776 44.1353 21.0763C43.7275 21.0751 43.5861 21.0619 43.3832 21.0058C43.0172 20.9046 42.7864 20.779 42.5449 20.55C42.198 20.2209 42.012 19.781 41.9689 19.1876L41.9462 18.8747L45.6901 18.8664L49.434 18.8581L49.4255 18.3679C49.3955 16.6303 48.9087 15.3179 47.9283 14.3313C47.1261 13.524 46.0732 13.0457 44.7673 12.8953C44.3629 12.8488 43.3776 12.8587 42.9686 12.9135ZM30.9925 11.624C31.5725 11.6931 31.9826 11.874 32.3073 12.2039C32.6253 12.527 32.7585 12.8852 32.7585 13.4168C32.7585 14.2138 32.3881 14.7642 31.6669 15.0386C31.3163 15.172 31.0355 15.2148 30.3696 15.2363L29.7457 15.2565V13.4005V11.5445L30.2238 11.567C30.4867 11.5793 30.8326 11.605 30.9925 11.624ZM46.0918 16.693C45.9279 16.0042 45.3642 15.4497 44.6386 15.2637C44.3636 15.1932 43.7612 15.2008 43.4706 15.2784C42.7132 15.4807 42.2439 15.9204 42.0481 16.6113L41.9996 16.7829H44.0563H46.1131L46.0918 16.693ZM57.0492 16.799C57.8342 17.0005 58.4654 17.6499 58.6384 18.434C58.6803 18.624 58.6897 18.7836 58.6782 19.1134C58.6595 19.6486 58.5689 19.9612 58.3268 20.3263C57.9216 20.9372 57.3898 21.213 56.5469 21.2494C55.5226 21.2936 54.7792 20.8973 54.3908 20.1C54.2391 19.7886 54.1797 19.5419 54.1583 19.1344C54.0936 17.9049 54.8552 16.9384 56.0386 16.7482C56.2692 16.7112 56.8137 16.7385 57.0492 16.799Z" fill="#414141"/>
</g>
</svg>
