<svg width="220" height="120" viewBox="0 0 220 120" fill="none" xmlns="http://www.w3.org/2000/svg">
<mask id="mask0" mask-type="alpha" maskUnits="userSpaceOnUse" x="0" y="0" width="220" height="120">
<rect width="220" height="120" fill="white"/>
</mask>
<g mask="url(#mask0)">
<path fill-rule="evenodd" clip-rule="evenodd" d="M47.3475 63.7067V85.7724H51.1382H54.9291L54.9872 74.9928C55.0515 63.118 55.013 63.5806 56.1255 61.2847C57.5196 58.4077 60.7185 56.6981 63.6963 57.2387C66.8242 57.8064 69.0005 59.9855 69.9173 63.4671C70.1693 64.4245 70.2088 65.7682 70.2612 75.1606L70.3205 85.7724H74.111H77.9017L77.9004 75.8317C77.8995 70.1652 77.8264 65.2417 77.7301 64.381C76.7628 55.7322 72.0146 50.6209 64.2537 49.874C61.4026 49.5995 57.7748 50.172 55.7651 51.2135C55.412 51.3964 55.0842 51.5462 55.0365 51.5462C54.9887 51.5462 54.9301 49.338 54.906 46.6388L54.8622 41.7314L51.1049 41.6862L47.3475 41.6411V63.7067ZM29.0996 49.8864C25.9387 50.2243 23.0048 51.4759 21.127 53.2877C19.7108 54.6539 18.9492 55.8629 18.4192 57.5861C17.8846 59.3238 17.8848 62.3786 18.4194 63.8641C19.5524 67.0127 22.183 69.0836 26.6203 70.3204C27.6195 70.5989 29.2659 71.0576 30.2792 71.3398C33.614 72.2683 35.2159 73.0911 35.6977 74.1222C36.0836 74.9485 36.023 76.4907 35.5728 77.2997C35.1259 78.1027 33.8064 78.9612 32.6231 79.2191C31.434 79.4781 29.0699 79.4367 27.9349 79.137C25.9476 78.6122 23.6398 77.0016 22.561 75.3864C22.2502 74.9208 21.9346 74.5381 21.8598 74.5358C21.7073 74.5309 16.0776 79.3618 16.0021 79.5623C15.9156 79.792 18.4772 82.4232 19.5314 83.1874C25.3527 87.4072 35.4219 87.5253 40.2994 83.4307C42.6931 81.4214 43.8488 79.0075 43.9983 75.7058C44.1517 72.3161 43.444 70.3719 41.3251 68.3617C39.3534 66.4911 37.4848 65.6331 32.4834 64.3018C27.8978 63.0813 26.8604 62.6182 26.0728 61.4409C25.7486 60.9562 25.6937 60.6975 25.7479 59.9095C25.8686 58.1559 27.1729 57.1232 29.7213 56.763C32.8878 56.3157 35.841 57.57 37.5924 60.1063C37.9734 60.6581 38.3215 61.1094 38.3661 61.1094C38.4788 61.1094 43.9508 56.3912 44.0089 56.2441C44.1078 55.9936 42.4703 54.0056 41.5044 53.2037C39.4621 51.508 36.1185 50.227 32.8137 49.874C31.0645 49.6873 30.9588 49.6876 29.0996 49.8864ZM111.578 49.8713C107.377 50.3554 103.861 52.0445 100.934 54.9856C97.9642 57.9697 96.3002 61.4392 95.744 65.8071C95.652 66.5292 95.5816 73.0179 95.5787 81.0327L95.5735 95H99.3722H103.171V89.2118C103.171 86.0282 103.195 83.4235 103.225 83.4235C103.255 83.4235 103.862 83.7606 104.573 84.1726C112.41 88.7091 122.833 86.6512 128.12 79.5237C129.882 77.1482 131.155 74.0273 131.586 71.0273C131.887 68.9276 131.708 65.4464 131.197 63.4458C129.847 58.169 126.65 54.0774 122.047 51.7348C119.052 50.2104 114.959 49.4818 111.578 49.8713ZM150.175 49.8775C146.302 50.3148 142.654 51.9615 139.802 54.5601C137.637 56.5327 135.637 59.9687 134.753 63.2339L134.306 64.8843L134.258 79.9422L134.21 95H137.931H141.652V89.2118C141.652 86.0282 141.695 83.4235 141.748 83.4235C141.8 83.4235 142.339 83.7174 142.945 84.0768C148.963 87.6434 156.83 87.3645 162.71 83.376C164.206 82.3611 166.708 79.6846 167.632 78.1112C170.707 72.8723 171.155 66.447 168.845 60.6935C167.134 56.4286 163.364 52.7069 159.105 51.078C156.334 50.0181 152.955 49.5638 150.175 49.8775ZM82.6362 50.6515C82.5756 50.7129 82.5261 58.6403 82.5261 68.2679V85.7724H86.3247H90.1233V68.156V50.5396H86.4349C84.4061 50.5396 82.6967 50.5899 82.6362 50.6515ZM116.283 57.4137C119.784 58.3233 122.374 60.7965 123.582 64.3827C124.165 66.115 124.311 68.9331 123.916 70.8286C123.103 74.7249 120.131 77.9413 116.464 78.8941C114.911 79.2976 112.627 79.3331 111.139 78.9768C107.476 78.0995 104.443 74.9426 103.482 71.0081C103.156 69.671 103.195 66.4824 103.554 65.136C104.593 61.2413 107.67 58.1314 111.263 57.3445C112.841 56.9991 114.791 57.0259 116.283 57.4137ZM155.659 57.6343C158.194 58.5337 160.307 60.4338 161.483 62.871C162.407 64.7862 162.688 66.0475 162.681 68.2399C162.669 71.5809 161.756 73.9056 159.576 76.1426C157.482 78.2913 155.248 79.2291 152.223 79.2291C149.253 79.2291 146.973 78.2881 144.94 76.2244C143.57 74.8329 142.552 73.0204 142.059 71.092C141.676 69.5965 141.713 66.7173 142.135 65.0766C143.112 61.2762 146.192 58.1582 149.793 57.3249C151.392 56.9548 154.154 57.1003 155.659 57.6343Z" fill="#0089D0"/>
<path d="M190.788 46.2107C190.788 43.8267 190.837 41.826 190.898 41.7646C190.958 41.703 192.668 41.6527 194.696 41.6527H198.385V46.0988V50.5448H201.193H204V54.152V57.7591H201.193H198.385V71.7684V85.7776H194.586H190.788V71.7684V57.7591H187.897H185.007V54.152V50.5448H187.897H190.788V46.2107Z" fill="#67686A"/>
<path d="M173.776 85.7776V68.158V50.5384L177.534 50.5836L181.291 50.6287L181.333 68.2031L181.375 85.7776H177.576H173.776Z" fill="#67686A"/>
<path fill-rule="evenodd" clip-rule="evenodd" d="M130.806 27.2088C130.855 26.0959 130.925 25.8367 131.276 25.4517L131.689 25L133.748 25.1134C134.881 25.1758 135.899 25.3038 136.011 25.398C136.654 25.9404 136.713 28.3852 136.103 29.2169C135.795 29.6355 135.709 29.6544 133.901 29.7012C132.866 29.7281 131.853 29.7081 131.65 29.6569C131.021 29.4981 130.74 28.6818 130.806 27.2088ZM140.738 28.0632C140.846 26.7593 141.196 25.9296 141.73 25.7134C141.93 25.6325 142.205 25.5949 142.341 25.6295C142.477 25.6642 143.358 25.7845 144.297 25.8969C146.57 26.1686 146.722 26.2961 146.706 27.9188C146.692 29.3153 146.445 30.2265 145.959 30.6738C145.636 30.9708 145.558 30.9708 143.538 30.6763C142.39 30.5089 141.361 30.3368 141.251 30.2938C140.847 30.1364 140.641 29.2409 140.738 28.0632ZM151.336 27.8299C150.856 28.3563 150.61 29.1253 150.487 30.4915C150.358 31.9139 150.56 32.1051 152.867 32.745C155.187 33.3884 155.417 33.3889 155.946 32.7512C156.435 32.1598 156.69 31.3746 156.823 30.0445C156.958 28.6991 156.646 28.4198 154.357 27.8372C152.152 27.2759 151.842 27.275 151.336 27.8299ZM160.094 34.9363C159.347 34.0968 160.375 30.9956 161.57 30.4849C162.106 30.2564 162.246 30.2958 165.193 31.504C166.151 31.8964 166.364 32.0593 166.567 32.5532C166.781 33.0733 166.778 33.2316 166.534 33.9884C166.025 35.5698 165.489 36.4537 164.884 36.7104C164.344 36.9396 164.249 36.9167 162.352 36.1029C161.267 35.6376 160.252 35.1127 160.094 34.9363ZM175.733 33.2178C175.652 33.3794 175.451 34.1753 175.286 34.9867C175.122 35.798 174.944 36.4896 174.89 36.5235C174.836 36.5572 174.144 36.1765 173.351 35.6772C171.22 34.335 170.633 34.4437 169.412 36.4065C168.691 37.5679 168.448 38.5282 168.738 39.079C168.834 39.2611 169.629 39.8501 170.504 40.388L172.095 41.366L170.176 42.404C168.051 43.5528 167.792 43.7459 168.038 43.9955C168.219 44.1791 180.17 45.891 180.703 45.8098C181.537 45.6828 181.469 45.4273 179.093 39.6944L179.045 39.5788C176.771 34.0947 176.254 32.848 175.969 32.8989C175.885 32.9139 175.821 33.0412 175.739 33.206L175.733 33.2178ZM101.125 31.0686C100.805 31.461 100.877 32.2456 101.331 33.2908C101.741 34.2347 102.267 34.8339 102.641 34.7832C102.743 34.7693 103.603 34.4645 104.551 34.1058C106.221 33.4744 106.28 33.4415 106.406 33.0768C106.595 32.5275 106.41 31.7242 105.846 30.6479C105.191 29.3974 105.022 29.3641 103.168 30.1201C102.402 30.4326 101.678 30.7139 101.559 30.7451C101.44 30.7764 101.245 30.9219 101.125 31.0686ZM92.6669 38.181C92.0168 37.3092 91.7783 36.5945 91.9916 36.1568C92.0713 35.9932 92.2215 35.8139 92.3252 35.758C92.4291 35.7023 93.0426 35.2775 93.6886 34.8142C95.2509 33.6935 95.4155 33.6865 96.2982 34.7044C97.0578 35.5805 97.4053 36.2873 97.3487 36.8415C97.3111 37.2095 97.263 37.2535 95.8449 38.2169C95.0392 38.7641 94.3045 39.2412 94.2122 39.2771C93.8746 39.4085 93.2542 38.9684 92.6669 38.181ZM110.544 28.5119C110.388 29.1377 110.519 29.8523 111.001 30.9854C111.502 32.1651 111.742 32.2278 113.836 31.7246C115.94 31.2187 116.123 31.1183 116.27 30.3836C116.406 29.7024 116.274 28.9708 115.816 27.8621C115.353 26.7405 114.988 26.6564 112.933 27.1967C110.953 27.7177 110.708 27.8524 110.544 28.5119ZM121.52 30.1595C120.583 29.8266 120.086 26.9561 120.807 26.0392C121.13 25.6288 121.256 25.599 124.068 25.2679C124.981 25.1602 125.216 25.1953 125.582 25.4936C125.968 25.8078 126.031 25.9331 126.158 26.6305C126.423 28.0878 126.375 29.0108 126.01 29.4734C125.684 29.8865 125.6 29.9098 123.775 30.0946C122.731 30.2002 121.717 30.2293 121.52 30.1595ZM86.4909 46.0145C88.4976 46.0145 90.1244 44.3619 90.1244 42.3234C90.1244 40.2849 88.4976 38.6324 86.4909 38.6324C84.4842 38.6324 82.8574 40.2849 82.8574 42.3234C82.8574 44.3619 84.4842 46.0145 86.4909 46.0145Z" fill="url(#paint0_linear)"/>
</g>
<defs>
<linearGradient id="paint0_linear" x1="181.327" y1="25.4295" x2="85.3333" y2="24.5969" gradientUnits="userSpaceOnUse">
<stop stop-color="#67686A"/>
<stop offset="1" stop-color="#8F9194"/>
</linearGradient>
</defs>
</svg>
