<svg width="82" height="32" viewBox="0 0 82 32" fill="none" xmlns="http://www.w3.org/2000/svg">
<mask id="mask0" mask-type="alpha" maskUnits="userSpaceOnUse" x="0" y="0" width="82" height="32">
<rect width="82" height="32" fill="white"/>
</mask>
<g mask="url(#mask0)">
<path fill-rule="evenodd" clip-rule="evenodd" d="M14.3392 17.5886V27.0453H15.9523H17.5654L17.5901 22.4255C17.6175 17.3363 17.6011 17.5345 18.0745 16.5506C18.6677 15.3176 20.029 14.5849 21.2961 14.8166C22.6271 15.0599 23.5532 15.9938 23.9433 17.4859C24.0505 17.8962 24.0673 18.4721 24.0896 22.4974L24.1148 27.0453H25.7278H27.3409L27.3403 22.785C27.34 20.3565 27.3088 18.2464 27.2678 17.8776C26.8562 14.1709 24.8358 11.9804 21.5333 11.6603C20.3201 11.5426 18.7763 11.788 17.9212 12.2344C17.7709 12.3127 17.6314 12.3769 17.6111 12.3769C17.5908 12.3769 17.5658 11.4306 17.5556 10.2738L17.5369 8.17058L15.9381 8.15124L14.3392 8.1319V17.5886ZM6.57425 11.6656C5.22918 11.8104 3.98074 12.3468 3.18167 13.1233C2.57903 13.7088 2.25497 14.227 2.02944 14.9655C1.80195 15.7102 1.80202 17.0194 2.02951 17.656C2.51163 19.0055 3.63103 19.893 5.51922 20.423C5.94441 20.5424 6.64502 20.739 7.07618 20.8599C8.49526 21.2578 9.1769 21.6105 9.3819 22.0524C9.54614 22.4065 9.52035 23.0674 9.32877 23.4142C9.13859 23.7583 8.57713 24.1262 8.07358 24.2367C7.56757 24.3478 6.5616 24.33 6.07864 24.2016C5.23297 23.9767 4.25097 23.2864 3.7919 22.5942C3.65964 22.3946 3.52533 22.2306 3.4935 22.2296C3.42863 22.2275 1.03303 24.2979 1.00091 24.3838C0.964084 24.4823 2.05411 25.61 2.5027 25.9375C4.97983 27.7459 9.26453 27.7965 11.3401 26.0417C12.3586 25.1806 12.8505 24.1461 12.9141 22.7311C12.9793 21.2783 12.6782 20.4451 11.7765 19.5836C10.9375 18.7819 10.1424 18.4142 8.01413 17.8436C6.06283 17.3205 5.62141 17.1221 5.28625 16.6175C5.14829 16.4098 5.12496 16.2989 5.14801 15.9612C5.19938 15.2097 5.75437 14.7671 6.83878 14.6127C8.18624 14.421 9.4429 14.9586 10.1881 16.0455C10.3503 16.282 10.4984 16.4755 10.5174 16.4755C10.5653 16.4755 12.8938 14.4534 12.9186 14.3903C12.9606 14.283 12.2638 13.431 11.8528 13.0873C10.9838 12.3606 9.56097 11.8116 8.15469 11.6603C7.41036 11.5803 7.36538 11.5804 6.57425 11.6656ZM41.6712 11.6591C39.8833 11.8666 38.3871 12.5905 37.1417 13.851C35.878 15.1299 35.17 16.6168 34.9333 18.4888C34.8941 18.7982 34.8642 21.5791 34.8629 25.014L34.8607 31H36.4771H38.0936V28.5193C38.0936 27.1549 38.104 26.0386 38.1167 26.0386C38.1294 26.0386 38.3876 26.1831 38.6904 26.3597C42.025 28.3039 46.4604 27.4219 48.7101 24.3673C49.4599 23.3492 50.0016 22.0117 50.1849 20.726C50.3131 19.8261 50.2371 18.3342 50.0194 17.4768C49.445 15.2153 48.0848 13.4618 46.126 12.4578C44.8512 11.8044 43.1097 11.4922 41.6712 11.6591ZM58.0953 11.6618C56.4471 11.8492 54.8947 12.5549 53.681 13.6686C52.7597 14.514 51.9087 15.9866 51.5326 17.386L51.3425 18.0933L51.3221 24.5466L51.3017 31H52.8851H54.4686V28.5193C54.4686 27.1549 54.4868 26.0386 54.5091 26.0386C54.5313 26.0386 54.7606 26.1646 55.0186 26.3186C57.5793 27.8472 60.9269 27.7277 63.4292 26.0183C64.0658 25.5833 65.1305 24.4363 65.5236 23.762C66.8321 21.5167 67.0226 18.763 66.04 16.2972C65.3117 14.4694 63.7073 12.8744 61.8949 12.1763C60.7158 11.722 59.2779 11.5273 58.0953 11.6618ZM29.3556 11.9935C29.3298 12.0198 29.3087 15.4172 29.3087 19.5434V27.0453H30.9251H32.5415V19.4954V11.9455H30.972C30.1087 11.9455 29.3813 11.9671 29.3556 11.9935ZM43.6731 14.8916C45.1631 15.2814 46.2653 16.3414 46.779 17.8783C47.0272 18.6207 47.0893 19.8285 46.9211 20.6408C46.5753 22.3107 45.3108 23.6891 43.7503 24.0975C43.0893 24.2704 42.1173 24.2856 41.4842 24.1329C39.9257 23.7569 38.6349 22.404 38.2261 20.7178C38.0871 20.1447 38.1037 18.7782 38.2565 18.2011C38.6987 16.532 40.0082 15.1992 41.5372 14.8619C42.2085 14.7139 43.0381 14.7254 43.6731 14.8916ZM60.4287 14.9861C61.5074 15.3716 62.4065 16.1859 62.9069 17.2304C63.3001 18.0512 63.4199 18.5918 63.4167 19.5314C63.4117 20.9633 63.0231 21.9595 62.0954 22.9182C61.2044 23.8391 60.2537 24.2411 58.9664 24.2411C57.703 24.2411 56.7324 23.8377 55.8676 22.9533C55.2844 22.357 54.8514 21.5802 54.6415 20.7537C54.4788 20.1128 54.4942 18.8788 54.6737 18.1757C55.0897 16.5469 56.4004 15.2107 57.9326 14.8535C58.6132 14.6949 59.7885 14.7572 60.4287 14.9861Z" fill="#0089D0"/>
<path d="M75.3774 10.0903C75.3774 9.0686 75.3985 8.21115 75.4243 8.18483C75.45 8.15844 76.1774 8.13687 77.0407 8.13687H78.6102V10.0423V11.9478H79.805H80.9997V13.4937V15.0396H79.805H78.6102V21.0436V27.0475H76.9938H75.3774V21.0436V15.0396H74.1475H72.9176V13.4937V11.9478H74.1475H75.3774V10.0903Z" fill="#67686A"/>
<path d="M68.1387 27.0475V19.4963V11.945L69.7375 11.9644L71.3364 11.9837L71.3543 19.5156L71.3721 27.0475H69.7554H68.1387Z" fill="#67686A"/>
<path fill-rule="evenodd" clip-rule="evenodd" d="M49.8528 1.94661C49.874 1.46968 49.9035 1.35858 50.0531 1.19356L50.2285 1L51.1049 1.04861C51.5869 1.07536 52.0202 1.13022 52.0676 1.17056C52.3415 1.40302 52.3665 2.4508 52.1067 2.80723C51.976 2.98663 51.9393 2.99475 51.1699 3.01481C50.7294 3.02632 50.2985 3.01776 50.2122 2.99583C49.9446 2.92774 49.8248 2.57793 49.8528 1.94661ZM54.0793 2.31282C54.1252 1.75398 54.2742 1.39842 54.5016 1.30573C54.5865 1.27108 54.7035 1.25497 54.7615 1.26978C54.8194 1.28467 55.194 1.33622 55.5938 1.3844C56.5608 1.50081 56.6255 1.55546 56.6188 2.25091C56.613 2.84944 56.5079 3.23994 56.3009 3.43164C56.1634 3.55891 56.1304 3.55891 55.2708 3.43272C54.7824 3.36096 54.3444 3.28718 54.2974 3.26878C54.1256 3.20133 54.038 2.81751 54.0793 2.31282ZM58.589 2.2128C58.3846 2.43843 58.2802 2.76797 58.2276 3.35348C58.173 3.96308 58.2589 4.04505 59.2406 4.31929C60.2276 4.59504 60.3257 4.59526 60.5506 4.32195C60.7589 4.06849 60.8673 3.73198 60.924 3.16193C60.9813 2.58533 60.8484 2.46561 59.8747 2.21596C58.9361 1.97537 58.8043 1.97501 58.589 2.2128ZM62.316 5.25842C61.9977 4.89862 62.4354 3.56955 62.9441 3.35068C63.1718 3.25274 63.2314 3.26964 64.4856 3.78742C64.8931 3.9556 64.9839 4.02542 65.0704 4.2371C65.1614 4.46001 65.1598 4.52781 65.0561 4.85217C64.8394 5.52993 64.6115 5.90872 64.3541 6.01873C64.1243 6.11695 64.0838 6.10718 63.2765 5.75837C62.8151 5.55898 62.3829 5.33399 62.316 5.25842ZM68.9704 4.52191C68.9359 4.59116 68.8505 4.93227 68.7806 5.28C68.7107 5.62772 68.6348 5.92411 68.6119 5.93863C68.5889 5.95309 68.2943 5.78994 67.957 5.57595C67.0502 5.00072 66.8003 5.04731 66.281 5.88852C65.9739 6.38623 65.8708 6.79781 65.9942 7.03387C66.0351 7.11189 66.3732 7.36434 66.7456 7.59487L67.4227 8.01399L66.6058 8.45886C65.7019 8.95119 65.5915 9.03395 65.6961 9.14094C65.773 9.2196 70.8585 9.95331 71.0854 9.9185C71.4402 9.86407 71.4116 9.75457 70.4002 7.29762L70.3797 7.24799C69.4124 4.8983 69.1924 4.36368 69.071 4.38523C69.0353 4.39157 69.0081 4.44617 68.9729 4.51685L68.9704 4.52191ZM37.2224 3.60081C37.0859 3.76901 37.1168 4.10526 37.3098 4.55321C37.4842 4.95773 37.708 5.21453 37.8673 5.1928C37.9108 5.18684 38.2767 5.0562 38.6803 4.9025C39.3908 4.63187 39.4161 4.61779 39.4695 4.46148C39.5499 4.22607 39.4711 3.8818 39.2312 3.42055C38.9524 2.8846 38.8805 2.87035 38.0918 3.19433C37.7656 3.32826 37.4574 3.44882 37.4069 3.46219C37.3564 3.47561 37.2734 3.53793 37.2224 3.60081ZM33.6238 6.64901C33.3471 6.27535 33.2456 5.96906 33.3364 5.78149C33.3703 5.71137 33.4342 5.63451 33.4784 5.61058C33.5225 5.5867 33.7836 5.40465 34.0585 5.20608C34.7233 4.72578 34.7934 4.7228 35.169 5.15904C35.4922 5.53449 35.64 5.8374 35.616 6.07493C35.6 6.23264 35.5795 6.25148 34.9761 6.66436C34.6332 6.89888 34.3206 7.10339 34.2813 7.11877C34.1377 7.17505 33.8736 6.98645 33.6238 6.64901ZM41.2305 2.5051C41.164 2.77331 41.2202 3.07957 41.425 3.56518C41.6382 4.07075 41.7406 4.09765 42.6314 3.88197C43.5269 3.66516 43.6045 3.62213 43.6671 3.30726C43.7251 3.01531 43.6691 2.7018 43.4741 2.22661C43.2768 1.74593 43.1215 1.70989 42.2474 1.94147C41.4048 2.16473 41.3006 2.22247 41.2305 2.5051ZM45.9015 3.21122C45.5028 3.06857 45.2915 1.83834 45.5981 1.44538C45.7354 1.26951 45.789 1.25674 46.9856 1.11482C47.3744 1.06869 47.4745 1.0837 47.6302 1.21157C47.7943 1.34621 47.8213 1.39991 47.8753 1.69881C47.9881 2.32334 47.9676 2.71895 47.8122 2.91719C47.6734 3.09421 47.6376 3.10421 46.8609 3.18343C46.4171 3.22866 45.9853 3.24115 45.9015 3.21122ZM30.9954 10.0062C31.8493 10.0062 32.5415 9.29798 32.5415 8.42433C32.5415 7.55068 31.8493 6.84245 30.9954 6.84245C30.1414 6.84245 29.4492 7.55068 29.4492 8.42433C29.4492 9.29798 30.1414 10.0062 30.9954 10.0062Z" fill="url(#paint0_linear)"/>
</g>
<defs>
<linearGradient id="paint0_linear" x1="71.351" y1="1.18409" x2="30.5028" y2="0.83228" gradientUnits="userSpaceOnUse">
<stop stop-color="#67686A"/>
<stop offset="1" stop-color="#8F9194"/>
</linearGradient>
</defs>
</svg>
