<svg width="24" height="24" viewBox="0 0 24 24" fill="none" xmlns="http://www.w3.org/2000/svg">
<path fill-rule="evenodd" clip-rule="evenodd" d="M24 24H0V1.90735e-06H24V24Z" fill="#0089D0"/>
<path fill-rule="evenodd" clip-rule="evenodd" d="M7.14074 9.5229C6.18496 9.62991 5.38514 10.0033 4.71937 10.6536C4.04382 11.3133 3.66531 12.0803 3.53877 13.046C3.51785 13.2056 3.50184 14.6402 3.50116 16.4121L3.5 19.5H4.36411H5.22821V18.2203C5.22821 17.5165 5.23377 16.9407 5.24057 16.9407C5.24737 16.9407 5.3854 17.0152 5.54729 17.1063C7.32987 18.1092 9.70097 17.6542 10.9036 16.0785C11.3045 15.5533 11.594 14.8633 11.692 14.2001C11.7605 13.7359 11.7199 12.9663 11.6035 12.524C11.2965 11.3574 10.5693 10.4528 9.52218 9.93488C8.84074 9.59786 7.90976 9.43677 7.14074 9.5229ZM15.9208 9.52427C15.0396 9.62093 14.2098 9.98499 13.5609 10.5595C13.0685 10.9956 12.6135 11.7552 12.4125 12.4771L12.3108 12.842L12.2999 16.171L12.289 19.5H13.1355H13.982V18.2203C13.982 17.5165 13.9917 16.9407 14.0036 16.9407C14.0155 16.9407 14.1381 17.0056 14.276 17.0851C15.6449 17.8736 17.4345 17.8119 18.7721 16.9302C19.1125 16.7058 19.6817 16.1141 19.8917 15.7662C20.5913 14.608 20.6931 13.1875 20.1678 11.9155C19.7785 10.9726 18.9208 10.1498 17.9519 9.78966C17.3216 9.55535 16.553 9.45491 15.9208 9.52427ZM8.21092 11.1904C9.00743 11.3915 9.59664 11.9382 9.87128 12.7311C10.004 13.1141 10.0371 13.7371 9.94724 14.1562C9.7624 15.0175 9.08641 15.7286 8.25217 15.9393C7.89882 16.0285 7.37923 16.0364 7.0408 15.9576C6.20765 15.7636 5.51761 15.0657 5.29907 14.1959C5.22475 13.9002 5.23362 13.1953 5.31533 12.8976C5.55172 12.0366 6.25172 11.349 7.06913 11.1751C7.42796 11.0987 7.87147 11.1046 8.21092 11.1904ZM17.1682 11.2391C17.7448 11.438 18.2254 11.8581 18.4929 12.3969C18.7031 12.8203 18.7672 13.0992 18.7654 13.5838C18.7628 14.3225 18.555 14.8364 18.0591 15.331C17.5828 15.806 17.0746 16.0134 16.3864 16.0134C15.711 16.0134 15.1922 15.8053 14.7298 15.3491C14.4181 15.0414 14.1866 14.6407 14.0744 14.2144C13.9874 13.8838 13.9957 13.2472 14.0916 12.8845C14.314 12.0443 15.0147 11.355 15.8338 11.1707C16.1976 11.0889 16.8259 11.1211 17.1682 11.2391Z" fill="white"/>
<path fill-rule="evenodd" clip-rule="evenodd" d="M11.7621 4.92025C11.7717 4.70851 11.7851 4.65919 11.853 4.58593L11.9327 4.5L12.3308 4.52158C12.5497 4.53345 12.7465 4.55781 12.7681 4.57572C12.8925 4.67892 12.9038 5.14409 12.7858 5.30232C12.7264 5.38197 12.7098 5.38558 12.3603 5.39448C12.1602 5.39959 11.9645 5.39579 11.9253 5.38606C11.8038 5.35583 11.7493 5.20053 11.7621 4.92025ZM13.6818 5.08283C13.7026 4.83473 13.7703 4.67688 13.8736 4.63573C13.9122 4.62035 13.9653 4.61319 13.9916 4.61977C14.018 4.62638 14.1881 4.64927 14.3697 4.67065C14.8089 4.72234 14.8383 4.7466 14.8353 5.05535C14.8327 5.32106 14.7849 5.49443 14.6909 5.57953C14.6284 5.63604 14.6135 5.63604 14.223 5.58001C14.0012 5.54816 13.8022 5.5154 13.7809 5.50723C13.7028 5.47729 13.663 5.30689 13.6818 5.08283ZM15.7302 5.03843C15.6373 5.1386 15.5899 5.2849 15.566 5.54484C15.5412 5.81547 15.5802 5.85186 16.0262 5.97361C16.4745 6.09603 16.519 6.09613 16.6211 5.97479C16.7158 5.86227 16.765 5.71287 16.7908 5.4598C16.8168 5.20381 16.7564 5.15066 16.3142 5.03983C15.8878 4.93302 15.828 4.93286 15.7302 5.03843ZM17.423 6.39054C17.2785 6.2308 17.4773 5.64076 17.7083 5.54359C17.8117 5.50011 17.8388 5.50761 18.4085 5.73748C18.5936 5.81215 18.6348 5.84315 18.6741 5.93712C18.7155 6.03608 18.7147 6.06618 18.6676 6.21018C18.5692 6.51108 18.4657 6.67924 18.3488 6.72808C18.2444 6.77169 18.226 6.76735 17.8593 6.61249C17.6497 6.52398 17.4534 6.42409 17.423 6.39054ZM20.4456 6.06357C20.4299 6.09431 20.3911 6.24574 20.3594 6.40012C20.3276 6.55449 20.2931 6.68607 20.2827 6.69252C20.2723 6.69894 20.1385 6.62651 19.9853 6.53151C19.5734 6.27613 19.4599 6.29682 19.224 6.67027C19.0845 6.89124 19.0377 7.07396 19.0938 7.17876C19.1123 7.21339 19.2659 7.32547 19.435 7.42781L19.7426 7.61389L19.3715 7.81139C18.961 8.02996 18.9108 8.0667 18.9583 8.1142C18.9933 8.14912 21.3032 8.47485 21.4062 8.4594C21.5674 8.43524 21.5544 8.38662 21.095 7.29585L21.0858 7.27393C20.646 6.22984 20.5462 5.99293 20.4911 6.00291C20.475 6.00583 20.4627 6.03002 20.4467 6.06131L20.4456 6.06357ZM9.83748 4.69726C9.69819 4.87172 9.79418 5.41788 9.97529 5.48121C10.0134 5.4945 10.2095 5.48895 10.4111 5.46888C10.7639 5.4337 10.7801 5.42926 10.8432 5.35068C10.9138 5.26267 10.9231 5.08703 10.8718 4.80977C10.8473 4.67708 10.835 4.65323 10.7605 4.59346C10.6897 4.53669 10.6443 4.53003 10.4677 4.55051C9.9242 4.61351 9.89984 4.61918 9.83748 4.69726ZM7.94469 5.6387C7.85167 5.42311 7.82617 5.28714 7.85638 5.16807C7.8882 5.0426 7.93555 5.01696 8.31824 4.91785C8.71527 4.81504 8.78582 4.83104 8.87542 5.04443C8.96402 5.2554 8.98944 5.39458 8.96311 5.52419C8.93467 5.66398 8.89943 5.68308 8.49265 5.77934C8.08804 5.87509 8.04155 5.86315 7.94469 5.6387ZM6.02932 5.65571C5.96735 5.73039 5.98138 5.87967 6.06905 6.07854C6.14825 6.25812 6.24991 6.37213 6.32225 6.36248C6.342 6.35984 6.5082 6.30184 6.69155 6.23361C7.01425 6.11346 7.02573 6.1072 7.04999 6.03781C7.08653 5.9333 7.05072 5.78046 6.94174 5.57568C6.81511 5.33775 6.78246 5.33142 6.42421 5.47526C6.27607 5.53472 6.13609 5.58824 6.11314 5.59417C6.09021 5.60013 6.05248 5.6278 6.02932 5.65571ZM4.26765 6.62304C4.22642 6.70632 4.27251 6.8423 4.39817 7.00819C4.51167 7.15799 4.6316 7.24172 4.69685 7.21674C4.71468 7.20991 4.85669 7.11912 5.01242 7.015C5.2865 6.8317 5.29581 6.82334 5.30307 6.75332C5.314 6.64787 5.24684 6.51339 5.10003 6.34671C4.92943 6.15304 4.89761 6.15436 4.59564 6.36759C4.47078 6.45575 4.3522 6.53657 4.33213 6.54717C4.31208 6.5578 4.28305 6.59192 4.26765 6.62304ZM3.90456 7.79542C3.90456 8.18328 3.59014 8.4977 3.20228 8.4977C2.81442 8.4977 2.5 8.18328 2.5 7.79542C2.5 7.40756 2.81442 7.09314 3.20228 7.09314C3.59014 7.09314 3.90456 7.40756 3.90456 7.79542Z" fill="#B9E7FE"/>
</svg>
