<svg width="97" height="32" viewBox="0 0 97 32" fill="none" xmlns="http://www.w3.org/2000/svg">
<mask id="mask0" mask-type="alpha" maskUnits="userSpaceOnUse" x="0" y="0" width="97" height="32">
<rect width="97" height="32" fill="white"/>
</mask>
<g mask="url(#mask0)">
<path fill-rule="evenodd" clip-rule="evenodd" d="M32.4027 23.0354L32.4001 23.0398C32.2389 23.3006 32.1714 23.4101 32.1336 23.4731C32.0066 23.6752 32.0224 23.7652 32.2164 23.9404C32.6693 24.3302 33.2516 24.7397 33.6444 24.9446C34.7373 25.5153 35.9177 25.817 37.1687 25.8441C37.9769 25.8877 38.9918 25.6825 39.7475 25.3228C41.1157 24.6711 41.9872 23.4008 42.1399 21.8364C42.3873 19.3015 40.8426 17.717 36.8636 16.4398C35.0097 15.8014 34.1379 14.9524 34.1375 13.7676C34.1921 12.458 35.3293 11.4796 36.8636 11.4186C38.0995 11.4219 39.1921 11.7724 40.2658 12.5101C40.4922 12.6568 40.5967 12.6297 40.7488 12.4187C40.7662 12.3876 40.815 12.3122 41.0185 12.0002C41.2085 11.7088 41.2717 11.6104 41.2873 11.5816C41.4156 11.3239 41.3972 11.2246 41.1658 11.0493C40.9377 10.8749 40.2955 10.5181 39.9283 10.3617C38.9068 9.92656 37.8507 9.71524 36.7996 9.73704C34.4077 9.79252 32.5424 11.4534 32.4193 13.6324C32.3415 15.2063 33.0895 16.4718 34.6526 17.4073C35.0908 17.6543 36.6931 18.3009 37.4409 18.5348C39.5672 19.1996 40.6757 20.4227 40.4468 21.8657C40.2386 23.1768 38.9521 24.0488 37.1466 24.1085C35.8374 24.0794 34.5183 23.567 33.373 22.648C33.3672 22.6436 33.3381 22.6205 33.2846 22.578C33.2094 22.518 33.2094 22.518 33.1981 22.509C32.9647 22.3368 32.8273 22.3512 32.6847 22.578C32.6676 22.6061 32.4903 22.8941 32.4027 23.0354ZM48.1572 15.8268C47.2002 15.8268 46.2743 16.1552 45.5061 16.7624L45.4128 16.8361V10.0345C45.4128 9.80907 45.3435 9.7354 45.1324 9.7354H44.0018C43.7734 9.7354 43.7213 9.7938 43.7213 10.0345V25.5507C43.7213 25.7856 43.7775 25.85 44.0018 25.85H45.1324C45.342 25.85 45.4128 25.7727 45.4128 25.5507V20.4826C45.4245 18.8872 46.65 17.5995 48.1572 17.5995C49.6679 17.5995 50.8949 18.8934 50.9012 20.4943V25.5507C50.9012 25.8074 50.9414 25.8498 51.1818 25.8498H52.3096C52.5487 25.8498 52.5901 25.8061 52.5901 25.5507V20.4793C52.5811 17.9212 50.5833 15.8268 48.1572 15.8268ZM58.7362 15.7161C56.115 15.7161 53.9905 17.9475 53.9905 20.6999C53.9905 23.4523 56.115 25.6837 58.7362 25.6837C61.3573 25.6837 63.4817 23.4523 63.4817 20.6999C63.4817 17.9475 61.3574 15.7161 58.7362 15.7161ZM58.7353 23.9522C57.0234 23.9522 55.6356 22.4952 55.6356 20.6975C55.6356 18.8997 57.0235 17.4426 58.7353 17.4426C60.4468 17.4426 61.8347 18.8997 61.8347 20.6975C61.8347 22.4951 60.4469 23.9522 58.7353 23.9522ZM69.8592 15.7566C68.7587 15.7566 67.707 16.1568 66.8619 16.8909L66.7658 16.9743V16.0556C66.7658 15.8105 66.7165 15.7566 66.4843 15.7566H65.4041C65.1689 15.7566 65.1224 15.8066 65.1224 16.0556V30.701C65.1224 30.9417 65.1749 31 65.4041 31H66.4843C66.7143 31 66.7658 30.9428 66.7658 30.701V24.5934L66.8619 24.6769C67.7072 25.411 68.7587 25.8113 69.8592 25.8113C72.4752 25.8113 74.5959 23.5604 74.5959 20.7839C74.5959 18.0074 72.4752 15.7566 69.8592 15.7566ZM69.8583 24.0645C68.1804 24.0645 66.8078 22.6439 66.7658 20.8639V20.6963C66.8074 18.9189 68.1804 17.4983 69.8583 17.4983C71.5667 17.4983 72.9517 18.9681 72.9517 20.7813C72.9517 22.5945 71.5667 24.0645 69.8583 24.0645ZM84.7526 21.321C84.7603 21.3214 84.7602 21.3214 84.7711 21.3215C84.7819 21.3214 84.7819 21.3214 84.7929 21.321C85.0563 21.3081 85.2647 21.0684 85.2647 20.7768C85.2647 20.7626 85.2643 20.7505 85.2634 20.7309C85.2634 20.7309 85.2636 20.7201 85.2636 20.6972C85.2636 17.9458 83.2436 15.7161 80.752 15.7161C78.2607 15.7161 76.2403 17.9458 76.2403 20.6972C76.2403 20.9023 76.2517 21.1069 76.274 21.3102L76.2754 21.321L76.2823 21.3746C76.4063 22.3647 76.802 23.2734 77.4269 24.0085L77.4305 24.0127C78.1233 24.8268 79.0638 25.3815 80.1071 25.5891L80.1207 25.5918L80.1885 25.6025C80.2233 25.6088 80.26 25.615 80.3093 25.6231C81.6825 25.7994 82.9005 25.5882 83.9317 25.0336C84.1856 24.897 84.414 24.7461 84.6118 24.5869C84.6754 24.5357 84.7327 24.4861 84.7823 24.4396C84.8077 24.4156 84.8282 24.3954 84.8388 24.3839C85.0716 24.1279 85.0861 24.0371 84.9457 23.8034C84.7913 23.5408 84.6549 23.3171 84.538 23.1319C84.497 23.067 84.4615 23.0116 84.4316 22.9658C84.4151 22.9406 84.4151 22.9406 84.4046 22.9246C84.4004 22.9185 84.3976 22.9144 84.3976 22.9144C84.2703 22.7454 84.1823 22.728 84.0412 22.861C84.0261 22.8752 83.9758 22.9167 83.9667 22.9271C82.9746 23.8677 81.6197 24.1704 80.2668 23.8681C80.0147 23.7959 79.7791 23.7041 79.562 23.5934C78.7144 23.1395 78.114 22.331 77.9406 21.3949L77.9269 21.321H84.7526ZM78.0519 19.5161C78.4096 18.2703 79.4912 17.4398 80.7534 17.4398C81.9581 17.4398 83.1051 18.3134 83.5015 19.5137L83.5286 19.5963H78.0288L78.0519 19.5161ZM95.4882 21.321C95.4959 21.3214 95.4959 21.3214 95.5068 21.3215C95.5177 21.3214 95.5177 21.3214 95.5286 21.321C95.7917 21.3081 96.0002 21.0684 96.0002 20.7768C96.0002 20.7626 96.0002 20.7505 95.9991 20.7309C95.9991 20.7309 95.9991 20.7201 95.9991 20.6972C95.9991 17.9458 93.9795 15.7161 91.4883 15.7161C88.996 15.7161 86.9762 17.9458 86.9762 20.6972C86.9762 20.9023 86.9874 21.1069 87.0099 21.3102L87.0112 21.321L87.0182 21.3746C87.1422 22.3647 87.5378 23.2734 88.163 24.0085L88.1663 24.0127C88.8595 24.8268 89.7995 25.3815 90.8431 25.5891L90.8562 25.5918L90.9239 25.6025C90.9588 25.6088 90.9959 25.615 91.0451 25.6231C92.4184 25.7994 93.6367 25.5882 94.6673 25.0336C94.9217 24.897 95.1498 24.7461 95.3474 24.5869C95.4118 24.5357 95.4686 24.4861 95.5177 24.4396C95.5439 24.4156 95.5636 24.3954 95.5745 24.3839C95.807 24.1279 95.8223 24.0371 95.6815 23.8034C95.5275 23.5408 95.3911 23.3171 95.2743 23.1319C95.2328 23.067 95.1978 23.0116 95.1673 22.9658C95.1509 22.9406 95.1509 22.9406 95.14 22.9246C95.1367 22.9185 95.1334 22.9144 95.1334 22.9144C95.0068 22.7454 94.9184 22.728 94.7775 22.861C94.7623 22.8752 94.712 22.9167 94.7022 22.9271C93.711 23.8677 92.3551 24.1704 91.0025 23.8681C90.7503 23.7959 90.5145 23.7041 90.2984 23.5934C89.4501 23.1395 88.8497 22.331 88.6761 21.3949L88.663 21.321H95.4882ZM88.7875 19.5161C89.1455 18.2703 90.2274 17.4398 91.4894 17.4398C92.6935 17.4398 93.8409 18.3134 94.2372 19.5137L94.2645 19.5963H88.7646L88.7875 19.5161Z" fill="#FF6734"/>
<path fill-rule="evenodd" clip-rule="evenodd" d="M26.3896 7.81231C26.6967 7.81231 26.9457 8.0539 26.9457 8.35198L26.9457 8.36152C26.9458 8.36766 26.9458 8.37377 26.9455 8.37984L26.0076 26.7199C26.007 26.752 26.0056 26.7843 26.0034 26.8166C26.0027 26.8302 26.0017 26.8436 26.0006 26.8572L25.999 26.8752C25.8859 28.1621 24.8124 29.2009 23.4885 29.2357H23.4479L23.4207 29.236L23.3935 29.2357H4.26425L4.26133 29.233C2.95995 29.1858 2.00095 28.1599 1.87036 26.8888L1.86845 26.8502L1.86564 26.8155C1.86181 26.7638 1.85979 26.7125 1.85968 26.6618L1 8.39383H1.00428C1.00315 8.38006 1.00259 8.36607 1.00259 8.35198C1.00259 8.05726 1.2461 7.81773 1.54845 7.81242L7.57901 7.81231C7.7267 4.0222 10.533 1 13.9732 1C17.4136 1 20.2199 4.0222 20.3677 7.81231H26.3896ZM16.385 25.1179C17.7052 24.5742 18.5576 23.4882 18.728 22.1322C19.0053 19.9274 17.5319 18.5292 13.6819 17.3366C11.7851 16.7083 10.9071 15.8843 10.928 14.7557C11.0067 13.5061 12.2052 12.5889 13.8039 12.5583C15.0881 12.5831 16.2558 12.9263 17.3093 13.6085C17.4391 13.6878 17.5238 13.6781 17.5957 13.5724C17.6375 13.5073 17.6446 13.4964 17.8263 13.2182C17.9643 13.0071 18.0298 12.9058 18.0694 12.842C18.1404 12.7318 18.1159 12.6298 17.9922 12.542C17.7774 12.3875 17.1549 12.061 16.8065 11.9194C15.8222 11.5195 14.7974 11.3138 13.7707 11.3158C11.4745 11.3252 9.65732 12.7327 9.50603 14.6197C9.40716 15.9811 10.1026 17.0832 11.5903 17.9246C11.907 18.1037 13.6251 18.7667 14.3048 18.972C16.4782 19.6288 17.589 20.8073 17.3251 22.1715C17.0851 23.4109 15.7459 24.2183 13.8836 24.2427C12.545 24.1931 11.2191 23.6974 10.0807 22.8378C10.0696 22.8298 10.042 22.8092 9.99565 22.7744L9.93041 22.7255L9.90859 22.7091C9.79015 22.6193 9.67014 22.6288 9.59624 22.7381C9.57037 22.7765 9.54146 22.8173 9.31054 23.1435C9.15139 23.3683 9.0794 23.4707 9.04037 23.5276C8.96793 23.6264 8.98098 23.6829 9.09031 23.7712C9.522 24.1203 10.0842 24.4934 10.4613 24.68C11.5168 25.2025 12.6621 25.4882 13.8811 25.5332C14.6625 25.5845 15.6497 25.4209 16.385 25.1179ZM13.9741 2.64868C16.4809 2.64868 18.524 4.94178 18.6195 7.81229H9.32899C9.4246 4.94178 11.4677 2.64868 13.9741 2.64868Z" fill="#FF6734"/>
</g>
</svg>
