<svg width="24" height="24" viewBox="0 0 24 24" fill="none" xmlns="http://www.w3.org/2000/svg">
<path fill-rule="evenodd" clip-rule="evenodd" d="M24 24H0V1.90735e-06H24V24Z" fill="url(#paint0_linear)"/>
<path fill-rule="evenodd" clip-rule="evenodd" d="M19.657 7.34274C19.8464 7.34274 19.9999 7.49675 19.9999 7.68677L20 7.69213C20 7.69628 20 7.70043 19.9999 7.70454L19.4214 19.3961C19.4211 19.4165 19.4202 19.4371 19.4189 19.4577C19.4185 19.4664 19.4178 19.4749 19.4171 19.4836L19.4162 19.495C19.3464 20.3154 18.6844 20.9777 17.868 20.9999H17.843L17.8262 21L17.8094 20.9999H6.01297L6.01117 20.9981C5.20864 20.968 4.61726 20.314 4.53673 19.5037L4.53555 19.4791L4.53381 19.457C4.53146 19.4241 4.53021 19.3914 4.53014 19.359L4 7.71345H4.00264C4.00194 7.70467 4.0016 7.69576 4.0016 7.68677C4.0016 7.4989 4.15177 7.3462 4.33821 7.34281L8.05708 7.34274C8.14816 4.92661 9.87875 3 12.0002 3C14.1218 3 15.8523 4.92661 15.9435 7.34274H19.657ZM13.4878 18.3748C14.3019 18.0282 14.8275 17.3359 14.9326 16.4714C15.1037 15.066 14.195 14.1746 11.8209 13.4143C10.6511 13.0138 10.1097 12.4886 10.1226 11.7691C10.1712 10.9725 10.9102 10.3878 11.8961 10.3683C12.6881 10.3841 13.4081 10.6029 14.0578 11.0377C14.1378 11.0883 14.19 11.0821 14.2344 11.0147C14.2602 10.9732 14.2645 10.9663 14.3766 10.789C14.4617 10.6544 14.5021 10.5898 14.5265 10.5491C14.5703 10.4789 14.5552 10.4138 14.4789 10.3579C14.3464 10.2594 13.9626 10.0513 13.7477 9.96099C13.1407 9.70607 12.5087 9.57494 11.8756 9.57618C10.4596 9.5822 9.33902 10.4794 9.24573 11.6824C9.18476 12.5502 9.61363 13.2528 10.531 13.7892C10.7263 13.9034 11.7859 14.326 12.205 14.4569C13.5452 14.8756 14.2303 15.6269 14.0675 16.4965C13.9195 17.2866 13.0937 17.8013 11.9452 17.8169C11.1198 17.7853 10.3021 17.4692 9.6001 16.9213C9.59323 16.9162 9.57624 16.9031 9.54766 16.8809L9.50743 16.8497L9.49397 16.8393C9.42094 16.782 9.34693 16.788 9.30135 16.8577C9.2854 16.8822 9.26758 16.9082 9.12517 17.1162C9.02703 17.2595 8.98263 17.3248 8.95857 17.361C8.9139 17.424 8.92194 17.46 8.98936 17.5163C9.25558 17.7389 9.60225 17.9767 9.83482 18.0956C10.4857 18.4287 11.192 18.6109 11.9437 18.6396C12.4256 18.6723 13.0344 18.568 13.4878 18.3748ZM12.0003 4.05105C13.5461 4.05105 14.8061 5.51287 14.8649 7.34277H9.13574C9.1947 5.51287 10.4546 4.05105 12.0003 4.05105Z" fill="white"/>
<defs>
<linearGradient id="paint0_linear" x1="0" y1="12" x2="24" y2="12" gradientUnits="userSpaceOnUse">
<stop stop-color="#FF6633"/>
<stop offset="0.250769" stop-color="#FF6633"/>
<stop offset="0.994382" stop-color="#F53D2D"/>
<stop offset="1" stop-color="#F53D2D"/>
</linearGradient>
</defs>
</svg>
