<svg width="98" height="32" viewBox="0 0 98 32" fill="none" xmlns="http://www.w3.org/2000/svg">
<mask id="mask0" mask-type="alpha" maskUnits="userSpaceOnUse" x="0" y="0" width="98" height="32">
<rect width="98" height="32" fill="white"/>
</mask>
<g mask="url(#mask0)">
<path d="M33.8799 10.6833L33.5757 12.4944H36.0273L34.6112 20.9234H36.3058L37.7219 12.4944H40.1739L40.4782 10.6833H33.8799Z" fill="black"/>
<path d="M40.9063 10.6768L39.1855 20.9169H45.3435L45.6473 19.1058H41.1509L41.5967 16.4531H45.5508L45.855 14.6416H41.901L42.2627 12.4879H46.5674L46.8717 10.6768H40.9063Z" fill="black"/>
<path d="M47.86 10.6768L46.1396 20.9169H51.8669L52.1795 19.0631H48.1454L49.5551 10.6768H47.86Z" fill="black"/>
<path d="M54.3111 10.6768L52.5903 20.9169H54.2845L54.8677 17.4511L55.8311 16.4244L57.5845 20.9169H59.7649L57.2784 14.8699L61.2941 10.6768H59.1012L55.3057 14.8416L56.0057 10.6768H54.3111Z" fill="black"/>
<path fill-rule="evenodd" clip-rule="evenodd" d="M65.023 12.2164C66.4248 12.2164 67.003 13.614 66.6385 15.783C66.2433 18.1367 65.142 19.3769 63.8307 19.3769C62.4413 19.3769 61.8627 17.9794 62.2294 15.7974C62.6298 13.4158 63.7682 12.2164 65.023 12.2164ZM65.3383 10.4058C63.554 10.4058 61.2247 11.6887 60.5344 15.7974C59.8592 19.8183 61.6632 21.188 63.5274 21.188C65.3236 21.188 67.6377 19.919 68.3327 15.783C69.0216 11.6887 67.1009 10.4058 65.3383 10.4058Z" fill="black"/>
<path d="M69.8765 10.6768L68.1553 20.9169H69.7377L71.1731 12.3737H71.1961L71.2407 20.9169H72.9013L75.8534 12.3598L75.8787 12.3463L74.4378 20.9169H76.0193L77.7396 10.6768H75.2885L72.4858 18.7493H72.4633L72.3506 10.6768H69.8765Z" fill="black"/>
<path d="M81.6436 10.4058C79.0109 10.4058 78.1873 12.4165 77.9933 13.5722C77.6192 15.7974 78.8082 16.2541 80.0657 16.566L80.9041 16.8245C81.7199 17.0808 82.2829 17.2943 82.1464 18.1075C81.957 19.2344 80.9087 19.4201 80.2422 19.4201C79.3046 19.4201 78.6303 18.9917 78.7917 17.7654H77.1646C76.7983 19.9483 77.8894 21.188 80.0244 21.188C81.6399 21.188 83.4062 20.2894 83.8185 17.8373C84.1535 15.8396 83.0128 15.3685 82.1023 15.0691L80.2827 14.4704C79.9605 14.3715 79.4668 14.2142 79.6066 13.3866C79.7601 12.4736 80.5786 12.1742 81.2226 12.1742C82.7025 12.1742 82.6557 13.2585 82.6244 13.7143H84.2514C84.4509 12.4601 84.1287 10.4058 81.6436 10.4058Z" fill="black"/>
<path d="M85.7276 10.6768L84.0063 20.9169H90.1652L90.469 19.1058H85.9726L86.4184 16.4531H90.3725L90.6772 14.6416H86.7222L87.0844 12.4879H91.3892L91.6939 10.6768H85.7276Z" fill="black"/>
<path d="M92.6807 10.6768L90.9595 20.9169H96.6881L96.9997 19.0631H92.9662L94.3749 10.6768H92.6807Z" fill="black"/>
<path d="M7.58008 14.81L10.9783 6.75862L19.6092 5.69336L24.8424 12.6785L21.4446 20.7298L12.8137 21.7951L7.58008 14.81Z" fill="white"/>
<path d="M22.0166 21.9331C20.2489 27.6343 17.327 31.3293 14.4802 30.9772C11.0575 30.5551 8.73748 23.4677 9.9593 15.1409C11.1843 6.79848 14.8125 0.766739 18.4598 1.00693C20.8466 1.16369 22.7029 4.41723 23.2302 8.80845C22.5698 6.32406 21.5739 3.75121 19.8743 3.52569C17.5316 3.21491 14.4625 7.98017 13.1993 14.5537C12.0261 20.6602 12.9579 26.7437 15.6975 27.1035C17.4675 27.3355 20.4898 25.4708 22.0166 21.9331Z" fill="white"/>
<path d="M23.5848 21.3969C26.7739 19.9466 30.0089 18.263 29.7029 16.2494C29.2389 13.1953 22.2089 12.0484 16.0488 12.6594C13.3316 12.9289 3.60838 14.9045 3.76111 19.0345C3.80566 20.2363 6.99475 21.8209 9.66339 22.5983C5.50929 22.1308 1.3152 20.0498 1.02111 17.542C0.577927 13.7485 7.16566 9.85189 15.8384 8.92185C24.4461 8.00006 31.8907 10.2566 32.4016 14.0414C32.7857 16.8884 29.1089 19.634 23.5848 21.3969Z" fill="white"/>
<path d="M23.3717 21.5065L15.0376 22.536L9.98438 15.792L13.2653 8.01794L21.5998 6.99026L26.6526 13.7339L23.3717 21.5065Z" fill="#6D6E71"/>
<path d="M22.0166 21.9331C20.2489 27.6343 17.327 31.3302 14.4802 30.9772C11.0575 30.5551 8.73748 23.4677 9.9593 15.1418C11.1843 6.79848 14.8125 0.766739 18.4598 1.00693C20.8466 1.16369 22.7029 4.41723 23.2302 8.80845C22.5698 6.32406 21.5739 3.75121 19.8743 3.52569C17.5316 3.21491 14.4625 7.98017 13.1993 14.5537C12.0261 20.6611 12.9579 26.7437 15.6975 27.1035C17.4675 27.3355 20.4898 25.4708 22.0166 21.9331Z" fill="#AFB1B4"/>
<path d="M23.5848 21.3969C26.7739 19.9466 30.0089 18.263 29.7029 16.2494C29.2389 13.1953 22.2089 12.0484 16.0488 12.6594C13.3316 12.9289 3.60838 14.9045 3.76111 19.0349C3.80566 20.2363 6.99475 21.8209 9.66339 22.5983C5.50929 22.1308 1.3152 20.0498 1.02111 17.542C0.577927 13.7485 7.16566 9.85189 15.8384 8.92185C24.4461 8.00006 31.8907 10.2566 32.4016 14.0414C32.7857 16.8884 29.1089 19.634 23.5848 21.3969Z" fill="#AFB1B4"/>
<path d="M21.2753 20.5039L12.924 21.5343L7.85986 14.7756L11.148 6.98642L19.4994 5.95508L24.5631 12.7138L21.2753 20.5039Z" fill="#ED1C24"/>
<path d="M22.0166 21.9331C20.2489 27.6343 17.327 31.3293 14.4802 30.9772C11.0575 30.5551 8.73748 23.4677 9.9593 15.1409C11.1843 6.79848 14.8125 0.766739 18.4598 1.00693C20.8466 1.16369 22.7029 4.41723 23.2302 8.80845C22.5698 6.32406 21.5739 3.75121 19.8743 3.52569C17.5316 3.21491 14.4625 7.98017 13.1993 14.5537C12.0261 20.6602 12.9579 26.7437 15.6975 27.1035C17.4675 27.3355 20.4898 25.4708 22.0166 21.9331Z" fill="#B9BABC"/>
<path d="M23.5848 21.3969C26.7739 19.9466 30.0089 18.263 29.7029 16.2494C29.2389 13.1953 22.2089 12.0484 16.0488 12.6594C13.3316 12.9289 3.60838 14.9045 3.76111 19.0345C3.80566 20.2363 6.99475 21.8209 9.66339 22.5983C5.50929 22.1308 1.3152 20.0498 1.02111 17.542C0.577927 13.7485 7.16566 9.85189 15.8384 8.92185C24.4461 8.00006 31.8907 10.2566 32.4016 14.0414C32.7857 16.8884 29.1089 19.634 23.5848 21.3969Z" fill="#B9BABC"/>
<path fill-rule="evenodd" clip-rule="evenodd" d="M21.4432 8.79059C19.6318 8.67978 17.6832 8.72157 15.671 8.93706C13.5595 9.16349 11.5716 9.56577 9.77861 10.0996L7.87354 14.7316C10.7935 13.4835 14.3911 12.8225 15.8814 12.6746C18.9353 12.3717 22.2031 12.5009 24.7786 13.0803L21.4432 8.79059Z" fill="white"/>
<path fill-rule="evenodd" clip-rule="evenodd" d="M16.2305 6.28485C14.9897 8.26239 13.883 11.1336 13.2417 14.4708C12.7756 16.8968 12.6417 19.3192 12.8215 21.3805L9.75293 17.3143C9.80728 16.5754 9.88957 15.8219 10.0017 15.0579C10.466 11.8957 11.2756 9.06552 12.3007 6.78304L16.2305 6.28485Z" fill="white"/>
</g>
</svg>
