<svg width="24" height="24" viewBox="0 0 24 24" fill="none" xmlns="http://www.w3.org/2000/svg">
<path d="M24 0H0V24H24V0Z" fill="#E5131D"/>
<path d="M6.76807 11.3257L8.71427 6.76331L13.6573 6.15967L16.6545 10.1179L14.7085 14.6802L9.76547 15.2838L6.76807 11.3257Z" fill="white"/>
<path d="M15.0358 15.3619C14.0234 18.5925 12.35 20.6863 10.7196 20.4868C8.7593 20.2476 7.43059 16.2315 8.13035 11.513C8.83193 6.78575 10.9099 3.36782 12.9987 3.50393C14.3657 3.59276 15.4289 5.4364 15.7308 7.92472C15.3526 6.51692 14.7822 5.05899 13.8089 4.9312C12.4671 4.7551 10.7094 7.45536 9.98596 11.1803C9.31405 14.6406 9.84772 18.0879 11.4167 18.2918C12.4304 18.4232 14.1613 17.3666 15.0358 15.3619Z" fill="white"/>
<path d="M15.9347 15.0581C17.7612 14.2362 19.6139 13.2822 19.4387 12.1412C19.1729 10.4105 15.1467 9.76065 11.6187 10.1069C10.0625 10.2596 4.49387 11.3791 4.58134 13.7194C4.60685 14.4004 6.4333 15.2983 7.96168 15.7388C5.58255 15.4739 3.18052 14.2947 3.01209 12.8736C2.75827 10.724 6.53118 8.51597 11.4982 7.98896C16.428 7.46662 20.6917 8.74532 20.9843 10.89C21.2042 12.5033 19.0985 14.0591 15.9347 15.0581Z" fill="white"/>
<path d="M15.8126 15.1195L11.0396 15.7029L8.14551 11.8813L10.0245 7.47614L14.7979 6.8938L17.6917 10.7151L15.8126 15.1195Z" fill="#6D6E71"/>
<path d="M15.0358 15.3619C14.0234 18.5925 12.35 20.6868 10.7196 20.4868C8.7593 20.2476 7.43059 16.2315 8.13035 11.5136C8.83193 6.78575 10.9099 3.36782 12.9987 3.50393C14.3657 3.59276 15.4289 5.4364 15.7308 7.92472C15.3526 6.51692 14.7822 5.05899 13.8089 4.9312C12.4671 4.7551 10.7094 7.45536 9.98596 11.1803C9.31405 14.6411 9.84772 18.0879 11.4167 18.2918C12.4304 18.4232 14.1613 17.3666 15.0358 15.3619Z" fill="#AFB1B4"/>
<path d="M15.9347 15.0581C17.7612 14.2362 19.6139 13.2822 19.4387 12.1412C19.1729 10.4105 15.1467 9.76065 11.6187 10.1069C10.0625 10.2596 4.49387 11.3791 4.58134 13.7196C4.60685 14.4004 6.4333 15.2983 7.96168 15.7388C5.58255 15.4739 3.18052 14.2947 3.01209 12.8736C2.75827 10.724 6.53118 8.51597 11.4982 7.98896C16.428 7.46662 20.6917 8.74532 20.9843 10.89C21.2042 12.5033 19.0985 14.0591 15.9347 15.0581Z" fill="#AFB1B4"/>
<path d="M14.6115 14.5518L9.82852 15.1357L6.92822 11.3058L8.81143 6.89203L13.5944 6.30762L16.4944 10.1375L14.6115 14.5518Z" fill="#ED1C24"/>
<path d="M15.0358 15.3619C14.0234 18.5925 12.35 20.6863 10.7196 20.4868C8.7593 20.2476 7.43059 16.2315 8.13035 11.513C8.83193 6.78575 10.9099 3.36782 12.9987 3.50393C14.3657 3.59276 15.4289 5.4364 15.7308 7.92472C15.3526 6.51692 14.7822 5.05899 13.8089 4.9312C12.4671 4.7551 10.7094 7.45536 9.98596 11.1803C9.31405 14.6406 9.84772 18.0879 11.4167 18.2918C12.4304 18.4232 14.1613 17.3666 15.0358 15.3619Z" fill="#B9BABC"/>
<path d="M15.9347 15.0581C17.7612 14.2362 19.6139 13.2822 19.4387 12.1412C19.1729 10.4105 15.1467 9.76065 11.6187 10.1069C10.0625 10.2596 4.49387 11.3791 4.58134 13.7194C4.60685 14.4004 6.4333 15.2983 7.96168 15.7388C5.58255 15.4739 3.18052 14.2947 3.01209 12.8736C2.75827 10.724 6.53118 8.51597 11.4982 7.98896C16.428 7.46662 20.6917 8.74532 20.9843 10.89C21.2042 12.5033 19.0985 14.0591 15.9347 15.0581Z" fill="#B9BABC"/>
<path fill-rule="evenodd" clip-rule="evenodd" d="M14.7067 7.91439C13.6698 7.85174 12.5544 7.87547 11.4027 7.9975C10.1927 8.12588 9.05356 8.35403 8.02624 8.65678L6.93506 11.2818C8.60772 10.574 10.6694 10.1992 11.5232 10.1154C13.2714 9.94386 15.1419 10.0169 16.6166 10.3448L14.7067 7.91439Z" fill="white"/>
<path fill-rule="evenodd" clip-rule="evenodd" d="M11.7212 6.49316C11.0104 7.61377 10.3765 9.24093 10.0091 11.1323C9.7424 12.5059 9.66566 13.8775 9.76825 15.045L8.01123 12.7414C8.04236 12.3234 8.08943 11.8971 8.15352 11.465C8.41949 9.67288 8.88326 8.06894 9.47045 6.77548L11.7212 6.49316Z" fill="white"/>
</svg>
