<svg width="220" height="120" viewBox="0 0 220 120" fill="none" xmlns="http://www.w3.org/2000/svg">
<mask id="mask0" mask-type="alpha" maskUnits="userSpaceOnUse" x="0" y="0" width="220" height="120">
<rect width="220" height="120" fill="white"/>
</mask>
<g mask="url(#mask0)">
<path d="M60.4797 97.4366L60 100.292H63.8653L61.6327 113.582H64.3045L66.5372 100.292H70.4032L70.883 97.4366H60.4797Z" fill="black"/>
<path d="M71.5574 97.4272L68.8442 113.572H78.5532L79.0322 110.717H71.9429L72.6458 106.535H78.8801L79.3598 103.678H73.1255L73.6958 100.283H80.483L80.9627 97.4272H71.5574Z" fill="black"/>
<path d="M82.521 97.4272L79.8086 113.572H88.8386L89.3314 110.65H82.971L85.1935 97.4272H82.521Z" fill="black"/>
<path d="M92.6921 97.4272L89.979 113.572H92.6501L93.5697 108.108L95.0886 106.489L97.8532 113.572H101.291L97.3705 104.038L103.702 97.4272H100.245L94.2603 103.994L95.364 97.4272H92.6921Z" fill="black"/>
<path fill-rule="evenodd" clip-rule="evenodd" d="M109.582 99.8548C111.792 99.8548 112.704 102.058 112.129 105.478C111.506 109.189 109.77 111.144 107.702 111.144C105.512 111.144 104.599 108.941 105.178 105.501C105.809 101.746 107.604 99.8548 109.582 99.8548ZM110.079 97C107.266 97 103.593 99.0227 102.505 105.501C101.441 111.84 104.285 114 107.224 114C110.056 114 113.705 111.999 114.8 105.478C115.887 99.0227 112.858 97 110.079 97Z" fill="black"/>
<path d="M117.234 97.4272L114.52 113.572H117.015L119.278 100.103H119.314L119.385 113.572H122.003L126.657 100.081L126.697 100.06L124.425 113.572H126.919L129.631 97.4272H125.767L121.348 110.155H121.312L121.135 97.4272H117.234Z" fill="black"/>
<path d="M135.786 97C131.635 97 130.337 100.17 130.031 101.992C129.441 105.501 131.316 106.221 133.299 106.713L134.62 107.12C135.907 107.524 136.794 107.861 136.579 109.143C136.281 110.92 134.628 111.213 133.577 111.213C132.098 111.213 131.035 110.537 131.29 108.604H128.724C128.147 112.045 129.867 114 133.233 114C135.78 114 138.565 112.583 139.215 108.717C139.744 105.567 137.945 104.825 136.509 104.353L133.641 103.408C133.133 103.253 132.354 103.005 132.575 101.7C132.817 100.26 134.107 99.7882 135.122 99.7882C137.456 99.7882 137.382 101.498 137.333 102.216H139.898C140.213 100.239 139.705 97 135.786 97Z" fill="black"/>
<path d="M142.226 97.4272L139.512 113.572H149.222L149.701 110.717H142.612L143.315 106.535H149.549L150.029 103.678H143.794L144.365 100.283H151.152L151.632 97.4272H142.226Z" fill="black"/>
<path d="M153.19 97.4272L150.477 113.572H159.509L160 110.65H153.64L155.862 97.4272H153.19Z" fill="black"/>
<path d="M84.4258 43.6672L93.9405 21.1238L118.107 18.1411L132.759 37.6992L123.246 60.2426L99.0797 63.2253L84.4258 43.6672Z" fill="white"/>
<path d="M124.845 63.6116C119.896 79.5749 111.715 89.9206 103.744 88.9349C94.1602 87.7529 87.6643 67.9085 91.0853 44.5938C94.5153 21.2355 104.674 4.34688 114.886 5.01939C121.569 5.45833 126.767 14.5681 128.243 26.8633C126.394 19.9071 123.606 12.7033 118.847 12.0718C112.287 11.2017 103.694 24.5442 100.157 42.9498C96.8723 60.0476 99.4814 77.0812 107.152 78.0887C112.108 78.7381 120.57 73.5171 124.845 63.6116Z" fill="white"/>
<path d="M129.236 62.1106C138.166 58.0498 147.224 53.3358 146.367 47.6977C145.068 39.1462 125.384 35.9351 108.136 37.6459C100.528 38.4005 73.3034 43.9321 73.731 55.4958C73.8557 58.8609 82.785 63.2977 90.2571 65.4744C78.6258 64.1653 66.8825 58.3386 66.0591 51.3169C64.8182 40.6953 83.2636 29.7849 107.547 27.1808C131.648 24.5999 152.493 30.9182 153.923 41.5154C154.998 49.4868 144.704 57.1745 129.236 62.1106Z" fill="white"/>
<path d="M128.639 62.4173L105.303 65.2998L91.1548 46.4168L100.341 24.6499L123.678 21.7725L137.825 40.6542L128.639 62.4173Z" fill="#6D6E71"/>
<path d="M124.845 63.6116C119.896 79.5749 111.715 89.9231 103.744 88.9349C94.1602 87.7529 87.6643 67.9085 91.0853 44.5964C94.5153 21.2355 104.674 4.34688 114.886 5.01939C121.569 5.45833 126.767 14.5681 128.243 26.8633C126.394 19.9071 123.606 12.7033 118.847 12.0718C112.287 11.2017 103.694 24.5442 100.157 42.9498C96.8723 60.0501 99.4814 77.0812 107.152 78.0887C112.108 78.7381 120.57 73.5171 124.845 63.6116Z" fill="#AFB1B4"/>
<path d="M129.236 62.1106C138.166 58.0498 147.224 53.3358 146.367 47.6977C145.068 39.1462 125.384 35.9351 108.136 37.6459C100.528 38.4005 73.3034 43.9321 73.731 55.4971C73.8557 58.8609 82.785 63.2977 90.2571 65.4744C78.6258 64.1653 66.8825 58.3386 66.0591 51.3169C64.8182 40.6953 83.2636 29.7849 107.547 27.1808C131.648 24.5999 152.493 30.9182 153.923 41.5154C154.998 49.4868 144.704 57.1745 129.236 62.1106Z" fill="#AFB1B4"/>
<path d="M122.768 59.61L99.3848 62.4951L85.2056 43.571L94.4123 21.7617L117.796 18.874L131.974 37.7981L122.768 59.61Z" fill="#ED1C24"/>
<path d="M124.845 63.6116C119.896 79.5749 111.715 89.9206 103.744 88.9349C94.1602 87.7529 87.6643 67.9085 91.0853 44.5938C94.5153 21.2355 104.674 4.34688 114.886 5.01939C121.569 5.45833 126.767 14.5681 128.243 26.8633C126.394 19.9071 123.606 12.7033 118.847 12.0718C112.287 11.2017 103.694 24.5442 100.157 42.9498C96.8723 60.0476 99.4814 77.0812 107.152 78.0887C112.108 78.7381 120.57 73.5171 124.845 63.6116Z" fill="#B9BABC"/>
<path d="M129.236 62.1106C138.166 58.0498 147.224 53.3358 146.367 47.6977C145.068 39.1462 125.384 35.9351 108.136 37.6459C100.528 38.4005 73.3034 43.9321 73.731 55.4958C73.8557 58.8609 82.785 63.2977 90.2571 65.4744C78.6258 64.1653 66.8825 58.3386 66.0591 51.3169C64.8182 40.6953 83.2636 29.7849 107.547 27.1808C131.648 24.5999 152.493 30.9182 153.923 41.5154C154.998 49.4868 144.704 57.1745 129.236 62.1106Z" fill="#B9BABC"/>
<path fill-rule="evenodd" clip-rule="evenodd" d="M123.241 26.8132C118.169 26.503 112.713 26.62 107.079 27.2233C101.167 27.8574 95.6007 28.9838 90.5803 30.4786L85.2461 43.4481C93.422 39.9532 103.496 38.1023 107.669 37.6884C116.219 36.8402 125.368 37.2018 132.58 38.8239L123.241 26.8132Z" fill="white"/>
<path fill-rule="evenodd" clip-rule="evenodd" d="M108.643 19.7979C105.169 25.3349 102.07 33.3738 100.275 42.7176C98.9702 49.5085 98.5953 56.2892 99.098 62.0597L90.5068 50.6755C90.659 48.6079 90.8893 46.4994 91.203 44.3617C92.5031 35.5078 94.77 27.5835 97.6401 21.1928L108.643 19.7979Z" fill="white"/>
</g>
</svg>
