<svg width="24" height="24" viewBox="0 0 24 24" fill="none" xmlns="http://www.w3.org/2000/svg">
<path fill-rule="evenodd" clip-rule="evenodd" d="M24 23.9998H0V-0.000242233H24V23.9998Z" fill="#005941"/>
<path fill-rule="evenodd" clip-rule="evenodd" d="M5.64518 18.0209C5.55909 17.6963 5.56062 17.3483 5.56018 10.999L5.55971 4.5517H4.91535H4.271V10.7175C4.271 14.7994 4.2792 16.9622 4.29525 17.1167C4.38679 17.9981 4.62579 18.576 5.08195 19.0189C5.24531 19.1775 5.32791 19.2364 5.52103 19.3316C5.8373 19.4876 5.99926 19.5273 6.38192 19.5426C6.62665 19.5523 6.74524 19.5459 6.89447 19.5149C7.80314 19.326 8.36593 18.6493 8.58696 17.4797L8.63869 17.2059L8.64612 10.8788L8.65357 4.5517H8.0214H7.3892L7.38074 11.011C7.37434 15.8872 7.36535 17.5174 7.34405 17.6626C7.25592 18.263 7.0991 18.5908 6.83953 18.7171C6.64172 18.8134 6.26863 18.81 6.08003 18.7101C5.89776 18.6136 5.74988 18.3947 5.66658 18.098C5.65891 18.0706 5.65179 18.0458 5.64518 18.0209ZM14.2623 6.26508C14.015 5.38981 13.368 4.73756 12.5969 4.58623C12.4587 4.5591 12.1724 4.5517 11.2632 4.5517H10.1054V12.0505V19.5493L11.3297 19.549C12.4314 19.5487 12.5751 19.5442 12.7652 19.5039C13.5346 19.3411 14.1084 18.7952 14.3557 17.9908C14.383 17.9019 14.4049 17.8311 14.4226 17.7592C14.494 17.4682 14.4952 17.1599 14.5044 15.5596C14.5159 13.5348 14.5047 13.2548 14.3935 12.8076C14.2449 12.2095 13.9502 11.7177 13.5396 11.3825L13.4475 11.3072L13.5162 11.2547C13.6734 11.1347 13.9419 10.8224 14.0404 10.645C14.1691 10.4133 14.2835 10.1044 14.3342 9.85136C14.4068 9.48892 14.4213 9.13919 14.4106 8.00571C14.3994 6.81381 14.3917 6.72291 14.2623 6.26508ZM20.1243 6.3038C19.888 5.46766 19.3238 4.85086 18.5833 4.61935C18.4168 4.56732 18.3753 4.56547 17.1875 4.55751L15.9632 4.54932V12.0493V19.5493H16.6075H17.2519V16.3647V13.1801L17.6561 13.1797C18.1022 13.1793 18.4101 13.1525 18.62 13.096C19.5861 12.8358 20.1561 12.0568 20.2523 10.8652C20.2689 10.6587 20.2747 9.92077 20.2687 8.74574C20.2589 6.7967 20.2576 6.77581 20.1243 6.3038ZM11.3941 10.9209V8.10882V5.29677H11.7055C12.0515 5.29677 12.231 5.33217 12.4002 5.43386C12.7273 5.63049 12.9438 5.98914 13.0645 6.53455C13.1087 6.7344 13.1131 6.8496 13.1221 8.04874C13.1289 8.95463 13.1235 9.41499 13.1043 9.57299C13.0316 10.1704 12.8513 10.5458 12.5369 10.7543C12.3449 10.8816 12.1557 10.9209 11.7351 10.9209H11.3941ZM17.2519 12.4351V8.86591V5.29677L17.5155 5.29718C17.6605 5.29742 17.8505 5.31311 17.9377 5.33208C18.5047 5.45533 18.8563 5.97645 18.9599 6.847C18.9952 7.14383 18.9952 10.7573 18.9598 11.0531C18.8648 11.8489 18.5593 12.294 18.0298 12.4083C17.9615 12.423 17.7586 12.4351 17.5788 12.4351H17.2519ZM11.3941 18.8342V15.2621V11.69H11.7189C12.0989 11.69 12.2443 11.7138 12.4367 11.8077C12.6227 11.8984 12.7513 12.0168 12.8775 12.2134C13.0042 12.4108 13.0899 12.6284 13.1566 12.9218C13.2059 13.1384 13.2074 13.1959 13.2159 15.175C13.2252 17.3415 13.2187 17.5139 13.1143 17.8837C12.9776 18.3674 12.7506 18.636 12.3723 18.7619C12.2558 18.8006 12.1409 18.813 11.81 18.8224L11.3941 18.8342Z" fill="white"/>
</svg>
