<svg width="156" height="32" viewBox="0 0 156 32" fill="none" xmlns="http://www.w3.org/2000/svg">
<mask id="mask0" mask-type="alpha" maskUnits="userSpaceOnUse" x="0" y="0" width="156" height="32">
<rect width="156" height="32" fill="white"/>
</mask>
<g mask="url(#mask0)">
<path fill-rule="evenodd" clip-rule="evenodd" d="M35.1036 12.1025C35.2899 12.1543 35.4918 12.2365 35.5523 12.2852C35.6263 12.3447 35.6855 13.2272 35.7332 14.9855C35.7912 17.12 35.8368 17.7007 35.9832 18.1627C36.2072 18.8698 36.5809 19.3156 37.2463 19.6694C37.6846 19.9024 37.8987 19.9507 38.6354 19.9826C39.1144 20.0033 39.6811 19.9743 39.8947 19.9182C40.7987 19.6809 41.5969 18.924 41.8917 18.0247C41.9534 17.8367 42.0311 16.5627 42.0701 15.1006C42.1082 13.6755 42.1699 12.4407 42.2073 12.3567C42.2446 12.2726 42.4141 12.1603 42.5841 12.1072C42.8302 12.0301 42.6475 12.0103 41.6834 12.0094C40.7172 12.0085 40.542 12.0273 40.8125 12.1025C41.4338 12.2754 41.4089 12.1403 41.3753 15.1479L41.3447 17.8941L41.053 18.4492C40.6642 19.189 40.0874 19.5521 39.2153 19.6062C38.4246 19.6552 37.9741 19.5023 37.4743 19.0158C36.7893 18.3486 36.724 18.044 36.6757 15.289C36.6525 13.9676 36.6722 12.7411 36.7195 12.5636C36.786 12.3141 36.8814 12.2141 37.1398 12.1232C37.4351 12.0195 37.3154 12.0058 36.1196 12.0069C35.0536 12.008 34.8371 12.0283 35.1036 12.1025ZM72.9375 12.101C73.5948 12.2807 73.5675 12.116 73.5565 15.8342C73.5459 19.4647 73.5152 19.7173 73.085 19.7173C72.9506 19.7173 72.8407 19.7597 72.8407 19.8116C72.8407 19.9745 75.9131 19.9306 76.5058 19.7592C77.509 19.4691 78.1626 18.6348 78.1626 17.6445C78.1626 16.7593 77.6858 16.0559 76.7825 15.6086C76.6102 15.5232 76.4547 15.4411 76.4367 15.4259C76.4188 15.4107 76.5772 15.1852 76.7887 14.9246C77.3133 14.2783 77.4709 13.6419 77.2474 13.072C77.0563 12.5849 76.6561 12.2261 76.1518 12.0897C75.9539 12.0361 75.0735 11.9959 74.1954 12.0003C72.9731 12.0065 72.6782 12.03 72.9375 12.101ZM123.519 12.1011C123.761 12.1537 123.972 12.267 124.032 12.3756C124.099 12.498 124.124 13.719 124.105 15.9833C124.075 19.5872 124.058 19.7173 123.635 19.7173C123.538 19.7173 123.432 19.7597 123.399 19.8116C123.36 19.8727 123.817 19.9058 124.699 19.9058C125.542 19.9058 126.06 19.8699 126.06 19.8116C126.06 19.7597 125.91 19.7173 125.728 19.7173C125.546 19.7173 125.332 19.6546 125.253 19.5779C125.04 19.3708 124.981 18.2496 125.014 15.1006L125.044 12.3211L125.479 12.2903C126.734 12.2017 127.601 13.021 127.606 14.3012C127.61 15.3052 126.997 15.9881 125.989 16.1045C125.703 16.1374 125.509 16.202 125.542 16.2534C125.576 16.3069 125.817 16.3178 126.127 16.2801C127.502 16.1129 128.356 15.2823 128.45 14.0198C128.522 13.0692 127.993 12.3451 127.039 12.087C126.846 12.0349 125.883 11.9967 124.899 12.0019C123.525 12.0093 123.204 12.0324 123.519 12.1011ZM75.8114 12.4586C76.2231 12.7029 76.4362 13.1311 76.4937 13.8292C76.5318 14.2914 76.5008 14.4806 76.3355 14.7961C76.0728 15.2976 75.8971 15.3832 75.1313 15.3832C74.6507 15.3832 74.4928 15.3488 74.4476 15.2342C74.3676 15.031 74.3727 12.4153 74.4534 12.3368C74.5973 12.1967 75.5078 12.2783 75.8114 12.4586ZM148.339 12.7435C148.007 12.949 147.734 13.1349 147.734 13.1568C147.734 13.1786 147.999 13.116 148.324 13.0178C148.648 12.9196 149.018 12.8393 149.146 12.8393C149.408 12.8393 149.422 12.8096 149.279 12.5504C149.139 12.2956 149.027 12.3186 148.339 12.7435ZM57.2127 13.7828C56.1979 13.9226 55.4096 14.5012 54.8675 15.5045C54.6321 15.94 54.6021 16.097 54.602 16.8907C54.6019 17.6784 54.6341 17.8498 54.8706 18.3192C55.3656 19.3021 56.2552 19.874 57.4395 19.9707C59.4522 20.135 60.9951 18.7035 60.9791 16.6865C60.9637 14.7395 59.342 13.4894 57.2127 13.7828ZM95.2437 13.7912C94.5275 13.894 93.7342 14.2628 93.4017 14.6477C93.2633 14.8079 93.0327 15.1555 92.8893 15.4202C92.6566 15.8498 92.6287 16.0024 92.6287 16.8436C92.6287 17.6832 92.6567 17.8371 92.8863 18.2569C93.3585 19.1203 94.1423 19.6814 95.1732 19.8942C96.1383 20.0934 97.5662 19.9907 97.8636 19.7008C97.9339 19.6322 98.0179 19.3216 98.0502 19.0107L98.1088 18.4454L97.9167 18.8385C97.619 19.4481 97.3394 19.5762 96.3097 19.5752C95.5477 19.5744 95.3705 19.5414 94.9389 19.3205C94.6662 19.1809 94.2658 18.8706 94.0491 18.6308C93.529 18.0555 93.3128 17.4167 93.3227 16.4838C93.333 15.4914 93.6708 14.8144 94.3639 14.397C94.8105 14.1281 94.8963 14.1112 95.8164 14.1112C97.2563 14.1112 97.902 14.4615 97.902 15.2427C97.902 15.3826 97.9437 15.4635 97.9988 15.4303C98.052 15.3983 98.0955 15.0595 98.0955 14.6773C98.0955 13.8897 98.1317 13.9231 97.1763 13.8308C95.9629 13.7136 95.8063 13.7104 95.2437 13.7912ZM44.1977 16.6248C44.1969 18.1962 44.1643 19.5253 44.1252 19.5786C44.0861 19.6319 43.9452 19.7244 43.8122 19.7842C43.6098 19.8753 43.7287 19.8938 44.5379 19.898C45.1962 19.9014 45.4591 19.8737 45.3603 19.8116C45.2805 19.7613 45.1407 19.7196 45.0496 19.7188C44.7845 19.7165 44.7058 19.1771 44.6512 16.985L44.6007 14.9592L44.9481 15.3361C45.7524 16.2084 48.5724 19.1375 48.9791 19.5231C49.2218 19.753 49.4538 19.9085 49.4949 19.8687C49.5359 19.8288 49.5913 18.5182 49.6179 16.9563L49.6662 14.1165L49.9081 13.9975C50.1183 13.8941 50.0294 13.8801 49.2308 13.8912C48.7252 13.8982 48.4282 13.9213 48.5706 13.9425C49.0597 14.0154 49.082 14.1162 49.1359 16.5045C49.1635 17.7274 49.1807 18.7395 49.1741 18.7537C49.1674 18.7678 48.1053 17.6654 46.8136 16.3039C45.522 14.9424 44.4054 13.8149 44.3322 13.7981C44.2216 13.7728 44.1989 14.2496 44.1977 16.6248ZM62.6505 13.8423C62.6138 13.878 62.5833 15.1614 62.5825 16.6945C62.5816 18.2275 62.549 19.5253 62.5099 19.5786C62.4708 19.6319 62.3299 19.7244 62.1969 19.7842C61.995 19.8751 62.115 19.8933 62.9226 19.8948L63.8902 19.8967L63.5555 19.7364C63.1225 19.529 63.1006 19.4096 63.0423 16.9482L62.9957 14.98L63.7807 15.8176C65.2435 17.3783 67.6695 19.8447 67.7756 19.8792C67.9678 19.9416 68 19.5068 68.0013 16.8316C68.0027 14.0525 68.0034 14.0479 68.438 13.9439C68.5445 13.9184 68.1961 13.8976 67.6639 13.8977C67.1318 13.8979 66.8266 13.9252 66.9856 13.9582C67.162 13.995 67.319 14.1103 67.3875 14.2533C67.4586 14.4019 67.5135 15.2759 67.5368 16.6332L67.5738 18.7784L67.2654 18.4705C67.0958 18.3012 66.0345 17.1875 64.907 15.9956C63.7794 14.8038 62.8254 13.8171 62.787 13.803C62.7484 13.789 62.6871 13.8067 62.6505 13.8423ZM81.3456 14.0406C81.2895 14.1831 80.8306 15.4021 80.3259 16.7494C79.8213 18.0968 79.3445 19.2949 79.2665 19.412C79.1885 19.529 78.9844 19.6846 78.8129 19.7576C78.5162 19.8841 78.5451 19.8906 79.4205 19.8943C80.2901 19.8981 80.3253 19.8906 80.0727 19.7572C79.7678 19.5962 79.7682 19.5926 80.1947 18.3511L80.4537 17.5974L81.4156 17.5707L82.3774 17.5442L82.7617 18.56C82.9729 19.1189 83.1355 19.6503 83.1228 19.7409C83.1023 19.8875 83.1933 19.905 83.9453 19.8986C84.7293 19.8919 84.767 19.8831 84.464 19.7763C84.2843 19.713 84.058 19.5659 83.9612 19.4495C83.8015 19.2574 83.1608 17.7277 82.0313 14.8414C81.8032 14.2585 81.5785 13.7815 81.5321 13.7815C81.4857 13.7815 81.4018 13.898 81.3456 14.0406ZM85.7086 16.6248C85.7077 18.1962 85.6751 19.5253 85.636 19.5786C85.5969 19.6319 85.456 19.7244 85.323 19.7842C85.1206 19.8753 85.2396 19.8938 86.0487 19.898C86.7071 19.9014 86.97 19.8737 86.8712 19.8116C86.7913 19.7613 86.6532 19.7196 86.5642 19.7188C86.2917 19.7164 86.2138 19.2022 86.1573 17.0321L86.1034 14.9592L86.4053 15.289C87.1691 16.1228 89.9103 18.969 90.3927 19.4291C90.6884 19.7111 90.9531 19.9198 90.9806 19.8929C91.0083 19.8659 91.0639 18.5347 91.104 16.9345L91.1771 14.0252L91.419 13.9598C91.552 13.9239 91.2472 13.8966 90.7416 13.8992C90.2361 13.9018 89.939 13.9213 90.0814 13.9425C90.5594 14.0137 90.5941 14.1465 90.6275 16.0334C90.6445 16.9973 90.6445 17.9931 90.6275 18.2465L90.5965 18.7071L88.2817 16.2678C87.0085 14.9262 85.909 13.8149 85.8384 13.7981C85.7339 13.7733 85.7097 14.2991 85.7086 16.6248ZM101.395 13.9935C101.349 14.11 100.891 15.329 100.376 16.7023C99.8606 18.0756 99.375 19.2949 99.2967 19.412C99.2185 19.529 99.0141 19.6846 98.8426 19.7576C98.5459 19.8841 98.5748 19.8906 99.4502 19.8943C100.303 19.898 100.351 19.8884 100.113 19.7627C99.8779 19.6382 99.8638 19.598 99.9404 19.2718C99.9864 19.0764 100.127 18.6197 100.254 18.2569L100.484 17.5974L101.445 17.5707L102.407 17.5442L102.791 18.56C103.003 19.1189 103.165 19.6503 103.153 19.7409C103.132 19.8875 103.223 19.905 103.975 19.8986C104.773 19.8918 104.801 19.8848 104.482 19.7731C104.296 19.7081 104.053 19.5263 103.944 19.369C103.834 19.2118 103.272 17.8902 102.693 16.4323C102.115 14.9743 101.605 13.7815 101.56 13.7815C101.514 13.7815 101.44 13.8769 101.395 13.9935ZM116.529 13.8757C115.624 13.9054 114.995 13.9387 115.13 13.9498C115.603 13.9883 115.61 14.0281 115.608 16.7447C115.607 18.1464 115.582 19.3816 115.553 19.4896C115.523 19.5975 115.382 19.7308 115.24 19.7857C115.041 19.8624 115.377 19.8881 116.687 19.8958C118.604 19.907 118.508 19.9461 118.511 19.152L118.512 18.8222L118.343 19.152C118.201 19.4294 118.103 19.4951 117.729 19.5656C117.273 19.6513 116.739 19.5963 116.48 19.4368C116.363 19.3648 116.335 19.1059 116.335 18.0956V16.8436L116.916 16.8193C117.588 16.7911 117.943 16.933 118.039 17.2684L118.106 17.5032L118.117 17.2676C118.123 17.1381 118.155 16.8682 118.189 16.6679C118.248 16.3211 118.241 16.3087 118.049 16.4088C117.938 16.4666 117.496 16.5139 117.067 16.5139H116.287V15.3361V14.1584H116.991C117.773 14.1584 118.124 14.3128 118.127 14.6584C118.128 14.8263 118.146 14.8385 118.222 14.7237C118.332 14.558 118.353 13.7721 118.246 13.8015C118.206 13.8127 117.433 13.846 116.529 13.8757ZM147.879 13.8757C146.975 13.9054 146.346 13.9387 146.481 13.9498C146.955 13.9884 146.96 14.0219 146.959 16.8389C146.958 18.2925 146.925 19.5273 146.886 19.5829C146.847 19.6385 146.728 19.7233 146.622 19.7713C146.492 19.8299 146.965 19.8672 148.063 19.8846C148.961 19.8988 149.72 19.8876 149.749 19.8596C149.824 19.7869 149.936 18.869 149.87 18.8714C149.84 18.8726 149.749 19.0103 149.67 19.1776C149.548 19.4324 149.45 19.4958 149.063 19.5686C148.448 19.6843 147.922 19.5541 147.761 19.2462C147.677 19.0863 147.645 18.6629 147.662 17.9272L147.686 16.8436L148.267 16.8193C148.939 16.7911 149.294 16.933 149.39 17.2684L149.457 17.5032L149.467 17.2676C149.473 17.1381 149.506 16.8682 149.54 16.6679C149.599 16.3172 149.594 16.3077 149.393 16.4128C149.27 16.4764 148.872 16.5103 148.435 16.4943L147.686 16.4667V15.3361V14.2055L148.349 14.1774C149.099 14.1456 149.475 14.3046 149.478 14.6552C149.479 14.8252 149.497 14.8381 149.573 14.7237C149.683 14.558 149.703 13.7721 149.597 13.8015C149.557 13.8127 148.784 13.846 147.879 13.8757ZM153.008 13.8757C152.103 13.9054 151.458 13.9387 151.574 13.9498C152.076 13.9977 152.089 14.0708 152.082 16.7796C152.078 18.1622 152.043 19.3721 152.004 19.4684C151.965 19.5647 151.827 19.701 151.697 19.7713C151.49 19.883 151.67 19.8996 153.123 19.9025C154.038 19.9043 154.811 19.8669 154.841 19.8194C154.871 19.7719 154.92 19.5281 154.948 19.2776L155 18.8222L154.826 19.1492C154.684 19.4178 154.577 19.4908 154.226 19.5581C153.648 19.6693 152.986 19.5639 152.863 19.3409C152.81 19.2439 152.766 18.6316 152.766 17.9805V16.7965H153.238C154.063 16.7965 154.322 16.8854 154.444 17.2107C154.552 17.4966 154.556 17.4904 154.611 16.9378C154.674 16.314 154.656 16.2377 154.487 16.4024C154.417 16.4703 154.058 16.5139 153.569 16.5139H152.766V15.3361V14.1584L153.371 14.1597C154.206 14.1615 154.411 14.2322 154.563 14.5724C154.661 14.7915 154.695 14.8177 154.698 14.6766C154.701 14.5729 154.73 14.3292 154.763 14.1348C154.796 13.9405 154.785 13.7905 154.738 13.8015C154.691 13.8127 153.913 13.846 153.008 13.8757ZM51.6982 13.9439C52.1332 14.0479 52.1338 14.0517 52.1322 16.8316C52.1313 18.2892 52.0987 19.5253 52.0596 19.5786C52.0206 19.6319 51.8797 19.7244 51.7466 19.7842C51.546 19.8744 51.6867 19.8939 52.5691 19.898C53.2899 19.9013 53.5866 19.8734 53.4883 19.8116C53.4085 19.7613 53.2717 19.7196 53.1842 19.7188C53.0967 19.718 52.9928 19.6431 52.9532 19.5525C52.8467 19.3086 52.7833 15.1373 52.8771 14.5393C52.9454 14.1031 52.9942 14.0152 53.1988 13.9598C53.3314 13.9238 53.0045 13.8952 52.4723 13.896C51.9401 13.8969 51.5918 13.9184 51.6982 13.9439ZM105.595 13.9416C106.011 14.0367 106.03 14.1641 106.023 16.791C106.019 18.1673 105.985 19.3721 105.946 19.4684C105.907 19.5647 105.768 19.701 105.638 19.7713C105.427 19.8852 105.517 19.8993 106.465 19.901C107.187 19.9023 107.483 19.8735 107.385 19.8116C107.305 19.7613 107.162 19.7196 107.068 19.7188C106.973 19.718 106.854 19.6086 106.802 19.4757C106.749 19.3409 106.707 18.1399 106.707 16.7613C106.707 14.168 106.728 14.0363 107.143 13.9416C107.249 13.9174 106.901 13.8975 106.369 13.8975C105.836 13.8975 105.488 13.9174 105.595 13.9416ZM108.836 13.9447C109.324 14.032 109.32 14.0072 109.318 16.8316C109.318 18.2892 109.285 19.5273 109.246 19.5829C109.207 19.6385 109.088 19.7223 108.981 19.7693C108.83 19.8358 108.899 19.8612 109.296 19.8851C109.575 19.9018 110.032 19.9022 110.312 19.8858L110.82 19.856L110.481 19.7572C110.22 19.681 110.128 19.5948 110.081 19.3816C109.993 18.982 109.984 17.3804 110.07 17.3321C110.11 17.3096 110.383 17.3116 110.677 17.3365L111.212 17.3817L111.693 18.046C112.378 18.9918 112.99 19.63 113.354 19.778C113.527 19.8483 113.942 19.9028 114.276 19.8992L114.884 19.8926L114.373 19.7233C113.736 19.5118 113.646 19.433 112.597 18.1655L111.742 17.1319L112.021 16.8465C112.704 16.1473 112.909 15.1891 112.511 14.5533C112.164 13.9999 111.712 13.8782 110.046 13.8906C109.247 13.8965 108.703 13.9208 108.836 13.9447ZM129.543 13.9447C130.031 14.032 130.027 14.0072 130.025 16.8316C130.025 18.2892 129.992 19.5273 129.953 19.5829C129.914 19.6385 129.795 19.7223 129.688 19.7693C129.537 19.8358 129.606 19.8612 130.003 19.8851C130.282 19.9018 130.739 19.9022 131.019 19.8858L131.527 19.856L131.188 19.7572C130.927 19.681 130.835 19.5948 130.788 19.3816C130.7 18.982 130.691 17.3804 130.777 17.3321C130.817 17.3096 131.09 17.3116 131.384 17.3365L131.919 17.3817L132.4 18.046C133.085 18.9918 133.697 19.63 134.061 19.778C134.234 19.8483 134.649 19.9028 134.983 19.8992L135.591 19.8926L135.08 19.7233C134.443 19.5118 134.353 19.4327 133.307 18.1691L132.455 17.1391L132.799 16.769C133.238 16.2953 133.414 15.8802 133.413 15.3156C133.413 14.7222 133.139 14.2933 132.613 14.0607C132.264 13.9061 131.993 13.8814 130.753 13.8906C129.954 13.8965 129.41 13.9208 129.543 13.9447ZM136.268 13.9439C136.702 14.0477 136.704 14.0573 136.702 16.7373C136.701 18.1432 136.677 19.3816 136.647 19.4896C136.617 19.5975 136.476 19.7308 136.334 19.7857C136.126 19.866 136.284 19.8874 137.139 19.8943C137.859 19.9001 138.156 19.8733 138.058 19.8116C137.978 19.7613 137.842 19.7196 137.754 19.7188C137.667 19.718 137.562 19.6431 137.521 19.5525C137.416 19.3174 137.355 14.9486 137.451 14.4448C137.514 14.1102 137.579 14.0114 137.77 13.9595C137.902 13.9237 137.574 13.8952 137.042 13.896C136.51 13.8969 136.162 13.9184 136.268 13.9439ZM139.206 13.9698C139.385 14.0109 139.588 14.102 139.658 14.1721C139.728 14.2423 140.263 15.4657 140.848 16.8907C142.052 19.8288 142.128 20 142.221 20C142.3 20 142.862 18.7653 143.915 16.2783C144.775 14.2485 144.923 13.9977 145.293 13.943C145.438 13.9215 145.144 13.9034 144.638 13.9026C144.132 13.902 143.819 13.9201 143.942 13.943C144.065 13.9659 144.188 14.0406 144.215 14.1091C144.285 14.2858 142.543 18.7751 142.405 18.7751C142.3 18.7751 140.565 14.1298 140.642 14.0586C140.685 14.0198 140.806 13.9678 140.913 13.9429C141.019 13.9179 140.605 13.897 139.993 13.8962C139.238 13.8954 138.985 13.919 139.206 13.9698ZM58.4146 14.1175C59.0914 14.3132 59.6811 14.8848 59.9631 15.6187C60.2021 16.2408 60.2499 17.3574 60.0666 18.037C59.6435 19.606 57.8588 20.1833 56.4725 19.1998C55.2302 18.3184 54.9277 15.8716 55.9243 14.7664C56.5627 14.0584 57.4293 13.8325 58.4146 14.1175ZM111.449 14.3305C112.184 14.8505 112.237 16.4463 111.534 16.9255C111.283 17.0966 110.626 17.1282 110.245 16.9873L109.997 16.8954V15.5338C109.997 14.3181 110.015 14.167 110.167 14.1243C110.471 14.0383 111.202 14.1557 111.449 14.3305ZM132.156 14.3305C132.891 14.8505 132.944 16.4463 132.241 16.9255C131.99 17.0966 131.333 17.1282 130.952 16.9873L130.704 16.8954V15.5338C130.704 14.3181 130.722 14.167 130.874 14.1243C131.178 14.0383 131.909 14.1557 132.156 14.3305ZM81.8274 16.0725C82.047 16.6848 82.2266 17.2042 82.2266 17.2267C82.2266 17.2492 81.8518 17.2676 81.3938 17.2676C80.7683 17.2676 80.5721 17.2383 80.6054 17.1498C80.6299 17.0851 80.8133 16.5524 81.0129 15.9662C81.2125 15.3799 81.3876 14.9135 81.402 14.9297C81.4164 14.9459 81.6078 15.4602 81.8274 16.0725ZM101.859 16.0571C102.077 16.6609 102.256 17.1804 102.256 17.2113C102.256 17.2423 101.882 17.2676 101.423 17.2676C100.798 17.2676 100.602 17.2383 100.635 17.1498C100.66 17.0851 100.843 16.5524 101.043 15.9662C101.242 15.3799 101.418 14.9135 101.433 14.9297C101.449 14.9459 101.64 15.4533 101.859 16.0571ZM76.119 15.9535C76.977 16.423 77.5211 17.7951 77.1888 18.6512C76.9075 19.3762 76.1447 19.7176 75.2228 19.5313C74.8985 19.4657 74.6449 19.3572 74.5953 19.263C74.4864 19.0565 74.3622 15.8181 74.4594 15.7207C74.6039 15.576 75.7137 15.7317 76.119 15.9535Z" fill="black"/>
<path d="M1 31V16V1H16H31V16V31H16H1Z" fill="#005941"/>
<path fill-rule="evenodd" clip-rule="evenodd" d="M7.88851 15.0647C7.9079 22.6817 7.9162 23.1641 8.03355 23.5135C8.10314 23.7205 8.25729 23.9833 8.38273 24.1087C8.58722 24.3132 8.64423 24.3334 9.01715 24.3334C9.71926 24.3334 9.98831 23.9714 10.1163 22.8544C10.158 22.4905 10.1848 19.2865 10.1851 14.6225L10.1857 6.98648H10.968H11.7503V14.6764L11.7503 15.1637C11.7504 22.0961 11.7504 22.8684 11.4772 23.5273C11.4429 23.6099 11.4044 23.6907 11.361 23.7817L11.361 23.7817L11.361 23.7817L11.3366 23.8329C11.0412 24.4547 10.4592 24.968 9.83457 25.1577C8.54069 25.5508 7.30219 25.0257 6.71824 23.8365L6.68898 23.7771C6.64816 23.6945 6.61174 23.6208 6.57924 23.5453C6.31028 22.9211 6.31019 22.181 6.30934 15.3155L6.30926 14.7246L6.30811 6.98648H7.08804H7.86797L7.88851 15.0647ZM16.8204 7.09192C17.8436 7.35839 18.5753 8.1956 18.8506 9.41485C18.9989 10.0717 19.0061 12.784 18.8612 13.4674C18.7387 14.0455 18.4088 14.6717 18.0612 14.9857L17.7939 15.2272L18.1325 15.5853C18.4982 15.9719 18.7398 16.3959 18.9312 16.9865C19.0355 17.3084 19.0563 17.6963 19.0808 19.7657C19.1135 22.5373 19.067 23.0631 18.726 23.7716C18.4606 24.3231 17.9695 24.8078 17.4114 25.0695C17.0266 25.2498 17.0038 25.2521 15.3047 25.274L13.587 25.2961V16.1413V6.98648H15.0013C16.0592 6.98648 16.5176 7.01308 16.8204 7.09192ZM25.8151 8.46322C25.5406 7.94621 24.9277 7.38233 24.4227 7.18213C24.0622 7.03927 23.9008 7.02403 22.4983 7.00097C21.6563 6.98709 20.9446 6.99852 20.9167 7.02648C20.8888 7.05437 20.8659 11.1741 20.8659 16.1815V25.2858H21.6823H22.4986V21.4174V17.5491L23.3319 17.5147C24.4901 17.467 25.0653 17.2139 25.6251 16.5057C26.2292 15.7414 26.339 14.9718 26.2889 11.8525C26.2506 9.4639 26.2163 9.219 25.8151 8.46322ZM15.2192 14.7417V11.3403V7.93895H15.6296C16.3147 7.93895 16.7298 8.18296 17.0224 8.75752C17.2958 9.29446 17.3403 9.74269 17.3164 11.7145C17.2951 13.4596 17.2863 13.5681 17.1384 13.8888C16.8378 14.5409 16.5067 14.7417 15.7322 14.7417H15.2192ZM15.2192 24.4186V20.0563V15.6941L15.6104 15.6945C16.2168 15.695 16.5073 15.804 16.8519 16.16C17.4028 16.7294 17.4176 16.8223 17.4471 19.906C17.469 22.1904 17.4566 22.6602 17.363 23.0807C17.1575 24.0045 16.7566 24.3357 15.7805 24.3883L15.2192 24.4186ZM22.4975 12.3028V16.6666L23.0408 16.6247C23.6603 16.5769 23.8859 16.4815 24.1852 16.1406C24.5991 15.6692 24.6287 15.453 24.6581 12.6833C24.6755 11.0495 24.6584 10.0134 24.6089 9.69391C24.4248 8.50765 23.8826 7.94385 22.9227 7.94044L22.4975 7.93895V12.3028Z" fill="#F9F9F9"/>
</g>
</svg>
